<?xml version="1.0" encoding="UTF-8" standalone="no"?>
<svg
   xmlns:ns="&amp;ns_sfw;"
   xmlns:dc="http://purl.org/dc/elements/1.1/"
   xmlns:cc="http://creativecommons.org/ns#"
   xmlns:rdf="http://www.w3.org/1999/02/22-rdf-syntax-ns#"
   xmlns:svg="http://www.w3.org/2000/svg"
   xmlns="http://www.w3.org/2000/svg"
   xmlns:sodipodi="http://sodipodi.sourceforge.net/DTD/sodipodi-0.dtd"
   xmlns:inkscape="http://www.inkscape.org/namespaces/inkscape"
   version="1.1"
   id="레이어_1"
   x="0px"
   y="0px"
   viewBox="0 0 256 256"
   style="enable-background:new 0 0 256 256;"
   xml:space="preserve"
   sodipodi:docname="audio-input-microphone.svg"
   inkscape:version="1.0.2 (e86c870879, 2021-01-15)"><defs
   id="defs26" /><sodipodi:namedview
   pagecolor="#ffffff"
   bordercolor="#666666"
   borderopacity="1"
   objecttolerance="10"
   gridtolerance="10"
   guidetolerance="10"
   inkscape:pageopacity="0"
   inkscape:pageshadow="2"
   inkscape:window-width="1852"
   inkscape:window-height="1048"
   id="namedview24"
   showgrid="false"
   inkscape:zoom="2.317432"
   inkscape:cx="169.74516"
   inkscape:cy="145.2964"
   inkscape:window-x="68"
   inkscape:window-y="32"
   inkscape:window-maximized="1"
   inkscape:current-layer="레이어_1" />
<style
   type="text/css"
   id="style2">
	.st0{opacity:0.1;}
	.st1{fill:#60BAFF;}
	.st2{fill:#FFFFFF;}
</style>
<metadata
   id="metadata4">
	<ns:sfw>
		<ns:slices />
		<ns:sliceSourceBounds
   bottomLeftOrigin="true"
   height="255"
   width="255.1"
   x="0.4"
   y="0.5" />
	</ns:sfw>
<rdf:RDF><cc:Work
     rdf:about=""><dc:format>image/svg+xml</dc:format><dc:type
       rdf:resource="http://purl.org/dc/dcmitype/StillImage" /><dc:title></dc:title></cc:Work></rdf:RDF></metadata>
<g
   class="st0"
   id="g10">
	<g
   id="g8">
		<path
   d="M132.7,0.5c6.2,0,18.1,0.3,33.3,2.3c23.7,3.1,45.1,11.5,60.9,26.3l0,0C241.6,44.8,250,66.3,253.2,90c3,22.6,2.3,38,2.3,38    s0.7,15.4-2.3,38c-3.1,23.7-11.5,45.1-26.3,60.9l0,0c-15.7,14.8-37.2,23.2-60.9,26.3c-15.1,2-27.1,2.3-33.3,2.3    c-3.1,0-4.7-0.1-4.7-0.1s-1.7,0.1-4.7,0.1c-6.2,0-18.1-0.3-33.3-2.3c-23.7-3.1-45.1-11.5-60.9-26.3l0,0    C14.4,211.2,6,189.7,2.8,166c-3-22.6-2.3-38-2.3-38s-0.7-15.4,2.3-38C6,66.3,14.4,44.8,29.1,29.1l0,0C44.9,14.3,66.3,5.9,90,2.8    c15.2-2,27.1-2.3,33.3-2.3c3.1,0,4.7,0.1,4.7,0.1S129.7,0.5,132.7,0.5"
   id="path6" />
	</g>
</g>
<path
   id="path"
   class="st1"
   d="M251.7,90.4c-3.1-23.4-11.4-44.6-26-60.1l0,0c-15.6-14.6-36.7-22.9-60.1-26C143.2,1.3,128,2,128,2  s-15.2-0.7-37.6,2.3C67,7.4,45.8,15.7,30.3,30.3C15.7,45.8,7.5,67,4.3,90.4c-3,22.3-2.2,37.6-2.2,37.6s-0.7,15.2,2.2,37.6  c3.1,23.4,11.4,44.6,26,60.1l0,0c15.6,14.6,36.7,22.9,60.1,26c22.3,3,37.6,2.2,37.6,2.2s15.2,0.7,37.6-2.2  c23.4-3.1,44.6-11.4,60.1-26l0,0c14.6-15.6,22.9-36.7,26-60.1c3-22.3,2.2-37.6,2.2-37.6S254.7,112.8,251.7,90.4" />

<path
   d="m 106.6546,172.16474 c -2.15681,0 -4.17883,-0.40441 -6.06606,-1.21324 -1.887226,-0.80882 -3.531786,-1.91418 -4.933679,-3.31607 -1.401893,-1.40189 -2.50725,-3.04645 -3.31607,-4.93368 -0.80882,-1.88723 -1.21323,-3.90925 -1.21323,-6.06606 V 63.461445 c 0,-2.156811 0.40441,-4.178831 1.21323,-6.066058 0.80882,-1.887227 1.914177,-3.531786 3.31607,-4.933679 1.401893,-1.401893 3.046453,-2.507251 4.933679,-3.316072 1.88723,-0.808821 3.90925,-1.213232 6.06606,-1.213232 h 41.41077 c 2.15681,0 4.17883,0.404411 6.06606,1.213232 1.88723,0.808821 3.53179,1.914179 4.93368,3.316072 1.40189,1.401893 2.50725,3.046452 3.31607,4.933679 0.80882,1.887227 1.21323,3.909247 1.21323,6.066058 v 93.174245 c 0,2.15681 -0.40441,4.17883 -1.21323,6.06606 -0.80882,1.88723 -1.91418,3.53179 -3.31607,4.93368 -1.40189,1.40189 -3.04645,2.50725 -4.93368,3.31607 -1.88723,0.80883 -3.90925,1.21324 -6.06606,1.21324 z m 77.6452,-41.41078 v 29.27845 c 0,4.52931 -0.86272,8.7891 -2.58817,12.77937 -1.72545,3.99027 -4.071,7.46809 -7.03663,10.43344 -2.96563,2.96563 -6.44344,5.31118 -10.43344,7.03663 -3.99,1.72545 -8.24979,2.58817 -12.77937,2.58817 h -18.92576 v 10.35269 h 20.70539 v 10.3527 h -51.76347 v -10.3527 h 20.70539 v -10.35269 h -18.92576 c -4.529299,0 -8.789086,-0.86272 -12.779359,-2.58817 -3.990276,-1.72545 -7.468092,-4.071 -10.433449,-7.03663 -2.965633,-2.96563 -5.311174,-6.44345 -7.036623,-10.43344 -1.725449,-3.99 -2.588173,-8.24979 -2.588173,-12.77937 V 130.75396 H 80.77307 c 0,2.96563 -0.107841,6.30869 -0.323522,10.02917 -0.161778,3.72049 -0.188695,7.522 -0.08075,11.40453 0.107875,3.82836 0.458349,7.57569 1.05142,11.24199 0.647043,3.61267 1.806338,6.84789 3.477883,9.70565 1.67148,2.80385 3.963083,5.06851 6.87481,6.79396 2.965633,1.72545 6.79406,2.58817 11.485279,2.58817 h 48.20421 c 4.69108,0 8.49259,-0.86272 11.40453,-2.58817 2.96563,-1.72545 5.28422,-3.99011 6.95577,-6.79396 1.67155,-2.85776 2.80385,-6.09298 3.39692,-9.70565 0.64705,-3.66658 1.02451,-7.41391 1.13238,-11.24199 0.10787,-3.88226 0.0539,-7.65685 -0.16181,-11.32378 -0.16171,-3.72048 -0.24257,-7.09049 -0.24257,-10.11002 z"
   stroke-width="20.7054"
   id="path853"
   style="fill:#ffffff;stroke-linecap:round;stroke-linejoin:round;paint-order:stroke fill markers"
   sodipodi:nodetypes="ssssssssssssssssssssscsscssccccccccsscsscccccccssccccccc" /></svg>
