<?xml version="1.0" encoding="UTF-8" standalone="no"?>
<svg
   xmlns:dc="http://purl.org/dc/elements/1.1/"
   xmlns:cc="http://creativecommons.org/ns#"
   xmlns:rdf="http://www.w3.org/1999/02/22-rdf-syntax-ns#"
   xmlns:svg="http://www.w3.org/2000/svg"
   xmlns="http://www.w3.org/2000/svg"
   xmlns:sodipodi="http://sodipodi.sourceforge.net/DTD/sodipodi-0.dtd"
   xmlns:inkscape="http://www.inkscape.org/namespaces/inkscape"
   version="1.1"
   id="레이어_1"
   x="0px"
   y="0px"
   viewBox="0 0 256 256"
   style="enable-background:new 0 0 256 256;"
   xml:space="preserve"
   sodipodi:docname="audio-card.svg"
   inkscape:version="1.0.2 (e86c870879, 2021-01-15)"><metadata
   id="metadata15"><rdf:RDF><cc:Work
       rdf:about=""><dc:format>image/svg+xml</dc:format><dc:type
         rdf:resource="http://purl.org/dc/dcmitype/StillImage" /><dc:title /></cc:Work></rdf:RDF></metadata><defs
   id="defs13" /><sodipodi:namedview
   pagecolor="#ffffff"
   bordercolor="#666666"
   borderopacity="1"
   objecttolerance="10"
   gridtolerance="10"
   guidetolerance="10"
   inkscape:pageopacity="0"
   inkscape:pageshadow="2"
   inkscape:window-width="1852"
   inkscape:window-height="1048"
   id="namedview11"
   showgrid="false"
   inkscape:zoom="1.84375"
   inkscape:cx="-26.692319"
   inkscape:cy="199.37026"
   inkscape:window-x="68"
   inkscape:window-y="32"
   inkscape:window-maximized="1"
   inkscape:current-layer="레이어_1"
   inkscape:document-rotation="0" />
<style
   type="text/css"
   id="style2">
	.st0{fill:#999999;}
	.st1{fill:#FFFFFF;}
</style>
<path
   class="st0"
   d="M251.7,90.4c-3.1-23.4-11.4-44.6-26-60.1l0,0c-15.6-14.6-36.7-22.9-60.1-26C143.2,1.3,128,2,128,2  s-15.2-0.7-37.6,2.3C67,7.4,45.8,15.7,30.3,30.3C15.7,45.8,7.5,67,4.3,90.4c-3,22.3-2.2,37.6-2.2,37.6s-0.7,15.2,2.2,37.6  c3.1,23.4,11.4,44.6,26,60.1l0,0c15.6,14.6,36.7,22.9,60.1,26c22.3,3,37.6,2.2,37.6,2.2s15.2,0.7,37.6-2.2  c23.4-3.1,44.6-11.4,60.1-26l0,0c14.6-15.6,22.9-36.7,26-60.1c3-22.3,2.2-37.6,2.2-37.6S254.7,112.8,251.7,90.4"
   id="path4"
   style="fill:#60baff;fill-opacity:1;opacity:1" />


<path
   id="rect832"
   style="fill:#317cac;stroke-width:0.928236;fill-opacity:1"
   d="m 32.662109,66.074219 v 16 h 24 V 196.07422 h 16 c 0,-43.33333 0,-86.66667 0,-130.000001 -13.333333,0 -26.666667,0 -40,0 z"
   sodipodi:nodetypes="ccccccc" /><path
   id="rect854"
   style="fill:#ffffff;stroke-width:1.03627;fill-opacity:1"
   d="M 72.662109 80.074219 L 72.662109 180.07422 L 75.974609 180.07422 L 78.603516 180.07422 C 80.85167 180.07422 82.662109 178.2638 82.662109 176.01562 L 82.662109 172.50195 L 82.662109 170.36328 C 82.662109 167.2852 85.140669 164.80664 88.21875 164.80664 L 117.10547 164.80664 C 120.18355 164.80664 122.66211 167.2852 122.66211 170.36328 L 122.66211 176.01562 C 122.66211 178.26378 124.47255 180.07422 126.7207 180.07422 L 128.98438 180.07422 L 129.34961 180.07422 L 203.21289 180.07422 C 209.55598 180.07422 214.66211 174.96809 214.66211 168.625 L 214.66211 91.523438 C 214.66211 85.180344 209.55598 80.074219 203.21289 80.074219 L 72.662109 80.074219 z M 126.98438 94.955078 L 134.67188 94.955078 L 134.67188 106.48438 L 146.19922 106.48438 L 146.19922 94.955078 L 153.88672 94.955078 L 153.88672 106.48438 L 157.30273 106.48438 C 160.73214 106.48438 163.49414 109.24443 163.49414 112.67383 L 163.49414 115.32227 L 175.02344 115.32227 L 175.02344 123.00781 L 163.49414 123.00781 L 163.49414 134.53711 L 175.02344 134.53711 L 175.02344 142.22461 L 163.49414 142.22461 L 163.49414 146.41016 C 163.49414 149.83955 160.73214 152.59962 157.30273 152.59961 L 153.88672 152.59961 L 153.88672 164.12891 L 146.19922 164.12891 L 146.19922 152.59961 L 134.67188 152.59961 L 134.67188 164.12891 L 126.98438 164.12891 L 126.98438 152.59961 L 123.56641 152.59961 C 120.13701 152.59961 117.37695 149.83955 117.37695 146.41016 L 117.37695 142.22461 L 105.84766 142.22461 L 105.84766 134.53711 L 117.37695 134.53711 L 117.37695 123.00781 L 105.84766 123.00781 L 105.84766 115.32227 L 117.37695 115.32227 L 117.37695 112.67383 C 117.37695 109.24443 120.13701 106.48438 123.56641 106.48438 L 126.98438 106.48438 L 126.98438 94.955078 z M 125.0625 114.55469 L 125.0625 145.29883 L 155.80859 145.29883 L 155.80859 114.55469 L 125.0625 114.55469 z " /><style
   type="text/css"
   id="style865">
	.st0{fill:#0181CA;}
	.st1{fill:#FFFFFF;}
	.st2{fill:#0047B9;}
</style><style
   type="text/css"
   id="style2-5">
	.st0{fill:#0181CA;}
	.st1{fill:#FFFFFF;}
	.st2{fill:#0047B9;}
</style><path
   class="st0"
   d="m 253.02696,189.07898 c -1.23019,-9.28595 -4.52392,-17.69886 -10.31772,-23.84981 v 0 c -6.19064,-5.7938 -14.56387,-9.08754 -23.84982,-10.31773 -8.88911,-1.1905 -14.92101,-0.91272 -14.92101,-0.91272 0,0 -6.0319,-0.27778 -14.92102,0.91272 -9.28595,1.23019 -17.69886,4.52393 -23.84981,10.31773 -5.7938,6.15095 -9.04785,14.56386 -10.31773,23.84981 -1.1905,8.84943 -0.87304,14.92102 -0.87304,14.92102 0,0 -0.27778,6.0319 0.87304,14.92101 1.23019,9.28595 4.52393,17.69887 10.31773,23.84982 v 0 c 6.19063,5.7938 14.56386,9.08753 23.84981,10.31772 8.84943,1.19051 14.92102,0.87304 14.92102,0.87304 0,0 6.0319,0.27778 14.92101,-0.87304 9.28595,-1.23019 17.69887,-4.52392 23.84982,-10.31772 v 0 c 5.7938,-6.19064 9.08753,-14.56387 10.31772,-23.84982 C 254.21747,210.07158 253.9,204 253.9,204 c 0,0 0.31747,-6.0319 -0.87304,-14.92102"
   id="path4-3"
   style="fill:#327fb9;fill-opacity:1;stroke-width:0.396836;opacity:1" /><path
   id="path6"
   d="m 197.86651,177.41202 v 27.64982 a 13.333673,13.333673 0 0 0 -5.39681,-1.1409 13.333673,13.333673 0 0 0 -13.33351,13.33352 13.333673,13.333673 0 0 0 13.33351,13.33352 13.333673,13.333673 0 0 0 13.33352,-13.33352 13.333673,13.333673 0 0 0 -0.0287,-0.8735 h 0.0287 v -30.97875 c 2.10799,0.17663 6.55713,0.95797 10.35803,4.58918 3.09532,2.93659 4.20615,6.30984 4.64267,7.89718 v 9.28611 h 7.93671 v -5.95253 c -0.0397,-1.66671 -0.0797,-3.37279 -0.11936,-5.0395 -0.63494,-2.34133 -2.30119,-7.38161 -6.86479,-11.78648 -5.97635,-5.72734 -13.03314,-6.72929 -15.95326,-6.93377 v -0.0504 z"
   style="fill:#ffffff;fill-opacity:1;stroke-width:0.396836" /><circle
   class="st2"
   cx="192.46986"
   cy="217.2543"
   r="6.1906343"
   id="circle16"
   style="fill:#317cac;fill-opacity:1;stroke-width:0.396836" /><style
   type="text/css"
   id="style2-1">
	.st0{fill:#999999;}
	.st1{fill:#FFFFFF;}
</style><style
   type="text/css"
   id="style840">
	.st0{opacity:0.1;}
	.st1{fill:#60BAFF;}
	.st2{fill:#FFFFFF;}
</style></svg>
