<?xml version="1.0" encoding="UTF-8" standalone="no"?>
<svg
   xmlns:ns="&amp;ns_sfw;"
   xmlns:dc="http://purl.org/dc/elements/1.1/"
   xmlns:cc="http://creativecommons.org/ns#"
   xmlns:rdf="http://www.w3.org/1999/02/22-rdf-syntax-ns#"
   xmlns:svg="http://www.w3.org/2000/svg"
   xmlns="http://www.w3.org/2000/svg"
   xmlns:sodipodi="http://sodipodi.sourceforge.net/DTD/sodipodi-0.dtd"
   xmlns:inkscape="http://www.inkscape.org/namespaces/inkscape"
   version="1.1"
   id="레이어_1"
   x="0px"
   y="0px"
   viewBox="0 0 256 256"
   style="enable-background:new 0 0 256 256;"
   xml:space="preserve"
   sodipodi:docname="audio-headphones.svg"
   inkscape:version="1.0.2 (e86c870879, 2021-01-15)"><defs
   id="defs19" /><sodipodi:namedview
   pagecolor="#ffffff"
   bordercolor="#666666"
   borderopacity="1"
   objecttolerance="10"
   gridtolerance="10"
   guidetolerance="10"
   inkscape:pageopacity="0"
   inkscape:pageshadow="2"
   inkscape:window-width="1852"
   inkscape:window-height="1048"
   id="namedview17"
   showgrid="false"
   inkscape:zoom="3.2773438"
   inkscape:cx="128.61025"
   inkscape:cy="128"
   inkscape:window-x="68"
   inkscape:window-y="32"
   inkscape:window-maximized="1"
   inkscape:current-layer="레이어_1" />
<style
   type="text/css"
   id="style2">
	.st0{opacity:0.1;}
	.st1{fill:#60BAFF;}
	.st2{fill:#FFFFFF;}
</style>
<metadata
   id="metadata4">
	<ns:sfw>
		<ns:slices />
		<ns:sliceSourceBounds
   bottomLeftOrigin="true"
   height="255"
   width="255.1"
   x="0.4"
   y="0.5" />
	</ns:sfw>
<rdf:RDF><cc:Work
     rdf:about=""><dc:format>image/svg+xml</dc:format><dc:type
       rdf:resource="http://purl.org/dc/dcmitype/StillImage" /></cc:Work></rdf:RDF></metadata>
<g
   class="st0"
   id="g10">
	<g
   id="g8">
		<path
   d="M132.7,0.5c6.2,0,18.1,0.3,33.3,2.3c23.7,3.1,45.1,11.5,60.9,26.3l0,0C241.6,44.8,250,66.3,253.2,90c3,22.6,2.3,38,2.3,38    s0.7,15.4-2.3,38c-3.1,23.7-11.5,45.1-26.3,60.9l0,0c-15.7,14.8-37.2,23.2-60.9,26.3c-15.1,2-27.1,2.3-33.3,2.3    c-3.1,0-4.7-0.1-4.7-0.1s-1.7,0.1-4.7,0.1c-6.2,0-18.1-0.3-33.3-2.3c-23.7-3.1-45.1-11.5-60.9-26.3l0,0    C14.4,211.2,6,189.7,2.8,166c-3-22.6-2.3-38-2.3-38s-0.7-15.4,2.3-38C6,66.3,14.4,44.8,29.1,29.1l0,0C44.9,14.3,66.3,5.9,90,2.8    c15.2-2,27.1-2.3,33.3-2.3c3.1,0,4.7,0.1,4.7,0.1S129.7,0.5,132.7,0.5"
   id="path6" />
	</g>
</g>
<path
   class="st1"
   d="M251.7,90.4c-3.1-23.4-11.4-44.6-26-60.1l0,0c-15.6-14.6-36.7-22.9-60.1-26C143.2,1.3,128,2,128,2  s-15.2-0.7-37.6,2.3C67,7.4,45.8,15.7,30.3,30.3C15.7,45.8,7.5,67,4.3,90.4c-3,22.3-2.2,37.6-2.2,37.6s-0.7,15.2,2.2,37.6  c3.1,23.4,11.4,44.6,26,60.1l0,0c15.6,14.6,36.7,22.9,60.1,26c22.3,3,37.6,2.2,37.6,2.2s15.2,0.7,37.6-2.2  c23.4-3.1,44.6-11.4,60.1-26l0,0c14.6-15.6,22.9-36.7,26-60.1c3-22.3,2.2-37.6,2.2-37.6S254.7,112.8,251.7,90.4"
   id="path12" />
<path
   class="st2"
   d="M208.5,114.8C206,72.5,170.4,39,128,39s-78,33.5-80.5,75.8h-0.2c0,21.9,0,43.9,0,65.8  c0,10.1,8.2,18.3,18.3,18.3c10.1,0,18.3-8.2,18.3-18.3v-40.3c0.1-1,0.7-8.8-5-14.1c-4.8-4.5-11-4.3-13.3-4.2  c-3.2,0.1-5.7,0.9-7.3,1.5c-0.2-4.3-0.9-33.1,22-54.7C83,66.4,101.9,50,128,50c36.9,0,67,28.6,69.5,64.8h0.2v8.7  c-1.6-0.6-4.2-1.4-7.3-1.5c-2.3-0.1-8.2-0.3-12.9,3.7c-6.2,5.2-5.6,13.7-5.5,14.6c0,13.4,0,26.9,0,40.3c0,10.1,8.2,18.3,18.3,18.3  c10.1,0,18.3-8.2,18.3-18.3C208.6,158.7,208.6,136.8,208.5,114.8z M65.7,133c4.1,0,7.3,3.3,7.3,7.3v40.3c0,4.1-3.3,7.3-7.3,7.3  c-4.1,0-7.3-3.3-7.3-7.3v-39.4v-0.9C58.3,136.3,61.6,133,65.7,133z M197.7,180.7c0,4.1-3.3,7.3-7.3,7.3c-4.1,0-7.3-3.3-7.3-7.3  v-40.3c0-4.1,3.3-7.3,7.3-7.3c4.1,0,7.3,3.3,7.3,7.3V180.7z"
   id="path14" />
<rect
   style="fill:#0070c5;stroke-width:3.92298;fill-opacity:1"
   id="rect844"
   width="38"
   height="78"
   x="47.299999"
   y="121"
   ry="19" /><rect
   style="fill:#0070c5;fill-opacity:1;stroke-width:3.92298"
   id="rect844-3"
   width="38"
   height="78"
   x="171.3"
   y="121"
   ry="19" /></svg>
