<?xml version="1.0" encoding="UTF-8" standalone="no"?>
<svg
   xmlns:dc="http://purl.org/dc/elements/1.1/"
   xmlns:cc="http://creativecommons.org/ns#"
   xmlns:rdf="http://www.w3.org/1999/02/22-rdf-syntax-ns#"
   xmlns:svg="http://www.w3.org/2000/svg"
   xmlns="http://www.w3.org/2000/svg"
   xmlns:xlink="http://www.w3.org/1999/xlink"
   xmlns:sodipodi="http://sodipodi.sourceforge.net/DTD/sodipodi-0.dtd"
   xmlns:inkscape="http://www.inkscape.org/namespaces/inkscape"
   version="1.1"
   id="레이어_1"
   x="0px"
   y="0px"
   viewBox="0 0 256 256"
   style="enable-background:new 0 0 256 256;"
   xml:space="preserve"
   sodipodi:docname="camera-video.svg"
   inkscape:version="1.0.2 (e86c870879, 2021-01-15)"><metadata
   id="metadata57"><rdf:RDF><cc:Work
       rdf:about=""><dc:format>image/svg+xml</dc:format><dc:type
         rdf:resource="http://purl.org/dc/dcmitype/StillImage" /><dc:title></dc:title></cc:Work></rdf:RDF></metadata><defs
   id="defs55">
	
	

		
		
		
	
			
			
			
		
				<defs
   id="defs19">
					<path
   id="SVGID_3_"
   d="M 251.7,90.4 C 248.6,67 240.3,45.8 225.7,30.2 v 0 C 210.2,15.6 189,7.3 165.6,4.2 143.2,1.3 128,2 128,2 128,2 112.8,1.3 90.4,4.2 67,7.4 45.8,15.7 30.3,30.3 15.7,45.8 7.4,67 4.3,90.4 1.3,112.8 2.1,128 2.1,128 c 0,0 -0.7,15.2 2.2,37.6 3.1,23.4 11.4,44.6 26,60.1 v 0 c 15.5,14.6 36.7,22.9 60.1,26 22.3,3 37.6,2.2 37.6,2.2 0,0 15.2,0.7 37.6,-2.2 23.4,-3.1 44.6,-11.4 60.1,-26 v 0 c 14.6,-15.5 22.9,-36.7 26,-60.1 3,-22.4 2.2,-37.6 2.2,-37.6 0,0 0.7,-15.2 -2.2,-37.6" />
				</defs>
				
				<clipPath
   id="SVGID_4_">
					<use
   xlink:href="#SVGID_3_"
   style="overflow:visible"
   id="use23"
   x="0"
   y="0"
   width="100%"
   height="100%" />
				</clipPath>
				
			
			
			
			
		</defs><sodipodi:namedview
   pagecolor="#ffffff"
   bordercolor="#666666"
   borderopacity="1"
   objecttolerance="10"
   gridtolerance="10"
   guidetolerance="10"
   inkscape:pageopacity="0"
   inkscape:pageshadow="2"
   inkscape:window-width="1852"
   inkscape:window-height="1048"
   id="namedview53"
   showgrid="false"
   inkscape:zoom="1.6386719"
   inkscape:cx="51.204442"
   inkscape:cy="162.06377"
   inkscape:window-x="68"
   inkscape:window-y="32"
   inkscape:window-maximized="1"
   inkscape:current-layer="레이어_1" />
<style
   type="text/css"
   id="style2">
	.st0{opacity:0.1;}
	.st1{clip-path:url(#SVGID_4_);fill:#EF1346;}
	.st2{fill:#FFFFFF;}
	.st3{fill:#9F0028;}
	.st4{fill:#EF1346;}
</style>
<path
   id="use21"
   d="m 254.28503,90.996872 c -3.1,-23.4 -11.4,-44.6 -26,-60.2 v 0 c -15.5,-14.6 -36.7,-22.8999994 -60.1,-25.9999994 -22.4,-2.9 -37.6,-2.2 -37.6,-2.2 0,0 -15.2,-0.7 -37.600002,2.2 -23.4,3.2 -44.6,11.4999994 -60.1,26.0999994 -14.6,15.5 -22.8999995,36.7 -25.9999995,60.1 -3,22.399998 -2.2,37.599998 -2.2,37.599998 0,0 -0.7,15.2 2.2,37.6 3.1,23.4 11.3999995,44.6 25.9999995,60.1 v 0 c 15.5,14.6 36.7,22.9 60.1,26 22.300002,3 37.600002,2.2 37.600002,2.2 0,0 15.2,0.7 37.6,-2.2 23.4,-3.1 44.6,-11.4 60.1,-26 v 0 c 14.6,-15.5 22.9,-36.7 26,-60.1 3,-22.4 2.2,-37.6 2.2,-37.6 0,0 0.7,-15.2 -2.2,-37.599998"
   style="fill:#964ebc;fill-opacity:1" />

<path
   id="rect968"
   style="fill:#ffffff;fill-opacity:1;stroke-width:0.909747"
   d="m 63.540281,75.53202 h 85.561039 c 7.8387,0 14.14928,6.31058 14.14928,14.149282 v 80.139158 c 0,7.8387 -6.31058,14.14927 -14.14928,14.14927 H 63.540281 c -7.838702,0 -14.149282,-6.31057 -14.149282,-14.14927 V 89.681302 c 0,-7.838702 6.31058,-14.149282 14.149282,-14.149282 z" /><path
   id="path975"
   style="fill:#ffffff;fill-opacity:1;stroke-width:0.747059"
   inkscape:transform-center-x="6.5609804"
   inkscape:transform-center-y="2.1038721"
   d="m 205.69346,75.035156 c -0.98572,4.33e-4 -1.9306,0.39412 -2.62446,1.094261 l -29.73036,27.568313 v 51.11257 l 29.73036,27.56831 c 0.69386,0.70014 1.63874,1.09383 2.62446,1.09426 2.04236,4.1e-4 3.69795,-1.65518 3.69754,-3.69754 V 78.732699 c 4.1e-4,-2.042356 -1.65519,-3.697951 -3.69754,-3.697543 z m -42.47497,38.046744 -17.4411,16.17212 17.4411,16.17211 z" /></svg>
