<?xml version="1.0" encoding="UTF-8" standalone="no"?>
<svg
   xmlns:dc="http://purl.org/dc/elements/1.1/"
   xmlns:cc="http://creativecommons.org/ns#"
   xmlns:rdf="http://www.w3.org/1999/02/22-rdf-syntax-ns#"
   xmlns:svg="http://www.w3.org/2000/svg"
   xmlns="http://www.w3.org/2000/svg"
   xmlns:xlink="http://www.w3.org/1999/xlink"
   xmlns:sodipodi="http://sodipodi.sourceforge.net/DTD/sodipodi-0.dtd"
   xmlns:inkscape="http://www.inkscape.org/namespaces/inkscape"
   version="1.1"
   id="레이어_1"
   x="0px"
   y="0px"
   viewBox="0 0 256 256"
   style="enable-background:new 0 0 256 256;"
   xml:space="preserve"
   sodipodi:docname="camera-photo.svg"
   inkscape:version="1.0.2 (e86c870879, 2021-01-15)"><metadata
   id="metadata57"><rdf:RDF><cc:Work
       rdf:about=""><dc:format>image/svg+xml</dc:format><dc:type
         rdf:resource="http://purl.org/dc/dcmitype/StillImage" /></cc:Work></rdf:RDF></metadata><defs
   id="defs55">
	
	

		
		
		
	
			
			
			
		
				<defs
   id="defs19">
					<path
   id="SVGID_3_"
   d="M 251.7,90.4 C 248.6,67 240.3,45.8 225.7,30.2 v 0 C 210.2,15.6 189,7.3 165.6,4.2 143.2,1.3 128,2 128,2 128,2 112.8,1.3 90.4,4.2 67,7.4 45.8,15.7 30.3,30.3 15.7,45.8 7.4,67 4.3,90.4 1.3,112.8 2.1,128 2.1,128 c 0,0 -0.7,15.2 2.2,37.6 3.1,23.4 11.4,44.6 26,60.1 v 0 c 15.5,14.6 36.7,22.9 60.1,26 22.3,3 37.6,2.2 37.6,2.2 0,0 15.2,0.7 37.6,-2.2 23.4,-3.1 44.6,-11.4 60.1,-26 v 0 c 14.6,-15.5 22.9,-36.7 26,-60.1 3,-22.4 2.2,-37.6 2.2,-37.6 0,0 0.7,-15.2 -2.2,-37.6" />
				</defs>
				
				<clipPath
   id="SVGID_4_">
					<use
   xlink:href="#SVGID_3_"
   style="overflow:visible"
   id="use23"
   x="0"
   y="0"
   width="100%"
   height="100%" />
				</clipPath>
				
			
			
			
			
		</defs><sodipodi:namedview
   pagecolor="#ffffff"
   bordercolor="#666666"
   borderopacity="1"
   objecttolerance="10"
   gridtolerance="10"
   guidetolerance="10"
   inkscape:pageopacity="0"
   inkscape:pageshadow="2"
   inkscape:window-width="1852"
   inkscape:window-height="1048"
   id="namedview53"
   showgrid="false"
   inkscape:zoom="3.2773438"
   inkscape:cx="128.61025"
   inkscape:cy="115.79499"
   inkscape:window-x="68"
   inkscape:window-y="32"
   inkscape:window-maximized="1"
   inkscape:current-layer="레이어_1"
   inkscape:document-rotation="0" />
<style
   type="text/css"
   id="style2">
	.st0{opacity:0.1;}
	.st1{clip-path:url(#SVGID_4_);fill:#EF1346;}
	.st2{fill:#FFFFFF;}
	.st3{fill:#9F0028;}
	.st4{fill:#EF1346;}
</style>
<path
   id="use21"
   d="m 251.7,90.477202 c -3.1,-23.4 -11.4,-44.6 -26,-60.2 v 0 c -15.5,-14.6 -36.7,-22.8999997 -60.1,-25.9999997 -22.4,-2.9 -37.6,-2.2 -37.6,-2.2 0,0 -15.2,-0.7 -37.6,2.2 -23.4,3.2 -44.6,11.4999997 -60.1,26.0999997 -14.6,15.5 -22.9,36.7 -26,60.1 -3,22.399998 -2.2,37.599998 -2.2,37.599998 0,0 -0.7,15.2 2.2,37.6 3.1,23.4 11.4,44.6 26,60.1 v 0 c 15.5,14.6 36.7,22.9 60.1,26 22.3,3 37.6,2.2 37.6,2.2 0,0 15.2,0.7 37.6,-2.2 23.4,-3.1 44.6,-11.4 60.1,-26 v 0 c 14.6,-15.5 22.9,-36.7 26,-60.1 3,-22.4 2.2,-37.6 2.2,-37.6 0,0 0.7,-15.2 -2.2,-37.599998"
   style="fill:#964ebc;fill-opacity:1" /><path
   id="path40"
   d="M 72.900391 69.976562 C 59.200391 69.976562 48 81.076953 48 94.876953 L 48 161.27734 C 48 174.97734 59.100391 186.17773 72.900391 186.17773 L 183.09961 186.17773 C 196.79961 186.17773 208.00039 174.97773 207.90039 161.17773 L 207.90039 94.876953 C 207.90039 81.176953 196.8 69.976562 183 69.976562 L 72.900391 69.976562 z M 176.09961 85.578125 A 15.6 15.6 0 0 1 191.69922 101.17773 A 15.6 15.6 0 0 1 176.09961 116.77734 A 15.6 15.6 0 0 1 160.5 101.17773 A 15.6 15.6 0 0 1 176.09961 85.578125 z "
   style="fill:#ffffff;fill-opacity:1" /><path
   id="circle42"
   style="fill:#522969;fill-opacity:1"
   d="m 154.9,128.07721 a 26.9,26.9 0 0 1 -26.9,26.9 26.9,26.9 0 0 1 -26.9,-26.9 26.9,26.9 0 0 1 26.9,-26.9 26.9,26.9 0 0 1 26.9,26.9 z"
   class="st3" />

</svg>
