<?xml version="1.0" encoding="UTF-8" standalone="no"?>
<svg
   xmlns:dc="http://purl.org/dc/elements/1.1/"
   xmlns:cc="http://creativecommons.org/ns#"
   xmlns:rdf="http://www.w3.org/1999/02/22-rdf-syntax-ns#"
   xmlns:svg="http://www.w3.org/2000/svg"
   xmlns="http://www.w3.org/2000/svg"
   xmlns:sodipodi="http://sodipodi.sourceforge.net/DTD/sodipodi-0.dtd"
   xmlns:inkscape="http://www.inkscape.org/namespaces/inkscape"
   version="1.1"
   id="레이어_1"
   x="0px"
   y="0px"
   viewBox="0 0 256 256"
   style="enable-background:new 0 0 256 256;"
   xml:space="preserve"
   sodipodi:docname="computer.svg"
   inkscape:version="1.0.2 (e86c870879, 2021-01-15)"><metadata
   id="metadata15"><rdf:RDF><cc:Work
       rdf:about=""><dc:format>image/svg+xml</dc:format><dc:type
         rdf:resource="http://purl.org/dc/dcmitype/StillImage" /><dc:title></dc:title></cc:Work></rdf:RDF></metadata><defs
   id="defs13">
	
</defs><sodipodi:namedview
   pagecolor="#ffffff"
   bordercolor="#666666"
   borderopacity="1"
   objecttolerance="10"
   gridtolerance="10"
   guidetolerance="10"
   inkscape:pageopacity="0"
   inkscape:pageshadow="2"
   inkscape:window-width="1852"
   inkscape:window-height="1048"
   id="namedview11"
   showgrid="false"
   inkscape:zoom="1.3037281"
   inkscape:cx="183.99297"
   inkscape:cy="117.7649"
   inkscape:window-x="68"
   inkscape:window-y="32"
   inkscape:window-maximized="1"
   inkscape:current-layer="레이어_1"
   inkscape:document-rotation="0"
   showguides="false" />
<style
   type="text/css"
   id="style2">
	.st0{fill:#48C2C5;}
	.st1{fill:#FFFFFF;}
</style>
<path
   class="st0"
   d="M251.7,90.4c-3.1-23.4-11.4-44.6-26-60.1l0,0c-15.6-14.6-36.7-22.9-60.1-26C143.2,1.3,128,2,128,2  s-15.2-0.7-37.6,2.3C67,7.4,45.8,15.7,30.3,30.3C15.7,45.8,7.5,67,4.3,90.4c-3,22.3-2.2,37.6-2.2,37.6s-0.7,15.2,2.2,37.6  c3.1,23.4,11.4,44.6,26,60.1l0,0c15.6,14.6,36.7,22.9,60.1,26c22.3,3,37.6,2.2,37.6,2.2s15.2,0.7,37.6-2.2  c23.4-3.1,44.6-11.4,60.1-26l0,0c14.6-15.6,22.9-36.7,26-60.1c3-22.3,2.2-37.6,2.2-37.6S254.7,112.8,251.7,90.4"
   id="path4"
   style="fill:#6876e7;fill-opacity:1" />

<path
   id="path14"
   style="fill:#ffffff;fill-opacity:1;stroke-width:0.93087"
   d="M 53.998047 69.59375 C 44.875528 69.59375 37.521484 76.947778 37.521484 86.070312 L 37.521484 150.30078 C 37.521484 159.42331 44.875528 166.77734 53.998047 166.77734 L 141.67773 166.77734 L 141.67773 69.59375 L 53.998047 69.59375 z " /><style
   type="text/css"
   id="style2-5">
	.st0{fill:#48C2C5;}
	.st1{fill:#FFFFFF;}
</style><path
   id="path12-9"
   style="fill:#ffffff;fill-opacity:1;stroke-width:0.856544"
   d="m 56.785156,177.00792 c -3.340521,0 -5.995806,2.74094 -5.995806,5.9958 0,3.34053 2.74094,5.99581 5.995806,5.99581 h 3.010499 14.510855 61.35781 c 3.34053,0 5.99581,-2.65527 5.99581,-5.99581 0,-3.34052 -2.74094,-5.9958 -5.99581,-5.9958 H 74.30651 59.795655 Z" /><rect
   style="fill:#4955bb;fill-opacity:1;stroke-width:4"
   id="rect969"
   width="26.659031"
   height="74.136818"
   x="156.79041"
   y="57.02084" /><path
   id="rect955"
   style="fill:#ffffff;fill-opacity:1;stroke-width:4"
   d="M 159.57617 50.587891 C 155.33062 50.587891 151.91211 54.006398 151.91211 58.251953 L 151.91211 197.31836 C 151.91211 201.56391 155.33062 204.98047 159.57617 204.98047 L 209.02344 204.98047 C 213.269 204.98047 216.6875 201.56391 216.6875 197.31836 L 216.6875 58.251953 C 216.6875 54.006398 213.269 50.587891 209.02344 50.587891 L 159.57617 50.587891 z M 164.81641 64.521484 L 173.19336 64.521484 C 175.03243 64.521484 176.51367 66.000776 176.51367 67.839844 L 176.51367 120.59766 C 176.51367 122.43673 175.03243 123.91602 173.19336 123.91602 L 164.81641 123.91602 C 162.97734 123.91602 161.49609 122.43673 161.49609 120.59766 L 161.49609 67.839844 C 161.49609 66.000776 162.97734 64.521484 164.81641 64.521484 z M 168.91992 134.44922 A 7.5085001 7.5085001 0 0 1 168.96289 134.44922 A 7.5085001 7.5085001 0 0 1 176.4707 141.95703 A 7.5085001 7.5085001 0 0 1 168.96289 149.46484 A 7.5085001 7.5085001 0 0 1 161.45508 141.95703 A 7.5085001 7.5085001 0 0 1 168.91992 134.44922 z " /></svg>
