<?xml version="1.0" encoding="UTF-8" standalone="no"?>
<svg
   xmlns:dc="http://purl.org/dc/elements/1.1/"
   xmlns:cc="http://creativecommons.org/ns#"
   xmlns:rdf="http://www.w3.org/1999/02/22-rdf-syntax-ns#"
   xmlns:svg="http://www.w3.org/2000/svg"
   xmlns="http://www.w3.org/2000/svg"
   xmlns:sodipodi="http://sodipodi.sourceforge.net/DTD/sodipodi-0.dtd"
   xmlns:inkscape="http://www.inkscape.org/namespaces/inkscape"
   version="1.1"
   id="레이어_1"
   x="0px"
   y="0px"
   viewBox="0 0 256 256"
   style="enable-background:new 0 0 256 256;"
   xml:space="preserve"
   sodipodi:docname="display.svg"
   inkscape:version="1.0.2 (e86c870879, 2021-01-15)"><metadata
   id="metadata15"><rdf:RDF><cc:Work
       rdf:about=""><dc:format>image/svg+xml</dc:format><dc:type
         rdf:resource="http://purl.org/dc/dcmitype/StillImage" /><dc:title></dc:title></cc:Work></rdf:RDF></metadata><defs
   id="defs13">
	
</defs><sodipodi:namedview
   pagecolor="#ffffff"
   bordercolor="#666666"
   borderopacity="1"
   objecttolerance="10"
   gridtolerance="10"
   guidetolerance="10"
   inkscape:pageopacity="0"
   inkscape:pageshadow="2"
   inkscape:window-width="1852"
   inkscape:window-height="1048"
   id="namedview11"
   showgrid="false"
   inkscape:zoom="0.921875"
   inkscape:cx="3.2542373"
   inkscape:cy="128"
   inkscape:window-x="68"
   inkscape:window-y="32"
   inkscape:window-maximized="1"
   inkscape:current-layer="레이어_1"
   inkscape:document-rotation="0"
   showguides="false" />
<style
   type="text/css"
   id="style2">
	.st0{fill:#48C2C5;}
	.st1{fill:#FFFFFF;}
</style>
<path
   class="st0"
   d="M251.7,90.4c-3.1-23.4-11.4-44.6-26-60.1l0,0c-15.6-14.6-36.7-22.9-60.1-26C143.2,1.3,128,2,128,2  s-15.2-0.7-37.6,2.3C67,7.4,45.8,15.7,30.3,30.3C15.7,45.8,7.5,67,4.3,90.4c-3,22.3-2.2,37.6-2.2,37.6s-0.7,15.2,2.2,37.6  c3.1,23.4,11.4,44.6,26,60.1l0,0c15.6,14.6,36.7,22.9,60.1,26c22.3,3,37.6,2.2,37.6,2.2s15.2,0.7,37.6-2.2  c23.4-3.1,44.6-11.4,60.1-26l0,0c14.6-15.6,22.9-36.7,26-60.1c3-22.3,2.2-37.6,2.2-37.6S254.7,112.8,251.7,90.4"
   id="path4"
   style="fill:#6876e7;fill-opacity:1" />

<g
   id="레이어_1-3"
   data-name="레이어 1"
   style="fill:#ffffff;fill-opacity:1"
   transform="matrix(11.428571,0,0,11.428571,37.685733,42.994583)"><path
     class="cls-1"
     d="M 14.38,2 H 1.62 A 0.62,0.62 0 0 0 1,2.58 v 8.26 a 0.62,0.62 0 0 0 0.62,0.62 H 7.5 v 0.66 L 4,13.06 a 0.5,0.5 0 0 0 -0.36,0.61 0.51,0.51 0 0 0 0.62,0.35 L 8,13 l 3.73,1 a 0.51,0.51 0 0 0 0.62,-0.35 0.5,0.5 0 0 0 -0.36,-0.61 L 8.5,12.12 v -0.66 h 5.88 A 0.62,0.62 0 0 0 15,10.84 V 2.58 A 0.62,0.62 0 0 0 14.38,2 Z M 14,10.19 a 0.27,0.27 0 0 1 -0.27,0.27 H 2.27 A 0.27,0.27 0 0 1 2,10.19 v -7 A 0.27,0.27 0 0 1 2.27,3 H 13.73 A 0.27,0.27 0 0 1 14,3.27 Z"
     id="path8"
     inkscape:connector-curvature="0"
     style="fill:#ffffff;fill-opacity:1" /></g></svg>
