<?xml version="1.0" encoding="UTF-8" standalone="no"?>
<!-- Generator: Adobe Illustrator 23.0.0, SVG Export Plug-In . SVG Version: 6.00 Build 0)  -->

<svg
   xmlns:ns="&amp;#38;ns_sfw;"
   xmlns:dc="http://purl.org/dc/elements/1.1/"
   xmlns:cc="http://creativecommons.org/ns#"
   xmlns:rdf="http://www.w3.org/1999/02/22-rdf-syntax-ns#"
   xmlns:svg="http://www.w3.org/2000/svg"
   xmlns="http://www.w3.org/2000/svg"
   xmlns:sodipodi="http://sodipodi.sourceforge.net/DTD/sodipodi-0.dtd"
   xmlns:inkscape="http://www.inkscape.org/namespaces/inkscape"
   version="1.1"
   id="레이어_1"
   x="0px"
   y="0px"
   viewBox="0 0 256 256"
   style="enable-background:new 0 0 256 256;"
   xml:space="preserve"
   sodipodi:docname="drive-optical.svg"
   inkscape:version="0.92.5 (2060ec1f9f, 2020-04-08)"><defs
   id="defs25" /><sodipodi:namedview
   pagecolor="#ffffff"
   bordercolor="#666666"
   borderopacity="1"
   objecttolerance="10"
   gridtolerance="10"
   guidetolerance="10"
   inkscape:pageopacity="0"
   inkscape:pageshadow="2"
   inkscape:window-width="1920"
   inkscape:window-height="1004"
   id="namedview23"
   showgrid="false"
   inkscape:zoom="1.3037281"
   inkscape:cx="-29.319809"
   inkscape:cy="180.33307"
   inkscape:window-x="0"
   inkscape:window-y="0"
   inkscape:window-maximized="1"
   inkscape:current-layer="레이어_1" />
<style
   type="text/css"
   id="style2">
	.st0{fill:#999999;}
	.st1{fill:#FAFAFA;}
	.st2{fill-rule:evenodd;clip-rule:evenodd;fill:#FFFFFF;}
</style>
<metadata
   id="metadata4">
	<ns:sfw>
		<ns:slices />
		<ns:sliceSourceBounds
   bottomLeftOrigin="true"
   height="322.9"
   width="360"
   x="-106"
   y="-68.8" />
	</ns:sfw>
<rdf:RDF><cc:Work
     rdf:about=""><dc:format>image/svg+xml</dc:format><dc:type
       rdf:resource="http://purl.org/dc/dcmitype/StillImage" /><dc:title /></cc:Work></rdf:RDF></metadata>
<path
   class="st0"
   d="M251.7,90.4c-3.1-23.4-11.4-44.6-26-60.1l0,0c-15.6-14.6-36.7-22.9-60.1-26C143.2,1.3,128,2,128,2  s-15.2-0.7-37.6,2.3C67,7.4,45.8,15.7,30.3,30.3C15.7,45.8,7.5,67,4.3,90.4c-3,22.3-2.2,37.6-2.2,37.6s-0.7,15.2,2.2,37.6  c3.1,23.4,11.4,44.6,26,60.1l0,0c15.6,14.6,36.7,22.9,60.1,26c22.3,3,37.6,2.2,37.6,2.2s15.2,0.7,37.6-2.2  c23.4-3.1,44.6-11.4,60.1-26l0,0c14.6-15.6,22.9-36.7,26-60.1c3-22.3,2.2-37.6,2.2-37.6S254.7,112.8,251.7,90.4"
   id="path6" />





<path
   style="opacity:1;fill:#ffffff;fill-opacity:1;stroke-width:0.87412101"
   d="m 128,48.304686 a 80.000001,80.000001 0 0 0 -80,80.000004 80.000001,80.000001 0 0 0 80,80 80.000001,80.000001 0 0 0 80,-80 80.000001,80.000001 0 0 0 -80,-80.000004 z m 0,35.555556 A 44.444445,44.444445 0 0 1 172.44445,128.30469 44.444445,44.444445 0 0 1 128,172.74913 44.444445,44.444445 0 0 1 83.555556,128.30469 44.444445,44.444445 0 0 1 128,83.860242 Z"
   id="path814"
   inkscape:connector-curvature="0" /><path
   style="opacity:1;fill:#cccccc;fill-opacity:1;stroke-width:0.48562279"
   d="m 128.06424,83.860242 a 44.444445,44.444445 0 0 0 -44.444448,44.444448 44.444445,44.444445 0 0 0 44.444448,44.44444 44.444445,44.444445 0 0 0 44.44445,-44.44444 44.444445,44.444445 0 0 0 -44.44445,-44.444448 z m -0.0642,17.777778 a 26.666667,26.666667 0 0 1 26.66667,26.66667 26.666667,26.666667 0 0 1 -26.66667,26.66667 26.666667,26.666667 0 0 1 -26.66666,-26.66667 26.666667,26.666667 0 0 1 26.66666,-26.66667 z"
   id="path814-3-6"
   inkscape:connector-curvature="0" /></svg>