<?xml version="1.0" encoding="utf-8"?>
<!-- Generator: Adobe Illustrator 23.0.0, SVG Export Plug-In . SVG Version: 6.00 Build 0)  -->
<svg version="1.1" id="레이어_1" xmlns="http://www.w3.org/2000/svg" xmlns:xlink="http://www.w3.org/1999/xlink" x="0px"
	 y="0px" viewBox="0 0 256 256" style="enable-background:new 0 0 256 256;" xml:space="preserve">
<style type="text/css">
	.st0{opacity:0.1;}
	.st1{fill:#999999;}
	.st2{fill:#FFFFFF;}
</style>
<g class="st0">
	<g>
		<path d="M132.7,0.5c6.2,0,18.1,0.3,33.3,2.3c23.7,3.1,45.1,11.5,60.9,26.3h0C241.6,44.8,250,66.3,253.2,90c3,22.6,2.3,38,2.3,38
			s0.7,15.4-2.3,38c-3.1,23.7-11.5,45.1-26.3,60.9l0,0c-15.7,14.8-37.2,23.2-60.9,26.3c-15.1,2-27.1,2.3-33.3,2.3
			c-3.1,0-4.7-0.1-4.7-0.1s-1.7,0.1-4.7,0.1c-6.2,0-18.1-0.3-33.3-2.3c-23.7-3.1-45.1-11.5-60.9-26.3l0,0
			C14.4,211.2,6,189.7,2.8,166c-3-22.6-2.3-38-2.3-38s-0.7-15.4,2.3-38C6,66.3,14.4,44.8,29.1,29.1h0C44.9,14.3,66.3,5.9,90,2.8
			c15.2-2,27.1-2.3,33.3-2.3c3.1,0,4.7,0.1,4.7,0.1S129.7,0.5,132.7,0.5"/>
	</g>
</g>
<path class="st1" d="M251.7,90.4c-3.1-23.4-11.4-44.6-26-60.1l0,0c-15.6-14.6-36.7-22.9-60.1-26C143.2,1.3,128,2,128,2
	s-15.2-0.7-37.6,2.3C67,7.4,45.8,15.7,30.3,30.3C15.7,45.8,7.5,67,4.3,90.4c-3,22.3-2.2,37.6-2.2,37.6s-0.7,15.2,2.2,37.6
	c3.1,23.4,11.4,44.6,26,60.1l0,0c15.6,14.6,36.7,22.9,60.1,26c22.3,3,37.6,2.2,37.6,2.2s15.2,0.7,37.6-2.2
	c23.4-3.1,44.6-11.4,60.1-26l0,0c14.6-15.6,22.9-36.7,26-60.1c3-22.3,2.2-37.6,2.2-37.6S254.7,112.8,251.7,90.4"/>
<g>
	<path class="st2" d="M172.4,98.9V53.3c0-7.8-6.3-14.1-14.1-14.1H97.8c-7.8,0-14.1,6.3-14.1,14.1v45.6c-6.4,3.6-10.6,10.5-10.6,18.3
		v53.4c0,25.5,20.7,46.1,46.1,46.1h17.7c25.5,0,46.1-20.7,46.1-46.1v-53.4C183,109.4,178.7,102.6,172.4,98.9z M158.9,96.1H97.1V61
		c0-4.7,3.8-8.4,8.4-8.4h44.9c4.7,0,8.4,3.8,8.4,8.4v35.1H158.9z"/>
	<path class="st2" d="M118.4,82.7H114c-1.7,0-3.2-1.4-3.2-3.2V69.2c0-1.7,1.4-3.2,3.2-3.2h4.3c1.7,0,3.2,1.4,3.2,3.2v10.3
		C121.5,81.3,120.1,82.7,118.4,82.7z"/>
	<path class="st2" d="M142.7,82.7h-4.3c-1.7,0-3.2-1.4-3.2-3.2V69.2c0-1.7,1.4-3.2,3.2-3.2h4.3c1.7,0,3.2,1.4,3.2,3.2v10.3
		C145.8,81.3,144.4,82.7,142.7,82.7z"/>
</g>
</svg>
