<?xml version="1.0" encoding="UTF-8" standalone="no"?>
<svg
   xmlns:ns="&amp;#38;ns_sfw;"
   xmlns:dc="http://purl.org/dc/elements/1.1/"
   xmlns:cc="http://creativecommons.org/ns#"
   xmlns:rdf="http://www.w3.org/1999/02/22-rdf-syntax-ns#"
   xmlns:svg="http://www.w3.org/2000/svg"
   xmlns="http://www.w3.org/2000/svg"
   xmlns:sodipodi="http://sodipodi.sourceforge.net/DTD/sodipodi-0.dtd"
   xmlns:inkscape="http://www.inkscape.org/namespaces/inkscape"
   version="1.1"
   id="레이어_1"
   x="0px"
   y="0px"
   viewBox="0 0 256 256"
   style="enable-background:new 0 0 256 256;"
   xml:space="preserve"
   sodipodi:docname="input-touchpad.svg"
   inkscape:version="1.0.2 (e86c870879, 2021-01-15)"><defs
   id="defs37" /><sodipodi:namedview
   pagecolor="#ffffff"
   bordercolor="#666666"
   borderopacity="1"
   objecttolerance="10"
   gridtolerance="10"
   guidetolerance="10"
   inkscape:pageopacity="0"
   inkscape:pageshadow="2"
   inkscape:window-width="1852"
   inkscape:window-height="1048"
   id="namedview35"
   showgrid="false"
   inkscape:zoom="1.84375"
   inkscape:cx="20.955002"
   inkscape:cy="50.761797"
   inkscape:window-x="68"
   inkscape:window-y="32"
   inkscape:window-maximized="1"
   inkscape:current-layer="레이어_1"
   inkscape:document-rotation="0" />
<style
   type="text/css"
   id="style2">
	.st0{opacity:0.1;}
	.st1{fill:#777C8F;}
	.st2{fill:#FFFFFF;}
</style>
<metadata
   id="metadata4">
	<ns:sfw>
		<ns:slices />
		<ns:sliceSourceBounds
   bottomLeftOrigin="true"
   height="255"
   width="255.1"
   x="0.4"
   y="0.5" />
	</ns:sfw>
<rdf:RDF><cc:Work
     rdf:about=""><dc:format>image/svg+xml</dc:format><dc:type
       rdf:resource="http://purl.org/dc/dcmitype/StillImage" /><dc:title></dc:title></cc:Work></rdf:RDF></metadata>
<g
   class="st0"
   id="g10">
	<g
   id="g8">
		<path
   d="M132.7,0.5c6.2,0,18.1,0.3,33.3,2.3c23.7,3.1,45.1,11.5,60.9,26.3l0,0C241.6,44.8,250,66.3,253.2,90c3,22.6,2.3,38,2.3,38    s0.7,15.4-2.3,38c-3.1,23.7-11.5,45.1-26.3,60.9l0,0c-15.7,14.8-37.2,23.2-60.9,26.3c-15.1,2-27.1,2.3-33.3,2.3    c-3.1,0-4.7-0.1-4.7-0.1s-1.7,0.1-4.7,0.1c-6.2,0-18.1-0.3-33.3-2.3c-23.7-3.1-45.1-11.5-60.9-26.3l0,0    C14.4,211.2,6,189.7,2.8,166c-3-22.6-2.3-38-2.3-38s-0.7-15.4,2.3-38C6,66.3,14.4,44.8,29.1,29.1l0,0C44.9,14.3,66.3,5.9,90,2.8    c15.2-2,27.1-2.3,33.3-2.3c3.1,0,4.7,0.1,4.7,0.1S129.7,0.5,132.7,0.5"
   id="path6" />
	</g>
</g>
<path
   class="st1"
   d="M251.7,90.4c-3.1-23.4-11.4-44.6-26-60.1l0,0c-15.6-14.6-36.7-22.9-60.1-26C143.2,1.3,128,2,128,2  s-15.2-0.7-37.6,2.3C67,7.4,45.8,15.7,30.3,30.3C15.7,45.8,7.5,67,4.3,90.4c-3,22.3-2.2,37.6-2.2,37.6s-0.7,15.2,2.2,37.6  c3.1,23.4,11.4,44.6,26,60.1l0,0c15.6,14.6,36.7,22.9,60.1,26c22.3,3,37.6,2.2,37.6,2.2s15.2,0.7,37.6-2.2  c23.4-3.1,44.6-11.4,60.1-26l0,0c14.6-15.6,22.9-36.7,26-60.1c3-22.3,2.2-37.6,2.2-37.6S254.7,112.8,251.7,90.4"
   id="path12"
   style="fill:#0091b1;fill-opacity:1" />










<style
   id="style844"
   type="text/css">
	.st0{fill:#0091B1;}
	.st1{fill:#FFFFFF;}
</style><path
   id="rect845"
   style="fill:#ffffff;stroke-width:1.15002"
   d="M 63.238281 67.046875 C 55.387521 67.046875 49.066406 73.36799 49.066406 81.21875 L 49.066406 145.60938 L 209.06641 145.60938 L 209.06641 81.21875 C 209.06641 73.36799 202.74724 67.046875 194.89648 67.046875 L 63.238281 67.046875 z M 49.066406 158.60938 L 49.066406 182.87695 C 49.066406 190.72771 55.387521 197.04688 63.238281 197.04688 L 123.06641 197.04688 L 123.06641 158.60938 L 49.066406 158.60938 z M 136.06641 158.60938 L 136.06641 197.04688 L 194.89648 197.04688 C 202.74724 197.04688 209.06641 190.72771 209.06641 182.87695 L 209.06641 158.60938 L 136.06641 158.60938 z " /></svg>
