<?xml version="1.0" encoding="UTF-8" standalone="no"?>
<svg
   xmlns:dc="http://purl.org/dc/elements/1.1/"
   xmlns:cc="http://creativecommons.org/ns#"
   xmlns:rdf="http://www.w3.org/1999/02/22-rdf-syntax-ns#"
   xmlns:svg="http://www.w3.org/2000/svg"
   xmlns="http://www.w3.org/2000/svg"
   xmlns:sodipodi="http://sodipodi.sourceforge.net/DTD/sodipodi-0.dtd"
   xmlns:inkscape="http://www.inkscape.org/namespaces/inkscape"
   version="1.1"
   id="레이어_1"
   x="0px"
   y="0px"
   viewBox="0 0 256 256"
   style="enable-background:new 0 0 256 256;"
   xml:space="preserve"
   sodipodi:docname="media-tape.svg"
   inkscape:version="1.0.2 (e86c870879, 2021-01-15)"><metadata
   id="metadata19"><rdf:RDF><cc:Work
       rdf:about=""><dc:format>image/svg+xml</dc:format><dc:type
         rdf:resource="http://purl.org/dc/dcmitype/StillImage" /><dc:title></dc:title></cc:Work></rdf:RDF></metadata><defs
   id="defs17" /><sodipodi:namedview
   pagecolor="#ffffff"
   bordercolor="#666666"
   borderopacity="1"
   objecttolerance="10"
   gridtolerance="10"
   guidetolerance="10"
   inkscape:pageopacity="0"
   inkscape:pageshadow="2"
   inkscape:window-width="1852"
   inkscape:window-height="1048"
   id="namedview15"
   showgrid="false"
   inkscape:zoom="3.2773438"
   inkscape:cx="128.61025"
   inkscape:cy="103.58999"
   inkscape:window-x="68"
   inkscape:window-y="32"
   inkscape:window-maximized="1"
   inkscape:current-layer="레이어_1"
   inkscape:document-rotation="0" />
<style
   type="text/css"
   id="style2">
	.st0{opacity:0.1;}
	.st1{fill:#C2D255;}
	.st2{fill:#FFFFFF;}
</style>

<path
   class="st1"
   d="M251.7,90.4c-3.1-23.4-11.4-44.6-26-60.1l0,0c-15.6-14.6-36.7-22.9-60.1-26C143.2,1.3,128,2,128,2  s-15.2-0.7-37.6,2.3C67,7.4,45.8,15.7,30.3,30.3C15.7,45.8,7.5,67,4.3,90.4c-3,22.3-2.2,37.6-2.2,37.6s-0.7,15.2,2.2,37.6  c3.1,23.4,11.4,44.6,26,60.1l0,0c15.6,14.6,36.7,22.9,60.1,26c22.3,3,37.6,2.2,37.6,2.2s15.2,0.7,37.6-2.2  c23.4-3.1,44.6-11.4,60.1-26l0,0c14.6-15.6,22.9-36.7,26-60.1c3-22.3,2.2-37.6,2.2-37.6S254.7,112.8,251.7,90.4"
   id="path10" />

<path
   id="rect832"
   style="fill:#ffffff;stroke-width:7.92686"
   d="M 87.044922 65.662109 C 82.732289 65.662109 79.259766 69.13268 79.259766 73.445312 L 79.259766 87.876953 C 79.259766 92.189586 82.732289 95.662109 87.044922 95.662109 L 171.47461 95.662109 C 175.78724 95.662109 179.25977 92.189586 179.25977 87.876953 L 179.25977 73.445312 C 179.25977 69.13268 175.78724 65.662109 171.47461 65.662109 L 87.044922 65.662109 z M 65.259766 75.662109 C 56.293632 75.662109 49.076172 82.879569 49.076172 91.845703 L 49.076172 169.47852 C 49.076172 178.44465 56.293632 185.66211 65.259766 185.66211 L 192.89258 185.66211 C 201.85871 185.66211 209.07617 178.44465 209.07617 169.47852 L 209.07617 91.845703 C 209.07617 82.879569 201.85871 75.662109 192.89258 75.662109 L 189.25977 75.662109 L 189.25977 81.445312 L 189.25977 87.662109 L 189.25977 95.876953 C 189.25977 100.18959 185.78724 103.66211 181.47461 103.66211 L 77.044922 103.66211 C 72.732289 103.66211 69.259766 100.18959 69.259766 95.876953 L 69.259766 87.662109 L 69.259766 81.445312 L 69.259766 75.662109 L 65.259766 75.662109 z M 89.076172 123.66211 L 169.07617 123.66211 C 180.15617 123.66211 189.07617 132.58211 189.07617 143.66211 C 189.07617 154.74211 180.15617 163.66211 169.07617 163.66211 L 89.076172 163.66211 C 77.996172 163.66211 69.076172 154.74211 69.076172 143.66211 C 69.076172 132.58211 77.996172 123.66211 89.076172 123.66211 z M 90.076172 132.66211 A 11 11 0 0 0 79.076172 143.66211 A 11 11 0 0 0 90.076172 154.66211 A 11 11 0 0 0 101.07617 143.66211 A 11 11 0 0 0 90.076172 132.66211 z M 168.07617 132.66211 A 11 11 0 0 0 157.07617 143.66211 A 11 11 0 0 0 168.07617 154.66211 A 11 11 0 0 0 179.07617 143.66211 A 11 11 0 0 0 168.07617 132.66211 z " /></svg>
