<?xml version="1.0" encoding="UTF-8" standalone="no"?>
<svg
   xmlns:dc="http://purl.org/dc/elements/1.1/"
   xmlns:cc="http://creativecommons.org/ns#"
   xmlns:rdf="http://www.w3.org/1999/02/22-rdf-syntax-ns#"
   xmlns:svg="http://www.w3.org/2000/svg"
   xmlns="http://www.w3.org/2000/svg"
   xmlns:sodipodi="http://sodipodi.sourceforge.net/DTD/sodipodi-0.dtd"
   xmlns:inkscape="http://www.inkscape.org/namespaces/inkscape"
   version="1.1"
   id="레이어_1"
   x="0px"
   y="0px"
   viewBox="0 0 256 256"
   style="enable-background:new 0 0 256 256;"
   xml:space="preserve"
   sodipodi:docname="multimedia-player.svg"
   inkscape:version="1.0.2 (e86c870879, 2021-01-15)"><metadata
   id="metadata15"><rdf:RDF><cc:Work
       rdf:about=""><dc:format>image/svg+xml</dc:format><dc:type
         rdf:resource="http://purl.org/dc/dcmitype/StillImage" /><dc:title></dc:title></cc:Work></rdf:RDF></metadata><defs
   id="defs13">
	
<style
   id="style2-5">.cls-1{fill:#dedede;}</style></defs><sodipodi:namedview
   pagecolor="#ffffff"
   bordercolor="#666666"
   borderopacity="1"
   objecttolerance="10"
   gridtolerance="10"
   guidetolerance="10"
   inkscape:pageopacity="0"
   inkscape:pageshadow="2"
   inkscape:window-width="1852"
   inkscape:window-height="1048"
   id="namedview11"
   showgrid="false"
   inkscape:zoom="2.6074562"
   inkscape:cx="169.7409"
   inkscape:cy="91.105423"
   inkscape:window-x="68"
   inkscape:window-y="32"
   inkscape:window-maximized="1"
   inkscape:current-layer="레이어_1"
   inkscape:document-rotation="0"
   showguides="false" />
<style
   type="text/css"
   id="style2">
	.st0{fill:#48C2C5;}
	.st1{fill:#FFFFFF;}
</style>
<path
   class="st0"
   d="M251.7,90.4c-3.1-23.4-11.4-44.6-26-60.1l0,0c-15.6-14.6-36.7-22.9-60.1-26C143.2,1.3,128,2,128,2  s-15.2-0.7-37.6,2.3C67,7.4,45.8,15.7,30.3,30.3C15.7,45.8,7.5,67,4.3,90.4c-3,22.3-2.2,37.6-2.2,37.6s-0.7,15.2,2.2,37.6  c3.1,23.4,11.4,44.6,26,60.1l0,0c15.6,14.6,36.7,22.9,60.1,26c22.3,3,37.6,2.2,37.6,2.2s15.2,0.7,37.6-2.2  c23.4-3.1,44.6-11.4,60.1-26l0,0c14.6-15.6,22.9-36.7,26-60.1c3-22.3,2.2-37.6,2.2-37.6S254.7,112.8,251.7,90.4"
   id="path4"
   style="fill:#6876e7;fill-opacity:1" />

<path
   id="rect834"
   style="fill:#ffffff;stroke-width:6.21252"
   d="M 77.530761,36 C 67.818488,36 60,43.818488 60,53.530761 V 202.46923 c 0,9.71228 7.818488,17.53078 17.530761,17.53078 H 180.46923 c 9.71228,0 17.53077,-7.8185 17.53077,-17.53078 V 53.530761 C 198,43.818488 190.18151,36 180.46923,36 Z m 51.303019,101.20001 a 34.5,34.5 0 0 1 0.16622,0 34.5,34.5 0 0 1 34.5,34.5 34.5,34.5 0 0 1 -34.5,34.5 34.5,34.5 0 0 1 -34.5,-34.5 34.5,34.5 0 0 1 34.33378,-34.5 z M 129,153.3 A 18.400001,18.400001 0 0 0 110.59999,171.70001 18.400001,18.400001 0 0 0 129,190.09999 18.400001,18.400001 0 0 0 147.40001,171.70001 18.400001,18.400001 0 0 0 129,153.3 Z" /><rect
   style="fill:#505dcb;fill-opacity:1;stroke-width:6.62416"
   id="rect836"
   width="103.5"
   height="69"
   x="77.25"
   y="53.25"
   ry="4.0754871" /></svg>
