<?xml version="1.0" encoding="UTF-8" standalone="no"?>
<svg
   xmlns:dc="http://purl.org/dc/elements/1.1/"
   xmlns:cc="http://creativecommons.org/ns#"
   xmlns:rdf="http://www.w3.org/1999/02/22-rdf-syntax-ns#"
   xmlns:svg="http://www.w3.org/2000/svg"
   xmlns="http://www.w3.org/2000/svg"
   xmlns:sodipodi="http://sodipodi.sourceforge.net/DTD/sodipodi-0.dtd"
   xmlns:inkscape="http://www.inkscape.org/namespaces/inkscape"
   version="1.1"
   id="레이어_1"
   x="0px"
   y="0px"
   viewBox="0 0 256 256"
   style="enable-background:new 0 0 256 256;"
   xml:space="preserve"
   sodipodi:docname="network-card.svg"
   inkscape:version="1.0.2 (e86c870879, 2021-01-15)"><metadata
   id="metadata15"><rdf:RDF><cc:Work
       rdf:about=""><dc:format>image/svg+xml</dc:format><dc:type
         rdf:resource="http://purl.org/dc/dcmitype/StillImage" /><dc:title /></cc:Work></rdf:RDF></metadata><defs
   id="defs13">
	
</defs><sodipodi:namedview
   pagecolor="#ffffff"
   bordercolor="#666666"
   borderopacity="1"
   objecttolerance="10"
   gridtolerance="10"
   guidetolerance="10"
   inkscape:pageopacity="0"
   inkscape:pageshadow="2"
   inkscape:window-width="1852"
   inkscape:window-height="1048"
   id="namedview11"
   showgrid="false"
   inkscape:zoom="1.84375"
   inkscape:cx="182.36875"
   inkscape:cy="90.8058"
   inkscape:window-x="68"
   inkscape:window-y="32"
   inkscape:window-maximized="1"
   inkscape:current-layer="레이어_1"
   inkscape:document-rotation="0" />
<style
   type="text/css"
   id="style2">
	.st0{fill:#48C2C5;}
	.st1{fill:#FFFFFF;}
</style>
<path
   class="st0"
   d="M 251.7,90.4 C 248.6,67 240.3,45.8 225.7,30.3 v 0 C 210.1,15.7 189,7.4 165.6,4.3 143.2,1.3 128,2 128,2 128,2 112.8,1.3 90.4,4.3 67,7.4 45.8,15.7 30.3,30.3 15.7,45.8 7.5,67 4.3,90.4 1.3,112.7 2.1,128 2.1,128 c 0,0 -0.7,15.2 2.2,37.6 3.1,23.4 11.4,44.6 26,60.1 v 0 c 15.6,14.6 36.7,22.9 60.1,26 22.3,3 37.6,2.2 37.6,2.2 0,0 15.2,0.7 37.6,-2.2 23.4,-3.1 44.6,-11.4 60.1,-26 v 0 c 14.6,-15.6 22.9,-36.7 26,-60.1 3,-22.3 2.2,-37.6 2.2,-37.6 0,0 0.8,-15.2 -2.2,-37.6"
   id="path4"
   style="fill:#53a4ff;fill-opacity:1;opacity:1" />

<style
   type="text/css"
   id="style2-3">
	.st0{fill:#999999;}
	.st1{fill:#FFFFFF;}
</style><style
   type="text/css"
   id="style865">
	.st0{fill:#0181CA;}
	.st1{fill:#FFFFFF;}
	.st2{fill:#0047B9;}
</style><style
   type="text/css"
   id="style2-5">
	.st0{fill:#0181CA;}
	.st1{fill:#FFFFFF;}
	.st2{fill:#0047B9;}
</style><style
   type="text/css"
   id="style2-1">
	.st0{fill:#999999;}
	.st1{fill:#FFFFFF;}
</style><style
   type="text/css"
   id="style840">
	.st0{opacity:0.1;}
	.st1{fill:#60BAFF;}
	.st2{fill:#FFFFFF;}
</style><path
   id="rect832"
   style="fill:#2f66a1;fill-opacity:1;stroke-width:0.928236"
   d="m 32.662109,66.074219 v 16 h 24 V 196.07422 h 16 c 0,-43.33333 0,-86.66667 0,-130.000001 -13.333333,0 -26.666667,0 -40,0 z"
   sodipodi:nodetypes="ccccccc" /><path
   id="rect854"
   style="fill:#ffffff;fill-opacity:1;stroke-width:1.03627"
   d="M 72.662109,80.074219 V 180.07422 h 3.3125 2.628907 c 2.248154,0 4.058593,-1.81042 4.058593,-4.0586 v -3.51367 -2.13867 c 0,-3.07808 2.47856,-5.55664 5.556641,-5.55664 h 28.88672 c 3.07808,0 5.55664,2.47856 5.55664,5.55664 v 5.65234 c 0,2.24816 1.81044,4.0586 4.05859,4.0586 h 2.26368 0.36523 73.86328 c 6.34309,0 11.44922,-5.10613 11.44922,-11.44922 V 91.523438 c 0,-6.343094 -5.10613,-11.449219 -11.44922,-11.449219 z m 54.322271,14.880859 h 7.6875 v 11.529302 h 11.52734 V 94.955078 h 7.6875 v 11.529302 h 3.41601 c 3.42941,0 6.19141,2.76005 6.19141,6.18945 v 2.64844 h 11.5293 v 7.68554 h -11.5293 v 11.5293 h 11.5293 v 7.6875 h -11.5293 v 4.18555 c 0,3.42939 -2.762,6.18946 -6.19141,6.18945 h -3.41601 v 11.5293 h -7.6875 v -11.5293 h -11.52734 v 11.5293 h -7.6875 v -11.5293 h -3.41797 c -3.4294,0 -6.18946,-2.76006 -6.18946,-6.18945 v -4.18555 h -11.52929 v -7.6875 h 11.52929 v -11.5293 h -11.52929 v -7.68554 h 11.52929 v -2.64844 c 0,-3.4294 2.76006,-6.18945 6.18946,-6.18945 h 3.41797 z m -1.92188,19.599612 v 30.74414 h 30.74609 v -30.74414 z" /><path
   class="st0"
   d="m 253.02696,189.07898 c -1.23019,-9.28595 -4.52392,-17.69886 -10.31772,-23.84981 v 0 c -6.19064,-5.7938 -14.56387,-9.08754 -23.84982,-10.31773 -8.88911,-1.1905 -14.92101,-0.91272 -14.92101,-0.91272 0,0 -6.0319,-0.27778 -14.92102,0.91272 -9.28595,1.23019 -17.69886,4.52393 -23.84981,10.31773 -5.7938,6.15095 -9.04785,14.56386 -10.31773,23.84981 -1.1905,8.84943 -0.87304,14.92102 -0.87304,14.92102 0,0 -0.27778,6.0319 0.87304,14.92101 1.23019,9.28595 4.52393,17.69887 10.31773,23.84982 v 0 c 6.19063,5.7938 14.56386,9.08753 23.84981,10.31772 8.84943,1.19051 14.92102,0.87304 14.92102,0.87304 0,0 6.0319,0.27778 14.92101,-0.87304 9.28595,-1.23019 17.69887,-4.52392 23.84982,-10.31772 v 0 c 5.7938,-6.19064 9.08753,-14.56387 10.31772,-23.84982 C 254.21747,210.07158 253.9,204 253.9,204 c 0,0 0.31747,-6.0319 -0.87304,-14.92102"
   id="path4-3"
   style="fill:#0058bc;fill-opacity:1;stroke-width:0.396836;opacity:1" /><path
   style="opacity:1;fill:#ffffff;fill-opacity:1;stroke-width:0.188933"
   d="m 181.03733,186.62378 -13.03992,13.04078 -4.11806,4.11807 4.11806,4.11805 13.03992,13.03993 4.11807,-4.11805 -13.03994,-13.0408 13.03994,-13.03993 z m 45.68404,0 -4.11805,4.11805 13.03992,13.03993 -13.03992,13.0408 4.11805,4.11805 13.03993,-13.03993 4.11805,-4.11805 -4.11805,-4.11807 z m -39.7092,14.15971 -3.04428,2.99827 2.82466,2.82552 h 34.17362 l 2.82552,-2.82552 -2.99914,-2.99827 z"
   id="rect815-3-6" /></svg>
