<?xml version="1.0" encoding="UTF-8" standalone="no"?>
<svg
   xmlns:dc="http://purl.org/dc/elements/1.1/"
   xmlns:cc="http://creativecommons.org/ns#"
   xmlns:rdf="http://www.w3.org/1999/02/22-rdf-syntax-ns#"
   xmlns:svg="http://www.w3.org/2000/svg"
   xmlns="http://www.w3.org/2000/svg"
   xmlns:sodipodi="http://sodipodi.sourceforge.net/DTD/sodipodi-0.dtd"
   xmlns:inkscape="http://www.inkscape.org/namespaces/inkscape"
   version="1.1"
   id="레이어_1"
   x="0px"
   y="0px"
   viewBox="0 0 256 256"
   style="enable-background:new 0 0 256 256;"
   xml:space="preserve"
   sodipodi:docname="network-hotspot.svg"
   inkscape:version="1.0.2 (e86c870879, 2021-01-15)"><metadata
   id="metadata15"><rdf:RDF><cc:Work
       rdf:about=""><dc:format>image/svg+xml</dc:format><dc:type
         rdf:resource="http://purl.org/dc/dcmitype/StillImage" /><dc:title></dc:title></cc:Work></rdf:RDF></metadata><defs
   id="defs13">
	
</defs><sodipodi:namedview
   pagecolor="#ffffff"
   bordercolor="#666666"
   borderopacity="1"
   objecttolerance="10"
   gridtolerance="10"
   guidetolerance="10"
   inkscape:pageopacity="0"
   inkscape:pageshadow="2"
   inkscape:window-width="1852"
   inkscape:window-height="1048"
   id="namedview11"
   showgrid="false"
   inkscape:zoom="1.84375"
   inkscape:cx="174.0198"
   inkscape:cy="170.54013"
   inkscape:window-x="68"
   inkscape:window-y="32"
   inkscape:window-maximized="1"
   inkscape:current-layer="레이어_1"
   inkscape:document-rotation="0" />
<style
   type="text/css"
   id="style2">
	.st0{fill:#48C2C5;}
	.st1{fill:#FFFFFF;}
</style>
<path
   class="st0"
   d="M251.7,90.4c-3.1-23.4-11.4-44.6-26-60.1l0,0c-15.6-14.6-36.7-22.9-60.1-26C143.2,1.3,128,2,128,2  s-15.2-0.7-37.6,2.3C67,7.4,45.8,15.7,30.3,30.3C15.7,45.8,7.5,67,4.3,90.4c-3,22.3-2.2,37.6-2.2,37.6s-0.7,15.2,2.2,37.6  c3.1,23.4,11.4,44.6,26,60.1l0,0c15.6,14.6,36.7,22.9,60.1,26c22.3,3,37.6,2.2,37.6,2.2s15.2,0.7,37.6-2.2  c23.4-3.1,44.6-11.4,60.1-26l0,0c14.6-15.6,22.9-36.7,26-60.1c3-22.3,2.2-37.6,2.2-37.6S254.7,112.8,251.7,90.4"
   id="path4"
   style="fill:#53a4ff;fill-opacity:1" />

<path
   id="path852"
   style="fill:#ffffff;stroke-width:9.3462"
   d="M 76.236328 57.193359 A 4.6730702 4.6730702 0 0 0 72.859375 58.652344 A 4.6730702 4.6730702 0 0 0 72.166016 59.601562 C 61.144673 73.809564 54.441406 91.521002 54.441406 110.89648 C 54.441406 130.27196 61.145047 147.98341 72.166016 162.19141 A 4.6730702 4.6730702 0 0 0 72.859375 163.14062 A 4.6730702 4.6730702 0 0 0 76.236328 164.60156 A 4.6730702 4.6730702 0 0 0 80.910156 159.92773 A 4.6730702 4.6730702 0 0 0 79.832031 156.93359 C 69.842502 144.23405 63.787107 128.30928 63.787109 110.89648 C 63.787109 93.483691 69.842876 77.55891 79.832031 64.859375 A 4.6730702 4.6730702 0 0 0 80.910156 61.865234 A 4.6730702 4.6730702 0 0 0 76.236328 57.193359 z M 181.00586 57.193359 A 4.6730808 4.6730808 0 0 0 176.33203 61.865234 A 4.6730808 4.6730808 0 0 0 177.41016 64.859375 C 187.39934 77.558939 193.45508 93.483652 193.45508 110.89648 C 193.45509 128.30931 187.39971 144.23402 177.41016 156.93359 A 4.6730808 4.6730808 0 0 0 176.33203 159.92773 A 4.6730808 4.6730808 0 0 0 181.00586 164.60156 A 4.6730808 4.6730808 0 0 0 184.38281 163.14062 A 4.6730808 4.6730808 0 0 0 185.07617 162.19141 C 196.09717 147.98338 202.80078 130.27201 202.80078 110.89648 C 202.80078 91.520959 196.09754 73.809597 185.07617 59.601562 A 4.6730808 4.6730808 0 0 0 184.38281 58.654297 A 4.6730808 4.6730808 0 0 0 181.00586 57.193359 z M 97.521484 75.8125 C 96.160779 75.812687 94.813384 76.351559 93.925781 77.382812 C 86.862997 86.754187 82.480467 98.25583 82.480469 110.89648 L 82.480469 110.89844 C 82.480469 123.53909 86.862903 135.04074 93.925781 144.41211 C 94.813384 145.44346 96.160779 145.98227 97.521484 145.98242 C 100.10233 145.98242 102.19336 143.88943 102.19336 141.30859 C 102.19027 140.1463 101.75466 139.02799 100.9707 138.16992 C 95.334421 130.48553 91.82617 121.16143 91.826172 110.89844 C 91.826172 100.63544 95.334421 91.308929 100.9707 83.625 C 101.75466 82.766931 102.19036 81.648614 102.19336 80.486328 C 102.19336 77.905485 100.10233 75.8125 97.521484 75.8125 z M 159.72266 75.8125 C 157.14182 75.8125 155.04883 77.905479 155.04883 80.486328 C 155.05183 81.648617 155.48752 82.766929 156.27148 83.625 C 161.90778 91.308947 165.41797 100.63542 165.41797 110.89844 C 165.41797 121.16145 161.90778 130.4855 156.27148 138.16992 C 155.48752 139.02799 155.05192 140.14826 155.04883 141.31055 C 155.04883 143.89139 157.14182 145.98242 159.72266 145.98242 C 161.08337 145.98227 162.43075 145.44346 163.31836 144.41211 C 170.38125 135.04071 174.76367 123.53912 174.76367 110.89844 L 174.76367 110.89648 C 174.76368 98.255803 170.38116 86.754208 163.31836 77.382812 C 162.43075 76.351557 161.08337 75.812687 159.72266 75.8125 z M 128.45898 98.414062 A 11.886553 11.886553 0 0 0 116.68945 110.29883 A 11.886553 11.886553 0 0 0 124.05078 121.29102 L 124.05078 207.35156 L 133.59961 207.35156 L 133.59961 121.07227 A 11.886553 11.886553 0 0 0 140.46289 110.29883 A 11.886553 11.886553 0 0 0 128.57617 98.414062 A 11.886553 11.886553 0 0 0 128.45898 98.414062 z " /></svg>
