<?xml version="1.0" encoding="UTF-8" standalone="no"?>
<svg
   xmlns:dc="http://purl.org/dc/elements/1.1/"
   xmlns:cc="http://creativecommons.org/ns#"
   xmlns:rdf="http://www.w3.org/1999/02/22-rdf-syntax-ns#"
   xmlns:svg="http://www.w3.org/2000/svg"
   xmlns="http://www.w3.org/2000/svg"
   xmlns:sodipodi="http://sodipodi.sourceforge.net/DTD/sodipodi-0.dtd"
   xmlns:inkscape="http://www.inkscape.org/namespaces/inkscape"
   version="1.1"
   id="레이어_1"
   x="0px"
   y="0px"
   viewBox="0 0 256 256"
   style="enable-background:new 0 0 256 256;"
   xml:space="preserve"
   sodipodi:docname="phone.svg"
   inkscape:version="1.0.2 (e86c870879, 2021-01-15)"><metadata
   id="metadata15"><rdf:RDF><cc:Work
       rdf:about=""><dc:format>image/svg+xml</dc:format><dc:type
         rdf:resource="http://purl.org/dc/dcmitype/StillImage" /><dc:title></dc:title></cc:Work></rdf:RDF></metadata><defs
   id="defs13">
	
<style
   id="style2-5">.cls-1{fill:#dedede;}</style></defs><sodipodi:namedview
   pagecolor="#ffffff"
   bordercolor="#666666"
   borderopacity="1"
   objecttolerance="10"
   gridtolerance="10"
   guidetolerance="10"
   inkscape:pageopacity="0"
   inkscape:pageshadow="2"
   inkscape:window-width="1852"
   inkscape:window-height="1048"
   id="namedview11"
   showgrid="false"
   inkscape:zoom="1.3037281"
   inkscape:cx="231.1411"
   inkscape:cy="187.02012"
   inkscape:window-x="68"
   inkscape:window-y="32"
   inkscape:window-maximized="1"
   inkscape:current-layer="레이어_1"
   inkscape:document-rotation="0"
   showguides="false" />
<style
   type="text/css"
   id="style2">
	.st0{fill:#48C2C5;}
	.st1{fill:#FFFFFF;}
</style>
<path
   class="st0"
   d="M251.7,90.4c-3.1-23.4-11.4-44.6-26-60.1l0,0c-15.6-14.6-36.7-22.9-60.1-26C143.2,1.3,128,2,128,2  s-15.2-0.7-37.6,2.3C67,7.4,45.8,15.7,30.3,30.3C15.7,45.8,7.5,67,4.3,90.4c-3,22.3-2.2,37.6-2.2,37.6s-0.7,15.2,2.2,37.6  c3.1,23.4,11.4,44.6,26,60.1l0,0c15.6,14.6,36.7,22.9,60.1,26c22.3,3,37.6,2.2,37.6,2.2s15.2,0.7,37.6-2.2  c23.4-3.1,44.6-11.4,60.1-26l0,0c14.6-15.6,22.9-36.7,26-60.1c3-22.3,2.2-37.6,2.2-37.6S254.7,112.8,251.7,90.4"
   id="path4"
   style="fill:#6876e7;fill-opacity:1" />

<path
   class="cls-1"
   d="M 165.55139,43.352405 H 90.551391 c -6.903559,0 -12.5,5.596441 -12.5,12.5 V 205.8524 c 0,6.90357 5.596441,12.5 12.5,12.5 h 74.999999 c 6.90356,0 12.5,-5.59643 12.5,-12.5 V 55.852405 c 0,-6.903559 -5.59644,-12.5 -12.5,-12.5 z"
   id="path8"
   inkscape:connector-curvature="0"
   style="fill:#465db9;fill-opacity:1;stroke-width:12.5"
   sodipodi:nodetypes="sssssssss" /><path
   id="path8-2"
   style="fill:#ffffff;fill-opacity:1;stroke-width:12.5"
   d="m 90.551,37.105506 c -6.90356,0 -12.5,5.59644 -12.5,12.499999 V 62.503943 199.6055 212.50394 c 0,6.90356 5.59644,12.5 12.5,12.5 h 75 c 6.90356,0 12.5,-5.59644 12.5,-12.5 V 199.6055 62.503943 49.605505 c 0,-6.903559 -5.59644,-12.499999 -12.5,-12.499999 z m 2.25,11.999999 h 70.5 c 6.48934,-10e-7 11.75,5.260663 11.75,11.75 V 201.25394 c 0,6.48934 -5.26066,11.75 -11.75,11.75 h -70.5 c -6.48934,0 -11.75,-5.26066 -11.75,-11.75 V 60.855505 c 0,-6.489337 5.26066,-11.75 11.75,-11.75 z" /></svg>
