<?xml version="1.0" encoding="UTF-8" standalone="no"?>
<svg
   xmlns:dc="http://purl.org/dc/elements/1.1/"
   xmlns:cc="http://creativecommons.org/ns#"
   xmlns:rdf="http://www.w3.org/1999/02/22-rdf-syntax-ns#"
   xmlns:svg="http://www.w3.org/2000/svg"
   xmlns="http://www.w3.org/2000/svg"
   xmlns:sodipodi="http://sodipodi.sourceforge.net/DTD/sodipodi-0.dtd"
   xmlns:inkscape="http://www.inkscape.org/namespaces/inkscape"
   version="1.1"
   id="레이어_1"
   x="0px"
   y="0px"
   viewBox="0 0 256 256"
   style="enable-background:new 0 0 256 256;"
   xml:space="preserve"
   sodipodi:docname="tablet.svg"
   inkscape:version="1.0.2 (e86c870879, 2021-01-15)"><metadata
   id="metadata15"><rdf:RDF><cc:Work
       rdf:about=""><dc:format>image/svg+xml</dc:format><dc:type
         rdf:resource="http://purl.org/dc/dcmitype/StillImage" /><dc:title></dc:title></cc:Work></rdf:RDF></metadata><defs
   id="defs13">
	
</defs><sodipodi:namedview
   pagecolor="#ffffff"
   bordercolor="#666666"
   borderopacity="1"
   objecttolerance="10"
   gridtolerance="10"
   guidetolerance="10"
   inkscape:pageopacity="0"
   inkscape:pageshadow="2"
   inkscape:window-width="1852"
   inkscape:window-height="1048"
   id="namedview11"
   showgrid="false"
   inkscape:zoom="1.3037281"
   inkscape:cx="313.78854"
   inkscape:cy="224.49037"
   inkscape:window-x="68"
   inkscape:window-y="32"
   inkscape:window-maximized="1"
   inkscape:current-layer="레이어_1"
   inkscape:document-rotation="0"
   showguides="false" />
<style
   type="text/css"
   id="style2">
	.st0{fill:#48C2C5;}
	.st1{fill:#FFFFFF;}
</style>
<path
   class="st0"
   d="M251.7,90.4c-3.1-23.4-11.4-44.6-26-60.1l0,0c-15.6-14.6-36.7-22.9-60.1-26C143.2,1.3,128,2,128,2  s-15.2-0.7-37.6,2.3C67,7.4,45.8,15.7,30.3,30.3C15.7,45.8,7.5,67,4.3,90.4c-3,22.3-2.2,37.6-2.2,37.6s-0.7,15.2,2.2,37.6  c3.1,23.4,11.4,44.6,26,60.1l0,0c15.6,14.6,36.7,22.9,60.1,26c22.3,3,37.6,2.2,37.6,2.2s15.2,0.7,37.6-2.2  c23.4-3.1,44.6-11.4,60.1-26l0,0c14.6-15.6,22.9-36.7,26-60.1c3-22.3,2.2-37.6,2.2-37.6S254.7,112.8,251.7,90.4"
   id="path4"
   style="fill:#6876e7;fill-opacity:1" />

<path
   id="path8-3"
   style="fill:#ffffff;fill-opacity:1;stroke-width:11.4286"
   d="M 57.34375 65.851562 A 7.6571426 7.6571426 0 0 0 49.685547 73.509766 L 49.685547 183.9082 A 7.6571426 7.6571426 0 0 0 57.34375 191.56641 L 202.0293 191.56641 A 7.6571426 7.6571426 0 0 0 209.68555 183.9082 L 209.68555 73.509766 A 7.6571426 7.6571426 0 0 0 202.0293 65.851562 L 57.34375 65.851562 z " /><rect
   class="cls-1"
   x="98.82859"
   y="168.13744"
   width="59.999996"
   height="11.999999"
   rx="4.7999997"
   id="rect10"
   style="fill:#cccccc;fill-opacity:1;stroke-width:15" /><g
   id="레이어_1-5-3"
   data-name="레이어 1"
   style="fill:#6842c8;fill-opacity:1"
   transform="matrix(15,0,0,15,8.828591,1.6374412)"><rect
     class="cls-1"
     x="6"
     y="11.1"
     width="4"
     height="0.80000001"
     rx="0.31999999"
     id="rect10-7"
     style="fill:#6842c8;fill-opacity:1" /></g></svg>
