<svg id="Capa_1" enable-background="new 0 0 512 512" height="512" viewBox="0 0 512 512" width="512" xmlns="http://www.w3.org/2000/svg" xmlns:xlink="http://www.w3.org/1999/xlink"><linearGradient id="SVGID_1_" gradientUnits="userSpaceOnUse" x1="256" x2="256" y1="512" y2="0"><stop offset="0" stop-color="#ffedad"/><stop offset="1" stop-color="#ffffe5"/></linearGradient><linearGradient id="SVGID_2_" gradientUnits="userSpaceOnUse" x1="256" x2="256" y1="395.981" y2="71.166"><stop offset="0" stop-color="#feba00"/><stop offset="1" stop-color="#fd5900"/></linearGradient><g><circle cx="256" cy="256" fill="url(#SVGID_1_)" r="256"/><g fill="url(#SVGID_2_)"><path d="m330.228 288.303c15.792-18.05 33.702-38.515 33.702-77.873 0-59.516-48.414-107.93-107.93-107.93s-107.93 48.414-107.93 107.93c0 39.358 17.909 59.823 33.702 77.873 13.574 15.515 26.363 30.97 28.757 57.639h90.943c2.393-26.669 15.182-42.125 28.756-57.639zm-74.228-5.92c-4.967 0-8.994-4.027-8.994-8.994 0-4.968 4.027-8.994 8.994-8.994s8.994 4.026 8.994 8.994c0 4.967-4.027 8.994-8.994 8.994zm8.994-44.971c0 4.971-4.023 8.994-8.994 8.994s-8.994-4.023-8.994-8.994v-53.965c0-4.971 4.023-8.994 8.994-8.994s8.994 4.023 8.994 8.994z"/><path d="m220.023 409.5h71.953c4.971 0 8.994-4.023 8.994-8.994v-36.576h-89.941v36.576c0 4.971 4.023 8.994 8.994 8.994z"/></g></g></svg>