<svg id="Capa_1" enable-background="new 0 0 512 512" height="512" viewBox="0 0 512 512" width="512" xmlns="http://www.w3.org/2000/svg" xmlns:xlink="http://www.w3.org/1999/xlink"><linearGradient id="SVGID_1_" gradientUnits="userSpaceOnUse" x1="256" x2="256" y1="512" y2="0"><stop offset="0" stop-color="#ffc8d1"/><stop offset="1" stop-color="#fff6f7"/></linearGradient><linearGradient id="SVGID_2_" gradientUnits="userSpaceOnUse" x1="256" x2="256" y1="407" y2="105"><stop offset="0" stop-color="#ffa68d"/><stop offset="1" stop-color="#fd3a84"/></linearGradient><g><g><circle cx="256" cy="256" fill="url(#SVGID_1_)" r="256"/></g><g><path d="m256 105c-54.037 0-98 43.831-98 97.706 0 38.852 22.725 73.349 58.266 89.092l31.164 108.757c1.096 3.817 4.594 6.445 8.57 6.445s7.474-2.628 8.57-6.445l31.164-108.757c35.541-15.743 58.266-50.241 58.266-89.092 0-53.875-43.963-97.706-98-97.706zm0 142.118c-24.561 0-44.545-19.925-44.545-44.412s19.985-44.412 44.545-44.412 44.545 19.925 44.545 44.412-19.984 44.412-44.545 44.412z" fill="url(#SVGID_2_)"/></g></g></svg>