<svg id="Capa_1" enable-background="new 0 0 512 512" height="512" viewBox="0 0 512 512" width="512" xmlns="http://www.w3.org/2000/svg" xmlns:xlink="http://www.w3.org/1999/xlink"><linearGradient id="SVGID_1_" gradientUnits="userSpaceOnUse" x1="256" x2="256" y1="512" y2="0"><stop offset="0" stop-color="#c3ffe8"/><stop offset=".9973" stop-color="#f0fff4"/></linearGradient><linearGradient id="SVGID_2_" gradientUnits="userSpaceOnUse" x1="256" x2="256" y1="336" y2="176"><stop offset="0" stop-color="#9cffac"/><stop offset="1" stop-color="#00b59c"/></linearGradient><g><g><circle cx="256" cy="256" fill="url(#SVGID_1_)" r="256"/></g><g><g><g><g><path d="m132.055 307.606c-6.082-5.673-15.886-9.201-27.055-5.654v25.159c0 4.913 3.973 8.889 8.882 8.889h25.205c3.638-11.536-.16-21.982-7.032-28.394zm-.061-103.16c6.963-6.466 10.713-16.906 7.062-28.446h-25.174c-4.91 0-8.882 3.976-8.882 8.889v25.069c10.661 3.338 20.495.52 26.994-5.512zm266.124-28.446h-24.999c-1.591 5.012-2.1 10.069-.945 15 2.177 9.306 9.229 16.771 18.398 19.479 5.357 1.559 10.919 1.403 16.429-.344v-25.246c-.001-4.913-3.974-8.889-8.883-8.889zm-204.294 80c0-44.115 27.896-80 62.176-80h-98.72c3.265 16.687-2.974 31.981-13.203 41.476-7.659 7.118-18.433 11.84-30.368 11.84-2.844 0-5.76-.301-8.709-.869v55.204c15.415-2.959 29.755 2.17 39.164 10.952 10.091 9.416 16.317 24.717 13.081 41.398h98.755c-34.28-.001-62.176-35.886-62.176-80.001zm-26.648 8.889c-4.905 0-8.882-3.98-8.882-8.889 0-4.91 3.977-8.889 8.882-8.889s8.882 3.979 8.882 8.889c.001 4.909-3.976 8.889-8.882 8.889zm218.373-37.361c-15.284-4.505-27.037-16.953-30.672-32.474-1.474-6.296-1.487-12.718-.233-19.054h-98.644c34.28 0 62.176 35.885 62.176 80s-27.896 80-62.176 80h98.618c-2.955-15.249 2.017-29.487 10.937-39.106 9.808-10.579 25.162-16.298 41.445-13.156v-55.367c-2.956.585-5.926.971-8.891.971-4.224 0-8.431-.599-12.56-1.814zm-40.725 37.361c-4.905 0-8.882-3.98-8.882-8.889 0-4.91 3.977-8.889 8.882-8.889s8.882 3.979 8.882 8.889c0 4.909-3.977 8.889-8.882 8.889zm33.751 44.097c-6.109 6.586-8.931 16.386-5.581 27.014h25.124c4.91 0 8.882-3.976 8.882-8.889v-25.153c-11.48-3.658-21.881-.02-28.425 7.028zm-122.575-115.208c-24.487 0-44.412 27.917-44.412 62.222s19.925 62.222 44.412 62.222 44.412-27.917 44.412-62.222-19.925-62.222-44.412-62.222z" fill="url(#SVGID_2_)"/></g></g></g></g></g></svg>