<svg id="Capa_1" enable-background="new 0 0 512 512" height="512" viewBox="0 0 512 512" width="512" xmlns="http://www.w3.org/2000/svg" xmlns:xlink="http://www.w3.org/1999/xlink"><linearGradient id="SVGID_1_" gradientUnits="userSpaceOnUse" x1="256" x2="256" y1="512" y2="0"><stop offset="0" stop-color="#ffedad"/><stop offset="1" stop-color="#ffffe5"/></linearGradient><linearGradient id="SVGID_2_" gradientUnits="userSpaceOnUse" x1="256" x2="256" y1="389.5" y2="122.5"><stop offset="0" stop-color="#ffde00"/><stop offset="1" stop-color="#fd5900"/></linearGradient><g><g><circle cx="256" cy="256" fill="url(#SVGID_1_)" r="256"/></g><g><g><g><path d="m398.118 122.5h-97.706v115.7c0 3.56-2.132 6.764-5.507 8.187-1.066.535-2.31.713-3.375.713-2.309 0-4.619-.89-6.217-2.67l-29.313-29.193-29.312 29.192c-2.486 2.67-6.217 3.382-9.593 1.958-3.375-1.423-5.507-4.627-5.507-8.187v-115.7h-97.706c-4.975 0-8.882 3.916-8.882 8.9v249.2c0 4.983 3.908 8.9 8.882 8.9h284.235c4.975 0 8.882-3.917 8.882-8.9v-249.2c.001-4.984-3.907-8.9-8.881-8.9zm-35.53 231.4h-53.294c-4.91 0-8.883-3.98-8.883-8.9s3.973-8.9 8.883-8.9h53.294c4.909 0 8.882 3.98 8.882 8.9s-3.972 8.9-8.882 8.9zm0-35.6h-53.294c-4.91 0-8.883-3.981-8.883-8.9s3.973-8.9 8.883-8.9h53.294c4.909 0 8.882 3.981 8.882 8.9.001 4.919-3.972 8.9-8.882 8.9z" fill="url(#SVGID_2_)"/></g></g></g></g></svg>