<svg id="Capa_1" enable-background="new 0 0 512 512" height="512" viewBox="0 0 512 512" width="512" xmlns="http://www.w3.org/2000/svg" xmlns:xlink="http://www.w3.org/1999/xlink"><linearGradient id="SVGID_1_" gradientUnits="userSpaceOnUse" x1="256" x2="256" y1="512" y2="0"><stop offset="0" stop-color="#ffbef9"/><stop offset="1" stop-color="#fff1ff"/></linearGradient><linearGradient id="SVGID_2_" gradientUnits="userSpaceOnUse" x1="256" x2="256" y1="380.5" y2="131.5"><stop offset="0" stop-color="#ff81ff"/><stop offset="1" stop-color="#a93aff"/></linearGradient><g><g><circle cx="256" cy="256" fill="url(#SVGID_1_)" r="256"/></g><g><g id="Traffic_building_2_"><g><g><g><path d="m207.477 272.392 97.706-62.25c2.559-1.633 4.112-4.464 4.112-7.503s-1.553-5.871-4.112-7.503l-97.706-62.25c-2.741-1.737-6.193-1.85-9.047-.295-2.836 1.563-4.606 4.551-4.606 7.799v26.678h-79.941c-4.91 0-8.882 3.977-8.882 8.893v53.357c0 4.915 3.973 8.893 8.882 8.893h79.941v26.678c0 6.998 7.715 11.254 13.653 7.503zm190.641 1.39h-79.941v-26.678c0-3.248-1.77-6.235-4.606-7.799-2.845-1.554-6.315-1.433-9.047.295l-97.706 62.25c-2.559 1.633-4.112 4.464-4.112 7.503s1.553 5.871 4.112 7.503l97.706 62.25c5.919 3.739 13.653-.477 13.653-7.503v-26.678h79.941c4.91 0 8.882-3.977 8.882-8.893v-53.357c0-4.916-3.973-8.893-8.882-8.893z" fill="url(#SVGID_2_)"/></g></g></g></g></g></g></svg>