<svg id="Capa_1" enable-background="new 0 0 512 512" height="512" viewBox="0 0 512 512" width="512" xmlns="http://www.w3.org/2000/svg" xmlns:xlink="http://www.w3.org/1999/xlink"><linearGradient id="SVGID_1_" gradientUnits="userSpaceOnUse" x1="256" x2="256" y1="512" y2="0"><stop offset="0" stop-color="#ffc2cc"/><stop offset="1" stop-color="#fff2f4"/></linearGradient><linearGradient id="SVGID_2_" gradientUnits="userSpaceOnUse" x1="256" x2="256" y1="407" y2="105"><stop offset="0" stop-color="#ffa68d"/><stop offset="1" stop-color="#fd3a84"/></linearGradient><g><g><circle cx="256" cy="256" fill="url(#SVGID_1_)" r="256"/></g><g><g><path d="m362.5 264.882c0-4.91-3.969-8.882-8.875-8.882s-8.875 3.973-8.875 8.882c0 48.974-39.816 88.823-88.75 88.823s-88.75-39.849-88.75-88.823c0-4.91-3.969-8.882-8.875-8.882s-8.875 3.973-8.875 8.882c0 55.778 43.045 101.601 97.625 106.138v18.215h-53.25c-4.906 0-8.875 3.973-8.875 8.882 0 4.91 3.969 8.882 8.875 8.882h124.25c4.906 0 8.875-3.973 8.875-8.882 0-4.91-3.969-8.882-8.875-8.882h-53.25v-18.215c54.58-4.537 97.625-50.359 97.625-106.138zm-106.5 71.059c39.149 0 71-31.878 71-71.059v-88.823c0-39.181-31.851-71.059-71-71.059s-71 31.878-71 71.059v88.823c0 39.182 31.851 71.059 71 71.059zm-26.625-177.647h53.25c4.906 0 8.875 3.973 8.875 8.882 0 4.91-3.969 8.882-8.875 8.882h-53.25c-4.906 0-8.875-3.973-8.875-8.882s3.969-8.882 8.875-8.882zm0 35.529h53.25c4.906 0 8.875 3.973 8.875 8.882 0 4.91-3.969 8.882-8.875 8.882h-53.25c-4.906 0-8.875-3.973-8.875-8.882s3.969-8.882 8.875-8.882zm0 35.53h53.25c4.906 0 8.875 3.973 8.875 8.882s-3.969 8.882-8.875 8.882h-53.25c-4.906 0-8.875-3.973-8.875-8.882s3.969-8.882 8.875-8.882zm0 35.529h53.25c4.906 0 8.875 3.973 8.875 8.882 0 4.91-3.969 8.882-8.875 8.882h-53.25c-4.906 0-8.875-3.973-8.875-8.882s3.969-8.882 8.875-8.882z" fill="url(#SVGID_2_)"/></g></g></g></svg>