<svg id="Capa_1" enable-background="new 0 0 512 512" height="512" viewBox="0 0 512 512" width="512" xmlns="http://www.w3.org/2000/svg" xmlns:xlink="http://www.w3.org/1999/xlink"><linearGradient id="SVGID_1_" gradientUnits="userSpaceOnUse" x1="256" x2="256" y1="512" y2="0"><stop offset="0" stop-color="#addcff"/><stop offset=".5028" stop-color="#eaf6ff"/><stop offset="1" stop-color="#eaf6ff"/></linearGradient><linearGradient id="lg1"><stop offset="0" stop-color="#00c0ff"/><stop offset="1" stop-color="#5558ff"/></linearGradient><linearGradient id="SVGID_2_" gradientUnits="userSpaceOnUse" x1="346.541" x2="346.541" xlink:href="#lg1" y1="391.487" y2="103.963"/><linearGradient id="SVGID_3_" gradientUnits="userSpaceOnUse" x1="199.395" x2="199.395" xlink:href="#lg1" y1="391.487" y2="103.963"/><linearGradient id="SVGID_4_" gradientUnits="userSpaceOnUse" x1="165.459" x2="165.459" xlink:href="#lg1" y1="391.487" y2="103.963"/><linearGradient id="SVGID_5_" gradientUnits="userSpaceOnUse" x1="312.605" x2="312.605" xlink:href="#lg1" y1="391.487" y2="103.963"/><g><circle cx="256" cy="256" fill="url(#SVGID_1_)" r="256"/><g><circle cx="346.541" cy="175.053" fill="url(#SVGID_2_)" r="62.959"/><path d="m165.459 238.012h130.831c-18.557-14.846-30.697-37.399-30.697-62.959s12.14-48.113 30.697-62.959h-130.831c-34.712 0-62.959 28.247-62.959 62.959s28.247 62.959 62.959 62.959z" fill="url(#SVGID_3_)"/><circle cx="165.459" cy="336.947" fill="url(#SVGID_4_)" r="62.959"/><path d="m346.541 273.988h-130.831c18.557 14.846 30.697 37.399 30.697 62.959s-12.14 48.113-30.697 62.959h130.831c34.712 0 62.959-28.247 62.959-62.959s-28.247-62.959-62.959-62.959z" fill="url(#SVGID_5_)"/></g></g></svg>