<svg id="Capa_1" enable-background="new 0 0 512 512" height="512" viewBox="0 0 512 512" width="512" xmlns="http://www.w3.org/2000/svg" xmlns:xlink="http://www.w3.org/1999/xlink"><linearGradient id="SVGID_1_" gradientUnits="userSpaceOnUse" x1="256" x2="256" y1="512" y2="0"><stop offset="0" stop-color="#addcff"/><stop offset=".5028" stop-color="#eaf6ff"/><stop offset="1" stop-color="#eaf6ff"/></linearGradient><linearGradient id="lg1"><stop offset="0" stop-color="#00c0ff"/><stop offset="1" stop-color="#5558ff"/></linearGradient><linearGradient id="SVGID_2_" gradientUnits="userSpaceOnUse" x1="256" x2="256" xlink:href="#lg1" y1="416.617" y2="95.941"/><linearGradient id="SVGID_4_" gradientUnits="userSpaceOnUse" x1="149.143" x2="149.143" xlink:href="#lg1" y1="416.617" y2="95.941"/><linearGradient id="SVGID_6_" gradientUnits="userSpaceOnUse" x1="186.111" x2="186.111" xlink:href="#lg1" y1="416.617" y2="95.941"/><linearGradient id="SVGID_7_" gradientUnits="userSpaceOnUse" x1="325.889" x2="325.889" xlink:href="#lg1" y1="416.617" y2="95.941"/><linearGradient id="SVGID_8_" gradientUnits="userSpaceOnUse" x1="362.857" x2="362.857" xlink:href="#lg1" y1="416.617" y2="95.941"/><g><circle cx="256" cy="256" fill="url(#SVGID_1_)" r="256"/><g><path d="m256 120.488c-14.88 0-30.962 29.007-39.27 72.553h78.541c-8.309-43.546-24.391-72.553-39.271-72.553z" fill="url(#SVGID_2_)"/><path d="m256 391.512c14.88 0 30.962-29.007 39.27-72.553h-78.54c8.308 43.546 24.39 72.553 39.27 72.553z" fill="url(#SVGID_2_)"/><path d="m193.041 256c0-15.04.955-30.244 2.745-44.971h-86.516c-4.387 14.226-6.77 29.323-6.77 44.971s2.382 30.745 6.77 44.971h86.516c-1.79-14.727-2.745-29.931-2.745-44.971z" fill="url(#SVGID_4_)"/><path d="m300.971 256c0-15.959-1.059-31.016-2.856-44.971h-84.23c-1.796 13.955-2.856 29.011-2.856 44.971s1.059 31.016 2.856 44.971h84.23c1.796-13.955 2.856-29.012 2.856-44.971z" fill="url(#SVGID_2_)"/><path d="m198.479 318.959h-82.256c24.055 52.957 77.924 90.541 139.777 90.541-29.155 0-48.679-40.693-57.521-90.541z" fill="url(#SVGID_6_)"/><path d="m256 409.5c61.853 0 115.722-37.584 139.777-90.541h-82.256c-8.842 49.848-28.366 90.541-57.521 90.541z" fill="url(#SVGID_7_)"/><path d="m316.214 211.029c1.79 14.726 2.745 29.93 2.745 44.971s-.955 30.244-2.745 44.971h86.516c4.387-14.226 6.77-29.323 6.77-44.971s-2.382-30.745-6.77-44.971z" fill="url(#SVGID_8_)"/><path d="m116.223 193.041h82.256c8.842-49.848 28.366-90.541 57.521-90.541-61.853 0-115.722 37.584-139.777 90.541z" fill="url(#SVGID_6_)"/><path d="m395.777 193.041c-24.055-52.957-77.924-90.541-139.777-90.541 29.155 0 48.679 40.693 57.521 90.541z" fill="url(#SVGID_7_)"/></g></g></svg>