<svg id="Capa_1" enable-background="new 0 0 512 512" height="512" viewBox="0 0 512 512" width="512" xmlns="http://www.w3.org/2000/svg" xmlns:xlink="http://www.w3.org/1999/xlink"><linearGradient id="SVGID_1_" gradientUnits="userSpaceOnUse" x1="256" x2="256" y1="512" y2="0"><stop offset="0" stop-color="#ffc8d1"/><stop offset="1" stop-color="#fff6f7"/></linearGradient><linearGradient id="lg1"><stop offset="0" stop-color="#ffa68d"/><stop offset="1" stop-color="#fd3a84"/></linearGradient><linearGradient id="SVGID_2_" gradientUnits="userSpaceOnUse" x1="242.212" x2="242.212" xlink:href="#lg1" y1="391.487" y2="98.166"/><linearGradient id="SVGID_3_" gradientUnits="userSpaceOnUse" x1="341.747" x2="341.747" xlink:href="#lg1" y1="391.487" y2="98.166"/><g><circle cx="256" cy="256" fill="url(#SVGID_1_)" r="256"/><g><path d="m242.512 405c74.395 0 134.912-61.117 134.912-135.512 0-4.971-4.023-8.994-8.994-8.994h-116.924v-116.924c0-4.971-4.023-8.994-8.994-8.994-74.395 0-135.512 60.517-135.512 134.912s61.117 135.512 135.512 135.512z" fill="url(#SVGID_2_)"/><path d="m278.488 98c-4.971 0-8.994 4.023-8.994 8.994v126.518c0 4.971 4.023 8.994 8.994 8.994h126.518c4.971 0 8.994-4.023 8.994-8.994 0-74.395-61.117-135.512-135.512-135.512z" fill="url(#SVGID_3_)"/></g></g></svg>