<svg id="Capa_1" enable-background="new 0 0 512 512" height="512" viewBox="0 0 512 512" width="512" xmlns="http://www.w3.org/2000/svg" xmlns:xlink="http://www.w3.org/1999/xlink"><linearGradient id="SVGID_1_" gradientUnits="userSpaceOnUse" x1="256" x2="256" y1="512" y2="0"><stop offset="0" stop-color="#ffbef9"/><stop offset="1" stop-color="#fff1ff"/></linearGradient><linearGradient id="lg1"><stop offset="0" stop-color="#ff81ff"/><stop offset="1" stop-color="#a93aff"/></linearGradient><linearGradient id="SVGID_2_" gradientUnits="userSpaceOnUse" x1="192.741" x2="192.741" xlink:href="#lg1" y1="415.655" y2="90.959"/><linearGradient id="SVGID_3_" gradientUnits="userSpaceOnUse" x1="319.259" x2="319.259" xlink:href="#lg1" y1="415.655" y2="90.959"/><g><circle cx="256" cy="256" fill="url(#SVGID_1_)" r="256"/><g><path d="m111.494 354.936h27.582v45.57c0 3.636 2.187 6.921 5.551 8.309 3.318 1.384 7.209.642 9.802-1.95l51.33-51.93h68.229c4.971 0 8.994-4.023 8.994-8.994v-125.917c0-4.971-4.023-8.994-8.994-8.994h-162.494c-4.971 0-8.994 4.023-8.994 8.994v125.918c0 4.971 4.023 8.994 8.994 8.994z" fill="url(#SVGID_2_)"/><path d="m400.506 102.5h-162.494c-4.971 0-8.994 4.023-8.994 8.994v81.547h44.971c14.879 0 26.982 12.103 26.982 26.982v26.982h5.27l51.33 51.33c2.593 2.592 6.484 3.334 9.802 1.95 3.364-1.388 5.551-4.673 5.551-8.309v-44.971h27.582c4.971 0 8.994-4.023 8.994-8.994v-126.517c0-4.971-4.023-8.994-8.994-8.994z" fill="url(#SVGID_3_)"/></g></g></svg>