<svg id="Capa_1" enable-background="new 0 0 512 512" height="512" viewBox="0 0 512 512" width="512" xmlns="http://www.w3.org/2000/svg" xmlns:xlink="http://www.w3.org/1999/xlink"><linearGradient id="SVGID_1_" gradientUnits="userSpaceOnUse" x1="256" x2="256" y1="512" y2="0"><stop offset="0" stop-color="#ffbef9"/><stop offset="1" stop-color="#fff1ff"/></linearGradient><linearGradient id="SVGID_2_" gradientUnits="userSpaceOnUse" x1="256" x2="256" y1="407" y2="105"><stop offset="0" stop-color="#ff81ff"/><stop offset="1" stop-color="#a93aff"/></linearGradient><g><g><circle cx="256" cy="256" fill="url(#SVGID_1_)" r="256"/></g><g><g><path d="m356.444 142.958c-24.677-21.952-56.493-35.905-91.535-37.958v71.72c15.387 1.731 29.357 7.711 40.86 16.913zm-179.724 121.951h-71.72c2.053 35.042 16.007 66.858 37.958 91.535l50.675-50.675c-9.201-11.503-15.181-25.473-16.913-40.86zm141.647 40.86 50.675 50.675c21.951-24.677 35.905-56.493 37.958-91.535h-71.72c-1.732 15.387-7.712 29.357-16.913 40.86zm-124.734-99.538-50.675-50.675c-21.951 24.677-35.905 56.493-37.958 91.535h71.72c1.732-15.387 7.712-29.357 16.913-40.86zm71.276 129.049v71.72c35.042-2.053 66.858-16.007 91.535-37.958l-50.675-50.675c-11.503 9.201-25.473 15.181-40.86 16.913zm70.371-88.189h71.72c-2.053-35.042-16.007-66.858-37.958-91.535l-50.675 50.675c9.201 11.503 15.181 25.473 16.913 40.86zm-129.049-53.458c11.503-9.202 25.473-15.182 40.86-16.913v-71.72c-35.042 2.053-66.858 16.007-91.535 37.958zm-50.675 175.409c24.677 21.952 56.493 35.905 91.535 37.958v-71.72c-15.387-1.731-29.357-7.712-40.86-16.913z" fill="url(#SVGID_2_)"/></g></g></g></svg>