<svg id="Capa_1" enable-background="new 0 0 512 512" height="512" viewBox="0 0 512 512" width="512" xmlns="http://www.w3.org/2000/svg" xmlns:xlink="http://www.w3.org/1999/xlink"><linearGradient id="SVGID_1_" gradientUnits="userSpaceOnUse" x1="256" x2="256" y1="512" y2="0"><stop offset="0" stop-color="#addcff"/><stop offset=".5028" stop-color="#eaf6ff"/><stop offset="1" stop-color="#eaf6ff"/></linearGradient><linearGradient id="SVGID_2_" gradientUnits="userSpaceOnUse" x1="256" x2="256" y1="363.738" y2="157.465"><stop offset="0" stop-color="#00c0ff"/><stop offset="1" stop-color="#5558ff"/></linearGradient><g><circle cx="256" cy="256" fill="url(#SVGID_1_)" r="256"/><g fill="url(#SVGID_2_)"><path d="m256 211.029c-24.795 0-44.971 20.175-44.971 44.971s20.175 44.971 44.971 44.971 44.971-20.175 44.971-44.971-20.176-44.971-44.971-44.971zm0 71.953c-14.879 0-26.982-12.103-26.982-26.982s12.103-26.982 26.982-26.982 26.982 12.103 26.982 26.982-12.103 26.982-26.982 26.982z"/><circle cx="256" cy="256" r="8.994"/><path d="m256 157.064c-83.143 0-149.073 89.871-151.814 93.701-2.249 3.127-2.249 7.343 0 10.47 2.74 3.83 68.671 93.701 151.814 93.701s149.073-89.871 151.814-93.701c2.249-3.127 2.249-7.343 0-10.47-2.741-3.829-68.671-93.701-151.814-93.701zm0 161.895c-34.712 0-62.959-28.247-62.959-62.959s28.247-62.959 62.959-62.959 62.959 28.247 62.959 62.959-28.247 62.959-62.959 62.959z"/></g></g></svg>