<svg id="Capa_1" enable-background="new 0 0 512 512" height="512" viewBox="0 0 512 512" width="512" xmlns="http://www.w3.org/2000/svg" xmlns:xlink="http://www.w3.org/1999/xlink"><linearGradient id="SVGID_1_" gradientUnits="userSpaceOnUse" x1="256" x2="256" y1="512" y2="0"><stop offset="0" stop-color="#ffedad"/><stop offset="1" stop-color="#ffffe5"/></linearGradient><linearGradient id="SVGID_2_" gradientUnits="userSpaceOnUse" x1="256" x2="256" y1="407" y2="105"><stop offset="0" stop-color="#ffde00"/><stop offset="1" stop-color="#fd5900"/></linearGradient><g><g><circle cx="256" cy="256" fill="url(#SVGID_1_)" r="256"/></g><g><g><path d="m404.398 366.717-60.91-60.91c-3.47-3.47-9.091-3.47-12.56 0l-6.28 6.28-16.585-16.585c17.333-20.203 27.879-46.388 27.879-75.031 0-63.668-51.802-115.471-115.471-115.471s-115.471 51.802-115.471 115.471c0 63.668 51.802 115.47 115.471 115.47 28.643 0 54.828-10.546 75.032-27.879l16.585 16.585-6.28 6.28c-3.47 3.47-3.47 9.091 0 12.56l60.91 60.91c1.735 1.735 4.007 2.602 6.28 2.602s4.545-.867 6.28-2.602l25.12-25.12c3.469-3.469 3.469-9.09 0-12.56z" fill="url(#SVGID_2_)"/></g></g></g></svg>