<svg id="Capa_1" enable-background="new 0 0 512 512" height="512" viewBox="0 0 512 512" width="512" xmlns="http://www.w3.org/2000/svg" xmlns:xlink="http://www.w3.org/1999/xlink"><linearGradient id="SVGID_1_" gradientUnits="userSpaceOnUse" x1="256" x2="256" y1="512" y2="0"><stop offset="0" stop-color="#c3ffe8"/><stop offset=".9973" stop-color="#f0fff4"/></linearGradient><linearGradient id="SVGID_2_" gradientUnits="userSpaceOnUse" x1="256" x2="256" y1="401.386" y2="90.114"><stop offset="0" stop-color="#83f3a9"/><stop offset="1" stop-color="#00b59c"/></linearGradient><g><circle cx="256" cy="256" fill="url(#SVGID_1_)" r="256"/><g fill="url(#SVGID_2_)"><path d="m175.053 147.471v63.559h161.895v-63.559c0-4.971-4.023-8.994-8.994-8.994h-143.907c-4.971 0-8.994 4.022-8.994 8.994z"/><path d="m175.053 400.506c0 4.971 4.023 8.994 8.994 8.994h143.906c4.971 0 8.994-4.023 8.994-8.994v-171.488h-161.894zm54.913-94.564 17.988-35.977c2.231-4.444 7.606-6.227 12.068-4.023 4.444 2.222 6.245 7.624 4.023 12.068l-11.48 22.96h21.423c3.118 0 6.008 1.616 7.65 4.269s1.792 5.964.395 8.748l-17.988 35.977c-2.213 4.414-7.583 6.249-12.068 4.023-4.444-2.222-6.245-7.624-4.023-12.068l11.48-22.96h-21.423c-3.118 0-6.008-1.616-7.65-4.269-1.642-2.652-1.791-5.964-.395-8.748z"/><path d="m291.977 102.5h-71.953c-4.971 0-8.994 4.023-8.994 8.994v8.994h89.941v-8.994c0-4.971-4.023-8.994-8.994-8.994z"/></g></g></svg>