<svg id="Capa_1" enable-background="new 0 0 512 512" height="512" viewBox="0 0 512 512" width="512" xmlns="http://www.w3.org/2000/svg" xmlns:xlink="http://www.w3.org/1999/xlink"><linearGradient id="SVGID_1_" gradientUnits="userSpaceOnUse" x1="256" x2="256" y1="512" y2="0"><stop offset="0" stop-color="#addcff"/><stop offset=".5028" stop-color="#eaf6ff"/><stop offset="1" stop-color="#eaf6ff"/></linearGradient><linearGradient id="SVGID_2_" gradientUnits="userSpaceOnUse" x1="256" x2="256" y1="408.549" y2="97.24"><stop offset="0" stop-color="#00c0ff"/><stop offset="1" stop-color="#5558ff"/></linearGradient><g><circle cx="256" cy="256" fill="url(#SVGID_1_)" r="256"/><g fill="url(#SVGID_2_)"><path d="m400.506 175.053h-289.012c-4.971 0-8.994 4.023-8.994 8.994v107.93c0 4.971 4.023 8.994 8.994 8.994h36.576v-26.982c0-14.879 12.103-26.982 26.982-26.982h161.895c14.879 0 26.982 12.103 26.982 26.982v26.982h36.576c4.971 0 8.994-4.023 8.994-8.994v-107.93c.001-4.971-4.022-8.994-8.993-8.994zm-36.576 53.965c-4.967 0-8.994-4.027-8.994-8.994s4.027-8.994 8.994-8.994 8.994 4.027 8.994 8.994-4.027 8.994-8.994 8.994z"/><path d="m345.941 102.5h-179.882c-4.971 0-8.994 4.023-8.994 8.994v45.57h197.871v-45.57c0-4.971-4.023-8.994-8.995-8.994z"/><path d="m336.947 409.5c4.971 0 8.994-4.023 8.994-8.994v-126.518c0-4.971-4.023-8.994-8.994-8.994h-161.894c-4.971 0-8.994 4.023-8.994 8.994v126.518c0 4.971 4.023 8.994 8.994 8.994zm-116.924-99.535h71.953c4.971 0 8.994 4.023 8.994 8.994s-4.023 8.994-8.994 8.994h-71.953c-4.971 0-8.994-4.023-8.994-8.994s4.023-8.994 8.994-8.994zm0 35.976h71.953c4.971 0 8.994 4.023 8.994 8.994s-4.023 8.994-8.994 8.994h-71.953c-4.971 0-8.994-4.023-8.994-8.994s4.023-8.994 8.994-8.994z"/></g></g></svg>