<svg id="Capa_1" enable-background="new 0 0 512 512" height="512" viewBox="0 0 512 512" width="512" xmlns="http://www.w3.org/2000/svg" xmlns:xlink="http://www.w3.org/1999/xlink"><linearGradient id="SVGID_1_" gradientUnits="userSpaceOnUse" x1="256" x2="256" y1="512" y2="0"><stop offset="0" stop-color="#c3ffe8"/><stop offset=".9973" stop-color="#f0fff4"/></linearGradient><linearGradient id="SVGID_2_" gradientUnits="userSpaceOnUse" x1="255.5" x2="255.5" y1="105" y2="406.758"><stop offset="0" stop-color="#00b59c"/><stop offset="1" stop-color="#9cffac"/></linearGradient><g><g><circle cx="256" cy="256" fill="url(#SVGID_1_)" r="256"/></g><g><g><path d="m263.754 122.75h8.875c4.906 0 8.875-3.97 8.875-8.875 0-4.906-3.969-8.875-8.875-8.875h-35.501c-4.906 0-8.875 3.969-8.875 8.875s3.969 8.875 8.875 8.875h8.875v40.648l17.75-17.573v-23.075zm-35.501 248.507c-9.785 0-17.75-7.965-17.75-17.75v-154.433l-25.109 25.109c-6.7 6.708-10.392 15.627-10.392 25.1v104.223c0 9.785-7.965 17.75-17.75 17.75h-35.502c-9.785 0-17.75 7.965-17.75 17.75 0 9.859 8.005 17.75 17.75 17.75h106.503c9.785 0 17.75-7.965 17.75-17.75.001-9.784-7.965-17.749-17.75-17.749zm176.084-102.598-125.495-125.495c-3.373-3.55-9.052-3.55-12.425 0l-2.663 2.662v74.552c0 4.969-3.905 8.875-8.875 8.875-4.971 0-8.875-3.906-8.875-8.875v-56.979l-17.75 17.75v113.958l74.906 74.73c3.373 3.55 9.053 3.55 12.426 0l88.752-88.752c3.55-3.374 3.55-9.054-.001-12.426z" fill="url(#SVGID_2_)"/></g></g></g></svg>