<svg id="Capa_1" enable-background="new 0 0 512 512" height="512" viewBox="0 0 512 512" width="512" xmlns="http://www.w3.org/2000/svg" xmlns:xlink="http://www.w3.org/1999/xlink"><linearGradient id="SVGID_1_" gradientUnits="userSpaceOnUse" x1="256" x2="256" y1="512" y2="0"><stop offset="0" stop-color="#addcff"/><stop offset=".5028" stop-color="#eaf6ff"/><stop offset="1" stop-color="#eaf6ff"/></linearGradient><linearGradient id="SVGID_2_" gradientUnits="userSpaceOnUse" x1="256" x2="256" y1="407" y2="105"><stop offset="0" stop-color="#00c0ff"/><stop offset="1" stop-color="#5558ff"/></linearGradient><g><g><g><circle cx="256" cy="256" fill="url(#SVGID_1_)" r="256"/></g></g><g><g><g><path d="m186.919 186.91c-16.325 16.325-26.144 37.438-28.174 60.208h17.834c1.978-18.016 9.923-34.688 22.9-47.647 29.009-29.009 74.78-30.662 106.129-5.646l12.577-12.58c-17.487-14.574-39.082-22.899-62.185-22.899-26.126 0-50.657 10.14-69.081 28.564zm131.357 19.367c9.45 11.799 15.492 25.779 17.144 40.84h17.834c-1.765-19.802-9.735-38.147-22.438-53.383zm-106.688 129.664h88.823v-17.765h-88.823zm44.412-230.941c-83.255 0-151 67.737-151 151s67.745 151 151 151 151-67.737 151-151-67.745-151-151-151zm62.177 239.823c0 4.91-3.973 8.882-8.882 8.882h-106.589c-4.909 0-8.882-3.973-8.882-8.882v-35.529c0-4.91 3.973-8.883 8.882-8.883h106.588c4.909 0 8.882 3.973 8.882 8.883v35.529zm44.359-79.941h-35.512c-4.91 0-8.882-3.973-8.882-8.882 0-13.61-4.519-26.405-12.512-37.073l-43.35 43.353c-1.735 1.735-4.007 2.602-6.28 2.602s-4.545-.867-6.28-2.602c-3.47-3.469-3.47-9.091 0-12.56l43.327-43.331c-24.335-18.169-58.906-16.445-81.008 5.641-11.728 11.719-18.181 27.332-18.181 43.969 0 4.91-3.973 8.882-8.882 8.882h-35.512c-4.91 0-8.882-3.973-8.882-8.882 0-30.871 11.988-59.869 33.777-81.65 21.772-21.781 50.761-33.769 81.641-33.769s59.869 11.988 81.641 33.769c21.79 21.781 33.777 50.779 33.777 81.65 0 4.911-3.972 8.883-8.882 8.883z" fill="url(#SVGID_2_)"/></g></g></g></g></svg>