<svg id="Capa_1" enable-background="new 0 0 512 512" height="512" viewBox="0 0 512 512" width="512" xmlns="http://www.w3.org/2000/svg" xmlns:xlink="http://www.w3.org/1999/xlink"><linearGradient id="SVGID_1_" gradientUnits="userSpaceOnUse" x1="256" x2="256" y1="512" y2="0"><stop offset="0" stop-color="#ffedad"/><stop offset="1" stop-color="#ffffe5"/></linearGradient><linearGradient id="SVGID_2_" gradientUnits="userSpaceOnUse" x1="256" x2="256" y1="407" y2="105"><stop offset="0" stop-color="#ffde00"/><stop offset="1" stop-color="#fd5900"/></linearGradient><g><g><g><circle cx="256" cy="256" fill="url(#SVGID_1_)" r="256"/></g></g><g><g><g><path d="m291.537 353.706c-8.934 0-17.227-4.432-22.18-11.866l-13.357-20.036-13.358 20.036c-5.014 7.451-13.297 11.866-22.197 11.866-4.112 0-8.223-.98-11.901-2.819l-68.014-34.003v27.94c0 3.365 1.9 6.436 4.91 7.946l106.587 53.294c1.249.625 2.611.937 3.973.937s2.724-.312 3.973-.937l106.587-53.294c3.01-1.509 4.91-4.58 4.91-7.946v-27.943l-68.022 34.015c-3.679 1.839-7.799 2.81-11.911 2.81zm-35.537-79.94 106.587-53.293-106.587-53.295-106.587 53.294zm149.506-101.661c1.414-2.116 1.848-4.745 1.197-7.208-.659-2.463-2.333-4.528-4.615-5.664l-106.587-53.294c-4.016-2.004-8.874-.694-11.363 3.019l-26.213 39.32 122.6 61.303zm-274.032 37.476 122.6-61.303-26.213-39.32c-2.498-3.73-7.365-5.022-11.363-3.019l-106.588 53.294c-2.281 1.136-3.955 3.201-4.615 5.664-.651 2.464-.217 5.092 1.197 7.208zm249.051 21.783-122.6 61.303 26.213 39.32c1.7 2.55 4.511 3.955 7.399 3.955 1.336 0 2.698-.303 3.964-.937l106.587-53.294c2.281-1.136 3.955-3.201 4.615-5.664.651-2.464.217-5.092-1.197-7.208zm-152.664 100.622 26.213-39.32-122.6-61.303-24.981 37.475c-1.414 2.116-1.848 4.745-1.197 7.208.659 2.463 2.333 4.528 4.615 5.664l106.587 53.294c3.998 2.005 8.865.695 11.363-3.018z" fill="url(#SVGID_2_)"/></g></g></g></g></svg>