<svg id="Capa_1" enable-background="new 0 0 512 512" height="512" viewBox="0 0 512 512" width="512" xmlns="http://www.w3.org/2000/svg" xmlns:xlink="http://www.w3.org/1999/xlink"><linearGradient id="SVGID_1_" gradientUnits="userSpaceOnUse" x1="256" x2="256" y1="512" y2="0"><stop offset="0" stop-color="#ffe59a"/><stop offset="1" stop-color="#ffffd5"/></linearGradient><linearGradient id="SVGID_2_" gradientUnits="userSpaceOnUse" x1="256" x2="256" y1="371.5" y2="140.5"><stop offset="0" stop-color="#ffde00"/><stop offset="1" stop-color="#fd5900"/></linearGradient><g><g><circle cx="256" cy="256" fill="url(#SVGID_1_)" r="256"/></g><g><g><path d="m398.118 176.039h-44.412v62.192c0 4.911-3.973 8.885-8.882 8.885s-8.882-3.974-8.882-8.885v-62.192h-8.882c-14.694 0-26.647-11.956-26.647-26.654 0-4.911-3.973-8.885-8.882-8.885h-71.059c-4.91 0-8.882 3.974-8.882 8.885 0 14.698-11.953 26.654-26.647 26.654h-8.882v62.192c0 4.911-3.973 8.885-8.882 8.885-4.91 0-8.882-3.974-8.882-8.885v-62.192h-44.412c-4.91 0-8.882 3.974-8.882 8.885v177.692c0 4.911 3.973 8.885 8.882 8.885h284.235c4.91 0 8.882-3.974 8.882-8.885v-177.693c-.002-4.911-3.975-8.884-8.884-8.884zm-177.858 0c3.923-5.188 6.854-11.169 8.199-17.769h55.081c1.346 6.6 4.276 12.581 8.199 17.769z" fill="url(#SVGID_2_)"/></g></g></g></svg>