<svg id="Capa_1" enable-background="new 0 0 512 512" height="512" viewBox="0 0 512 512" width="512" xmlns="http://www.w3.org/2000/svg" xmlns:xlink="http://www.w3.org/1999/xlink"><linearGradient id="SVGID_1_" gradientUnits="userSpaceOnUse" x1="256" x2="256" y1="512" y2="0"><stop offset="0" stop-color="#addcff"/><stop offset=".5028" stop-color="#eaf6ff"/><stop offset="1" stop-color="#eaf6ff"/></linearGradient><linearGradient id="SVGID_2_" gradientUnits="userSpaceOnUse" x1="256" x2="256" y1="407" y2="105"><stop offset="0" stop-color="#00c0ff"/><stop offset="1" stop-color="#5558ff"/></linearGradient><g><g><circle cx="256" cy="256" fill="url(#SVGID_1_)" r="256"/></g><g><g><path d="m353.706 264.882h53.294v-35.529h-53.294zm26.647-142.117c-14.694 0-26.647 11.953-26.647 26.647v62.177h53.294v-62.177c0-14.694-11.953-26.647-26.647-26.647zm-26.647 222.058c0 4.91 3.973 8.883 8.883 8.883 4.901 0 8.882 3.981 8.882 8.882v17.765c0 4.91 3.973 8.882 8.882 8.882s8.882-3.973 8.882-8.882v-17.765c0-4.901 3.981-8.882 8.882-8.882 4.91 0 8.882-3.973 8.882-8.883v-62.176h-53.294v62.176zm-177.647 62.177h35.53v-35.529h-35.53zm133.235-302h-177.647c-14.694 0-26.647 11.953-26.647 26.647v248.706c0 14.694 11.953 26.647 26.647 26.647h26.647v-44.412c0-4.91 3.973-8.882 8.882-8.882h106.588c4.91 0 8.882 3.973 8.882 8.882v44.412h26.647c14.694 0 26.647-11.953 26.647-26.647v-248.706c.001-14.694-11.952-26.647-26.646-26.647zm-142.117 230.941h-17.765c-4.909 0-8.882-3.973-8.882-8.883v-17.765c0-4.909 3.973-8.882 8.882-8.882 4.91 0 8.883 3.973 8.883 8.882v8.882h8.882c4.909 0 8.882 3.973 8.882 8.882 0 4.911-3.973 8.884-8.882 8.884zm0-177.647h-8.882v8.882c0 4.91-3.973 8.882-8.883 8.882-4.909 0-8.882-3.973-8.882-8.882v-17.765c0-4.91 3.973-8.882 8.882-8.882h17.765c4.909 0 8.882 3.973 8.882 8.882s-3.973 8.883-8.882 8.883zm133.235 168.765c0 4.91-3.973 8.883-8.882 8.883h-17.765c-4.91 0-8.882-3.973-8.882-8.883 0-4.909 3.973-8.882 8.882-8.882h8.882v-8.882c0-4.909 3.973-8.882 8.882-8.882 4.91 0 8.882 3.973 8.882 8.882v17.764zm0-159.883c0 4.91-3.973 8.882-8.882 8.882s-8.882-3.973-8.882-8.882v-8.882h-8.882c-4.91 0-8.882-3.973-8.882-8.882s3.973-8.882 8.882-8.882h17.765c4.91 0 8.882 3.973 8.882 8.882v17.764zm-71.059 239.824h35.529v-35.529h-35.529z" fill="url(#SVGID_2_)"/></g></g></g></svg>