<svg id="Capa_1" enable-background="new 0 0 512 512" height="512" viewBox="0 0 512 512" width="512" xmlns="http://www.w3.org/2000/svg" xmlns:xlink="http://www.w3.org/1999/xlink"><linearGradient id="SVGID_1_" gradientUnits="userSpaceOnUse" x1="256" x2="256" y1="512" y2="0"><stop offset="0" stop-color="#ffc2cc"/><stop offset="1" stop-color="#fff2f4"/></linearGradient><linearGradient id="SVGID_2_" gradientUnits="userSpaceOnUse" x1="255.999" x2="255.999" y1="407" y2="105"><stop offset="0" stop-color="#ffa68d"/><stop offset="1" stop-color="#fd3a84"/></linearGradient><g><g><circle cx="256" cy="256" fill="url(#SVGID_1_)" r="256"/></g><g><g><path d="m235.693 333.884c-4.694-1.266-9.621 1.479-10.917 6.298-1.269 4.786 1.573 9.637 6.298 10.908 5.006 1.275 9.68-1.7 10.917-6.297 1.269-4.742-1.558-9.639-6.298-10.909zm46.11-172.071c-4.971-1.285-9.676 1.685-10.917 6.298-1.27 4.74 1.557 9.638 6.298 10.908 4.881 1.298 9.671-1.648 10.916-6.298 1.27-4.786-1.573-9.638-6.297-10.908zm-113.705 109.086c-4.755 1.279-7.578 6.146-6.298 10.908 1.237 4.615 5.956 7.579 10.917 6.307 4.73-1.277 7.572-6.128 6.289-10.917-1.287-4.779-6.207-7.566-10.908-6.298zm31.644-71.135c3.469-3.452 3.514-9.072.009-12.595 0 0 0 0-.009 0-3.451-3.469-9.073-3.496-12.587 0-3.496 3.514-3.469 9.136 0 12.586 3.385 3.384 9.239 3.375 12.587.009zm206.605 34.967c-9.447-67.238-65.264-121.386-132.72-128.762-64.464-7.159-124.648 25.808-153.283 83.887-12.639 26.061-17.614 55.035-14.387 83.774 7.376 67.465 61.524 123.282 130.293 132.929 16.294 2.052 32.434-3.143 44.579-13.831 12.804-11.273 20.146-27.504 20.146-44.536v-20.485c0-14.735 11.986-26.721 26.721-26.721h20.485c17.031 0 33.263-7.341 44.536-20.146 10.53-11.966 16.306-28.137 13.63-46.109zm-231.786-60.158c10.099-10.099 27.713-10.082 37.795 0 10.452 10.47 10.42 27.366-.009 37.794-10.418 10.417-27.325 10.453-37.786-.009-10.43-10.411-10.461-27.324 0-37.785zm2.757 130.745c-14.195 3.818-28.892-4.579-32.723-18.91-3.792-14.081 4.478-28.861 18.893-32.715 14.196-3.818 28.896 4.663 32.723 18.893 3.819 14.231-4.662 28.914-18.893 32.732zm81.878 44.084c-3.816 14.274-18.484 22.723-32.723 18.893-14.155-3.789-22.748-18.346-18.902-32.715 3.81-14.239 18.562-22.677 32.732-18.901 14.239 3.818 22.712 18.501 18.893 32.723zm46.11-172.08v.009c-3.812 14.239-18.506 22.705-32.732 18.893-14.239-3.818-22.711-18.501-18.893-32.723 3.856-14.422 18.653-22.691 32.723-18.893 14.156 3.788 22.748 18.345 18.902 32.714zm44.084 81.886c-14.237 3.814-28.904-4.666-32.723-18.893-3.819-14.23 4.662-28.914 18.893-32.732h.009c14.205-3.811 28.885 4.587 32.715 18.91 3.79 14.082-4.479 28.861-18.894 32.715zm-9.221-34.419c-4.695 1.258-7.591 6.089-6.298 10.916 1.27 4.732 6.089 7.568 10.908 6.298 4.755-1.279 7.578-6.147 6.297-10.908-1.292-4.827-6.231-7.555-10.907-6.306z" fill="url(#SVGID_2_)"/></g></g></g></svg>