<svg id="Capa_1" enable-background="new 0 0 512 512" height="512" viewBox="0 0 512 512" width="512" xmlns="http://www.w3.org/2000/svg" xmlns:xlink="http://www.w3.org/1999/xlink"><linearGradient id="SVGID_1_" gradientUnits="userSpaceOnUse" x1="256" x2="256" y1="512" y2="0"><stop offset="0" stop-color="#addcff"/><stop offset=".5028" stop-color="#eaf6ff"/><stop offset="1" stop-color="#eaf6ff"/></linearGradient><linearGradient id="SVGID_2_" gradientUnits="userSpaceOnUse" x1="248" x2="248" y1="407" y2="105"><stop offset="0" stop-color="#00c0ff"/><stop offset="1" stop-color="#5558ff"/></linearGradient><g><g><circle cx="256" cy="256" fill="url(#SVGID_1_)" r="256"/></g><g><g><path d="m337.091 105h-178.182c-4.924 0-8.909 3.973-8.909 8.882v284.235c0 4.91 3.985 8.882 8.909 8.882h178.182c4.924 0 8.909-3.973 8.909-8.882v-284.235c0-4.909-3.985-8.882-8.909-8.882zm-89.091 35.529c4.92 0 8.909 3.977 8.909 8.882s-3.989 8.882-8.909 8.882-8.909-3.977-8.909-8.882c0-4.904 3.989-8.882 8.909-8.882zm-26.727 44.412c0-7.124 7.98-11.299 13.851-7.39l53.455 35.529c2.48 1.648 3.967 4.424 3.967 7.39s-1.488 5.742-3.967 7.39l-53.455 35.529c-5.865 3.898-13.851-.252-13.851-7.39zm44.545 186.53h-35.636c-4.924 0-8.909-3.973-8.909-8.882 0-4.91 3.985-8.882 8.909-8.882h35.636c4.924 0 8.909 3.973 8.909 8.882s-3.984 8.882-8.909 8.882zm35.637-53.295h-26.727v8.882c0 4.91-3.985 8.882-8.909 8.882s-8.909-3.973-8.909-8.882v-8.882h-62.364c-4.924 0-8.909-3.973-8.909-8.882 0-4.91 3.985-8.882 8.909-8.882h62.364v-8.882c0-4.91 3.985-8.882 8.909-8.882s8.909 3.973 8.909 8.882v8.882h26.727c4.924 0 8.909 3.973 8.909 8.882 0 4.91-3.985 8.882-8.909 8.882z" fill="url(#SVGID_2_)"/></g></g></g></svg>