<svg id="Capa_1" enable-background="new 0 0 512 512" height="512" viewBox="0 0 512 512" width="512" xmlns="http://www.w3.org/2000/svg" xmlns:xlink="http://www.w3.org/1999/xlink"><linearGradient id="SVGID_1_" gradientUnits="userSpaceOnUse" x1="256" x2="256" y1="512" y2="0"><stop offset="0" stop-color="#ffbef9"/><stop offset="1" stop-color="#fff1ff"/></linearGradient><linearGradient id="SVGID_2_" gradientUnits="userSpaceOnUse" x1="256" x2="256" y1="425.813" y2="101.499"><stop offset="0" stop-color="#ff81ff"/><stop offset="1" stop-color="#a93aff"/></linearGradient><g><circle cx="256" cy="256" fill="url(#SVGID_1_)" r="256"/><g fill="url(#SVGID_2_)"><path d="m404.529 176.001-144.506-72.553c-2.53-1.265-5.516-1.265-8.046 0l-144.506 72.553c-3.048 1.528-4.971 4.638-4.971 8.046s1.924 6.517 4.971 8.046l144.506 71.953c1.265.632 2.644.949 4.023.949s2.758-.316 4.023-.949l144.506-71.953c3.048-1.528 4.971-4.638 4.971-8.046s-1.924-6.517-4.971-8.046z"/><path d="m404.529 319.908-35.748-17.874-100.713 50.056c-3.724 1.862-7.896 2.846-12.068 2.846s-8.344-.984-12.068-2.846l-100.712-50.057-35.748 17.874c-3.048 1.528-4.971 4.638-4.971 8.046s1.924 6.517 4.971 8.046l144.506 72.553c1.265.632 2.644.949 4.023.949s2.758-.316 4.023-.949l144.506-72.553c3.048-1.528 4.971-4.638 4.971-8.046s-1.925-6.517-4.972-8.045z"/><path d="m404.529 247.954-35.749-17.874-100.712 50.056c-3.724 1.862-7.896 2.846-12.068 2.846s-8.344-.984-12.068-2.846l-100.712-50.056-35.748 17.874c-3.048 1.528-4.971 4.638-4.971 8.046s1.924 6.517 4.971 8.046l144.506 71.953c1.265.632 2.644.949 4.023.949s2.758-.316 4.023-.949l144.506-71.953c3.048-1.528 4.971-4.638 4.971-8.046s-1.925-6.517-4.972-8.046z"/></g></g></svg>