<svg id="Capa_1" enable-background="new 0 0 512 512" height="512" viewBox="0 0 512 512" width="512" xmlns="http://www.w3.org/2000/svg" xmlns:xlink="http://www.w3.org/1999/xlink"><linearGradient id="SVGID_1_" gradientUnits="userSpaceOnUse" x1="256" x2="256" y1="512" y2="0"><stop offset="0" stop-color="#ffedad"/><stop offset="1" stop-color="#ffffe5"/></linearGradient><linearGradient id="SVGID_2_" gradientUnits="userSpaceOnUse" x1="256.044" x2="256.044" y1="406.91" y2="105.786"><stop offset="0" stop-color="#ffde00"/><stop offset="1" stop-color="#fd5900"/></linearGradient><g><g><g><circle cx="256" cy="256" fill="url(#SVGID_1_)" r="256"/></g></g><g><g><g><path d="m388.392 124.392c-26.566-26.566-71.738-24.428-100.944 4.778l-66.076 66.076c-4.625 4.625-8.506 9.467-11.653 14.778-10.63 17.122-14.085 36.925-10.03 54.988 2.599 11.586 8.13 22.403 16.905 31.178 4.164 4.164 8.785 7.573 13.715 10.327l24.737-24.737c1.129-1.129 2.122-2.409 2.952-3.77-5.549-1.353-10.752-4.03-14.973-8.251-8.895-8.895-11.302-21.875-7.581-34.011 1.789-5.877 5.212-11.704 9.969-16.461l66.076-66.076c14.537-14.537 37.25-15.611 50.472-2.389s12.148 35.935-2.389 50.472l-32.08 32.08c1.056 3.019 2.038 6.077 2.75 9.248 2.602 11.582 2.61 23.783.322 35.764l53.05-53.049c29.206-29.207 31.344-74.379 4.778-100.945zm-92.898 92.114c-4.164-4.164-8.785-7.573-13.715-10.327l-24.737 24.737c-1.129 1.129-2.122 2.41-2.952 3.769 5.549 1.353 10.751 4.031 14.972 8.252 8.895 8.895 11.303 21.874 7.581 34.011-1.788 5.876-5.212 11.704-9.969 16.461l-66.076 66.076c-14.537 14.536-37.25 15.611-50.472 2.389-13.223-13.223-12.147-35.936 2.389-50.472l32.08-32.08c-1.056-3.019-2.038-6.077-2.75-9.248-2.602-11.582-2.61-23.783-.322-35.764l-53.05 53.05c-29.205 29.205-31.344 74.378-4.778 100.944s71.739 24.427 100.944-4.778l66.076-66.076c4.626-4.626 8.506-9.467 11.653-14.778 10.63-17.122 14.085-36.925 10.031-54.989-2.6-11.584-8.13-22.402-16.905-31.177z" fill="url(#SVGID_2_)"/></g></g></g></g></svg>