<svg id="Capa_1" enable-background="new 0 0 512 512" height="512" viewBox="0 0 512 512" width="512" xmlns="http://www.w3.org/2000/svg" xmlns:xlink="http://www.w3.org/1999/xlink"><linearGradient id="SVGID_1_" gradientUnits="userSpaceOnUse" x1="256" x2="256" y1="512" y2="0"><stop offset="0" stop-color="#addcff"/><stop offset=".5028" stop-color="#eaf6ff"/><stop offset="1" stop-color="#eaf6ff"/></linearGradient><linearGradient id="SVGID_2_" gradientUnits="userSpaceOnUse" x1="256" x2="256" y1="407" y2="105"><stop offset="0" stop-color="#00c0ff"/><stop offset="1" stop-color="#5558ff"/></linearGradient><g><g><g><circle cx="256" cy="256" fill="url(#SVGID_1_)" r="256"/></g></g><g id="Group_3_"><g><g><g><path d="m247.118 238.235c0-34.28-27.896-62.176-62.177-62.176s-62.176 27.896-62.176 62.176 27.896 62.176 62.176 62.176 62.177-27.895 62.177-62.176zm-62.177 62.177c-44.082 0-79.941 35.859-79.941 79.941v17.765c0 4.91 3.973 8.882 8.882 8.882h142.118c4.91 0 8.882-3.973 8.882-8.882v-17.765c0-44.082-35.859-79.941-79.941-79.941zm204.294-133.236c0-34.28-27.896-62.176-62.177-62.176-34.28 0-62.177 27.896-62.177 62.176s27.896 62.176 62.177 62.176c34.281.001 62.177-27.895 62.177-62.176zm-62.176 62.177c-44.082 0-79.941 35.859-79.941 79.941v17.765c0 4.91 3.973 8.882 8.882 8.882h142.118c4.91 0 8.882-3.973 8.882-8.882v-17.765c0-44.082-35.859-79.941-79.941-79.941z" fill="url(#SVGID_2_)"/></g></g></g></g></g></svg>