<?xml version="1.0" encoding="UTF-8" standalone="no"?>
<!-- Created with Inkscape (http://www.inkscape.org/) -->

<svg
   xmlns:dc="http://purl.org/dc/elements/1.1/"
   xmlns:cc="http://creativecommons.org/ns#"
   xmlns:rdf="http://www.w3.org/1999/02/22-rdf-syntax-ns#"
   xmlns:svg="http://www.w3.org/2000/svg"
   xmlns="http://www.w3.org/2000/svg"
   xmlns:sodipodi="http://sodipodi.sourceforge.net/DTD/sodipodi-0.dtd"
   xmlns:inkscape="http://www.inkscape.org/namespaces/inkscape"
   width="16"
   height="16"
   viewBox="0 0 4.2333332 4.2333335"
   version="1.1"
   id="svg901"
   inkscape:version="0.92.5 (2060ec1f9f, 2020-04-08)"
   sodipodi:docname="games-app-symbolic.svg">
  <defs
     id="defs895" />
  <sodipodi:namedview
     id="base"
     pagecolor="#ffffff"
     bordercolor="#666666"
     borderopacity="1.0"
     inkscape:pageopacity="0.0"
     inkscape:pageshadow="2"
     inkscape:zoom="25.53125"
     inkscape:cx="4.2412514"
     inkscape:cy="10.596712"
     inkscape:document-units="px"
     inkscape:current-layer="layer1"
     showgrid="false"
     units="px"
     inkscape:window-width="1920"
     inkscape:window-height="1004"
     inkscape:window-x="0"
     inkscape:window-y="0"
     inkscape:window-maximized="1" />
  <metadata
     id="metadata898">
    <rdf:RDF>
      <cc:Work
         rdf:about="">
        <dc:format>image/svg+xml</dc:format>
        <dc:type
           rdf:resource="http://purl.org/dc/dcmitype/StillImage" />
        <dc:title></dc:title>
      </cc:Work>
    </rdf:RDF>
  </metadata>
  <g
     inkscape:label="Layer 1"
     inkscape:groupmode="layer"
     id="layer1"
     transform="translate(0,-292.76666)">
    <path
       style="fill:#363636;stroke-width:0.02313658;fill-opacity:1"
       inkscape:connector-curvature="0"
       class="st1"
       d="m 2.9252933,293.42985 h -1.61956 c -0.57610997,0 -1.04114997,0.46505 -1.04114997,1.04115 v 1.27251 c 0,0.2545 0.20823,0.46273 0.46273,0.46273 h 0.15733 c 0.12955997,0 0.24987997,-0.074 0.31002997,-0.18972 0.10412,-0.20591 0.21054,-0.41414 0.31466,-0.62006 h 1.22161 c 0.1018,0.20129 0.20592,0.40258 0.30772,0.60387 0.0602,0.11568 0.17815,0.18972 0.31003,0.18972 h 0.15732 c 0.25451,0 0.46274,-0.20823 0.46274,-0.46273 V 294.471 c -0.002,-0.5761 -0.46736,-1.04115 -1.04346,-1.04115 z m -1.13138,1.14526 h -0.34705 v 0.34705 h -0.34705 v -0.34705 H 0.75276333 v -0.34704 H 1.0998133 v -0.34705 h 0.34705 v 0.34705 h 0.34705 z m 0.88844,-0.17352 c -0.14344,0 -0.26144,-0.11568 -0.26144,-0.26144 0,-0.14576 0.11568,-0.26145 0.26144,-0.26145 0.14576,0 0.26145,0.11569 0.26145,0.26145 0,0.14576 -0.118,0.26144 -0.26145,0.26144 z m 0.62932,0.52057 c -0.14345,0 -0.26144,-0.11568 -0.26144,-0.26144 0,-0.14576 0.11568,-0.26144 0.26144,-0.26144 0.14576,0 0.26144,0.11568 0.26144,0.26144 0,0.14576 -0.11799,0.26144 -0.26144,0.26144 z"
       id="path821" />
  </g>
</svg>
