<?xml version="1.0" encoding="UTF-8" standalone="no"?>
<svg
   xmlns:dc="http://purl.org/dc/elements/1.1/"
   xmlns:cc="http://creativecommons.org/ns#"
   xmlns:rdf="http://www.w3.org/1999/02/22-rdf-syntax-ns#"
   xmlns:svg="http://www.w3.org/2000/svg"
   xmlns="http://www.w3.org/2000/svg"
   xmlns:sodipodi="http://sodipodi.sourceforge.net/DTD/sodipodi-0.dtd"
   xmlns:inkscape="http://www.inkscape.org/namespaces/inkscape"
   id="레이어_1"
   data-name="레이어 1"
   viewBox="0 0 16 16"
   version="1.1"
   sodipodi:docname="preferences-system-details-symbolic.svg"
   inkscape:version="0.92.5 (2060ec1f9f, 2020-04-08)">
  <metadata
     id="metadata13">
    <rdf:RDF>
      <cc:Work
         rdf:about="">
        <dc:format>image/svg+xml</dc:format>
        <dc:type
           rdf:resource="http://purl.org/dc/dcmitype/StillImage" />
      </cc:Work>
    </rdf:RDF>
  </metadata>
  <sodipodi:namedview
     pagecolor="#ffffff"
     bordercolor="#666666"
     borderopacity="1"
     objecttolerance="10"
     gridtolerance="10"
     guidetolerance="10"
     inkscape:pageopacity="0"
     inkscape:pageshadow="2"
     inkscape:window-width="1920"
     inkscape:window-height="1004"
     id="namedview11"
     showgrid="false"
     inkscape:zoom="29.5"
     inkscape:cx="2.1897334"
     inkscape:cy="4.2099186"
     inkscape:window-x="0"
     inkscape:window-y="0"
     inkscape:window-maximized="1"
     inkscape:current-layer="레이어_1" />
  <defs
     id="defs4">
    <style
       id="style2">.cls-1{fill:#363636;}</style>
  </defs>
  <title
     id="title6">help-about-symbolic</title>
  <path
     style="opacity:1;fill:#363636;fill-opacity:1;stroke-width:2.44966912"
     d="M 8 1 A 7 7 0 0 0 1 8 A 7 7 0 0 0 8 15 A 7 7 0 0 0 15 8 A 7 7 0 0 0 8 1 z M 8.0175781 3.484375 C 8.0299596 3.4847786 8.0423321 3.4854297 8.0546875 3.4863281 C 8.5638162 3.4910705 8.9741725 3.9049119 8.9746094 4.4140625 C 8.9759026 4.9458691 8.5311541 5.370118 8 5.34375 C 6.7604172 5.3320313 6.7779953 3.4726563 8.0175781 3.484375 z M 5.8652344 6.4941406 L 8.9277344 6.4941406 L 8.9277344 12.664062 L 7.4453125 12.664062 L 7.4453125 7.6816406 L 5.8652344 7.6816406 L 5.8652344 6.4941406 z "
     id="path820" />
</svg>
