<?xml version="1.0" encoding="utf-8"?>
<!-- Generator: Adobe Illustrator 23.0.0, SVG Export Plug-In . SVG Version: 6.00 Build 0)  -->
<svg version="1.1" id="레이어_1" xmlns="http://www.w3.org/2000/svg" xmlns:xlink="http://www.w3.org/1999/xlink" x="0px"
	 y="0px" viewBox="0 0 16 16" style="enable-background:new 0 0 16 16;" xml:space="preserve">
<style type="text/css">
	.st0{fill:#363636;}
</style>
<g>
	<path class="st0" d="M8,3.5L8,3.5c-0.3,0-0.5-0.2-0.5-0.5V2.4c0-0.3,0.2-0.5,0.5-0.5h0c0.3,0,0.5,0.2,0.5,0.5v0.7
		C8.5,3.3,8.3,3.5,8,3.5z"/>
	<path class="st0" d="M5.3,4.3L5.3,4.3C5,4.4,4.8,4.3,4.6,4.1L4.3,3.5C4.1,3.3,4.2,3,4.4,2.9l0,0C4.7,2.7,5,2.8,5.1,3l0.3,0.6
		C5.6,3.9,5.5,4.1,5.3,4.3z"/>
	<path class="st0" d="M10.5,4.3L10.5,4.3c0.2,0.1,0.5,0.1,0.6-0.2l0.3-0.6c0.1-0.2,0.1-0.5-0.2-0.6v0c-0.2-0.1-0.5-0.1-0.6,0.2
		l-0.3,0.6C10.2,3.9,10.3,4.1,10.5,4.3z"/>
	<path class="st0" d="M14.9,8.8L14.9,8.8c0,0.3-0.2,0.5-0.5,0.5h-0.7c-0.3,0-0.5-0.2-0.5-0.5v0c0-0.3,0.2-0.5,0.5-0.5h0.7
		C14.6,8.3,14.9,8.5,14.9,8.8z"/>
	<path class="st0" d="M2.8,9L2.8,9c0,0.3-0.2,0.5-0.5,0.5H1.6C1.4,9.5,1.1,9.2,1.1,9v0c0-0.3,0.2-0.5,0.5-0.5h0.7
		C2.6,8.5,2.8,8.7,2.8,9z"/>
	<path class="st0" d="M12.6,6.1L12.6,6.1c0.2,0.2,0.5,0.2,0.7,0.1l0.5-0.4C14,5.6,14,5.3,13.9,5.1l0,0c-0.2-0.2-0.5-0.2-0.7-0.1
		l-0.5,0.4C12.5,5.7,12.4,5.9,12.6,6.1z"/>
	<path class="st0" d="M3.4,6.5L3.4,6.5C3.2,6.7,2.9,6.7,2.7,6.6L2.2,6.1C2,5.9,2,5.6,2.1,5.5l0,0c0.2-0.2,0.5-0.2,0.7-0.1l0.5,0.4
		C3.5,6,3.6,6.3,3.4,6.5z"/>
	<path class="st0" d="M13.1,10.3h-0.5c-0.5-1.7-2.1-2.9-3.9-2.9s-3.4,1.2-3.9,2.9H2.9c-1.1,0-1.9,0.9-1.9,1.9v0
		c0,1.1,0.9,1.9,1.9,1.9h10.2c1.1,0,1.9-0.9,1.9-1.9v0C15,11.1,14.1,10.3,13.1,10.3z"/>
	<g>
		<path class="st0" d="M4.5,9.9c0.6-1.7,2.3-3,4.2-3c1.6,0,2.9,0.8,3.7,2c0-0.1,0-0.1,0-0.2c0-2.4-2-4.4-4.4-4.4s-4.4,2-4.4,4.4
			c0,0.4,0.1,0.8,0.2,1.2H4.5z"/>
	</g>
</g>
</svg>
