<?xml version="1.0" encoding="utf-8"?>
<!-- Generator: Adobe Illustrator 23.0.0, SVG Export Plug-In . SVG Version: 6.00 Build 0)  -->
<svg version="1.1" id="레이어_1" xmlns="http://www.w3.org/2000/svg" xmlns:xlink="http://www.w3.org/1999/xlink" x="0px"
	 y="0px" viewBox="0 0 256 256" style="enable-background:new 0 0 256 256;" xml:space="preserve">
<style type="text/css">
	.st0{fill:#E7A12E;}
	.st1{fill:#FFFFFF;}
	.st2{fill:#C5660A;}
</style>
<g>
	<path class="st0" d="M251.7,90.4c-3.1-23.4-11.4-44.6-26-60.1l0,0c-15.6-14.6-36.7-22.9-60.1-26C143.2,1.3,128,2,128,2
		s-15.2-0.7-37.6,2.3C67,7.4,45.8,15.7,30.3,30.3C15.7,45.8,7.5,67,4.3,90.4c-3,22.3-2.2,37.6-2.2,37.6s-0.7,15.2,2.2,37.6
		c3.1,23.4,11.4,44.6,26,60.1l0,0c15.6,14.6,36.7,22.9,60.1,26c22.3,3,37.6,2.2,37.6,2.2s15.2,0.7,37.6-2.2
		c23.4-3.1,44.6-11.4,60.1-26l0,0c14.6-15.6,22.9-36.7,26-60.1c3-22.3,2.2-37.6,2.2-37.6S254.7,112.8,251.7,90.4"/>
	<g>
		<path class="st1" d="M188.3,192.7H67.7c-8.1,0-14.7-6.6-14.7-14.7v-75.6c0-8.1,6.6-14.7,14.7-14.7h120.5c8.1,0,14.7,6.6,14.7,14.7
			V178C203,186.1,196.4,192.7,188.3,192.7z"/>
		<path class="st1" d="M115.3,108.5H53V75.3c0-6.7,5.4-12,12-12h50.2c6.7,0,12,5.4,12,12v21.1C127.3,103.1,121.9,108.5,115.3,108.5z
			"/>
		<path class="st1" d="M127.3,77.1h-10.6v21.1h21.1V87.7C132.1,87.6,127.4,82.9,127.3,77.1z"/>
	</g>
</g>
<path class="st2" d="M253,189.1c-1.2-9.3-4.5-17.7-10.3-23.9l0,0c-6.2-5.8-14.6-9.1-23.9-10.3c-8.9-1.2-14.9-0.9-14.9-0.9
	s-6-0.3-14.9,0.9c-9.3,1.2-17.7,4.5-23.9,10.3c-5.8,6.1-9.1,14.6-10.3,23.9c-1.2,8.9-0.9,14.9-0.9,14.9s-0.3,6,0.9,14.9
	c1.2,9.3,4.5,17.7,10.3,23.9l0,0c6.2,5.8,14.6,9.1,23.9,10.3c8.9,1.2,14.9,0.9,14.9,0.9s6,0.3,14.9-0.9c9.3-1.2,17.7-4.5,23.9-10.3
	l0,0c5.8-6.2,9.1-14.6,10.3-23.9c1.2-8.9,0.9-14.9,0.9-14.9S254.2,198,253,189.1"/>
<g>
	<path class="st1" d="M181.2,192.4c0.1,0.8,0.4,1.5,0.6,1.8c3.3,3.2,8.4,7.5,15.6,11c3.1,1.5,10,4.5,19.3,5.7
		c4.3,0.5,8,0.5,10.7,0.3c2.1-0.4,2.7-1.4,2.9-1.8c0.2-0.4,0.2-1.1,0.3-2.5c0.1-1.1,0.1-2,0.1-2.1c0-14.8-12-26.8-26.8-26.8
		c-3.7,0-6.6,0.8-7.9,1.2c-8.2,2.6-12.8,8.4-14.5,10.8C181.4,190.5,181.1,191.3,181.2,192.4z"/>
	<path class="st1" d="M231.9,202.6c0.9,2.8,0.7,5,0.5,6.3c-0.2,1.5-0.4,2.8-1.5,3.9c-1.6,1.7-3.8,1.8-4.5,1.8
		c-4.9,0.5-14.7,0.8-25.9-3.4c-11.2-4.3-18.2-11.1-21.5-14.8c-1.2-2.4-0.8-4.2-0.7-4.8c0.3-1.4,1.1-2.3,2.3-3.8
		c1.2-1.5,2.3-2.5,3.2-3.1l0,0c-4.4,0.7-11.1,3.6-12.2,8.3c-0.8,3.5,1.5,8,6,12.4c1.1,13.8,12.6,24.7,26.7,24.7c7.4,0,14.1-3,19-7.9
		c5.2-0.3,10.7-1.6,12.5-5.7C238.1,211.1,233.2,204.3,231.9,202.6z M200.9,219c-0.4-0.1-0.7-0.2-1.1-0.4
		C200.1,218.7,200.5,218.9,200.9,219z M193.6,216.1c-0.4-0.2-0.8-0.4-1.3-0.6C192.8,215.7,193.2,215.9,193.6,216.1z M199.4,218.5
		c-1.9-0.7-3.8-1.5-5.6-2.3C195.6,217,197.5,217.8,199.4,218.5z"/>
</g>
</svg>
