<?xml version="1.0" encoding="UTF-8" standalone="no"?>
<!-- Generator: Adobe Illustrator 23.0.0, SVG Export Plug-In . SVG Version: 6.00 Build 0)  -->

<svg
   xmlns:ns="&amp;#38;ns_sfw;"
   xmlns:dc="http://purl.org/dc/elements/1.1/"
   xmlns:cc="http://creativecommons.org/ns#"
   xmlns:rdf="http://www.w3.org/1999/02/22-rdf-syntax-ns#"
   xmlns:svg="http://www.w3.org/2000/svg"
   xmlns="http://www.w3.org/2000/svg"
   xmlns:sodipodi="http://sodipodi.sourceforge.net/DTD/sodipodi-0.dtd"
   xmlns:inkscape="http://www.inkscape.org/namespaces/inkscape"
   version="1.1"
   id="레이어_1"
   x="0px"
   y="0px"
   viewBox="0 0 256 256"
   style="enable-background:new 0 0 256 256;"
   xml:space="preserve"
   sodipodi:docname="default-folder-recent.svg"
   inkscape:version="0.92.5 (2060ec1f9f, 2020-04-08)"><defs
   id="defs25">
	
	

		
		
		
	</defs><sodipodi:namedview
   pagecolor="#ffffff"
   bordercolor="#666666"
   borderopacity="1"
   objecttolerance="10"
   gridtolerance="10"
   guidetolerance="10"
   inkscape:pageopacity="0"
   inkscape:pageshadow="2"
   inkscape:window-width="1920"
   inkscape:window-height="1004"
   id="namedview23"
   showgrid="false"
   inkscape:zoom="0.921875"
   inkscape:cx="-216.40678"
   inkscape:cy="128"
   inkscape:window-x="0"
   inkscape:window-y="0"
   inkscape:window-maximized="1"
   inkscape:current-layer="레이어_1" />
<style
   type="text/css"
   id="style2">
	.st0{fill:#E7A12E;}
	.st1{fill:#FFFFFF;}
	.st2{fill:#C5660A;}
</style>
<metadata
   id="metadata4">
	<ns:sfw>
		<ns:slices />
		<ns:sliceSourceBounds
   bottomLeftOrigin="true"
   height="252.1"
   width="252"
   x="2"
   y="2" />
	</ns:sfw>
<rdf:RDF><cc:Work
     rdf:about=""><dc:format>image/svg+xml</dc:format><dc:type
       rdf:resource="http://purl.org/dc/dcmitype/StillImage" /><dc:title /></cc:Work></rdf:RDF></metadata>
<path
   style="fill:#e7a02d;fill-opacity:1"
   inkscape:connector-curvature="0"
   id="path6"
   d="M 251.7,90.4 C 248.6,67 240.3,45.8 225.7,30.3 v 0 C 210.1,15.7 189,7.4 165.6,4.3 143.2,1.3 128,2 128,2 128,2 112.8,1.3 90.4,4.3 67,7.4 45.8,15.7 30.3,30.3 15.7,45.8 7.5,67 4.3,90.4 1.3,112.7 2.1,128 2.1,128 c 0,0 -0.7,15.2 2.2,37.6 3.1,23.4 11.4,44.6 26,60.1 v 0 c 15.6,14.6 36.7,22.9 60.1,26 22.3,3 37.6,2.2 37.6,2.2 0,0 15.2,0.7 37.6,-2.2 23.4,-3.1 44.6,-11.4 60.1,-26 v 0 c 14.6,-15.6 22.9,-36.7 26,-60.1 3,-22.3 2.2,-37.6 2.2,-37.6 0,0 0.8,-15.2 -2.2,-37.6"
   class="st0" /><path
   style="fill:#ffffff"
   d="M 65 63.300781 C 58.4 63.300781 53 68.600781 53 75.300781 L 53 102.40039 L 53 108.5 L 53 178 C 53 186.1 59.599219 192.69922 67.699219 192.69922 L 188.30078 192.69922 C 196.40078 192.69922 203.00039 186.1 202.90039 178 L 202.90039 102.40039 C 202.90039 94.300391 196.29922 87.699219 188.19922 87.699219 L 137.80078 87.699219 C 132.10078 87.599219 127.40078 82.899609 127.30078 77.099609 L 127.19922 77.099609 L 127.19922 75.300781 C 127.19922 68.700781 121.89922 63.300781 115.19922 63.300781 L 65 63.300781 z "
   id="path8" />
<path
   class="st2"
   d="M253,189.1c-1.2-9.3-4.5-17.7-10.3-23.9l0,0c-6.2-5.8-14.6-9.1-23.9-10.3c-8.9-1.2-14.9-0.9-14.9-0.9  s-6-0.3-14.9,0.9c-9.3,1.2-17.7,4.5-23.9,10.3c-5.8,6.1-9.1,14.6-10.3,23.9c-1.2,8.9-0.9,14.9-0.9,14.9s-0.3,6,0.9,14.9  c1.2,9.3,4.5,17.7,10.3,23.9l0,0c6.2,5.8,14.6,9.1,23.9,10.3c8.9,1.2,14.9,0.9,14.9,0.9s6,0.3,14.9-0.9c9.3-1.2,17.7-4.5,23.9-10.3  l0,0c5.8-6.2,9.1-14.6,10.3-23.9c1.2-8.9,0.9-14.9,0.9-14.9S254.2,198,253,189.1"
   id="path18" />

<style
   id="style832"
   type="text/css">
	.st0{fill:#363636;}
</style><path
   id="path834"
   d="m 204.02857,170.17143 c -18.94286,0 -34,15.05714 -34,34 0,18.94286 15.05714,34 34,34 18.94286,0 34,-15.05714 34,-34 0,-18.94286 -15.05714,-34 -34,-34 z M 218.6,220.2 c -1.45714,1.45714 -3.4,1.45714 -4.85714,0 l -13.11429,-13.6 c 0,-7.77143 0,-15.05714 0,-22.82857 0,-1.94286 1.45714,-3.4 3.4,-3.4 1.94286,0 3.4,1.45714 3.4,3.4 v 18.94286 c 0,0.48571 0,0.48571 0,0.97143 L 218.6,214.85714 c 1.45714,1.45715 1.45714,3.88572 0,5.34286 z"
   class="st0"
   inkscape:connector-curvature="0"
   style="fill:#ffffff;stroke-width:4.85714293" /></svg>