<?xml version="1.0" encoding="utf-8"?>
<!-- Generator: Adobe Illustrator 23.0.0, SVG Export Plug-In . SVG Version: 6.00 Build 0)  -->
<!DOCTYPE svg PUBLIC "-//W3C//DTD SVG 1.1//EN" "http://www.w3.org/Graphics/SVG/1.1/DTD/svg11.dtd" [
	<!ENTITY ns_extend "http://ns.adobe.com/Extensibility/1.0/">
	<!ENTITY ns_ai "http://ns.adobe.com/AdobeIllustrator/10.0/">
	<!ENTITY ns_graphs "http://ns.adobe.com/Graphs/1.0/">
	<!ENTITY ns_vars "http://ns.adobe.com/Variables/1.0/">
	<!ENTITY ns_imrep "http://ns.adobe.com/ImageReplacement/1.0/">
	<!ENTITY ns_sfw "http://ns.adobe.com/SaveForWeb/1.0/">
	<!ENTITY ns_custom "http://ns.adobe.com/GenericCustomNamespace/1.0/">
	<!ENTITY ns_adobe_xpath "http://ns.adobe.com/XPath/1.0/">
]>
<svg version="1.1" id="레이어_1" xmlns:x="&ns_extend;" xmlns:i="&ns_ai;" xmlns:graph="&ns_graphs;"
	 xmlns="http://www.w3.org/2000/svg" xmlns:xlink="http://www.w3.org/1999/xlink" x="0px" y="0px" viewBox="0 0 256 256"
	 style="enable-background:new 0 0 256 256;" xml:space="preserve">
<style type="text/css">
	.st0{fill:#E7A12E;}
	.st1{fill:#FFFFFF;}
	.st2{fill:#C5660A;}
</style>
<metadata>
	<sfw  xmlns="&ns_sfw;">
		<slices></slices>
		<sliceSourceBounds  bottomLeftOrigin="true" height="252.1" width="252" x="2" y="2"></sliceSourceBounds>
	</sfw>
</metadata>
<g>
	<path class="st0" d="M251.7,90.4c-3.1-23.4-11.4-44.6-26-60.1l0,0c-15.6-14.6-36.7-22.9-60.1-26C143.2,1.3,128,2,128,2
		s-15.2-0.7-37.6,2.3C67,7.4,45.8,15.7,30.3,30.3C15.7,45.8,7.5,67,4.3,90.4c-3,22.3-2.2,37.6-2.2,37.6s-0.7,15.2,2.2,37.6
		c3.1,23.4,11.4,44.6,26,60.1l0,0c15.6,14.6,36.7,22.9,60.1,26c22.3,3,37.6,2.2,37.6,2.2s15.2,0.7,37.6-2.2
		c23.4-3.1,44.6-11.4,60.1-26l0,0c14.6-15.6,22.9-36.7,26-60.1c3-22.3,2.2-37.6,2.2-37.6S254.7,112.8,251.7,90.4"/>
	<g>
		<path class="st1" d="M188.3,192.7H67.7c-8.1,0-14.7-6.6-14.7-14.7v-75.6c0-8.1,6.6-14.7,14.7-14.7h120.5c8.1,0,14.7,6.6,14.7,14.7
			V178C203,186.1,196.4,192.7,188.3,192.7z"/>
		<path class="st1" d="M115.3,108.5H53V75.3c0-6.7,5.4-12,12-12h50.2c6.7,0,12,5.4,12,12v21.1C127.3,103.1,121.9,108.5,115.3,108.5z
			"/>
		<path class="st1" d="M127.3,77.1h-10.6v21.1h21.1V87.7C132.1,87.6,127.4,82.9,127.3,77.1z"/>
	</g>
</g>
<path class="st2" d="M253,189.1c-1.2-9.3-4.5-17.7-10.3-23.9l0,0c-6.2-5.8-14.6-9.1-23.9-10.3c-8.9-1.2-14.9-0.9-14.9-0.9
	s-6-0.3-14.9,0.9c-9.3,1.2-17.7,4.5-23.9,10.3c-5.8,6.1-9.1,14.6-10.3,23.9c-1.2,8.9-0.9,14.9-0.9,14.9s-0.3,6,0.9,14.9
	c1.2,9.3,4.5,17.7,10.3,23.9l0,0c6.2,5.8,14.6,9.1,23.9,10.3c8.9,1.2,14.9,0.9,14.9,0.9s6,0.3,14.9-0.9c9.3-1.2,17.7-4.5,23.9-10.3
	l0,0c5.8-6.2,9.1-14.6,10.3-23.9c1.2-8.9,0.9-14.9,0.9-14.9S254.2,198,253,189.1"/>
<path class="st1" d="M235.6,211.4c-1.5-1.2-2.9-2.4-4.3-3.6c-0.2-0.3-1.2-1.6-1.1-3.5c0.1-1.6,0.8-2.7,1.1-3.1
	c0.7-0.3,2.3-2.2,4.8-4.4c1.7-1.5,2-4,0.9-6l-4.6-8c-1.2-2.2-4-3-6.2-2c-1.6,0.6-3.1,1.1-4.8,1.7c-0.6,0.1-2,0.3-3.6-0.4
	c-2.3-1-3.1-3.1-3.3-3.6c0.1-0.9-0.6-2.7-0.9-5.1c-0.2-2.5-2.3-4.4-4.8-4.4h-9.3c-2.3,0-4.2,1.5-4.8,3.8c-0.4,1.9-0.8,3.6-1.3,5.5
	c-0.2,0.6-0.6,1.7-1.5,2.6c-2.1,2-5.1,1.5-5.4,1.4c-0.7-0.5-2.6-0.7-4.8-1.7c-2.3-1-4.9-0.2-6.2,2l-4.6,8c-1.1,1.9-0.7,4.4,0.9,6
	c1.5,1.4,3,2.7,4.4,4.1c0.3,0.3,1.5,1.5,1.5,3.5c0.2,2.3-1.3,3.8-1.5,4.1c-0.8,0.3-1.9,1.9-4,3.4c-2,1.5-2.6,4.2-1.4,6.4l4.6,8
	c1.1,1.9,3.5,2.9,5.7,2.2c2-0.6,4.1-1.2,6.1-1.9c0.6-0.2,1.7-0.3,3,0.2c2.3,0.8,3.1,3.1,3.2,3.5c-0.1,0.8,0.6,2.7,1.2,5.2
	c0.5,2.2,2.5,3.8,4.8,3.8h9.3c2.5,0,4.6-1.9,4.8-4.4c0.3-1.6,0.6-3.2,0.9-4.9c0.2-0.6,0.8-1.5,1.8-2.3c1.8-1.5,3.9-1.4,4.4-1.3
	c0.6,0.5,3,0.9,6.1,1.9c2.2,0.6,4.5-0.2,5.7-2.2l4.6-8C238.2,215.6,237.6,212.9,235.6,211.4z M191.6,204.1c0-6.7,5.4-12.1,12.1-12.1
	c6.7,0,12.1,5.4,12.1,12.1s-5.4,12.1-12.1,12.1C197,216.3,191.6,210.8,191.6,204.1z"/>
</svg>
