<?xml version="1.0" encoding="UTF-8" standalone="no"?>
<!-- Created with Inkscape (http://www.inkscape.org/) -->

<svg
   xmlns:dc="http://purl.org/dc/elements/1.1/"
   xmlns:cc="http://creativecommons.org/ns#"
   xmlns:rdf="http://www.w3.org/1999/02/22-rdf-syntax-ns#"
   xmlns:svg="http://www.w3.org/2000/svg"
   xmlns="http://www.w3.org/2000/svg"
   xmlns:sodipodi="http://sodipodi.sourceforge.net/DTD/sodipodi-0.dtd"
   xmlns:inkscape="http://www.inkscape.org/namespaces/inkscape"
   width="256"
   height="256"
   viewBox="0 0 67.733332 67.733335"
   version="1.1"
   id="svg836"
   inkscape:version="0.92.5 (2060ec1f9f, 2020-04-08)"
   sodipodi:docname="folder-games.svg">
  <defs
     id="defs830" />
  <sodipodi:namedview
     id="base"
     pagecolor="#ffffff"
     bordercolor="#666666"
     borderopacity="1.0"
     inkscape:pageopacity="0.0"
     inkscape:pageshadow="2"
     inkscape:zoom="0.98994949"
     inkscape:cx="-141.67455"
     inkscape:cy="164.09797"
     inkscape:document-units="px"
     inkscape:current-layer="layer1"
     showgrid="false"
     units="px"
     inkscape:window-width="1920"
     inkscape:window-height="1004"
     inkscape:window-x="0"
     inkscape:window-y="0"
     inkscape:window-maximized="1" />
  <metadata
     id="metadata833">
    <rdf:RDF>
      <cc:Work
         rdf:about="">
        <dc:format>image/svg+xml</dc:format>
        <dc:type
           rdf:resource="http://purl.org/dc/dcmitype/StillImage" />
        <dc:title />
      </cc:Work>
    </rdf:RDF>
  </metadata>
  <g
     inkscape:label="Layer 1"
     inkscape:groupmode="layer"
     id="layer1"
     transform="translate(0,-229.26666)">
    <path
       style="fill:#e7a02d;fill-opacity:1;stroke-width:0.26458332"
       inkscape:connector-curvature="0"
       id="path6"
       d="m 66.595569,253.1849 c -0.82021,-6.19125 -3.01625,-11.80042 -6.87917,-15.90146 v 0 c -4.1275,-3.86292 -9.7102,-6.05896 -15.90145,-6.87917 -5.92667,-0.79375 -9.94834,-0.60854 -9.94834,-0.60854 0,0 -4.02166,-0.18521 -9.94833,0.60854 -6.19125,0.82021 -11.80042,3.01625 -15.9014596,6.87917 -3.86292,4.10104 -6.0325,9.71021 -6.87917,15.90146 -0.79374999,5.90021 -0.58207999,9.94833 -0.58207999,9.94833 0,0 -0.18521,4.02167 0.58207999,9.94833 0.82021,6.19125 3.01625,11.80042 6.87917,15.90146 v 0 c 4.1274996,3.86292 9.7102096,6.05896 15.9014596,6.87917 5.90021,0.79375 9.94833,0.58208 9.94833,0.58208 0,0 4.02167,0.18521 9.94834,-0.58208 6.19125,-0.82021 11.80041,-3.01625 15.90145,-6.87917 v 0 c 3.86292,-4.1275 6.05896,-9.71021 6.87917,-15.90146 0.79375,-5.9002 0.58208,-9.94833 0.58208,-9.94833 0,0 0.21167,-4.02167 -0.58208,-9.94833"
       class="st0" />
    <path
       inkscape:connector-curvature="0"
       style="fill:#ffffff;stroke-width:0.26458332"
       d="m 17.197859,246.0149 c -1.74625,0 -3.175,1.40229 -3.175,3.175 v 7.1701 1.61386 18.38854 c 0,2.14312 1.74604,3.88917 3.88917,3.88917 h 31.90916 c 2.14313,0 3.88928,-1.74605 3.86282,-3.88917 V 256.36 c 0,-2.14312 -1.74656,-3.88968 -3.88969,-3.88968 h -13.33458 c -1.50813,-0.0265 -2.75167,-1.2699 -2.77813,-2.80448 h -0.0269 v -0.47594 c 0,-1.74625 -1.40229,-3.175 -3.175,-3.175 z"
       id="path8" />
    <path
       inkscape:connector-curvature="0"
       class="st2"
       d="m 66.939529,279.29927 c -0.3175,-2.46062 -1.19063,-4.68312 -2.72521,-6.32354 v 0 c -1.64042,-1.53458 -3.86292,-2.40771 -6.32354,-2.72521 -2.35479,-0.3175 -3.94229,-0.23812 -3.94229,-0.23812 0,0 -1.5875,-0.0794 -3.94229,0.23812 -2.46063,0.3175 -4.68313,1.19063 -6.32355,2.72521 -1.53458,1.61396 -2.4077,3.86292 -2.7252,6.32354 -0.3175,2.35479 -0.23813,3.94229 -0.23813,3.94229 0,0 -0.0794,1.5875 0.23813,3.9423 0.3175,2.46062 1.19062,4.68312 2.7252,6.32354 v 0 c 1.64042,1.53458 3.86292,2.40771 6.32355,2.72521 2.35479,0.3175 3.94229,0.23812 3.94229,0.23812 0,0 1.5875,0.0794 3.94229,-0.23812 2.46062,-0.3175 4.68312,-1.19063 6.32354,-2.72521 v 0 c 1.53458,-1.64042 2.40771,-3.86292 2.72521,-6.32354 0.3175,-2.3548 0.23812,-3.9423 0.23812,-3.9423 0,0 0.0794,-1.5875 -0.23812,-3.94229"
       id="path18"
       style="fill:#c5660a;fill-opacity:1;stroke-width:0.26458332" />
    <path
       style="fill:#ffffff;stroke-width:0.10506641"
       inkscape:connector-curvature="0"
       class="st1"
       d="m 57.662089,277.00967 h -7.35465 c -2.61616,0 -4.72799,2.11183 -4.72799,4.72799 v 5.77865 c 0,1.15573 0.9456,2.10133 2.10133,2.10133 h 0.71445 c 0.58837,0 1.13472,-0.33621 1.40789,-0.86155 0.4728,-0.93509 0.9561,-1.88068 1.4289,-2.81578 h 5.54751 c 0.46229,0.91408 0.93509,1.82816 1.39738,2.74224 0.27317,0.52533 0.80901,0.86154 1.40789,0.86154 h 0.71445 c 1.15573,0 2.10133,-0.94559 2.10133,-2.10133 v -5.7051 c -0.0105,-2.61616 -2.12234,-4.72799 -4.73849,-4.72799 z m -5.13775,5.20079 h -1.576 v 1.576 h -1.57599 v -1.576 h -1.576 v -1.576 h 1.576 v -1.576 h 1.57599 v 1.576 h 1.576 z m 4.03455,-0.788 c -0.65141,0 -1.18725,-0.52533 -1.18725,-1.18725 0,-0.66192 0.52533,-1.18725 1.18725,-1.18725 0.66192,0 1.18725,0.52533 1.18725,1.18725 0,0.66192 -0.53584,1.18725 -1.18725,1.18725 z m 2.8578,2.364 c -0.65141,0 -1.18724,-0.52534 -1.18724,-1.18726 0,-0.66191 0.52533,-1.18725 1.18724,-1.18725 0.66192,0 1.18726,0.52534 1.18726,1.18725 0,0.66192 -0.53584,1.18726 -1.18726,1.18726 z"
       id="path821" />
  </g>
</svg>
