<?xml version="1.0" encoding="UTF-8" standalone="no"?>
<!-- Generator: Adobe Illustrator 23.0.0, SVG Export Plug-In . SVG Version: 6.00 Build 0)  -->

<svg
   xmlns:dc="http://purl.org/dc/elements/1.1/"
   xmlns:cc="http://creativecommons.org/ns#"
   xmlns:rdf="http://www.w3.org/1999/02/22-rdf-syntax-ns#"
   xmlns:svg="http://www.w3.org/2000/svg"
   xmlns="http://www.w3.org/2000/svg"
   xmlns:sodipodi="http://sodipodi.sourceforge.net/DTD/sodipodi-0.dtd"
   xmlns:inkscape="http://www.inkscape.org/namespaces/inkscape"
   version="1.1"
   id="레이어_1"
   x="0px"
   y="0px"
   viewBox="0 0 256 256"
   style="enable-background:new 0 0 256 256;"
   xml:space="preserve"
   sodipodi:docname="user-trash-full.svg"
   inkscape:version="0.92.5 (2060ec1f9f, 2020-04-08)"><metadata
   id="metadata23"><rdf:RDF><cc:Work
       rdf:about=""><dc:format>image/svg+xml</dc:format><dc:type
         rdf:resource="http://purl.org/dc/dcmitype/StillImage" /><dc:title></dc:title></cc:Work></rdf:RDF></metadata><defs
   id="defs21">
	
	

		
		
		
	</defs><sodipodi:namedview
   pagecolor="#ffffff"
   bordercolor="#666666"
   borderopacity="1"
   objecttolerance="10"
   gridtolerance="10"
   guidetolerance="10"
   inkscape:pageopacity="0"
   inkscape:pageshadow="2"
   inkscape:window-width="1920"
   inkscape:window-height="1004"
   id="namedview19"
   showgrid="false"
   inkscape:zoom="1.84375"
   inkscape:cx="139.22967"
   inkscape:cy="99.70991"
   inkscape:window-x="0"
   inkscape:window-y="0"
   inkscape:window-maximized="1"
   inkscape:current-layer="레이어_1" />
<style
   type="text/css"
   id="style2">
	.st0{opacity:0.1;}
	.st1{fill:#77CEE5;}
	.st2{fill:#FFFFFF;}
</style>
<g
   class="st0"
   id="g8"
   style="opacity:0.1">
			<g
   id="g6">
				<path
   d="m 132.7,0.5 c 6.2,0 18.1,0.3 33.3,2.3 23.7,3.1 45.1,11.5 60.9,26.3 v 0 c 14.7,15.7 23.1,37.2 26.3,60.9 3,22.6 2.3,38 2.3,38 0,0 0.7,15.4 -2.3,38 -3.1,23.7 -11.5,45.1 -26.3,60.9 v 0 c -15.7,14.8 -37.2,23.2 -60.9,26.3 -15.1,2 -27.1,2.3 -33.3,2.3 -3.1,0 -4.7,-0.1 -4.7,-0.1 0,0 -1.7,0.1 -4.7,0.1 -6.2,0 -18.1,-0.3 -33.3,-2.3 -23.7,-3.1 -45.1,-11.5 -60.9,-26.3 v 0 C 14.4,211.2 6,189.7 2.8,166 -0.2,143.4 0.5,128 0.5,128 0.5,128 -0.2,112.6 2.8,90 6,66.3 14.4,44.8 29.1,29.1 v 0 C 44.9,14.3 66.3,5.9 90,2.8 c 15.2,-2 27.1,-2.3 33.3,-2.3 3.1,0 4.7,0.1 4.7,0.1 0,0 1.7,-0.1 4.7,-0.1"
   id="path4"
   inkscape:connector-curvature="0" />
			</g>
		</g><path
   class="st1"
   d="M 251.7,90.4 C 248.6,67 240.3,45.8 225.7,30.3 v 0 C 210.1,15.7 189,7.4 165.6,4.3 143.2,1.3 128,2 128,2 128,2 112.8,1.3 90.4,4.3 67,7.4 45.8,15.7 30.3,30.3 15.7,45.8 7.5,67 4.3,90.4 1.3,112.7 2.1,128 2.1,128 c 0,0 -0.7,15.2 2.2,37.6 3.1,23.4 11.4,44.6 26,60.1 v 0 c 15.6,14.6 36.7,22.9 60.1,26 22.3,3 37.6,2.2 37.6,2.2 0,0 15.2,0.7 37.6,-2.2 23.4,-3.1 44.6,-11.4 60.1,-26 v 0 c 14.6,-15.6 22.9,-36.7 26,-60.1 3,-22.3 2.2,-37.6 2.2,-37.6 0,0 0.8,-15.2 -2.2,-37.6"
   id="path10"
   inkscape:connector-curvature="0"
   style="fill:#bc5e85;fill-opacity:1" /><path
   style="fill:#ffffff"
   d="m 148.9707,35.105469 c -0.33041,0.0097 -0.66343,0.03603 -0.99804,0.08008 l -54.232426,7.140625 c -5.353804,0.704844 -9.142342,5.642291 -8.4375,10.996094 L 88.136719,74.835938 61.564453,78.333984 63.248047,91.125 77.576172,89.238281 c 2.046929,37.914429 4.178449,75.742459 6.123047,113.662109 0.3,6 4.90039,10.9 10.90039,11.5 h 66.000001 c 2.6,-0.2 5.00039,-1.20039 6.90039,-2.90039 2.3,-2.2 3.70039,-5.10078 3.90039,-8.30078 2.21347,-37.53275 4.51979,-74.97238 6.74023,-112.498048 -0.25052,-4.049495 -3.23487,-4.406607 -5.80273,-4.421875 -13.56897,-0.04637 -42.58924,-0.138613 -65.72023,-0.203236 -0.85085,0.08885 -0.66863,-0.656152 -0.24798,-0.628513 L 190.15234,74.416016 188.46875,61.626953 175.7793,63.296875 161.79883,65.138672 158.9668,43.625 c -0.6608,-5.019191 -5.03989,-8.664424 -9.9961,-8.519531 z m -5.51758,12.478515 c 1.89681,-0.148855 3.57757,1.143135 3.8125,2.927735 l 2.14063,16.257812 -48.97656,6.447266 -2.140628,-16.257813 0.09961,-0.01367 c -0.14886,-1.896797 1.143124,-3.579505 2.927738,-3.814453 z m -40.7539,51.216797 h 14.70117 v 89.599609 h -14.70117 z m 36.80078,0 h 14.69922 l -0.59961,89.599609 H 139.5 Z"
   id="path12"
   inkscape:connector-curvature="0"
   sodipodi:nodetypes="ccccccccccccccccccccccccccccccccccccccccc" />

</svg>