<?xml version="1.0" encoding="utf-8"?>
<!-- Generator: Adobe Illustrator 23.0.0, SVG Export Plug-In . SVG Version: 6.00 Build 0)  -->
<svg version="1.1" id="레이어_1" xmlns="http://www.w3.org/2000/svg" xmlns:xlink="http://www.w3.org/1999/xlink" x="0px"
	 y="0px" viewBox="0 0 256 256" style="enable-background:new 0 0 256 256;" xml:space="preserve">
<style type="text/css">
	.st0{opacity:0.1;}
	.st1{fill:#8F73B4;}
	.st2{fill:#FFFFFF;}
</style>
<g class="st0">
	<g>
		<path d="M132.7,0.5c6.2,0,18.1,0.3,33.3,2.3c23.7,3.1,45.1,11.5,60.9,26.3h0C241.6,44.8,250,66.3,253.2,90c3,22.6,2.3,38,2.3,38
			s0.7,15.4-2.3,38c-3.1,23.7-11.5,45.1-26.3,60.9l0,0c-15.7,14.8-37.2,23.2-60.9,26.3c-15.1,2-27.1,2.3-33.3,2.3
			c-3.1,0-4.7-0.1-4.7-0.1s-1.7,0.1-4.7,0.1c-6.2,0-18.1-0.3-33.3-2.3c-23.7-3.1-45.1-11.5-60.9-26.3l0,0
			C14.4,211.2,6,189.7,2.8,166c-3-22.6-2.3-38-2.3-38s-0.7-15.4,2.3-38C6,66.3,14.4,44.8,29.1,29.1h0C44.9,14.3,66.3,5.9,90,2.8
			c15.2-2,27.1-2.3,33.3-2.3c3.1,0,4.7,0.1,4.7,0.1S129.7,0.5,132.7,0.5"/>
	</g>
</g>
<path class="st1" d="M251.7,90.4c-3.1-23.4-11.4-44.6-26-60.2h0c-15.5-14.6-36.7-22.9-60.1-26C143.2,1.3,128,2,128,2
	s-15.2-0.7-37.6,2.2C67,7.4,45.8,15.7,30.3,30.3C15.7,45.8,7.4,67,4.3,90.4c-3,22.4-2.2,37.6-2.2,37.6s-0.7,15.2,2.2,37.6
	c3.1,23.4,11.4,44.6,26,60.1v0c15.5,14.6,36.7,22.9,60.1,26c22.3,3,37.6,2.2,37.6,2.2s15.2,0.7,37.6-2.2c23.4-3.1,44.6-11.4,60.1-26
	l0,0c14.6-15.5,22.9-36.7,26-60.1c3-22.4,2.2-37.6,2.2-37.6S254.6,112.8,251.7,90.4"/>
<rect x="65" y="173" class="st2" width="18" height="18"/>
<g>
	<rect x="65" y="110" class="st2" width="18" height="45"/>
	<path class="st2" d="M79.8,65C71.6,65,65,71.6,65,79.8V92h18v-3.2c0-3.2,2.6-5.8,5.8-5.8H92V65H79.8z"/>
	<rect x="110" y="65" class="st2" width="45" height="18"/>
</g>
<g>
	<rect x="101" y="173" class="st2" width="45" height="18"/>
	<path class="st2" d="M173,167.2c0,3.2-2.6,5.8-5.8,5.8H164v18h12.2c8.2,0,14.8-6.6,14.8-14.8V164h-18V167.2z"/>
	<rect x="173" y="101" class="st2" width="18" height="45"/>
</g>
<polygon class="st2" points="65,173 47,173 47,191 65,191 65,218 83,218 83,191 83,173 "/>
<polygon class="st2" points="191,65 191,38 173,38 173,65 173,83 191,83 209,83 209,65 "/>
</svg>
