<?xml version="1.0" encoding="utf-8"?>
<!-- Generator: Adobe Illustrator 23.0.0, SVG Export Plug-In . SVG Version: 6.00 Build 0)  -->
<svg version="1.1" id="레이어_1" xmlns="http://www.w3.org/2000/svg" xmlns:xlink="http://www.w3.org/1999/xlink" x="0px"
	 y="0px" viewBox="0 0 256 256" style="enable-background:new 0 0 256 256;" xml:space="preserve">
<style type="text/css">
	.st0{opacity:0.1;}
	.st1{fill:#9A80FF;}
	.st2{fill:#FFFFFF;}
</style>
<g class="st0">
	<g>
		<path d="M132.8,0.5c6.2,0,18.1,0.3,33.3,2.3c23.7,3.1,45.1,11.5,60.8,26.3l0,0C241.6,44.8,250,66.2,253.1,90c3,22.6,2.3,38,2.3,38
			s0.7,15.4-2.3,38c-3.1,23.7-11.5,45.1-26.3,60.9l0,0c-15.7,14.8-37.1,23.1-60.8,26.3c-15.1,2-27,2.3-33.2,2.3
			c-3.1,0-4.7-0.1-4.7-0.1s-1.7,0.1-4.7,0.1c-6.2,0-18.1-0.3-33.2-2.3c-23.7-3.1-45.1-11.5-60.8-26.3l0,0
			C14.4,211.2,6,189.8,2.9,166c-3-22.6-2.3-38-2.3-38s-0.7-15.4,2.3-38C6,66.2,14.4,44.8,29.2,29.1l0,0C44.8,14.3,66.3,5.9,89.9,2.8
			c15.1-2,27-2.3,33.3-2.3c3.1,0,4.7,0.1,4.7,0.1S129.7,0.5,132.8,0.5"/>
	</g>
</g>
<path class="st1" d="M251.7,90.4c-3.1-23.4-11.4-44.6-26-60.1l0,0c-15.6-14.6-36.7-22.9-60.1-26C143.2,1.3,128,2,128,2
	s-15.2-0.7-37.6,2.3C67,7.4,45.8,15.7,30.3,30.3C15.7,45.8,7.5,67,4.3,90.4c-3,22.3-2.2,37.6-2.2,37.6s-0.7,15.2,2.2,37.6
	c3.1,23.4,11.4,44.6,26,60.1l0,0c15.6,14.6,36.7,22.9,60.1,26c22.3,3,37.6,2.2,37.6,2.2s15.2,0.7,37.6-2.2
	c23.4-3.1,44.6-11.4,60.1-26l0,0c14.6-15.6,22.9-36.7,26-60.1c3-22.3,2.2-37.6,2.2-37.6S254.7,112.8,251.7,90.4"/>
<g>
	<g>
		<path class="st2" d="M167.2,175.1l-20.4-11.8c16.1-26.3,32.2-52.6,48.3-78.9c2.5-4.1,7.9-5.5,12.1-3.1l1,0.6
			c4.5,2.5,6.1,8.2,3.6,12.7c-14.1,26.6-28.3,53.1-42.3,79.7C169.1,175.3,168,175.6,167.2,175.1z"/>
		<path class="st2" d="M136.2,215.9c-2.6,0.1-4.6-3-5-3.6c-7.4-7.8-9.8-19-6-28.8c3.7-9.8,12.1-14.1,16.6-15.9
			c1.8-0.7,3.8-0.5,5.5,0.5l16.1,9.3c1.6,0.9,1.8,3.1,0.5,4.4c-9.7,8.5-13.6,14.9-15.5,19.5c-1.8,4.5-4.2,7.3-9.2,12.8
			C138.8,214.6,137.8,215.8,136.2,215.9z"/>
	</g>
	<path class="st2" d="M129,168.7c4.7-3.9,9.3-5.8,12.3-6.8c14.9-24.5,29.9-48.9,44.8-73.4c-7.9-11.5-18.7-17.2-24.6-20.2
		c-20.8-10.7-40.7-8.2-50-7c-8,1.1-23.5,3.1-38.5,14.2c-21.5,15.9-36.9,46.8-27,61.4c3.6,5.2,9.6,7.2,13.9,8.6
		c18.7,6.1,31.1-6.5,39.3-0.5c7.1,5.2-2,19.2,6.2,29c3.9,4.7,9.7,6.2,13.8,6.8C120.9,177.8,123.8,173.1,129,168.7z M133.3,78.8
		c5.4,0,9.9,4.4,9.9,9.9c0,5.4-4.4,9.9-9.9,9.9s-9.9-4.4-9.9-9.9C123.5,83.2,127.9,78.8,133.3,78.8z M73.7,122.1
		c-4.5,0-8.2-3.7-8.2-8.2c0-4.5,3.7-8.2,8.2-8.2c4.5,0,8.2,3.7,8.2,8.2C82,118.5,78.3,122.1,73.7,122.1z M98.3,103.1
		c-5.1,0-9.2-4.1-9.2-9.2c0-5.1,4.1-9.2,9.2-9.2s9.2,4.1,9.2,9.2C107.5,99,103.4,103.1,98.3,103.1z"/>
</g>
</svg>
