<?xml version="1.0" encoding="UTF-8" standalone="no"?>
<!-- Generator: Adobe Illustrator 23.0.0, SVG Export Plug-In . SVG Version: 6.00 Build 0)  -->

<svg
   xmlns:dc="http://purl.org/dc/elements/1.1/"
   xmlns:cc="http://creativecommons.org/ns#"
   xmlns:rdf="http://www.w3.org/1999/02/22-rdf-syntax-ns#"
   xmlns:svg="http://www.w3.org/2000/svg"
   xmlns="http://www.w3.org/2000/svg"
   xmlns:sodipodi="http://sodipodi.sourceforge.net/DTD/sodipodi-0.dtd"
   xmlns:inkscape="http://www.inkscape.org/namespaces/inkscape"
   version="1.1"
   id="레이어_1"
   x="0px"
   y="0px"
   viewBox="0 0 256 256"
   style="enable-background:new 0 0 256 256;"
   xml:space="preserve"
   sodipodi:docname="accessories-document-viewer.svg"
   inkscape:version="0.92.5 (2060ec1f9f, 2020-04-08)"><metadata
   id="metadata33"><rdf:RDF><cc:Work
       rdf:about=""><dc:format>image/svg+xml</dc:format><dc:type
         rdf:resource="http://purl.org/dc/dcmitype/StillImage" /><dc:title></dc:title></cc:Work></rdf:RDF></metadata><defs
   id="defs31">
	
	

		
		
		
	<path
   d="M251.7,90.4c-3.1-23.4-11.4-44.6-26-60.2h0c-15.5-14.6-36.7-22.9-60.1-26C143.2,1.3,128,2,128,2    s-15.2-0.7-37.6,2.2C67,7.4,45.8,15.7,30.3,30.3C15.7,45.8,7.4,67,4.3,90.4c-3,22.4-2.2,37.6-2.2,37.6s-0.7,15.2,2.2,37.6    c3.1,23.4,11.4,44.6,26,60.1v0c15.5,14.6,36.7,22.9,60.1,26c22.3,3,37.6,2.2,37.6,2.2s15.2,0.7,37.6-2.2    c23.4-3.1,44.6-11.4,60.1-26l0,0c14.6-15.5,22.9-36.7,26-60.1c3-22.4,2.2-37.6,2.2-37.6S254.6,112.8,251.7,90.4"
   id="SVGID_1_" /></defs><sodipodi:namedview
   pagecolor="#ffffff"
   bordercolor="#666666"
   borderopacity="1"
   objecttolerance="10"
   gridtolerance="10"
   guidetolerance="10"
   inkscape:pageopacity="0"
   inkscape:pageshadow="2"
   inkscape:window-width="1920"
   inkscape:window-height="1004"
   id="namedview29"
   showgrid="false"
   inkscape:zoom="0.921875"
   inkscape:cx="-259.70734"
   inkscape:cy="234.07161"
   inkscape:window-x="0"
   inkscape:window-y="0"
   inkscape:window-maximized="1"
   inkscape:current-layer="레이어_1" />
<style
   type="text/css"
   id="style2">
	.st0{opacity:0.1;}
	.st1{fill:#E4A95A;}
</style>
<g
   class="st0"
   id="g8"
   style="opacity:0.1">
			<g
   id="g6">
				<path
   d="m 132.7,0.5 c 6.2,0 18.1,0.3 33.3,2.3 23.7,3.1 45.1,11.5 60.9,26.3 v 0 c 14.7,15.7 23.1,37.2 26.3,60.9 3,22.6 2.3,38 2.3,38 0,0 0.7,15.4 -2.3,38 -3.1,23.7 -11.5,45.1 -26.3,60.9 v 0 c -15.7,14.8 -37.2,23.2 -60.9,26.3 -15.1,2 -27.1,2.3 -33.3,2.3 -3.1,0 -4.7,-0.1 -4.7,-0.1 0,0 -1.7,0.1 -4.7,0.1 -6.2,0 -18.1,-0.3 -33.3,-2.3 -23.7,-3.1 -45.1,-11.5 -60.9,-26.3 v 0 C 14.4,211.2 6,189.7 2.8,166 -0.2,143.4 0.5,128 0.5,128 0.5,128 -0.2,112.6 2.8,90 6,66.3 14.4,44.8 29.1,29.1 v 0 C 44.9,14.3 66.3,5.9 90,2.8 c 15.2,-2 27.1,-2.3 33.3,-2.3 3.1,0 4.7,0.1 4.7,0.1 0,0 1.7,-0.1 4.7,-0.1"
   id="path4"
   inkscape:connector-curvature="0" />
			</g>
		</g><path
   class="st1"
   d="M 251.7,90.4 C 248.6,67 240.3,45.8 225.7,30.3 v 0 C 210.1,15.7 189,7.4 165.6,4.3 143.2,1.3 128,2 128,2 128,2 112.8,1.3 90.4,4.3 67,7.4 45.8,15.7 30.3,30.3 15.7,45.8 7.5,67 4.3,90.4 1.3,112.7 2.1,128 2.1,128 c 0,0 -0.7,15.2 2.2,37.6 3.1,23.4 11.4,44.6 26,60.1 v 0 c 15.6,14.6 36.7,22.9 60.1,26 22.3,3 37.6,2.2 37.6,2.2 0,0 15.2,0.7 37.6,-2.2 23.4,-3.1 44.6,-11.4 60.1,-26 v 0 c 14.6,-15.6 22.9,-36.7 26,-60.1 3,-22.3 2.2,-37.6 2.2,-37.6 0,0 0.8,-15.2 -2.2,-37.6 z"
   id="path10"
   inkscape:connector-curvature="0"
   style="fill:#e85a30;fill-opacity:1"
   clip-path="url(#SVGID_2_)" />

<path
   style="opacity:1;fill:#ffffff;fill-opacity:1;stroke-width:1.11097753"
   d="M 84.019531 39.484375 C 72.301023 39.484375 62.867188 48.91821 62.867188 60.636719 L 62.867188 198.33203 C 62.867188 210.05054 72.301023 219.48438 84.019531 219.48438 L 171.71484 219.48438 C 183.43335 219.48438 192.86719 210.05054 192.86719 198.33203 L 192.86719 89.482422 L 179.88867 89.482422 C 159.37872 89.482422 142.86719 72.970885 142.86719 52.460938 L 142.86719 39.484375 L 84.019531 39.484375 z M 84.367188 127.95898 L 174.36719 127.95898 L 174.36719 135.95898 L 84.367188 135.95898 L 84.367188 127.95898 z M 84.367188 153.95898 L 174.36719 153.95898 L 174.36719 161.95898 L 84.367188 161.95898 L 84.367188 153.95898 z M 84.367188 179.95898 L 174.36719 179.95898 L 174.36719 187.95898 L 84.367188 187.95898 L 84.367188 179.95898 z "
   id="rect868" /><path
   style="opacity:1;fill:#c64a00;fill-opacity:1;stroke-width:1.11093402"
   d="m 192.86719,89.482422 -50,-49.998047 v 28.84653 c 0,11.71805 9.43542,21.151517 21.15347,21.151517 z"
   id="rect868-3"
   inkscape:connector-curvature="0" /><style
   id="style968"
   type="text/css">
	.st0{opacity:0.1;}
	.st1{clip-path:url(#SVGID_2_);fill:#E85A30;}
	.st2{fill:#FFFFFF;}
	.st3{fill:#C64A00;}
</style></svg>