<?xml version="1.0" encoding="UTF-8" standalone="no"?>
<!-- Created with Inkscape (http://www.inkscape.org/) -->

<svg
   xmlns:dc="http://purl.org/dc/elements/1.1/"
   xmlns:cc="http://creativecommons.org/ns#"
   xmlns:rdf="http://www.w3.org/1999/02/22-rdf-syntax-ns#"
   xmlns:svg="http://www.w3.org/2000/svg"
   xmlns="http://www.w3.org/2000/svg"
   xmlns:sodipodi="http://sodipodi.sourceforge.net/DTD/sodipodi-0.dtd"
   xmlns:inkscape="http://www.inkscape.org/namespaces/inkscape"
   width="256"
   height="256"
   viewBox="0 0 67.733332 67.733335"
   version="1.1"
   id="svg841"
   inkscape:version="0.92.5 (2060ec1f9f, 2020-04-08)"
   sodipodi:docname="그리기.svg">
  <defs
     id="defs835" />
  <sodipodi:namedview
     id="base"
     pagecolor="#ffffff"
     bordercolor="#666666"
     borderopacity="1.0"
     inkscape:pageopacity="0.0"
     inkscape:pageshadow="2"
     inkscape:zoom="1.4"
     inkscape:cx="360.82777"
     inkscape:cy="13.664864"
     inkscape:document-units="px"
     inkscape:current-layer="layer1"
     showgrid="false"
     units="px"
     inkscape:window-width="1920"
     inkscape:window-height="998"
     inkscape:window-x="0"
     inkscape:window-y="24"
     inkscape:window-maximized="1" />
  <metadata
     id="metadata838">
    <rdf:RDF>
      <cc:Work
         rdf:about="">
        <dc:format>image/svg+xml</dc:format>
        <dc:type
           rdf:resource="http://purl.org/dc/dcmitype/StillImage" />
        <dc:title></dc:title>
      </cc:Work>
    </rdf:RDF>
  </metadata>
  <g
     inkscape:label="Layer 1"
     inkscape:groupmode="layer"
     id="layer1"
     transform="translate(0,-229.26665)">
    <path
       style="fill:#000000;fill-opacity:0.11764706;stroke-width:0.26458332"
       inkscape:connector-curvature="0"
       d="m 35.110177,229.39894 c 1.64042,0 4.78896,0.0794 8.81062,0.60854 6.27063,0.82021 11.93271,3.04271 16.11313,6.95854 v 0 c 3.88937,4.15396 6.11187,9.8425 6.95854,16.11313 0.79375,5.97958 0.60854,10.05416 0.60854,10.05416 0,0 0.18521,4.07459 -0.60854,10.05417 -0.82021,6.27062 -3.04271,11.93271 -6.95854,16.11312 v 0 c -4.15396,3.91584 -9.8425,6.13834 -16.11313,6.95855 -3.9952,0.52916 -7.1702,0.60854 -8.81062,0.60854 -0.82021,0 -1.24354,-0.0265 -1.24354,-0.0265 0,0 -0.44979,0.0265 -1.24354,0.0265 -1.64042,0 -4.78896,-0.0794 -8.81063,-0.60854 -6.27062,-0.82021 -11.93271,-3.04271 -16.11312,-6.95855 v 0 c -3.88938,-4.15395 -6.11188,-9.8425 -6.95854992,-16.11312 -0.79375,-5.97958 -0.60854,-10.05417 -0.60854,-10.05417 0,0 -0.18521,-4.07458 0.60854,-10.05416 C 1.587467,246.80852 3.809967,241.11998 7.699347,236.96602 v 0 c 4.18041,-3.91583 9.8425,-6.13833 16.11312,-6.95854 4.02167,-0.52916 7.17021,-0.60854 8.81063,-0.60854 0.8202,0 1.24354,0.0265 1.24354,0.0265 0,0 0.44979,-0.0265 1.24354,-0.0265"
       id="path847" />
    <path
       inkscape:connector-curvature="0"
       id="path1"
       class="st0"
       d="m 66.595627,253.18498 c -0.82021,-6.19125 -3.01625,-11.80042 -6.87917,-15.90146 v 0 c -4.1275,-3.86292 -9.7102,-6.05896 -15.90145,-6.87917 -5.92667,-0.79375 -9.94834,-0.60854 -9.94834,-0.60854 0,0 -4.02166,-0.18521 -9.94833,0.60854 -6.19125,0.82021 -11.80042,3.01625 -15.90146,6.87917 -3.86292,4.10104 -6.0325,9.71021 -6.87917,15.90146 -0.79374992,5.90021 -0.58207992,9.94833 -0.58207992,9.94833 0,0 -0.18521,4.02167 0.58207992,9.94834 0.82021,6.19125 3.01625,11.80041 6.87917,15.90145 v 0 c 4.1275,3.86292 9.71021,6.05896 15.90146,6.87917 5.90021,0.79375 9.94833,0.58208 9.94833,0.58208 0,0 4.02167,0.18521 9.94834,-0.58208 6.19125,-0.82021 11.80041,-3.01625 15.90145,-6.87917 v 0 c 3.86292,-4.1275 6.05896,-9.7102 6.87917,-15.90145 0.79375,-5.90021 0.58208,-9.94834 0.58208,-9.94834 0,0 0.21167,-4.02166 -0.58208,-9.94833"
       style="opacity:1;fill:#169ba1;fill-opacity:1;stroke-width:0.26458332" />
    <g
       id="g831"
       transform="matrix(5.7269724,0,0,5.7269724,-14.623603,-1389.27)">
      <circle
         id="circle827"
         r="5.8210001"
         cy="288.53"
         cx="8.467"
         style="fill:#169ba1;paint-order:stroke markers fill" />
      <path
         id="path829"
         d="m 6.294,286.417 a 2.018,2.018 0 0 0 -1.452,0.614 2.125,2.125 0 0 0 -0.609,1.502 c 0,0.28 0.054,0.557 0.159,0.814 0.104,0.257 0.258,0.491 0.45,0.687 a 2.023,2.023 0 0 0 1.435,0.614 h 0.018 a 2.007,2.007 0 0 0 1.528,-0.59 c 0.257,-0.252 0.46,-0.548 0.644,-0.85 0.184,0.302 0.386,0.598 0.643,0.85 0.377,0.367 0.89,0.62 1.529,0.59 h 0.018 c 0.263,-0.002 0.523,-0.056 0.766,-0.159 0.25,-0.105 0.477,-0.26 0.669,-0.455 l 10e-4,-0.002 a 2.123,2.123 0 0 0 0.607,-1.499 c 0,-0.28 -0.054,-0.557 -0.158,-0.814 l -0.002,-0.005 a 2.13,2.13 0 0 0 -0.449,-0.684 2.022,2.022 0 0 0 -1.453,-0.614 c -0.671,0 -1.202,0.277 -1.594,0.661 -0.227,0.222 -0.411,0.476 -0.578,0.736 a 4.15,4.15 0 0 0 -0.577,-0.736 2.231,2.231 0 0 0 -1.595,-0.661 z m -0.007,0.605 c 0.537,0 0.88,0.192 1.193,0.51 0.25,0.252 0.468,0.595 0.684,0.97 -0.247,0.436 -0.486,0.835 -0.754,1.106 -0.296,0.298 -0.602,0.463 -1.103,0.434 h -0.02 c -0.19,0 -0.383,-0.04 -0.559,-0.117 A 1.458,1.458 0 0 1 5.263,289.6 l -0.006,-0.005 a 1.526,1.526 0 0 1 -0.419,-1.063 1.526,1.526 0 0 1 0.42,-1.062 l 0.005,-0.006 a 1.406,1.406 0 0 1 1.025,-0.442 z m 4.359,0 c 0.19,0 0.383,0.04 0.56,0.117 0.173,0.076 0.333,0.188 0.465,0.325 l 0.005,0.007 a 1.525,1.525 0 0 1 0.42,1.062 c 0,0.195 -0.038,0.392 -0.109,0.573 -0.071,0.18 -0.178,0.35 -0.311,0.49 L 11.67,289.6 a 1.408,1.408 0 0 1 -1.025,0.442 h -0.019 c -0.5,0.03 -0.807,-0.135 -1.103,-0.433 -0.268,-0.27 -0.507,-0.67 -0.754,-1.107 0.217,-0.374 0.435,-0.717 0.684,-0.97 0.314,-0.317 0.657,-0.51 1.193,-0.51 z m -0.365,0.605 v 0.604 H 9.676 v 0.605 h 0.605 v 0.605 h 0.605 v -0.605 h 0.604 v -0.605 h -0.604 v -0.604 z m -4.838,0.604 v 0.605 h 1.814 v -0.605 z"
         inkscape:connector-curvature="0"
         style="fill:#ffffff" />
    </g>
  </g>
</svg>
