<?xml version="1.0" encoding="UTF-8" standalone="no"?>
<svg
   xmlns:dc="http://purl.org/dc/elements/1.1/"
   xmlns:cc="http://creativecommons.org/ns#"
   xmlns:rdf="http://www.w3.org/1999/02/22-rdf-syntax-ns#"
   xmlns:svg="http://www.w3.org/2000/svg"
   xmlns="http://www.w3.org/2000/svg"
   xmlns:sodipodi="http://sodipodi.sourceforge.net/DTD/sodipodi-0.dtd"
   xmlns:inkscape="http://www.inkscape.org/namespaces/inkscape"
   version="1.1"
   id="레이어_1"
   x="0px"
   y="0px"
   viewBox="0 0 256 256"
   style="enable-background:new 0 0 256 256;"
   xml:space="preserve"
   sodipodi:docname="baobab.svg"
   inkscape:version="1.0.2 (e86c870879, 2021-01-15)"><metadata
   id="metadata15"><rdf:RDF><cc:Work
       rdf:about=""><dc:format>image/svg+xml</dc:format><dc:type
         rdf:resource="http://purl.org/dc/dcmitype/StillImage" /><dc:title></dc:title></cc:Work></rdf:RDF></metadata><defs
   id="defs13">
	
	
</defs><sodipodi:namedview
   pagecolor="#ffffff"
   bordercolor="#666666"
   borderopacity="1"
   objecttolerance="10"
   gridtolerance="10"
   guidetolerance="10"
   inkscape:pageopacity="0"
   inkscape:pageshadow="2"
   inkscape:window-width="1852"
   inkscape:window-height="1048"
   id="namedview11"
   showgrid="false"
   inkscape:zoom="2.317432"
   inkscape:cx="149.26093"
   inkscape:cy="152.7266"
   inkscape:window-x="68"
   inkscape:window-y="32"
   inkscape:window-maximized="1"
   inkscape:current-layer="레이어_1" />
<style
   type="text/css"
   id="style2">
	.st0{fill:#999999;}
	.st1{fill:#FFFFFF;}
</style>
<path
   class="st0"
   d="M251.7,90.4c-3.1-23.4-11.4-44.6-26-60.1l0,0c-15.6-14.6-36.7-22.9-60.1-26C143.2,1.3,128,2,128,2  s-15.2-0.7-37.6,2.3C67,7.4,45.8,15.7,30.3,30.3C15.7,45.8,7.5,67,4.3,90.4c-3,22.3-2.2,37.6-2.2,37.6s-0.7,15.2,2.2,37.6  c3.1,23.4,11.4,44.6,26,60.1l0,0c15.6,14.6,36.7,22.9,60.1,26c22.3,3,37.6,2.2,37.6,2.2s15.2,0.7,37.6-2.2  c23.4-3.1,44.6-11.4,60.1-26l0,0c14.6-15.6,22.9-36.7,26-60.1c3-22.3,2.2-37.6,2.2-37.6S254.7,112.8,251.7,90.4"
   id="path4" />


<path
   id="rect1019"
   style="fill:#808080;fill-opacity:1;stroke-width:4"
   d="m 122.2431,53.851646 h 48.98976 v 77.016214 c 4.2958,18.48493 -32.27595,-14.71635 -48.41393,-22.07453 z"
   sodipodi:nodetypes="ccccc" /><path
   id="path16"
   style="fill:#fefefe;fill-opacity:1;stroke-width:4.03802"
   d="M 83.546875 44.509766 C 72.361561 44.509766 65.030398 53.214884 63.355469 63.759766 L 45.427734 176.62695 C 48.780423 170.14485 55.527121 165.72461 63.355469 165.72461 L 192.57227 165.72461 C 199.91623 165.72461 206.30155 169.62098 209.83398 175.45312 L 188.53516 63.759766 C 186.53432 53.26697 179.53101 44.509766 168.3457 44.509766 L 83.546875 44.509766 z M 125.68359 67.085938 C 146.21222 69.04136 161.8899 86.282744 161.89062 106.9043 C 161.89048 113.15332 160.42621 119.31538 157.61523 124.89648 L 125.68359 106.45898 L 125.68359 67.085938 z M 119.58594 71.242188 L 119.58594 109.625 L 150.69727 127.58789 C 144.1278 135.52127 134.36476 140.11285 124.06445 140.11328 C 104.96542 140.11328 89.482422 124.63028 89.482422 105.53125 C 89.482905 88.16363 102.36455 73.491157 119.58594 71.242188 z " /><rect
   x="43.166115"
   y="173.72545"
   width="169.59683"
   height="40.380199"
   ry="20.1901"
   fill="#333333"
   id="rect18"
   style="fill:#d8d8d8;fill-opacity:1;stroke-width:4.03802" /><style
   type="text/css"
   id="style873">
	.st0{fill:#999999;}
	.st1{fill:#FFFFFF;}
	.st2{fill:#666666;}
</style></svg>
