<?xml version="1.0" encoding="utf-8"?>
<!-- Generator: Adobe Illustrator 23.0.0, SVG Export Plug-In . SVG Version: 6.00 Build 0)  -->
<svg version="1.1" id="레이어_1" xmlns="http://www.w3.org/2000/svg" xmlns:xlink="http://www.w3.org/1999/xlink" x="0px"
	 y="0px" viewBox="0 0 256 256" style="enable-background:new 0 0 256 256;" xml:space="preserve">
<style type="text/css">
	.st0{opacity:0.1;}
	.st1{fill:#799900;}
	.st2{fill:#FFFFFF;}
	.st3{fill:#41683B;}
</style>
<g class="st0">
	<g>
		<path d="M132.7,0.5c6.2,0,18.1,0.3,33.3,2.3c23.7,3.1,45.1,11.5,60.9,26.3h0C241.6,44.8,250,66.3,253.2,90c3,22.6,2.3,38,2.3,38
			s0.7,15.4-2.3,38c-3.1,23.7-11.5,45.1-26.3,60.9l0,0c-15.7,14.8-37.2,23.2-60.9,26.3c-15.1,2-27.1,2.3-33.3,2.3
			c-3.1,0-4.7-0.1-4.7-0.1s-1.7,0.1-4.7,0.1c-6.2,0-18.1-0.3-33.3-2.3c-23.7-3.1-45.1-11.5-60.9-26.3l0,0
			C14.4,211.2,6,189.7,2.8,166c-3-22.6-2.3-38-2.3-38s-0.7-15.4,2.3-38C6,66.3,14.4,44.8,29.1,29.1h0C44.9,14.3,66.3,5.9,90,2.8
			c15.2-2,27.1-2.3,33.3-2.3c3.1,0,4.7,0.1,4.7,0.1S129.7,0.5,132.7,0.5"/>
	</g>
</g>
<path class="st1" d="M251.7,90.4c-3.1-23.4-11.4-44.6-26-60.1l0,0c-15.6-14.6-36.7-22.9-60.1-26C143.2,1.3,128,2,128,2
	s-15.2-0.7-37.6,2.3C67,7.4,45.8,15.7,30.3,30.3C15.7,45.8,7.5,67,4.3,90.4c-3,22.3-2.2,37.6-2.2,37.6s-0.7,15.2,2.2,37.6
	c3.1,23.4,11.4,44.6,26,60.1l0,0c15.6,14.6,36.7,22.9,60.1,26c22.3,3,37.6,2.2,37.6,2.2s15.2,0.7,37.6-2.2
	c23.4-3.1,44.6-11.4,60.1-26l0,0c14.6-15.6,22.9-36.7,26-60.1c3-22.3,2.2-37.6,2.2-37.6S254.7,112.8,251.7,90.4"/>
<g>
	<path class="st2" d="M200.1,92.8h-53.5c-4.3,0-7.9-3.5-7.9-7.9v-0.1c0-4.3,3.5-7.9,7.9-7.9h53.5c4.3,0,7.9,3.5,7.9,7.9v0.1
		C208,89.3,204.5,92.8,200.1,92.8z"/>
	<path class="st2" d="M109.4,77H90.5V58.1c0-4.3-3.5-7.9-7.9-7.9h-0.1c-4.3,0-7.9,3.5-7.9,7.9V77H55.9c-4.3,0-7.9,3.5-7.9,7.9v0.1
		c0,4.3,3.5,7.9,7.9,7.9h18.8v18.8c0,4.3,3.5,7.9,7.9,7.9h0.1c4.3,0,7.9-3.5,7.9-7.9V92.8h18.8c4.3,0,7.9-3.5,7.9-7.9v-0.1
		C117.2,80.5,113.7,77,109.4,77z"/>
	<path class="st2" d="M95.8,170l16.8-16.8c3.1-3.1,3.1-8.1,0-11.2c-3.1-3.1-8.1-3.1-11.2,0l-16.8,16.8L67.8,142
		c-3.1-3.1-8.1-3.1-11.2,0c-3.1,3.1-3.1,8.1,0,11.2L73.4,170l-16.8,16.8c-3.1,3.1-3.1,8.1,0,11.2c3.1,3.1,8.1,3.1,11.2,0l16.8-16.8
		l16.8,16.8c3.1,3.1,8.1,3.1,11.2,0c3.1-3.1,3.1-8.1,0-11.2L95.8,170z"/>
	<path class="st3" d="M200.1,175.9h-53.5c-4.3,0-7.9-3.5-7.9-7.9V168c0-4.3,3.5-7.9,7.9-7.9h53.5c4.3,0,7.9,3.5,7.9,7.9v0.1
		C208,172.4,204.5,175.9,200.1,175.9z"/>
	<circle class="st3" cx="173.1" cy="139.3" r="8.9"/>
	<circle class="st3" cx="173.1" cy="196.8" r="8.9"/>
</g>
</svg>
