<?xml version="1.0" encoding="UTF-8" standalone="no"?>
<!-- Generator: Adobe Illustrator 23.0.0, SVG Export Plug-In . SVG Version: 6.00 Build 0)  -->

<svg
   xmlns:dc="http://purl.org/dc/elements/1.1/"
   xmlns:cc="http://creativecommons.org/ns#"
   xmlns:rdf="http://www.w3.org/1999/02/22-rdf-syntax-ns#"
   xmlns:svg="http://www.w3.org/2000/svg"
   xmlns="http://www.w3.org/2000/svg"
   xmlns:xlink="http://www.w3.org/1999/xlink"
   xmlns:sodipodi="http://sodipodi.sourceforge.net/DTD/sodipodi-0.dtd"
   xmlns:inkscape="http://www.inkscape.org/namespaces/inkscape"
   version="1.1"
   id="레이어_1"
   x="0px"
   y="0px"
   viewBox="0 0 256 256"
   style="enable-background:new 0 0 256 256;"
   xml:space="preserve"
   sodipodi:docname="chrome-okkolgldfknecfjnhhglfopimelbaceh-Default.svg.2021_07_30_15_03_21.0.svg"
   inkscape:version="0.92.5 (2060ec1f9f, 2020-04-08)"><metadata
   id="metadata57"><rdf:RDF><cc:Work
       rdf:about=""><dc:format>image/svg+xml</dc:format><dc:type
         rdf:resource="http://purl.org/dc/dcmitype/StillImage" /></cc:Work></rdf:RDF></metadata><defs
   id="defs55"><clipPath
   id="SVGID_8_-3"><use
     xlink:href="#SVGID_7_"
     style="overflow:visible"
     id="use45-6"
     x="0"
     y="0"
     width="100%"
     height="100%" /></clipPath>
	<defs
   id="defs43">
		<path
   inkscape:connector-curvature="0"
   d="m 206.1,113.1 h -76.3 v 31.6 h 43.9 c -4.1,20.1 -21.2,31.6 -43.9,31.6 -26.8,0 -48.4,-21.6 -48.4,-48.4 0,-26.8 21.6,-48.4 48.4,-48.4 11.5,0 22,4.1 30.1,10.8 L 183.7,66.5 C 169.2,53.8 150.6,46 129.7,46 84.5,46.1 48,82.6 48,128 c 0,45.4 36.5,81.9 81.9,81.9 40.9,0 78.1,-29.8 78.1,-81.9 0,-4.8 -0.7,-10 -1.9,-14.9 z"
   id="SVGID_7_" />
	</defs>
	
	
		
	

	<defs
   id="defs13">
		<path
   inkscape:connector-curvature="0"
   d="m 206.1,113.1 h -76.3 v 31.6 h 43.9 c -4.1,20.1 -21.2,31.6 -43.9,31.6 -26.8,0 -48.4,-21.6 -48.4,-48.4 0,-26.8 21.6,-48.4 48.4,-48.4 11.5,0 22,4.1 30.1,10.8 L 183.7,66.5 C 169.2,53.8 150.6,46 129.7,46 84.5,46.1 48,82.6 48,128 c 0,45.4 36.5,81.9 81.9,81.9 40.9,0 78.1,-29.8 78.1,-81.9 0,-4.8 -0.7,-10 -1.9,-14.9 z"
   id="SVGID_1_" />
	</defs>
	<clipPath
   id="SVGID_2_">
		<use
   height="100%"
   width="100%"
   y="0"
   x="0"
   id="use15"
   style="overflow:visible"
   xlink:href="#SVGID_1_" />
	</clipPath>
	

	<defs
   id="defs23">
		<path
   inkscape:connector-curvature="0"
   d="m 206.1,113.1 h -76.3 v 31.6 h 43.9 c -4.1,20.1 -21.2,31.6 -43.9,31.6 -26.8,0 -48.4,-21.6 -48.4,-48.4 0,-26.8 21.6,-48.4 48.4,-48.4 11.5,0 22,4.1 30.1,10.8 L 183.7,66.5 C 169.2,53.8 150.6,46 129.7,46 84.5,46.1 48,82.6 48,128 c 0,45.4 36.5,81.9 81.9,81.9 40.9,0 78.1,-29.8 78.1,-81.9 0,-4.8 -0.7,-10 -1.9,-14.9 z"
   id="SVGID_3_" />
	</defs>
	<clipPath
   id="SVGID_4_">
		<use
   height="100%"
   width="100%"
   y="0"
   x="0"
   id="use25"
   style="overflow:visible"
   xlink:href="#SVGID_3_" />
	</clipPath>
	
</defs><sodipodi:namedview
   pagecolor="#ffffff"
   bordercolor="#666666"
   borderopacity="1"
   objecttolerance="10"
   gridtolerance="10"
   guidetolerance="10"
   inkscape:pageopacity="0"
   inkscape:pageshadow="2"
   inkscape:window-width="441"
   inkscape:window-height="439"
   id="namedview53"
   showgrid="false"
   inkscape:zoom="2"
   inkscape:cx="57.140369"
   inkscape:cy="112.59543"
   inkscape:window-x="997"
   inkscape:window-y="309"
   inkscape:window-maximized="0"
   inkscape:current-layer="레이어_1"
   inkscape:snap-bbox="true" />
<style
   type="text/css"
   id="style2">
	.st0{opacity:0.1;}
	.st1{fill:#FFFFFF;}
	.st2{clip-path:url(#SVGID_2_);fill:#FBBC05;}
	.st3{clip-path:url(#SVGID_4_);fill:#EA4335;}
	.st4{clip-path:url(#SVGID_6_);fill:#34A853;}
	.st5{clip-path:url(#SVGID_8_);fill:#4285F4;}
</style>
<g
   class="st0"
   id="g8">
	<g
   id="g6">
		<path
   d="M132.8,0.5c6.2,0,18.1,0.3,33.3,2.3c23.7,3.1,45.1,11.5,60.8,26.3l0,0C241.6,44.8,250,66.2,253.1,90c3,22.6,2.3,38,2.3,38    s0.7,15.4-2.3,38c-3.1,23.7-11.5,45.1-26.3,60.9l0,0c-15.7,14.8-37.1,23.1-60.8,26.3c-15.1,2-27,2.3-33.2,2.3    c-3.1,0-4.7-0.1-4.7-0.1s-1.7,0.1-4.7,0.1c-6.2,0-18.1-0.3-33.2-2.3c-23.7-3.1-45.1-11.5-60.8-26.3l0,0    C14.4,211.2,6,189.8,2.9,166c-3-22.6-2.3-38-2.3-38s-0.7-15.4,2.3-38C6,66.2,14.4,44.8,29.2,29.1l0,0C44.8,14.3,66.3,5.9,89.9,2.8    c15.1-2,27-2.3,33.3-2.3c3.1,0,4.7,0.1,4.7,0.1S129.7,0.5,132.8,0.5"
   id="path4" />
	</g>
</g>
<path
   class="st1"
   d="M251.7,90.4c-3.1-23.4-11.4-44.6-26-60.1l0,0c-15.6-14.6-36.7-22.9-60.1-26C143.2,1.3,128,2,128,2  s-15.2-0.7-37.6,2.3C67,7.4,45.8,15.7,30.3,30.3C15.7,45.8,7.5,67,4.3,90.4c-3,22.3-2.2,37.6-2.2,37.6s-0.7,15.2,2.2,37.6  c3.1,23.4,11.4,44.6,26,60.1l0,0c15.6,14.6,36.7,22.9,60.1,26c22.3,3,37.6,2.2,37.6,2.2s15.2,0.7,37.6-2.2  c23.4-3.1,44.6-11.4,60.1-26l0,0c14.6-15.6,22.9-36.7,26-60.1c3-22.3,2.2-37.6,2.2-37.6S254.7,112.8,251.7,90.4"
   id="path10" />
<path
   style="fill:#fbbc05"
   inkscape:connector-curvature="0"
   id="path18"
   clip-path="url(#SVGID_2_)"
   d="M 40.6,176.4 V 79.6 l 63.3,48.4 z"
   class="st2" />
<path
   style="fill:#ea4335"
   inkscape:connector-curvature="0"
   id="path28"
   clip-path="url(#SVGID_4_)"
   d="m 40.6,79.6 63.3,48.4 26,-22.7 89.3,-14.5 V 38.7 H 40.6 Z"
   class="st3" />
<g
   id="g40">
	<defs
   id="defs33">
		<path
   id="SVGID_5_"
   d="m 206.1,113.1 h -76.3 v 31.6 h 43.9 c -4.1,20.1 -21.2,31.6 -43.9,31.6 -26.8,0 -48.4,-21.6 -48.4,-48.4 0,-26.8 21.6,-48.4 48.4,-48.4 11.5,0 22,4.1 30.1,10.8 L 183.7,66.5 C 169.2,53.8 150.6,46 129.7,46 84.5,46.1 48,82.6 48,128 c 0,45.4 36.5,81.9 81.9,81.9 40.9,0 78.1,-29.8 78.1,-81.9 0,-4.8 -0.7,-10 -1.9,-14.9 z"
   inkscape:connector-curvature="0" />
	</defs>
	<clipPath
   id="SVGID_6_">
		<use
   xlink:href="#SVGID_5_"
   style="overflow:visible"
   id="use35"
   x="0"
   y="0"
   width="100%"
   height="100%" />
	</clipPath>
	<path
   class="st4"
   d="m 40.6,176.4 111.6,-85.6 29.4,3.7 37.6,-55.8 V 217.3 H 40.6 Z"
   clip-path="url(#SVGID_6_)"
   id="path38"
   inkscape:connector-curvature="0"
   style="fill:#34a853" />
</g>

	<path
   inkscape:connector-curvature="0"
   id="path48"
   d="m 129.8,113.1 v 31.6 h 43.9 c -2.84288,16.68709 -16.68305,24.47796 -16.68305,24.47796 l 26.22562,20.29634 C 202.17802,173.4497 212.59267,141.6805 206.1,113.1 Z"
   clip-path="none"
   style="fill:#4285f4"
   sodipodi:nodetypes="ccccccc" />
</svg>