<?xml version="1.0" encoding="UTF-8" standalone="no"?>
<svg
   xmlns:dc="http://purl.org/dc/elements/1.1/"
   xmlns:cc="http://creativecommons.org/ns#"
   xmlns:rdf="http://www.w3.org/1999/02/22-rdf-syntax-ns#"
   xmlns:svg="http://www.w3.org/2000/svg"
   xmlns="http://www.w3.org/2000/svg"
   xmlns:sodipodi="http://sodipodi.sourceforge.net/DTD/sodipodi-0.dtd"
   xmlns:inkscape="http://www.inkscape.org/namespaces/inkscape"
   version="1.0"
   id="Layer_1"
   x="0px"
   y="0px"
   width="256"
   height="256"
   viewBox="0 0 256 256"
   enable-background="new 0 0 70 70"
   xml:space="preserve"
   sodipodi:docname="datagrip.svg"
   inkscape:version="0.92.5 (2060ec1f9f, 2020-04-08)"><metadata
   id="metadata67"><rdf:RDF><cc:Work
       rdf:about=""><dc:format>image/svg+xml</dc:format><dc:type
         rdf:resource="http://purl.org/dc/dcmitype/StillImage" /><dc:title></dc:title></cc:Work></rdf:RDF></metadata><defs
   id="defs65">
	
	

		
	
			
			
			
		
				
			
					
					
				
		
		
			<linearGradient
   id="SVGID_1_"
   gradientUnits="userSpaceOnUse"
   x1="41.068501"
   y1="54.3573"
   x2="46.520599"
   y2="67.944298"
   gradientTransform="matrix(1,0,0,-1,0,72)">
			<stop
   offset="0"
   style="stop-color:#9775F8"
   id="stop4" />
			<stop
   offset="0.9516"
   style="stop-color:#22D88F"
   id="stop6" />
		</linearGradient>
		
		
			<linearGradient
   id="SVGID_2_"
   gradientUnits="userSpaceOnUse"
   x1="17.067301"
   y1="35.738998"
   x2="24.1462"
   y2="4.8951001"
   gradientTransform="matrix(1,0,0,-1,0,72)">
			<stop
   offset="0"
   style="stop-color:#9775F8"
   id="stop11" />
			<stop
   offset="0.2142"
   style="stop-color:#689CCE"
   id="stop13" />
			<stop
   offset="0.423"
   style="stop-color:#42BDAC"
   id="stop15" />
			<stop
   offset="0.5897"
   style="stop-color:#2BD197"
   id="stop17" />
			<stop
   offset="0.6935"
   style="stop-color:#22D88F"
   id="stop19" />
		</linearGradient>
		
		
			<linearGradient
   id="SVGID_3_"
   gradientUnits="userSpaceOnUse"
   x1="4.9000001"
   y1="37.969398"
   x2="66.239403"
   y2="4.1019001"
   gradientTransform="matrix(1,0,0,-1,0,72)">
			<stop
   offset="7.526882e-002"
   style="stop-color:#22D88F"
   id="stop24" />
			<stop
   offset="0.7204"
   style="stop-color:#9775F8"
   id="stop26" />
		</linearGradient>
		
		
			<linearGradient
   id="SVGID_4_"
   gradientUnits="userSpaceOnUse"
   x1="0"
   y1="45.150002"
   x2="61.646"
   y2="45.150002"
   gradientTransform="matrix(1,0,0,-1,0,72)">
			<stop
   offset="7.526882e-002"
   style="stop-color:#22D88F"
   id="stop31" />
			<stop
   offset="0.2658"
   style="stop-color:#5AB0B4"
   id="stop33" />
			<stop
   offset="0.5645"
   style="stop-color:#B86CF2"
   id="stop35" />
			<stop
   offset="1"
   style="stop-color:#FF59E6"
   id="stop37" />
		</linearGradient>
		
	</defs><sodipodi:namedview
   pagecolor="#ffffff"
   bordercolor="#666666"
   borderopacity="1"
   objecttolerance="10"
   gridtolerance="10"
   guidetolerance="10"
   inkscape:pageopacity="0"
   inkscape:pageshadow="2"
   inkscape:window-width="1920"
   inkscape:window-height="1004"
   id="namedview63"
   showgrid="false"
   inkscape:zoom="1.6857143"
   inkscape:cx="-46.349148"
   inkscape:cy="103.53379"
   inkscape:window-x="0"
   inkscape:window-y="0"
   inkscape:window-maximized="1"
   inkscape:current-layer="Layer_1" />

<path
   d="m 132.79987,0.5 c 6.2,0 18.1,0.3 33.3,2.3 23.7,3.1 45.1,11.5 60.8,26.3 v 0 c 14.7,15.7 23.1,37.1 26.2,60.9 3.00001,22.6 2.30001,38 2.30001,38 0,0 0.7,15.4 -2.30001,38 -3.1,23.7 -11.5,45.1 -26.3,60.9 v 0 c -15.7,14.8 -37.1,23.1 -60.8,26.3 -15.1,2 -27,2.3 -33.2,2.3 -3.1,0 -4.7,-0.1 -4.7,-0.1 0,0 -1.7,0.1 -4.7,0.1 -6.2,0 -18.1,-0.3 -33.199998,-2.3 -23.7,-3.1 -45.100004,-11.5 -60.800004,-26.3 v 0 c -15,-15.7 -23.4000002,-37.1 -26.5000002,-60.9 -3.00000003,-22.6 -2.30000003,-38 -2.30000003,-38 0,0 -0.7,-15.4 2.30000003,-38 3.1,-23.8 11.5000002,-45.2 26.3000002,-60.9 v 0 c 15.6,-14.8 37.100004,-23.2 60.700004,-26.3 15.099998,-2 26.999998,-2.3 33.299998,-2.3 3.1,0 4.7,0.1 4.7,0.1 0,0 1.8,-0.1 4.9,-0.1"
   id="path4"
   inkscape:connector-curvature="0"
   style="opacity:0.1" /><path
   class="st1"
   d="m 251.69987,90.4 c -3.1,-23.4 -11.4,-44.6 -26,-60.1 v 0 c -15.6,-14.6 -36.7,-22.9 -60.1,-26 -22.4,-3 -37.6,-2.3 -37.6,-2.3 0,0 -15.2,-0.7 -37.599998,2.3 -23.4,3.1 -44.600004,11.4 -60.100004,26 -14.6,15.5 -22.8000002,36.7 -26.0000002,60.1 -3,22.3 -2.2,37.6 -2.2,37.6 0,0 -0.7,15.2 2.2,37.6 3.1,23.4 11.4000002,44.6 26.0000002,60.1 v 0 c 15.6,14.6 36.700004,22.9 60.100004,26 22.299998,3 37.599998,2.2 37.599998,2.2 0,0 15.2,0.7 37.6,-2.2 23.4,-3.1 44.6,-11.4 60.1,-26 v 0 c 14.6,-15.6 22.9,-36.7 26,-60.1 3.00001,-22.3 2.2,-37.6 2.2,-37.6 0,0 0.80001,-15.2 -2.2,-37.6"
   id="path10"
   inkscape:connector-curvature="0"
   style="opacity:0.9;fill:#fefefe;fill-opacity:1" /><polygon
   points="70,39.5 53,49.4 49.8,33.2 65.5,10.9 "
   id="polygon2"
   style="fill:#9775f8"
   transform="matrix(2.5714286,0,0,2.5714286,38,44)" /><polygon
   points="40.5,0 19.4,17.5 49.8,33.2 65.5,10.9 "
   id="polygon9"
   style="fill:url(#SVGID_1_)"
   transform="matrix(2.5714286,0,0,2.5714286,38,44)" /><polygon
   points="18,30.6 9.3,36.4 0.6,62.5 47.3,70 "
   id="polygon22"
   style="fill:url(#SVGID_2_)"
   transform="matrix(2.5714286,0,0,2.5714286,38,44)" /><polygon
   points="32.3,36.6 0,32.3 47.3,70 52.8,50.1 "
   id="polygon29"
   style="fill:url(#SVGID_3_)"
   transform="matrix(2.5714286,0,0,2.5714286,38,44)" /><polygon
   points="0,32.3 60.8,53.2 65.5,10.9 0,0.5 "
   id="polygon40"
   style="fill:url(#SVGID_4_)"
   transform="matrix(2.5714286,0,0,2.5714286,38,44)" /><rect
   id="rect44"
   height="111.08572"
   width="111.08572"
   y="78.457138"
   x="72.457138"
   style="stroke-width:2.57142854" /><path
   style="fill:#ffffff;stroke-width:2.57142854"
   inkscape:connector-curvature="0"
   id="path46"
   d="m 83.771429,92.857141 h 18.000001 c 14.4,0 24.42857,10.028569 24.42857,22.885709 V 116 c 0,12.85714 -10.02857,22.88571 -24.42857,22.88571 H 83.771429 Z M 93.8,102.11428 v 27.77143 h 7.71429 c 8.22857,0 13.88571,-5.65714 13.88571,-13.62857 V 116 c 0,-8.22857 -5.65714,-13.88572 -13.88571,-13.88572 z" /><path
   style="fill:#ffffff;stroke-width:2.57142854"
   inkscape:connector-curvature="0"
   id="path48"
   d="m 128,116 v 0 c 0,-13.11429 10.28571,-23.914288 24.17143,-23.914288 8.22857,0 13.37143,2.314286 18,6.428572 l -6.42857,7.714286 c -3.6,-3.08571 -6.68572,-4.62857 -12.08572,-4.62857 -7.45714,0 -13.11428,6.42857 -13.11428,14.4 v 0 c 0,8.48571 5.65714,14.65714 13.88571,14.65714 3.6,0 6.94286,-1.02857 9.51429,-2.82857 v -6.68571 H 151.65714 V 112.4 h 20.05715 v 20.05714 c -4.62858,4.11429 -11.31429,7.2 -19.54286,7.2 C 137.77143,139.65714 128,129.62857 128,116 Z" /><rect
   style="fill:#ffffff;stroke-width:2.57142854"
   id="rect54"
   height="6.9428573"
   width="41.657146"
   y="168.71428"
   x="82.742859" /></svg>