<?xml version="1.0" encoding="UTF-8" standalone="no"?>
<svg
   xmlns:dc="http://purl.org/dc/elements/1.1/"
   xmlns:cc="http://creativecommons.org/ns#"
   xmlns:rdf="http://www.w3.org/1999/02/22-rdf-syntax-ns#"
   xmlns:svg="http://www.w3.org/2000/svg"
   xmlns="http://www.w3.org/2000/svg"
   xmlns:sodipodi="http://sodipodi.sourceforge.net/DTD/sodipodi-0.dtd"
   xmlns:inkscape="http://www.inkscape.org/namespaces/inkscape"
   version="1.1"
   id="레이어_1"
   x="0px"
   y="0px"
   viewBox="0 0 256 256"
   style="enable-background:new 0 0 256 256;"
   xml:space="preserve"
   sodipodi:docname="dconf-editor.svg"
   inkscape:version="1.0.2 (e86c870879, 2021-01-15)"><metadata
   id="metadata27"><rdf:RDF><cc:Work
       rdf:about=""><dc:format>image/svg+xml</dc:format><dc:type
         rdf:resource="http://purl.org/dc/dcmitype/StillImage" /><dc:title></dc:title></cc:Work></rdf:RDF></metadata><defs
   id="defs25">
	
	

		
		
	</defs><sodipodi:namedview
   pagecolor="#ffffff"
   bordercolor="#666666"
   borderopacity="1"
   objecttolerance="10"
   gridtolerance="10"
   guidetolerance="10"
   inkscape:pageopacity="0"
   inkscape:pageshadow="2"
   inkscape:window-width="1852"
   inkscape:window-height="1048"
   id="namedview23"
   showgrid="false"
   inkscape:zoom="1.3037281"
   inkscape:cx="174.80041"
   inkscape:cy="212.49132"
   inkscape:window-x="68"
   inkscape:window-y="32"
   inkscape:window-maximized="1"
   inkscape:current-layer="레이어_1"
   inkscape:document-rotation="0" />
<style
   type="text/css"
   id="style2">
	.st0{fill:#5D7E95;}
	.st1{fill:#FFFFFF;}
</style>
<path
   class="st0"
   d="M 251.7,90.4 C 248.6,67 240.3,45.8 225.7,30.3 v 0 C 210.1,15.7 189,7.4 165.6,4.3 143.2,1.3 128,2 128,2 128,2 112.8,1.3 90.4,4.3 67,7.4 45.8,15.7 30.3,30.3 15.7,45.8 7.5,67 4.3,90.4 1.3,112.7 2.1,128 2.1,128 c 0,0 -0.7,15.2 2.2,37.6 3.1,23.4 11.4,44.6 26,60.1 v 0 c 15.6,14.6 36.7,22.9 60.1,26 22.3,3 37.6,2.2 37.6,2.2 0,0 15.2,0.7 37.6,-2.2 23.4,-3.1 44.6,-11.4 60.1,-26 v 0 c 14.6,-15.6 22.9,-36.7 26,-60.1 3,-22.3 2.2,-37.6 2.2,-37.6 0,0 0.8,-15.2 -2.2,-37.6"
   id="path4"
   inkscape:connector-curvature="0"
   style="fill:#5d7e95;fill-opacity:1" />

<rect
   style="fill:#ffffff;fill-opacity:0.992;stroke-width:0.897584"
   id="rect832"
   width="180"
   height="14"
   x="37.518372"
   y="66.827003" /><rect
   style="fill:#ffffff;fill-opacity:1;stroke-width:0.897584"
   id="rect832-3"
   width="180"
   height="14"
   x="37.518372"
   y="121.827" /><rect
   style="fill:#ffffff;fill-opacity:1;stroke-width:0.897584"
   id="rect832-3-6"
   width="180"
   height="14"
   x="37.518372"
   y="176.827" /><circle
   style="fill:#ffffff;fill-opacity:1;stroke-width:1.01527"
   id="path928"
   cx="89.838989"
   cy="73.276138"
   r="21.5" /><circle
   style="fill:#ffffff;fill-opacity:1;stroke-width:1.01527"
   id="path928-7"
   cx="168.38857"
   cy="129.008"
   r="21.5" /><circle
   style="fill:#ffffff;fill-opacity:1;stroke-width:1.01527"
   id="path928-3"
   cx="89.838997"
   cy="183.491"
   r="21.5" /><style
   type="text/css"
   id="style990">
	.st0{fill:#5D7E95;}
	.st1{fill:#FFFFFF;}
</style></svg>
