<?xml version="1.0" encoding="utf-8"?>
<!-- Generator: Adobe Illustrator 23.0.0, SVG Export Plug-In . SVG Version: 6.00 Build 0)  -->
<svg version="1.1"
	 id="레이어_1" inkscape:version="1.0.1 (3bc2e813f5, 2020-09-07)" sodipodi:docname="update.svg" xmlns:cc="http://creativecommons.org/ns#" xmlns:dc="http://purl.org/dc/elements/1.1/" xmlns:inkscape="http://www.inkscape.org/namespaces/inkscape" xmlns:rdf="http://www.w3.org/1999/02/22-rdf-syntax-ns#" xmlns:sodipodi="http://sodipodi.sourceforge.net/DTD/sodipodi-0.dtd" xmlns:svg="http://www.w3.org/2000/svg"
	 xmlns="http://www.w3.org/2000/svg" xmlns:xlink="http://www.w3.org/1999/xlink" x="0px" y="0px" viewBox="0 0 256 256"
	 style="enable-background:new 0 0 256 256;" xml:space="preserve">
<style type="text/css">
	.st0{opacity:0.1;}
	.st1{fill:#1E4BC6;}
	.st2{fill:#8DA8FF;}
	.st3{fill:#FFFFFF;}
	.st4{fill:#1B3CAA;}
</style>
<sodipodi:namedview  bordercolor="#666666" borderopacity="1" gridtolerance="10" guidetolerance="10" id="namedview23" inkscape:current-layer="레이어_1" inkscape:cx="128" inkscape:cy="128" inkscape:pageopacity="0" inkscape:pageshadow="2" inkscape:window-height="1017" inkscape:window-maximized="1" inkscape:window-width="1920" inkscape:window-x="-8" inkscape:window-y="-8" inkscape:zoom="3.3203125" objecttolerance="10" pagecolor="#ffffff" showgrid="false">
	</sodipodi:namedview>
<g id="g8" class="st0">
	<g id="g6">
		<path id="path4" d="M132.7,0.5c6.2,0,18.1,0.3,33.3,2.3c23.7,3.1,45.1,11.5,60.9,26.3l0,0C241.6,44.8,250,66.3,253.2,90
			c3,22.6,2.3,38,2.3,38s0.7,15.4-2.3,38c-3.1,23.7-11.5,45.1-26.3,60.9l0,0c-15.7,14.8-37.2,23.2-60.9,26.3
			c-15.1,2-27.1,2.3-33.3,2.3c-3.1,0-4.7-0.1-4.7-0.1s-1.7,0.1-4.7,0.1c-6.2,0-18.1-0.3-33.3-2.3c-23.7-3.1-45.1-11.5-60.9-26.3l0,0
			C14.4,211.2,6,189.7,2.8,166c-3-22.6-2.3-38-2.3-38s-0.7-15.4,2.3-38C6,66.3,14.4,44.8,29.1,29.1l0,0C44.9,14.3,66.3,5.9,90,2.8
			c15.2-2,27.1-2.3,33.3-2.3c3.1,0,4.7,0.1,4.7,0.1S129.7,0.5,132.7,0.5"/>
	</g>
</g>
<path id="path10" class="st1" d="M251.7,90.4c-3.1-23.4-11.4-44.6-26-60.1l0,0c-15.6-14.6-36.7-22.9-60.1-26C143.2,1.3,128,2,128,2
	s-15.2-0.7-37.6,2.3C67,7.4,45.8,15.7,30.3,30.3C15.7,45.8,7.5,67,4.3,90.4c-3,22.3-2.2,37.6-2.2,37.6s-0.7,15.2,2.2,37.6
	c3.1,23.4,11.4,44.6,26,60.1l0,0c15.6,14.6,36.7,22.9,60.1,26c22.3,3,37.6,2.2,37.6,2.2s15.2,0.7,37.6-2.2
	c23.4-3.1,44.6-11.4,60.1-26l0,0c14.6-15.6,22.9-36.7,26-60.1c3-22.3,2.2-37.6,2.2-37.6S254.7,112.8,251.7,90.4"/>
<g id="g20" transform="matrix(1.0625,0,0,1.0625018,-8,-7.7501104)">
	<path id="path12" class="st2" d="M201,195.9H55c-3.8,0-7-3.1-7-7l0,0c0-3.8,3.1-7,7-7h146c3.8,0,7,3.1,7,7l0,0
		C208,192.8,204.9,195.9,201,195.9z"/>
	<path id="path14" class="st3" d="M183.4,164.4H72.6c-9.8,0-17.7-7.9-17.7-17.7v-69c0-9.8,7.9-17.7,17.7-17.7h110.7
		c9.8,0,17.7,7.9,17.7,17.7v69C201,156.5,193.1,164.4,183.4,164.4L183.4,164.4z"/>
</g>
<image style="overflow:visible;" width="98" height="105" xlink:href="644BEDF.jpg"  transform="matrix(1 0 0 1 156.5625 308.5)">
</image>
<path class="st4" d="M150,88.3c3-3,5.9-5.9,8.9-8.9h-27.4v27.4c2.6-2.6,5.1-5.1,7.7-7.7c3.7,3.1,6,7.8,6,13
	c0,9.4-7.7,17.1-17.1,17.1c-9.4,0-17.1-7.7-17.1-17.1c0-6,3-11.2,7.7-14.2c-3.4-3.8-6.9-7.7-10.3-11.5c-7.7,5.9-12.7,15.3-12.7,25.8
	c0,17.9,14.6,32.5,32.5,32.5s32.5-14.6,32.5-32.5C160.5,102.7,156.4,94.2,150,88.3z"/>
</svg>
