<?xml version="1.0" encoding="UTF-8" standalone="no"?>
<!-- Generator: Adobe Illustrator 23.0.0, SVG Export Plug-In . SVG Version: 6.00 Build 0)  -->

<svg
   xmlns:dc="http://purl.org/dc/elements/1.1/"
   xmlns:cc="http://creativecommons.org/ns#"
   xmlns:rdf="http://www.w3.org/1999/02/22-rdf-syntax-ns#"
   xmlns:svg="http://www.w3.org/2000/svg"
   xmlns="http://www.w3.org/2000/svg"
   xmlns:sodipodi="http://sodipodi.sourceforge.net/DTD/sodipodi-0.dtd"
   xmlns:inkscape="http://www.inkscape.org/namespaces/inkscape"
   version="1.1"
   id="레이어_1"
   x="0px"
   y="0px"
   viewBox="0 0 256 256"
   style="enable-background:new 0 0 256 256;"
   xml:space="preserve"
   sodipodi:docname="desktop-environment-mate.svg"
   inkscape:version="0.92.5 (2060ec1f9f, 2020-04-08)"><metadata
   id="metadata16"><rdf:RDF><cc:Work
       rdf:about=""><dc:format>image/svg+xml</dc:format><dc:type
         rdf:resource="http://purl.org/dc/dcmitype/StillImage" /><dc:title></dc:title></cc:Work></rdf:RDF></metadata><defs
   id="defs14" /><sodipodi:namedview
   pagecolor="#ffffff"
   bordercolor="#666666"
   borderopacity="1"
   objecttolerance="10"
   gridtolerance="10"
   guidetolerance="10"
   inkscape:pageopacity="0"
   inkscape:pageshadow="2"
   inkscape:window-width="1920"
   inkscape:window-height="1004"
   id="namedview12"
   showgrid="false"
   inkscape:zoom="0.921875"
   inkscape:cx="128"
   inkscape:cy="128"
   inkscape:window-x="0"
   inkscape:window-y="0"
   inkscape:window-maximized="1"
   inkscape:current-layer="레이어_1" />
<style
   type="text/css"
   id="style2">
	.st0{fill:#1D99F3;}
	.st1{fill:#FFFFFF;}
</style>
<path
   id="SVGID_3_"
   class="st0"
   d="M251.7,90.4c-3.1-23.4-11.4-44.6-26-60.2l0,0c-15.5-14.6-36.7-22.9-60.1-26  C143.2,1.3,128,2,128,2s-15.2-0.7-37.6,2.2C67,7.4,45.8,15.7,30.3,30.3C15.7,45.8,7.4,67,4.3,90.4c-3,22.4-2.2,37.6-2.2,37.6  s-0.7,15.2,2.2,37.6c3.1,23.4,11.4,44.6,26,60.1l0,0c15.5,14.6,36.7,22.9,60.1,26c22.3,3,37.6,2.2,37.6,2.2s15.2,0.7,37.6-2.2  c23.4-3.1,44.6-11.4,60.1-26l0,0c14.6-15.5,22.9-36.7,26-60.1c3-22.4,2.2-37.6,2.2-37.6S254.6,112.8,251.7,90.4"
   style="fill:#94ba31;fill-opacity:1" />

<path
   style="fill:#ffffff;stroke-width:17.63714981"
   inkscape:connector-curvature="0"
   id="path6"
   d="M 128.00371,53.211361 A 74.658052,74.658052 0 0 0 67.57884,84.164557 l 10.70575,6.43756 a 62.223862,62.223862 0 0 1 49.71912,-24.938929 62.223862,62.223862 0 0 1 62.20623,62.206222 62.223862,62.223862 0 0 1 -62.20623,62.22386 62.223862,62.223862 0 0 1 -49.71912,-24.90365 l -10.723387,6.41992 A 74.658052,74.658052 0 0 0 128.00371,202.5451 74.658052,74.658052 0 0 0 202.66176,127.86941 74.658052,74.658052 0 0 0 128.00371,53.211361 Z M 53.328024,84.323292 v 87.109878 l 74.675686,-43.56376 z m 74.675686,0 A 43.563758,43.563758 0 0 0 94.387307,100.24964 l 10.829213,6.49047 a 31.111931,31.111931 0 0 1 22.78719,-9.982628 31.111931,31.111931 0 0 1 31.11193,31.111928 31.111931,31.111931 0 0 1 -31.11193,31.11193 31.111931,31.111931 0 0 1 -22.78719,-9.98262 l -10.846851,6.52574 a 43.563758,43.563758 0 0 0 33.634041,15.90871 43.563758,43.563758 0 0 0 43.56376,-43.56376 43.563758,43.563758 0 0 0 -43.56376,-43.563756 z" /></svg>