<?xml version="1.0" encoding="UTF-8" standalone="no"?>
<!-- Generator: Adobe Illustrator 23.0.0, SVG Export Plug-In . SVG Version: 6.00 Build 0)  -->

<svg
   xmlns:dc="http://purl.org/dc/elements/1.1/"
   xmlns:cc="http://creativecommons.org/ns#"
   xmlns:rdf="http://www.w3.org/1999/02/22-rdf-syntax-ns#"
   xmlns:svg="http://www.w3.org/2000/svg"
   xmlns="http://www.w3.org/2000/svg"
   xmlns:sodipodi="http://sodipodi.sourceforge.net/DTD/sodipodi-0.dtd"
   xmlns:inkscape="http://www.inkscape.org/namespaces/inkscape"
   version="1.1"
   id="레이어_1"
   x="0px"
   y="0px"
   viewBox="0 0 256 256"
   style="enable-background:new 0 0 256 256;"
   xml:space="preserve"
   sodipodi:docname="xfce4-appfinder.svg"
   inkscape:version="0.92.5 (2060ec1f9f, 2020-04-08)"><metadata
   id="metadata13"><rdf:RDF><cc:Work
       rdf:about=""><dc:format>image/svg+xml</dc:format><dc:type
         rdf:resource="http://purl.org/dc/dcmitype/StillImage" /></cc:Work></rdf:RDF></metadata><defs
   id="defs11" /><sodipodi:namedview
   pagecolor="#ffffff"
   bordercolor="#666666"
   borderopacity="1"
   objecttolerance="10"
   gridtolerance="10"
   guidetolerance="10"
   inkscape:pageopacity="0"
   inkscape:pageshadow="2"
   inkscape:window-width="813"
   inkscape:window-height="480"
   id="namedview9"
   showgrid="false"
   inkscape:zoom="0.921875"
   inkscape:cx="4.8813559"
   inkscape:cy="128"
   inkscape:window-x="1037"
   inkscape:window-y="336"
   inkscape:window-maximized="0"
   inkscape:current-layer="레이어_1" />
<style
   type="text/css"
   id="style2">
	.st0{fill:#3399CC;}
	.st1{fill:#FFFFFF;}
</style>
<path
   class="st0"
   d="M251.7,90.4c-3.1-23.4-11.4-44.6-26-60.2l0,0c-15.5-14.6-36.7-22.9-60.1-26C143.2,1.3,128,2,128,2  s-15.2-0.7-37.6,2.2C67,7.4,45.8,15.7,30.3,30.3C15.7,45.8,7.4,67,4.3,90.4c-3,22.4-2.2,37.6-2.2,37.6s-0.7,15.2,2.2,37.6  c3.1,23.4,11.4,44.6,26,60.1l0,0c15.5,14.6,36.7,22.9,60.1,26c22.3,3,37.6,2.2,37.6,2.2s15.2,0.7,37.6-2.2  c23.4-3.1,44.6-11.4,60.1-26l0,0c14.6-15.5,22.9-36.7,26-60.1c3-22.4,2.2-37.6,2.2-37.6S254.6,112.8,251.7,90.4"
   id="path4"
   style="fill:#0044aa;fill-opacity:1" />

<path
   d="m 23.846487,69.861434 -1.318772,2.582622 c 6.722048,3.736483 26.045627,13.44405 35.222017,19.195348 11.594148,7.10665 27.291137,21.613096 28.518308,24.030806 -12.088693,21.00867 -6.593815,39.59957 -8.022482,41.57775 -1.025722,1.64846 -10.513501,12.07036 -7.45472,13.60892 3.022197,1.52022 7.839325,-0.86086 8.571998,-1.33711 1.520221,-0.91578 3.07712,-2.27119 2.41771,0.40271 -1.282094,5.47654 -7.088361,18.62758 0.934167,15.84351 0.989045,-0.56781 13.920257,-14.83613 15.477156,-15.31234 25.715901,6.70371 54.472331,3.62659 59.802341,1.13562 2.76574,0.18339 10.62335,5.12852 15.09251,7.49131 4.46915,2.32615 16.66774,8.169 13.0411,-2.45435 -1.09893,-3.35187 -9.12142,-11.90553 -7.82098,-12.49163 2.85733,-1.13562 9.94569,2.96722 12.67479,3.73648 8.15072,2.28952 9.24965,-0.8792 4.10284,-7.85766 -5.09193,-6.96013 -5.86119,-5.87949 -7.45472,-9.10313 -1.2638,-2.56424 0,-5.43991 0.91583,-6.1359 1.64846,-1.26385 26.009,-14.78116 31.70532,-19.94631 8.46206,-7.6928 0,-17.27218 -2.06973,-18.62759 -17.5286,-12.638156 -35.53341,-9.927346 -35.77149,-11.923826 -0.12833,-2.28952 -0.0733,-8.883337 -0.36631,-11.172862 -1.7584,-15.458863 -8.92002,-11.575808 -9.89077,-11.575808 -7.14329,1.135569 -4.52408,12.088646 -1.48359,22.36402 0.21979,2.63755 -2.50931,1.4653 -4.10284,-1.30043 -5.49484,-14.744532 -7.82099,-14.488114 -9.34126,-14.927689 -1.4653,-0.329915 -6.63045,2.820701 -6.53884,8.791785 0.0373,1.685085 2.05139,9.799124 2.05139,12.290144 -3.37017,2.948886 -3.53503,9.670926 -7.08836,12.106976 -10.312,2.143 -35.09378,-5.09188 -38.18924,-5.42157 -10.71495,-2.01481 -15.3856,6.04435 -17.125609,4.1028 C 76.432241,93.599014 55.185497,81.766738 45.990768,79.71534 42.419102,78.946036 30.385379,73.634362 26.044457,70.960186 25.348416,70.53881 24.560821,70.227561 23.791564,69.842909 M 215.01244,83.818135 c -3.35183,3.608297 -2.74739,17.089025 -2.06973,16.979125 3.42514,-0.69604 3.11375,-18.05977 2.06973,-16.979125 m 9.70757,2.051445 c -0.36631,-1.098985 -9.21302,11.301054 -7.65612,15.8618 0.71433,1.97814 8.865,-12.400076 7.67446,-15.8618 m -45.8637,21.06358 c 0.11012,-0.11012 0.25665,0.0551 0.38451,0.18339 1.02572,3.4068 2.17963,6.64879 8.91997,7.47302 0.80593,0.0915 -3.73648,2.74743 -6.86857,1.09893 -2.839,-1.70337 -3.09542,-7.96751 -2.43605,-8.73681 m 17.51026,17.10732 a 4.5790449,4.5790449 0 0 1 1.52026,0 c 1.64846,0.42137 -11.97879,7.52798 -13.04115,6.55718 -0.65936,-0.62273 7.27157,-5.75125 11.53923,-6.55718 m 3.55332,4.50578 c 1.42867,0.11013 -7.89429,9.76254 -8.93831,8.75516 -0.76925,-0.69604 6.04435,-8.97495 8.93831,-8.75516"
   id="path6-3"
   inkscape:connector-curvature="0"
   style="fill:#f9f9f9;stroke-width:16.98441124" /></svg>