<?xml version="1.0" encoding="UTF-8" standalone="no"?>
<!-- Generator: Adobe Illustrator 23.0.0, SVG Export Plug-In . SVG Version: 6.00 Build 0)  -->

<svg
   xmlns:dc="http://purl.org/dc/elements/1.1/"
   xmlns:cc="http://creativecommons.org/ns#"
   xmlns:rdf="http://www.w3.org/1999/02/22-rdf-syntax-ns#"
   xmlns:svg="http://www.w3.org/2000/svg"
   xmlns="http://www.w3.org/2000/svg"
   xmlns:sodipodi="http://sodipodi.sourceforge.net/DTD/sodipodi-0.dtd"
   xmlns:inkscape="http://www.inkscape.org/namespaces/inkscape"
   version="1.1"
   id="레이어_1"
   x="0px"
   y="0px"
   viewBox="0 0 256 256"
   style="enable-background:new 0 0 256 256;"
   xml:space="preserve"
   sodipodi:docname="desktop-environment-lxde.svg"
   inkscape:version="0.92.5 (2060ec1f9f, 2020-04-08)"><metadata
   id="metadata16"><rdf:RDF><cc:Work
       rdf:about=""><dc:format>image/svg+xml</dc:format><dc:type
         rdf:resource="http://purl.org/dc/dcmitype/StillImage" /><dc:title></dc:title></cc:Work></rdf:RDF></metadata><defs
   id="defs14" /><sodipodi:namedview
   pagecolor="#ffffff"
   bordercolor="#666666"
   borderopacity="1"
   objecttolerance="10"
   gridtolerance="10"
   guidetolerance="10"
   inkscape:pageopacity="0"
   inkscape:pageshadow="2"
   inkscape:window-width="793"
   inkscape:window-height="480"
   id="namedview12"
   showgrid="false"
   inkscape:zoom="0.921875"
   inkscape:cx="128"
   inkscape:cy="128"
   inkscape:window-x="706"
   inkscape:window-y="295"
   inkscape:window-maximized="0"
   inkscape:current-layer="레이어_1" />
<style
   type="text/css"
   id="style2">
	.st0{fill:#1D99F3;}
	.st1{fill:#FFFFFF;}
</style>
<path
   id="SVGID_3_"
   class="st0"
   d="M251.7,90.4c-3.1-23.4-11.4-44.6-26-60.2l0,0c-15.5-14.6-36.7-22.9-60.1-26  C143.2,1.3,128,2,128,2s-15.2-0.7-37.6,2.2C67,7.4,45.8,15.7,30.3,30.3C15.7,45.8,7.4,67,4.3,90.4c-3,22.4-2.2,37.6-2.2,37.6  s-0.7,15.2,2.2,37.6c3.1,23.4,11.4,44.6,26,60.1l0,0c15.5,14.6,36.7,22.9,60.1,26c22.3,3,37.6,2.2,37.6,2.2s15.2,0.7,37.6-2.2  c23.4-3.1,44.6-11.4,60.1-26l0,0c14.6-15.5,22.9-36.7,26-60.1c3-22.4,2.2-37.6,2.2-37.6S254.6,112.8,251.7,90.4"
   style="fill:#235292;fill-opacity:1" />

<path
   inkscape:connector-curvature="0"
   style="fill:#ffffff;stroke-width:18.89689445"
   d="m 166.90057,109.92123 c -9.82637,-11.39482 -18.65125,-18.76459 -31.72788,0.43448 -7.80444,11.39482 -54.49863,76.83476 -63.05892,87.24694 -2.5133,3.02353 -3.96837,5.1022 -5.85806,6.36828 0,-4.15731 32.257,-56.74735 41.25192,-71.99715 10.8657,-18.29222 10.52557,-17.23398 9.2217,-17.23398 -1.83304,0 -5.57462,2.79673 -11.26258,9.03271 -10.37439,11.39483 -41.10073,53.79948 -43.2361,53.15696 0.73701,-3.08021 24.79274,-41.04407 35.71514,-56.74734 9.39175,-13.5302 5.80136,-14.58844 0.41598,-13.24677 C 75.38317,112.60447 47.9071,126.21022 47,125.7 c 0.33998,-0.69921 92.59478,-67.443016 104.91555,-68.709091 1.43617,-0.16999 4.45969,-2.796735 9.84532,-5.007704 5.85801,-2.362111 9.80747,-4.327395 10.77122,-3.703782 -4.2896,6.179285 -6.51942,7.426462 -6.57612,9.410644 -0.0565,3.250259 -1.17163,8.503598 -2.4188,10.204348 23.84789,16.345784 33.16404,72.053845 39.94804,116.896195 1.6062,10.62002 3.13686,18.6323 3.51479,23.37542 -2.00303,-5.32889 -21.07001,-76.15445 -40.13698,-98.24495 m 0,0"
   id="path6" /></svg>