<?xml version="1.0" encoding="UTF-8" standalone="no"?>
<svg
   xmlns:dc="http://purl.org/dc/elements/1.1/"
   xmlns:cc="http://creativecommons.org/ns#"
   xmlns:rdf="http://www.w3.org/1999/02/22-rdf-syntax-ns#"
   xmlns:svg="http://www.w3.org/2000/svg"
   xmlns="http://www.w3.org/2000/svg"
   xmlns:sodipodi="http://sodipodi.sourceforge.net/DTD/sodipodi-0.dtd"
   xmlns:inkscape="http://www.inkscape.org/namespaces/inkscape"
   version="1.1"
   id="레이어_1"
   x="0px"
   y="0px"
   viewBox="0 0 256 256"
   style="enable-background:new 0 0 256 256;"
   xml:space="preserve"
   sodipodi:docname="desktop.svg"
   inkscape:version="1.0.2 (e86c870879, 2021-01-15)"><metadata
   id="metadata17"><rdf:RDF><cc:Work
       rdf:about=""><dc:format>image/svg+xml</dc:format><dc:type
         rdf:resource="http://purl.org/dc/dcmitype/StillImage" /><dc:title></dc:title></cc:Work></rdf:RDF></metadata><defs
   id="defs15" /><sodipodi:namedview
   pagecolor="#ffffff"
   bordercolor="#666666"
   borderopacity="1"
   objecttolerance="10"
   gridtolerance="10"
   guidetolerance="10"
   inkscape:pageopacity="0"
   inkscape:pageshadow="2"
   inkscape:window-width="1852"
   inkscape:window-height="1048"
   id="namedview13"
   showgrid="false"
   inkscape:zoom="1.84375"
   inkscape:cx="50.126746"
   inkscape:cy="146.4007"
   inkscape:window-x="68"
   inkscape:window-y="32"
   inkscape:window-maximized="1"
   inkscape:current-layer="레이어_1"
   inkscape:document-rotation="0" />
<style
   type="text/css"
   id="style2">
	.st0{fill:#5D7E95;}
	.st1{fill:#FFFFFF;}
</style>
<path
   class="st0"
   d="M251.7,90.4c-3.1-23.4-11.4-44.6-26-60.1l0,0c-15.6-14.6-36.7-22.9-60.1-26C143.2,1.3,128,2,128,2  s-15.2-0.7-37.6,2.3C67,7.4,45.8,15.7,30.3,30.3C15.7,45.8,7.5,67,4.3,90.4c-3,22.3-2.2,37.6-2.2,37.6s-0.7,15.2,2.2,37.6  c3.1,23.4,11.4,44.6,26,60.1l0,0c15.6,14.6,36.7,22.9,60.1,26c22.3,3,37.6,2.2,37.6,2.2s15.2,0.7,37.6-2.2  c23.4-3.1,44.6-11.4,60.1-26l0,0c14.6-15.6,22.9-36.7,26-60.1c3-22.3,2.2-37.6,2.2-37.6S254.7,112.8,251.7,90.4"
   id="path4"
   style="fill:#28b9d8;fill-opacity:1" />



<path
   id="path18"
   style="fill:#ffffff;stroke-width:2.99999"
   d="M 52.556641 60.949219 C 44.156641 60.949219 37.556641 67.549219 37.556641 75.949219 L 37.556641 189.94922 C 37.556641 198.34922 44.156641 204.94922 52.556641 204.94922 L 202.55664 204.94922 C 210.95664 204.94922 217.55664 198.34922 217.55664 189.94922 L 217.55664 75.949219 C 217.55664 67.849219 210.95664 60.949219 202.55664 60.949219 L 52.556641 60.949219 z M 65.400391 76.8125 C 65.400391 76.8125 66.877809 76.745565 69.054688 77.037109 C 71.328748 77.338373 73.378489 78.143635 74.894531 79.5625 C 76.313389 81.068817 77.120605 83.130237 77.421875 85.404297 C 77.713423 87.581173 77.634766 89.058594 77.634766 89.058594 C 77.634766 89.058594 77.713419 90.545722 77.421875 92.712891 C 77.120605 94.986945 76.313389 97.036698 74.894531 98.552734 C 73.388214 99.971599 71.328748 100.77881 69.054688 101.08008 C 66.87781 101.36187 65.400391 101.29297 65.400391 101.29297 C 65.400391 101.29297 63.913252 101.37162 61.746094 101.08008 C 59.472035 100.77881 57.422292 99.971599 55.90625 98.552734 C 54.487392 97.046411 53.680172 94.986945 53.378906 92.712891 C 53.097074 90.536009 53.166016 89.058594 53.166016 89.058594 C 53.166016 89.058594 53.087361 87.571454 53.378906 85.404297 C 53.689889 83.130237 54.487392 81.068817 55.90625 79.5625 C 57.412575 78.143635 59.472035 77.338373 61.746094 77.037109 C 63.922977 76.745561 65.400391 76.8125 65.400391 76.8125 z M 65.400391 112.31641 C 65.400391 112.31641 66.87781 112.24948 69.054688 112.54102 C 71.328747 112.84229 73.378491 113.64754 74.894531 115.06641 C 76.313389 116.57272 77.12061 118.63414 77.421875 120.9082 C 77.713415 123.08507 77.634766 124.5625 77.634766 124.5625 C 77.634766 124.5625 77.71342 126.04767 77.421875 128.21484 C 77.12061 130.48889 76.313389 132.5406 74.894531 134.05664 C 73.38821 135.4755 71.328748 136.28076 69.054688 136.58203 C 66.877811 136.86383 65.400391 136.79688 65.400391 136.79688 C 65.400391 136.79687 63.913255 136.87357 61.746094 136.58203 C 59.472035 136.28076 57.42229 135.4755 55.90625 134.05664 C 54.487392 132.55032 53.68017 130.48889 53.378906 128.21484 C 53.097075 126.03795 53.166016 124.5625 53.166016 124.5625 C 53.166016 124.5625 53.08736 123.07535 53.378906 120.9082 C 53.689888 118.63414 54.487392 116.57272 55.90625 115.06641 C 57.412571 113.64754 59.472035 112.84229 61.746094 112.54102 C 63.922974 112.24951 65.400391 112.31641 65.400391 112.31641 z M 59.552734 164.5625 L 194.83789 164.5625 C 198.37682 164.5625 201.22461 167.41029 201.22461 170.94922 L 201.22461 183.17383 C 201.22461 186.71275 198.37682 189.5625 194.83789 189.5625 L 59.552734 189.5625 C 56.013808 189.5625 53.166016 186.71275 53.166016 183.17383 L 53.166016 170.94922 C 53.166016 167.41029 56.013808 164.5625 59.552734 164.5625 z " /></svg>
