<?xml version="1.0" encoding="UTF-8" standalone="no"?>
<!-- Generator: Adobe Illustrator 23.0.0, SVG Export Plug-In . SVG Version: 6.00 Build 0)  -->

<svg
   xmlns:dc="http://purl.org/dc/elements/1.1/"
   xmlns:cc="http://creativecommons.org/ns#"
   xmlns:rdf="http://www.w3.org/1999/02/22-rdf-syntax-ns#"
   xmlns:svg="http://www.w3.org/2000/svg"
   xmlns="http://www.w3.org/2000/svg"
   xmlns:sodipodi="http://sodipodi.sourceforge.net/DTD/sodipodi-0.dtd"
   xmlns:inkscape="http://www.inkscape.org/namespaces/inkscape"
   version="1.1"
   id="레이어_1"
   x="0px"
   y="0px"
   viewBox="0 0 256 256"
   style="enable-background:new 0 0 256 256;"
   xml:space="preserve"
   sodipodi:docname="dock.svg"
   inkscape:version="0.92.5 (2060ec1f9f, 2020-04-08)"><metadata
   id="metadata17"><rdf:RDF><cc:Work
       rdf:about=""><dc:format>image/svg+xml</dc:format><dc:type
         rdf:resource="http://purl.org/dc/dcmitype/StillImage" /><dc:title></dc:title></cc:Work></rdf:RDF></metadata><defs
   id="defs15" /><sodipodi:namedview
   pagecolor="#ffffff"
   bordercolor="#666666"
   borderopacity="1"
   objecttolerance="10"
   gridtolerance="10"
   guidetolerance="10"
   inkscape:pageopacity="0"
   inkscape:pageshadow="2"
   inkscape:window-width="1920"
   inkscape:window-height="1004"
   id="namedview13"
   showgrid="false"
   inkscape:zoom="1.84375"
   inkscape:cx="142.9557"
   inkscape:cy="45.714696"
   inkscape:window-x="0"
   inkscape:window-y="0"
   inkscape:window-maximized="1"
   inkscape:current-layer="레이어_1" />
<style
   type="text/css"
   id="style2">
	.st0{fill:#5D7E95;}
	.st1{fill:#FFFFFF;}
</style>
<path
   class="st0"
   d="M251.7,90.4c-3.1-23.4-11.4-44.6-26-60.1l0,0c-15.6-14.6-36.7-22.9-60.1-26C143.2,1.3,128,2,128,2  s-15.2-0.7-37.6,2.3C67,7.4,45.8,15.7,30.3,30.3C15.7,45.8,7.5,67,4.3,90.4c-3,22.3-2.2,37.6-2.2,37.6s-0.7,15.2,2.2,37.6  c3.1,23.4,11.4,44.6,26,60.1l0,0c15.6,14.6,36.7,22.9,60.1,26c22.3,3,37.6,2.2,37.6,2.2s15.2,0.7,37.6-2.2  c23.4-3.1,44.6-11.4,60.1-26l0,0c14.6-15.6,22.9-36.7,26-60.1c3-22.3,2.2-37.6,2.2-37.6S254.7,112.8,251.7,90.4"
   id="path4"
   style="fill:#28b9d8;fill-opacity:1" />



<path
   inkscape:connector-curvature="0"
   class="st0"
   d="m 84.700033,148.31909 c -0.615096,-4.64297 -2.261967,-8.84943 -5.158867,-11.9249 v 0 c -3.095318,-2.89691 -7.281931,-4.54377 -11.924906,-5.15887 -4.444555,-0.59525 -7.460505,-0.45635 -7.460505,-0.45635 0,0 -3.01595,-0.1389 -7.460512,0.45635 -4.642975,0.6151 -8.849431,2.26196 -11.924905,5.15887 -2.896899,3.07547 -4.523923,7.28193 -5.15886,11.9249 -0.595253,4.42472 -0.43652,7.46051 -0.43652,7.46051 0,0 -0.138892,3.01595 0.43652,7.46051 0.615095,4.64297 2.261961,8.84942 5.15886,11.92489 v 0 c 3.095318,2.89691 7.28193,4.54378 11.924905,5.15888 4.424718,0.59525 7.460512,0.43651 7.460512,0.43651 0,0 3.01595,0.13889 7.460505,-0.43651 4.642975,-0.6151 8.849431,-2.26197 11.924906,-5.15888 v 0 c 2.8969,-3.09531 4.543771,-7.28192 5.158867,-11.92489 0.59525,-4.42473 0.436518,-7.46051 0.436518,-7.46051 0,0 0.158732,-3.01595 -0.436518,-7.46051"
   id="path4-3"
   style="fill:#ffffff;fill-opacity:1;stroke-width:0.19841774" /><path
   inkscape:connector-curvature="0"
   class="st0"
   d="m 152.66163,148.31909 c -0.6151,-4.64297 -2.26197,-8.84943 -5.15887,-11.9249 v 0 c -3.09532,-2.89691 -7.28193,-4.54377 -11.92491,-5.15887 -4.44455,-0.59525 -7.4605,-0.45635 -7.4605,-0.45635 0,0 -3.01595,-0.1389 -7.46051,0.45635 -4.64298,0.6151 -8.84943,2.26196 -11.92491,5.15887 -2.8969,3.07547 -4.52392,7.28193 -5.15886,11.9249 -0.59525,4.42472 -0.43652,7.46051 -0.43652,7.46051 0,0 -0.13889,3.01595 0.43652,7.46051 0.6151,4.64297 2.26196,8.84942 5.15886,11.92489 v 0 c 3.09532,2.89691 7.28193,4.54378 11.92491,5.15888 4.42471,0.59525 7.46051,0.43651 7.46051,0.43651 0,0 3.01595,0.13889 7.4605,-0.43651 4.64298,-0.6151 8.84944,-2.26197 11.92491,-5.15888 v 0 c 2.8969,-3.09531 4.54377,-7.28192 5.15887,-11.92489 0.59525,-4.42473 0.43652,-7.46051 0.43652,-7.46051 0,0 0.15873,-3.01595 -0.43652,-7.46051"
   id="path4-3-6"
   style="fill:#ffffff;fill-opacity:1;stroke-width:0.19841774" /><path
   inkscape:connector-curvature="0"
   class="st0"
   d="m 220.62323,148.31909 c -0.6151,-4.64297 -2.26197,-8.84943 -5.15887,-11.9249 v 0 c -3.09532,-2.89691 -7.28193,-4.54377 -11.92491,-5.15887 -4.44455,-0.59525 -7.4605,-0.45635 -7.4605,-0.45635 0,0 -3.01595,-0.1389 -7.46051,0.45635 -4.64298,0.6151 -8.84943,2.26196 -11.92491,5.15887 -2.8969,3.07547 -4.52392,7.28193 -5.15886,11.9249 -0.59525,4.42472 -0.43652,7.46051 -0.43652,7.46051 0,0 -0.13889,3.01595 0.43652,7.46051 0.6151,4.64297 2.26196,8.84942 5.15886,11.92489 v 0 c 3.09532,2.89691 7.28193,4.54378 11.92491,5.15888 4.42471,0.59525 7.46051,0.43651 7.46051,0.43651 0,0 3.01595,0.13889 7.4605,-0.43651 4.64298,-0.6151 8.84944,-2.26197 11.92491,-5.15888 v 0 c 2.8969,-3.09531 4.54377,-7.28192 5.15887,-11.92489 0.59525,-4.42473 0.43652,-7.46051 0.43652,-7.46051 0,0 0.15873,-3.01595 -0.43652,-7.46051"
   id="path4-3-6-7"
   style="fill:#ffffff;fill-opacity:1;stroke-width:0.19841774" /><path
   style="opacity:1;fill:#ffffff;fill-opacity:1;stroke-width:1.25761414"
   d="M 35.174957,198.31909 H 220.62323 v 11.79949 H 35.174957 Z"
   id="rect859"
   inkscape:connector-curvature="0" /></svg>