<?xml version="1.0" encoding="UTF-8" standalone="no"?>
<!-- Generator: Adobe Illustrator 23.0.0, SVG Export Plug-In . SVG Version: 6.00 Build 0)  -->

<svg
   xmlns:ns="&amp;#38;ns_sfw;"
   xmlns:dc="http://purl.org/dc/elements/1.1/"
   xmlns:cc="http://creativecommons.org/ns#"
   xmlns:rdf="http://www.w3.org/1999/02/22-rdf-syntax-ns#"
   xmlns:svg="http://www.w3.org/2000/svg"
   xmlns="http://www.w3.org/2000/svg"
   xmlns:sodipodi="http://sodipodi.sourceforge.net/DTD/sodipodi-0.dtd"
   xmlns:inkscape="http://www.inkscape.org/namespaces/inkscape"
   version="1.1"
   id="레이어_1"
   x="0px"
   y="0px"
   viewBox="0 0 256 256"
   style="enable-background:new 0 0 256 256;"
   xml:space="preserve"
   sodipodi:docname="emacs.svg"
   inkscape:version="0.92.5 (2060ec1f9f, 2020-04-08)"><defs
   id="defs29"><linearGradient
     gradientUnits="userSpaceOnUse"
     y2="1008.4"
     y1="1048.4"
     x2="24"
     x1="24"
     id="a"
     gradientTransform="matrix(4.6665556,0,0,4.6665556,-21.329778,-4633.7534)"><stop
       id="stop824"
       offset="0"
       stop-color="#6e3a84" /><stop
       id="stop826"
       offset="1"
       stop-color="#a75ec4" /></linearGradient></defs><sodipodi:namedview
   pagecolor="#ffffff"
   bordercolor="#666666"
   borderopacity="1"
   objecttolerance="10"
   gridtolerance="10"
   guidetolerance="10"
   inkscape:pageopacity="0"
   inkscape:pageshadow="2"
   inkscape:window-width="1920"
   inkscape:window-height="998"
   id="namedview27"
   showgrid="false"
   inkscape:zoom="0.921875"
   inkscape:cx="128"
   inkscape:cy="84.610169"
   inkscape:window-x="0"
   inkscape:window-y="24"
   inkscape:window-maximized="1"
   inkscape:current-layer="레이어_1" />
<style
   type="text/css"
   id="style2">
	.st0{opacity:0.1;}
	.st1{fill:#618FFA;}
	.st2{fill-rule:evenodd;clip-rule:evenodd;fill:#FFFFFF;}
	.st3{fill:#FFFFFF;}
</style>
<metadata
   id="metadata4">
	<ns:sfw>
		<ns:slices />
		<ns:sliceSourceBounds
   bottomLeftOrigin="true"
   height="255"
   width="254.9"
   x="0.5"
   y="0.5" />
	</ns:sfw>
<rdf:RDF><cc:Work
     rdf:about=""><dc:format>image/svg+xml</dc:format><dc:type
       rdf:resource="http://purl.org/dc/dcmitype/StillImage" /><dc:title></dc:title></cc:Work></rdf:RDF></metadata>
<g
   class="st0"
   id="g10"
   style="opacity:0.1">
	<g
   id="g8">
		<path
   d="m 132.8,0.5 c 6.2,0 18.1,0.3 33.3,2.3 23.7,3.1 45.1,11.5 60.8,26.3 v 0 c 14.7,15.7 23.1,37.1 26.2,60.9 3,22.6 2.3,38 2.3,38 0,0 0.7,15.4 -2.3,38 -3.1,23.7 -11.5,45.1 -26.3,60.9 v 0 c -15.7,14.8 -37.1,23.1 -60.8,26.3 -15.1,2 -27,2.3 -33.2,2.3 -3.1,0 -4.7,-0.1 -4.7,-0.1 0,0 -1.7,0.1 -4.7,0.1 -6.2,0 -18.1,-0.3 -33.2,-2.3 -23.7,-3.1 -45.1,-11.5 -60.8,-26.3 v 0 C 14.4,211.2 6,189.8 2.9,166 -0.1,143.4 0.6,128 0.6,128 0.6,128 -0.1,112.6 2.9,90 6,66.2 14.4,44.8 29.2,29.1 v 0 C 44.8,14.3 66.3,5.9 89.9,2.8 c 15.1,-2 27,-2.3 33.3,-2.3 3.1,0 4.7,0.1 4.7,0.1 0,0 1.8,-0.1 4.9,-0.1"
   id="path6"
   inkscape:connector-curvature="0" />
	</g>
</g>
<path
   class="st1"
   d="M251.7,90.4c-3.1-23.4-11.4-44.6-26-60.1l0,0c-15.6-14.6-36.7-22.9-60.1-26C143.2,1.3,128,2,128,2  s-15.2-0.7-37.6,2.3C67,7.4,45.8,15.7,30.3,30.3C15.7,45.8,7.5,67,4.3,90.4c-3,22.3-2.2,37.6-2.2,37.6s-0.7,15.2,2.2,37.6  c3.1,23.4,11.4,44.6,26,60.1l0,0c15.6,14.6,36.7,22.9,60.1,26c22.3,3,37.6,2.2,37.6,2.2s15.2,0.7,37.6-2.2  c23.4-3.1,44.6-11.4,60.1-26l0,0c14.6-15.6,22.9-36.7,26-60.1c3-22.3,2.2-37.6,2.2-37.6S254.7,112.8,251.7,90.4"
   id="path12"
   style="fill:#884ba1;fill-opacity:1" />


<circle
   style="fill:url(#a);stroke-width:4.6665554"
   cx="90.667557"
   cy="165.33249"
   r="0"
   id="circle831" /><path
   style="fill:#ffffff;stroke-width:4.6665554"
   inkscape:connector-curvature="0"
   d="M 74.8386,184.46526 C 63.965059,178.08421 58.682984,174.24783 52.867523,168.50377 45.870023,161.594 42.708898,156.29233 41.79612,149.93508 c -1.255537,-8.74279 4.818218,-17.74738 15.475698,-22.93986 20.888436,-10.17915 49.185492,-12.40417 76.330852,-6.00259 5.74686,1.35611 5.56067,0.92818 -1.38844,-3.17372 -9.14645,-5.40247 -23.28751,-16.56534 -31.50485,-24.869942 C 90.961876,83.09787 84.917753,72.685384 84.917753,66.082675 c 0,-4.35763 2.149882,-8.977053 7.209362,-11.761587 11.838115,-6.515445 53.390065,4.450494 81.212065,6.007257 8.81046,0.452656 14.70619,0.529187 14.68005,-4.573691 -0.0219,-4.368363 -11.70232,-6.763239 -17.35305,-6.355849 4.96241,-1.66736 9.71903,-2.534406 16.07768,-2.669736 12.71497,-0.270661 15.28111,1.3631 17.87291,2.575472 5.22094,2.441541 9.9645,8.053541 9.74704,15.195238 -0.70139,23.016852 -28.1594,12.776096 -46.4355,9.470308 -20.16232,-3.646913 -37.46964,-6.634909 -43.3257,0.247327 -13.82421,16.248947 34.53438,48.126186 49.47015,59.456586 -12.4667,0.94964 -79.07478,-5.95779 -88.249228,17.36472 -3.239757,10.58795 14.562458,21.89268 31.178658,27.62368 13.52088,4.45329 29.95975,9.5011 50.37547,10.83947 18.49776,1.21284 27.9704,-1.42843 26.23024,-15.45283 14.69638,7.59995 13.73927,22.73499 4.19239,29.40583 -15.46264,10.80401 -61.7712,1.5829 -64.56647,1.00424 -22.54039,-4.66888 -43.694823,-11.44892 -58.397273,-19.99479 z"
   id="path835" /></svg>