<?xml version="1.0" encoding="utf-8"?>
<!-- Generator: Adobe Illustrator 23.0.0, SVG Export Plug-In . SVG Version: 6.00 Build 0)  -->
<svg version="1.1" id="레이어_1" xmlns="http://www.w3.org/2000/svg" xmlns:xlink="http://www.w3.org/1999/xlink" x="0px"
	 y="0px" viewBox="0 0 256 256" style="enable-background:new 0 0 256 256;" xml:space="preserve">
<style type="text/css">
	.st0{opacity:0.1;}
	.st1{fill:#666666;}
	.st2{fill:#FFFFFF;}
</style>
<g class="st0">
	<g>
		<path d="M132.7,0.5c6.2,0,18.1,0.3,33.3,2.3c23.7,3.1,45.1,11.5,60.9,26.3h0C241.6,44.8,250,66.3,253.2,90c3,22.6,2.3,38,2.3,38
			s0.7,15.4-2.3,38c-3.1,23.7-11.5,45.1-26.3,60.9l0,0c-15.7,14.8-37.2,23.2-60.9,26.3c-15.1,2-27.1,2.3-33.3,2.3
			c-3.1,0-4.7-0.1-4.7-0.1s-1.7,0.1-4.7,0.1c-6.2,0-18.1-0.3-33.3-2.3c-23.7-3.1-45.1-11.5-60.9-26.3l0,0
			C14.4,211.2,6,189.7,2.8,166c-3-22.6-2.3-38-2.3-38s-0.7-15.4,2.3-38C6,66.3,14.4,44.8,29.1,29.1h0C44.9,14.3,66.3,5.9,90,2.8
			c15.2-2,27.1-2.3,33.3-2.3c3.1,0,4.7,0.1,4.7,0.1S129.7,0.5,132.7,0.5"/>
	</g>
</g>
<path class="st1" d="M251.7,90.4c-3.1-23.4-11.4-44.6-26-60.1l0,0c-15.6-14.6-36.7-22.9-60.1-26C143.2,1.3,128,2,128,2
	s-15.2-0.7-37.6,2.3C67,7.4,45.8,15.7,30.3,30.3C15.7,45.8,7.5,67,4.3,90.4c-3,22.3-2.2,37.6-2.2,37.6s-0.7,15.2,2.2,37.6
	c3.1,23.4,11.4,44.6,26,60.1l0,0c15.6,14.6,36.7,22.9,60.1,26c22.3,3,37.6,2.2,37.6,2.2s15.2,0.7,37.6-2.2
	c23.4-3.1,44.6-11.4,60.1-26l0,0c14.6-15.6,22.9-36.7,26-60.1c3-22.3,2.2-37.6,2.2-37.6S254.7,112.8,251.7,90.4"/>
<path class="st2" d="M208.2,137.3c-0.1-13.3-0.1-9-0.2-22.3c-8-0.9-16-1.8-24-2.7c-1.4-5.4-3.5-10.6-6.3-15.3
	c4.9-6.4,9.9-12.8,14.8-19.2c-9.5-9.3-6.5-6.3-16-15.7c-6.2,5-12.4,9.9-18.6,14.9c-4.9-2.9-10.2-5.2-15.8-6.6
	c-0.8-7.5-1.7-15-2.5-22.5c-13.3-0.1-9-0.1-22.3-0.2c-1,7.5-2,15.1-2.9,22.6c-5.8,1.4-11.2,3.7-16.2,6.7l-18.8-15
	c-9.5,9.3-6.4,6.3-15.9,15.6c5,6.5,9.9,12.9,14.9,19.4c-2.8,4.7-4.9,9.8-6.3,15.3c-8,0.9-16,1.8-24,2.7c-0.1,13.3-0.1,9-0.2,22.3
	c8,1,16.1,2.1,24.1,3.1c1.4,5.7,3.7,11.1,6.6,16c-5,6.2-9.9,12.4-14.9,18.6c9.3,9.5,6.3,6.5,15.7,16c6.4-4.9,12.8-9.9,19.2-14.8
	c4.7,2.8,9.9,5,15.4,6.4c1.1,8.5,2.2,17.1,3.3,25.6c13.3-0.1,9-0.1,22.3-0.2c0.9-8.5,1.9-17,2.8-25.5c5.4-1.4,10.4-3.5,15.1-6.3
	c6.5,5,12.9,9.9,19.4,14.9c9.3-9.5,6.3-6.4,15.6-15.9l-15-18.8c3-4.9,5.2-10.3,6.6-16C192.1,139.4,200.2,138.4,208.2,137.3z
	 M106,128H90.1c0-20.9,17-37.9,37.9-37.9c0,5.3,0,10.6,0.1,15.9C115.8,106,106,115.8,106,128z"/>
</svg>
