<?xml version="1.0" encoding="UTF-8" standalone="no"?>
<svg
   xmlns:dc="http://purl.org/dc/elements/1.1/"
   xmlns:cc="http://creativecommons.org/ns#"
   xmlns:rdf="http://www.w3.org/1999/02/22-rdf-syntax-ns#"
   xmlns:svg="http://www.w3.org/2000/svg"
   xmlns="http://www.w3.org/2000/svg"
   xmlns:xlink="http://www.w3.org/1999/xlink"
   xmlns:sodipodi="http://sodipodi.sourceforge.net/DTD/sodipodi-0.dtd"
   xmlns:inkscape="http://www.inkscape.org/namespaces/inkscape"
   width="256"
   height="256"
   version="1.0"
   id="svg120"
   sodipodi:docname="gnome-builder.svg"
   inkscape:version="0.92.5 (2060ec1f9f, 2020-04-08)">
  <metadata
     id="metadata124">
    <rdf:RDF>
      <cc:Work
         rdf:about="">
        <dc:format>image/svg+xml</dc:format>
        <dc:type
           rdf:resource="http://purl.org/dc/dcmitype/StillImage" />
        <dc:title></dc:title>
      </cc:Work>
    </rdf:RDF>
  </metadata>
  <sodipodi:namedview
     pagecolor="#ffffff"
     bordercolor="#666666"
     borderopacity="1"
     objecttolerance="10"
     gridtolerance="10"
     guidetolerance="10"
     inkscape:pageopacity="0"
     inkscape:pageshadow="2"
     inkscape:window-width="1920"
     inkscape:window-height="1004"
     id="namedview122"
     showgrid="false"
     inkscape:zoom="1.84375"
     inkscape:cx="64"
     inkscape:cy="64"
     inkscape:window-x="0"
     inkscape:window-y="0"
     inkscape:window-maximized="1"
     inkscape:current-layer="svg120" />
  <defs
     id="defs60">
    <linearGradient
       id="e">
      <stop
         offset="0"
         stop-color="#68676b"
         id="stop2" />
      <stop
         offset=".733"
         stop-color="#949390"
         id="stop4" />
      <stop
         offset="1"
         stop-color="#8b8a87"
         id="stop6" />
    </linearGradient>
    <linearGradient
       id="a">
      <stop
         offset="0"
         stop-color="#949390"
         id="stop9" />
      <stop
         offset="1"
         stop-color="#767579"
         id="stop11" />
    </linearGradient>
    <linearGradient
       id="b">
      <stop
         offset="0"
         stop-color="#191622"
         id="stop14" />
      <stop
         offset="1"
         stop-color="#424048"
         id="stop16" />
    </linearGradient>
    <linearGradient
       id="g">
      <stop
         offset="0"
         stop-color="#191622"
         id="stop19" />
      <stop
         offset="1"
         stop-color="#424048"
         id="stop21" />
    </linearGradient>
    <linearGradient
       id="d">
      <stop
         offset="0"
         stop-color="#f6d32d"
         id="stop24" />
      <stop
         offset=".182"
         stop-color="#f9f06b"
         id="stop26" />
      <stop
         offset=".795"
         stop-color="#e5a50a"
         id="stop28" />
      <stop
         offset="1"
         stop-color="#f6d32d"
         id="stop30" />
    </linearGradient>
    <linearGradient
       id="c">
      <stop
         offset="0"
         stop-color="#555753"
         id="stop33" />
      <stop
         offset="1"
         stop-color="#2e3436"
         id="stop35" />
    </linearGradient>
    <linearGradient
       id="f">
      <stop
         offset="0"
         stop-color="#2e3436"
         id="stop38" />
      <stop
         offset="1"
         stop-color="#555753"
         id="stop40" />
    </linearGradient>
    <radialGradient
       xlink:href="#a"
       id="k"
       cx="128"
       cy="384.952"
       fx="128"
       fy="384.952"
       r="80"
       gradientUnits="userSpaceOnUse"
       gradientTransform="matrix(0.525,0,0,0.3675,60.8,242.53)" />
    <linearGradient
       xlink:href="#b"
       id="p"
       gradientUnits="userSpaceOnUse"
       gradientTransform="matrix(0.85714,0,0,0.85714,961.714,-317.176)"
       x1="165.737"
       y1="323.267"
       x2="134.77901"
       y2="207.729" />
    <radialGradient
       xlink:href="#c"
       id="w"
       cx="343.875"
       cy="308.125"
       fx="343.875"
       fy="308.125"
       r="8"
       gradientUnits="userSpaceOnUse"
       gradientTransform="translate(916,-220)" />
    <linearGradient
       xlink:href="#d"
       id="h"
       gradientUnits="userSpaceOnUse"
       gradientTransform="translate(804,-220.033)"
       x1="352"
       y1="256"
       x2="448"
       y2="256" />
    <linearGradient
       xlink:href="#d"
       id="i"
       gradientUnits="userSpaceOnUse"
       gradientTransform="translate(804,-220.033)"
       x1="216"
       y1="144"
       x2="360"
       y2="144" />
    <linearGradient
       xlink:href="#d"
       id="j"
       gradientUnits="userSpaceOnUse"
       gradientTransform="translate(804,-220.033)"
       x1="64"
       y1="280"
       x2="240"
       y2="280" />
    <linearGradient
       xlink:href="#d"
       id="l"
       gradientUnits="userSpaceOnUse"
       gradientTransform="translate(804,-220.033)"
       x1="352"
       y1="256"
       x2="448"
       y2="256" />
    <linearGradient
       xlink:href="#d"
       id="m"
       gradientUnits="userSpaceOnUse"
       gradientTransform="translate(804,-220.033)"
       x1="64"
       y1="280"
       x2="240"
       y2="280" />
    <linearGradient
       xlink:href="#e"
       id="n"
       gradientUnits="userSpaceOnUse"
       gradientTransform="translate(828,-220.033)"
       x1="317.66599"
       y1="211.334"
       x2="341.57101"
       y2="187.429" />
    <linearGradient
       xlink:href="#d"
       id="o"
       gradientUnits="userSpaceOnUse"
       gradientTransform="translate(804,-220.033)"
       x1="216"
       y1="144"
       x2="360"
       y2="144" />
    <linearGradient
       xlink:href="#b"
       id="q"
       gradientUnits="userSpaceOnUse"
       gradientTransform="translate(804,-220.033)"
       x1="165.737"
       y1="323.267"
       x2="134.77901"
       y2="207.729" />
    <linearGradient
       xlink:href="#f"
       id="r"
       gradientUnits="userSpaceOnUse"
       gradientTransform="translate(804,-220.033)"
       x1="144.90601"
       y1="245.52499"
       x2="159.09399"
       y2="298.47501" />
    <linearGradient
       xlink:href="#b"
       id="s"
       gradientUnits="userSpaceOnUse"
       gradientTransform="translate(804,-220.033)"
       x1="144.90601"
       y1="245.52499"
       x2="159.09399"
       y2="298.47501" />
    <linearGradient
       xlink:href="#b"
       id="t"
       gradientUnits="userSpaceOnUse"
       gradientTransform="matrix(0.75,0,0,0.75,978,-288.032)"
       x1="144.90601"
       y1="245.52499"
       x2="159.09399"
       y2="298.47501" />
    <linearGradient
       xlink:href="#b"
       id="u"
       gradientUnits="userSpaceOnUse"
       gradientTransform="matrix(0.57143,0,0,0.57143,1117.143,-127.462)"
       x1="165.737"
       y1="323.267"
       x2="134.77901"
       y2="207.729" />
    <linearGradient
       xlink:href="#g"
       id="v"
       gradientUnits="userSpaceOnUse"
       gradientTransform="matrix(0.5,0,0,0.5,1128,-108.033)"
       x1="144.90601"
       y1="245.52499"
       x2="159.09399"
       y2="298.47501" />
    <radialGradient
       xlink:href="#c"
       id="x"
       gradientUnits="userSpaceOnUse"
       gradientTransform="translate(-1492,-220)"
       cx="343.875"
       cy="308.125"
       fx="343.875"
       fy="308.125"
       r="8" />
  </defs>
  <path
     style="opacity:0.1"
     d="m 132.79987,0.5 c 6.2,0 18.1,0.3 33.3,2.3 23.7,3.1 45.1,11.5 60.8,26.300002 v 0 c 14.7,15.7 23.1,37.1 26.2,60.9 3,22.599998 2.3,37.999998 2.3,37.999998 0,0 0.7,15.4 -2.3,38 -3.1,23.7 -11.5,45.1 -26.3,60.9 v 0 c -15.7,14.8 -37.1,23.1 -60.8,26.3 -15.1,2 -27,2.3 -33.2,2.3 -3.1,0 -4.7,-0.1 -4.7,-0.1 0,0 -1.7,0.1 -4.7,0.1 -6.2,0 -18.1,-0.3 -33.200002,-2.3 -23.7,-3.1 -45.1,-11.5 -60.8,-26.3 v 0 c -15,-15.7 -23.4000002,-37.1 -26.5000002,-60.9 -3.00000003,-22.6 -2.30000003,-38 -2.30000003,-38 0,0 -0.7,-15.4 2.30000003,-37.999998 3.1,-23.8 11.5000002,-45.2 26.3000002,-60.9 v 0 C 44.799868,14.3 66.299868,5.9 89.899868,2.8 104.99987,0.8 116.89987,0.5 123.19987,0.5 c 3.1,0 4.7,0.1 4.7,0.1 0,0 1.8,-0.1 4.9,-0.1"
     id="path4"
     inkscape:connector-curvature="0" />
  <path
     style="opacity:0.9;fill:#fafafa"
     inkscape:connector-curvature="0"
     id="path10"
     d="m 251.69967,90.400212 c -3.1,-23.4 -11.4,-44.6 -26,-60.1 v 0 c -15.6,-14.600002 -36.7,-22.900002 -60.1,-26.000002 -22.4,-3 -37.6,-2.3 -37.6,-2.3 0,0 -15.2,-0.7 -37.600016,2.3 -23.4,3.1 -44.6,11.4 -60.099996,26.000002 -14.6,15.5 -22.8000002,36.7 -26.0000002,60.1 -3,22.299998 -2.2,37.599998 -2.2,37.599998 0,0 -0.7,15.2 2.2,37.6 3.1,23.4 11.4000002,44.6 26.0000002,60.1 v 0 c 15.599996,14.6 36.699996,22.9 60.099996,26 22.300016,3 37.600016,2.2 37.600016,2.2 0,0 15.2,0.7 37.6,-2.2 23.4,-3.1 44.6,-11.4 60.1,-26 v 0 c 14.6,-15.6 22.9,-36.7 26,-60.1 3,-22.3 2.2,-37.6 2.2,-37.6 0,0 0.8,-15.2 -2.2,-37.599998"
     class="st1" />
  <g
     transform="matrix(0.47169811,0,0,0.47169811,-371.66038,100.69456)"
     id="g118">
    <path
       style="fill:#4c4c64;marker:none"
       d="m 1260,76 c 13.255,0 24,10.745 24,24 v 48 l -24,24 h -24 v -72 c 0,-13.255 10.745,-24 24,-24 z m -112,0 c -13.255,0 -24,10.745 -24,24 v 48 l 24,24 h 24 v -72 c 0,-13.255 -10.745,-24 -24,-24 z"
       id="path62"
       inkscape:connector-curvature="0" />
    <rect
       style="fill:url(#h);marker:none"
       width="96"
       height="112"
       x="1156"
       y="-20.033001"
       rx="48"
       ry="48"
       id="rect64" />
    <rect
       style="fill:url(#i);marker:none"
       width="144"
       height="160"
       x="1020"
       y="-156.033"
       rx="72"
       ry="72"
       id="rect66" />
    <rect
       style="fill:url(#j);marker:none"
       width="176"
       height="192"
       x="868"
       y="-36.033001"
       rx="88"
       ry="88"
       id="rect68" />
    <path
       style="color:#000000;font-weight:400;line-height:normal;font-family:sans-serif;font-variant-ligatures:normal;font-variant-position:normal;font-variant-caps:normal;font-variant-numeric:normal;font-variant-alternates:normal;font-feature-settings:normal;text-indent:0;text-align:start;text-decoration:none;text-decoration-line:none;text-decoration-style:solid;text-decoration-color:#000000;text-transform:none;text-orientation:mixed;white-space:normal;shape-padding:0;overflow:visible;isolation:auto;mix-blend-mode:normal;solid-color:#000000;solid-opacity:1;fill:none;stroke:#f5ce17;stroke-width:32"
       d="m 1077.373,-106.66 -160,160 45.254,45.254 160,-160 z"
       font-weight="400"
       overflow="visible"
       id="path70"
       inkscape:connector-curvature="0" />
    <path
       style="fill:#424048;marker:none"
       d="m 860,203.967 h 192 v 32 H 860 Z"
       id="path72"
       inkscape:connector-curvature="0" />
    <path
       style="color:#000000;font-weight:400;line-height:normal;font-family:sans-serif;font-variant-ligatures:normal;font-variant-position:normal;font-variant-caps:normal;font-variant-numeric:normal;font-variant-alternates:normal;font-feature-settings:normal;text-indent:0;text-align:start;text-decoration:none;text-decoration-line:none;text-decoration-style:solid;text-decoration-color:#000000;text-transform:none;text-orientation:mixed;white-space:normal;shape-padding:0;overflow:visible;isolation:auto;mix-blend-mode:normal;solid-color:#000000;solid-opacity:1;fill:url(#k)"
       d="m 80,224 v 128 c 0,17.673 -14.327,32 -32,32 H 32 v 32 h 192 v -32 h -16 c -17.673,0 -32,-14.327 -32,-32 V 224 Z"
       font-weight="400"
       overflow="visible"
       transform="translate(828,-204.033)"
       id="path74"
       inkscape:connector-curvature="0" />
    <path
       style="fill:#68676b;marker:none"
       d="m 860,179.967 h 192 v 32 H 860 Z"
       id="path76"
       inkscape:connector-curvature="0" />
    <path
       d="m 1140,99.967 64,-64 64,64"
       id="path78"
       inkscape:connector-curvature="0"
       style="fill:none;stroke:#424048;stroke-width:24" />
    <circle
       r="48"
       cy="35.966999"
       cx="1204"
       style="fill:url(#l);marker:none"
       id="circle80" />
    <path
       style="fill:#7a8599;marker:none"
       d="m 1260,68 c 13.255,0 24,10.745 24,24 v 48 l -24,24 h -24 V 92 c 0,-13.255 10.745,-24 24,-24 z"
       id="path82"
       inkscape:connector-curvature="0" />
    <path
       style="color:#000000;font-weight:400;line-height:normal;font-family:sans-serif;font-variant-ligatures:normal;font-variant-position:normal;font-variant-caps:normal;font-variant-numeric:normal;font-variant-alternates:normal;font-feature-settings:normal;text-indent:0;text-align:start;text-decoration:none;text-decoration-line:none;text-decoration-style:solid;text-decoration-color:#000000;text-transform:none;text-orientation:mixed;white-space:normal;shape-padding:0;overflow:visible;isolation:auto;mix-blend-mode:normal;solid-color:#000000;solid-opacity:1;fill:none;stroke:#f9f06b;stroke-width:32"
       d="m 1077.373,-114.66 -160,160 45.254,45.254 160,-160 z"
       font-weight="400"
       overflow="visible"
       id="path84"
       inkscape:connector-curvature="0" />
    <circle
       style="fill:url(#m);marker:none"
       cx="956"
       cy="59.966999"
       r="88"
       id="circle86" />
    <circle
       style="fill:#f9f06b;marker:none"
       cx="956"
       cy="51.966999"
       r="88"
       id="circle88" />
    <path
       d="m 1221,43.967 -128,-128"
       id="path90"
       inkscape:connector-curvature="0"
       style="fill:none;stroke:url(#n);stroke-width:40" />
    <circle
       style="fill:url(#o);marker:none"
       cx="1092"
       cy="-76.032997"
       r="72"
       id="circle92" />
    <circle
       style="fill:#f9f06b;marker:none"
       cx="1092"
       cy="-84.032997"
       r="72"
       id="circle94" />
    <circle
       r="48"
       cy="27.966999"
       cx="1204"
       style="fill:#f9f06b;marker:none"
       id="circle96" />
    <circle
       style="fill:url(#p);marker:none"
       cx="1092"
       cy="-84.032997"
       id="ellipse98"
       r="48" />
    <circle
       style="fill:url(#q);marker:none"
       cx="956"
       cy="51.966999"
       r="56"
       id="circle100" />
    <circle
       style="fill:url(#r);marker:none"
       cx="956"
       cy="51.966999"
       r="32"
       id="circle102" />
    <circle
       style="fill:url(#s);marker:none"
       cx="956"
       cy="51.966999"
       r="32"
       id="circle104" />
    <circle
       style="fill:url(#t);marker:none"
       cx="1092"
       cy="-84.032997"
       r="24"
       id="circle106" />
    <circle
       style="fill:url(#u);marker:none"
       cx="1204"
       cy="27.966999"
       id="ellipse108"
       r="32" />
    <circle
       style="fill:url(#v);marker:none"
       cx="1204"
       cy="27.966999"
       r="16"
       id="circle110" />
    <circle
       r="8"
       style="fill:url(#w);marker:none"
       cx="1260"
       cy="92"
       id="circle112" />
    <path
       style="fill:#7a8599;marker:none"
       d="m 1148,68 c -13.255,0 -24,10.745 -24,24 v 48 l 24,24 h 24 V 92 c 0,-13.255 -10.745,-24 -24,-24 z"
       id="path114"
       inkscape:connector-curvature="0" />
    <circle
       r="8"
       style="fill:url(#x);marker:none"
       cx="-1148"
       cy="92"
       transform="scale(-1,1)"
       id="circle116" />
  </g>
</svg>
