<?xml version="1.0" encoding="UTF-8" standalone="no"?>
<!-- Generator: Adobe Illustrator 23.0.0, SVG Export Plug-In . SVG Version: 6.00 Build 0)  -->

<svg
   xmlns:dc="http://purl.org/dc/elements/1.1/"
   xmlns:cc="http://creativecommons.org/ns#"
   xmlns:rdf="http://www.w3.org/1999/02/22-rdf-syntax-ns#"
   xmlns:svg="http://www.w3.org/2000/svg"
   xmlns="http://www.w3.org/2000/svg"
   xmlns:sodipodi="http://sodipodi.sourceforge.net/DTD/sodipodi-0.dtd"
   xmlns:inkscape="http://www.inkscape.org/namespaces/inkscape"
   version="1.1"
   id="레이어_1"
   x="0px"
   y="0px"
   viewBox="0 0 256 256"
   style="enable-background:new 0 0 256 256;"
   xml:space="preserve"
   sodipodi:docname="rhythmbox.svg"
   inkscape:version="0.92.5 (2060ec1f9f, 2020-04-08)"><metadata
   id="metadata31"><rdf:RDF><cc:Work
       rdf:about=""><dc:format>image/svg+xml</dc:format><dc:type
         rdf:resource="http://purl.org/dc/dcmitype/StillImage" /></cc:Work></rdf:RDF></metadata><defs
   id="defs29">
		
		
		
		
	
	
	
</defs><sodipodi:namedview
   pagecolor="#ffffff"
   bordercolor="#666666"
   borderopacity="1"
   objecttolerance="10"
   gridtolerance="10"
   guidetolerance="10"
   inkscape:pageopacity="0"
   inkscape:pageshadow="2"
   inkscape:window-width="1920"
   inkscape:window-height="1004"
   id="namedview27"
   showgrid="false"
   inkscape:zoom="1.84375"
   inkscape:cx="118.8166"
   inkscape:cy="165.99482"
   inkscape:window-x="0"
   inkscape:window-y="0"
   inkscape:window-maximized="1"
   inkscape:current-layer="레이어_1" />
<style
   type="text/css"
   id="style2">
	.st0{opacity:0.1;}
	.st1{fill:#549FFF;}
	.st2{fill:#FFFFFF;}
	.st3{fill:#AB8DFF;}
</style>
<g
   class="st0"
   id="g8">
	<g
   id="g6">
		<path
   d="M132.7,0.5c6.2,0,18.1,0.3,33.3,2.3c23.7,3.1,45.1,11.5,60.9,26.3h0C241.6,44.8,250,66.3,253.2,90c3,22.6,2.3,38,2.3,38    s0.7,15.4-2.3,38c-3.1,23.7-11.5,45.1-26.3,60.9l0,0c-15.7,14.8-37.2,23.2-60.9,26.3c-15.1,2-27.1,2.3-33.3,2.3    c-3.1,0-4.7-0.1-4.7-0.1s-1.7,0.1-4.7,0.1c-6.2,0-18.1-0.3-33.3-2.3c-23.7-3.1-45.1-11.5-60.9-26.3l0,0    C14.4,211.2,6,189.7,2.8,166c-3-22.6-2.3-38-2.3-38s-0.7-15.4,2.3-38C6,66.3,14.4,44.8,29.1,29.1h0C44.9,14.3,66.3,5.9,90,2.8    c15.2-2,27.1-2.3,33.3-2.3c3.1,0,4.7,0.1,4.7,0.1S129.7,0.5,132.7,0.5"
   id="path4" />
	</g>
</g>
<path
   class="st1"
   d="M251.7,90.4c-3.1-23.4-11.4-44.6-26-60.2h0c-15.5-14.6-36.7-22.9-60.1-26C143.2,1.3,128,2,128,2  s-15.2-0.7-37.6,2.2C67,7.4,45.8,15.7,30.3,30.3C15.7,45.8,7.4,67,4.3,90.4c-3,22.4-2.2,37.6-2.2,37.6s-0.7,15.2,2.2,37.6  c3.1,23.4,11.4,44.6,26,60.1v0c15.5,14.6,36.7,22.9,60.1,26c22.3,3,37.6,2.2,37.6,2.2s15.2,0.7,37.6-2.2c23.4-3.1,44.6-11.4,60.1-26  l0,0c14.6-15.5,22.9-36.7,26-60.1c3-22.4,2.2-37.6,2.2-37.6S254.6,112.8,251.7,90.4"
   id="path10" />
<path
   style="fill:#ffffff"
   d="m 122.30078,61 v 69.70312 A 33.599998,33.599998 0 0 0 108.69922,127.80078 33.599998,33.599998 0 0 0 75.099609,161.40039 33.599998,33.599998 0 0 0 108.69922,195 a 33.599998,33.599998 0 0 0 33.60156,-33.59961 33.599998,33.599998 0 0 0 -0.0781,-2.20117 h 0.0781 V 81.146484 c 5.34936,0.460367 16.47727,2.455126 26,11.552735 7.8,7.400001 10.69922,15.900391 11.69922,19.900391 0,7.8 0.1,15.60039 0,23.40039 h 20 v -15 c -0.1,-4.2 -0.20078,-8.49922 -0.30078,-12.69922 -1.6,-5.9 -5.79883,-18.601171 -17.29883,-29.701171 C 167.42073,64.244105 149.73124,61.667108 142.30078,61.132812 V 61 Z"
   id="path12"
   inkscape:connector-curvature="0" /><circle
   style="fill:#ab8dff"
   id="circle22"
   r="15.6"
   cy="161.39999"
   cx="108.7"
   class="st3" />
</svg>