<?xml version="1.0" encoding="UTF-8" standalone="no"?>
<svg
   xmlns:dc="http://purl.org/dc/elements/1.1/"
   xmlns:cc="http://creativecommons.org/ns#"
   xmlns:rdf="http://www.w3.org/1999/02/22-rdf-syntax-ns#"
   xmlns:svg="http://www.w3.org/2000/svg"
   xmlns="http://www.w3.org/2000/svg"
   xmlns:sodipodi="http://sodipodi.sourceforge.net/DTD/sodipodi-0.dtd"
   xmlns:inkscape="http://www.inkscape.org/namespaces/inkscape"
   version="1.1"
   id="레이어_1"
   x="0px"
   y="0px"
   viewBox="0 0 256 256"
   style="enable-background:new 0 0 256 256;"
   xml:space="preserve"
   sodipodi:docname="gnome-nibbles.svg"
   inkscape:version="1.0.2 (e86c870879, 2021-01-15)"><metadata
   id="metadata21"><rdf:RDF><cc:Work
       rdf:about=""><dc:format>image/svg+xml</dc:format><dc:type
         rdf:resource="http://purl.org/dc/dcmitype/StillImage" /><dc:title></dc:title></cc:Work></rdf:RDF></metadata><defs
   id="defs19">
		
		
	
			
		
				
			
	
	
</defs><sodipodi:namedview
   pagecolor="#ffffff"
   bordercolor="#666666"
   borderopacity="1"
   objecttolerance="10"
   gridtolerance="10"
   guidetolerance="10"
   inkscape:pageopacity="0"
   inkscape:pageshadow="2"
   inkscape:window-width="1852"
   inkscape:window-height="1048"
   id="namedview17"
   showgrid="false"
   inkscape:zoom="0.921875"
   inkscape:cx="55.62863"
   inkscape:cy="279.90475"
   inkscape:window-x="68"
   inkscape:window-y="32"
   inkscape:window-maximized="1"
   inkscape:current-layer="레이어_1"
   inkscape:document-rotation="0" />
<style
   type="text/css"
   id="style2">
	.st0{opacity:0.1;}
	.st1{fill:#FAFAFA;}
</style>
<path
   style="opacity:0.1"
   d="m 132.8,0.5 c 6.2,0 18.1,0.3 33.3,2.3 23.7,3.1 45.1,11.5 60.8,26.3 v 0 c 14.7,15.7 23.1,37.1 26.2,60.9 3,22.6 2.3,38 2.3,38 0,0 0.7,15.4 -2.3,38 -3.1,23.7 -11.5,45.1 -26.3,60.9 v 0 c -15.7,14.8 -37.1,23.1 -60.8,26.3 -15.1,2 -27,2.3 -33.2,2.3 -3.1,0 -4.7,-0.1 -4.7,-0.1 0,0 -1.7,0.1 -4.7,0.1 -6.2,0 -18.1,-0.3 -33.2,-2.3 -23.7,-3.1 -45.1,-11.5 -60.8,-26.3 v 0 C 14.4,211.2 6,189.8 2.9,166 -0.1,143.4 0.6,128 0.6,128 0.6,128 -0.1,112.6 2.9,90 6,66.2 14.4,44.8 29.2,29.1 v 0 C 44.8,14.3 66.3,5.9 89.9,2.8 c 15.1,-2 27,-2.3 33.3,-2.3 3.1,0 4.7,0.1 4.7,0.1 0,0 1.8,-0.1 4.9,-0.1"
   id="path4"
   inkscape:connector-curvature="0" />

<path
   style="opacity:1;fill:#f4983b;fill-opacity:1"
   inkscape:connector-curvature="0"
   id="path10"
   d="m 251.6998,90.400211 c -3.1,-23.4 -11.4,-44.6 -26,-60.1 v 0 c -15.6,-14.6 -36.7,-22.9000004 -60.1,-26.0000004 -22.4,-3 -37.6,-2.3 -37.6,-2.3 0,0 -15.2,-0.7 -37.600014,2.3 -23.4,3.1 -44.6,11.4000004 -60.1,26.0000004 -14.6,15.5 -22.7999996,36.7 -25.9999996,60.1 -3,22.299999 -2.2,37.599999 -2.2,37.599999 0,0 -0.7,15.2 2.2,37.6 3.1,23.4 11.3999996,44.6 25.9999996,60.1 v 0 c 15.6,14.6 36.7,22.9 60.1,26 22.300014,3 37.600014,2.2 37.600014,2.2 0,0 15.2,0.7 37.6,-2.2 23.4,-3.1 44.6,-11.4 60.1,-26 v 0 c 14.6,-15.6 22.9,-36.7 26,-60.1 3,-22.3 2.2,-37.6 2.2,-37.6 0,0 0.8,-15.2 -2.2,-37.599999"
   class="st1" /><path
   d="m 92.821624,40.917948 a 41.516017,41.516017 0 0 0 -11.36444,1.364595 c -10.000299,2.597418 -19.567649,8.653338 -26.3861,16.878887 -6.796699,8.182022 -10.860533,18.592363 -9.51873,29.674524 1.406975,18.918226 10.280971,50.040496 21.341887,76.665976 5.541251,13.33339 11.623343,25.49965 17.68408,34.41757 3.030372,4.48058 6.040752,8.14022 9.071405,10.73792 2.965477,2.55412 6.010968,4.13783 9.149914,4.11618 a 18.52824,18.52824 0 0 0 14.418,-4.1833 c 4.17757,-3.26843 7.75194,-7.95809 11.10736,-13.1318 6.49374,-10.04325 12.33629,-22.7913 18.98179,-30.34566 0.64937,0.75761 1.53434,3.15172 2.59495,5.07813 2.078,3.87456 4.76916,9.5095 8.23242,15.24558 3.46332,5.75785 7.71872,11.24818 13.08714,15.79365 5.34642,4.50229 11.86845,7.36079 19.57457,7.38256 4.63212,0.34644 9.3085,0.0288 13.05329,-1.85677 3.78798,-1.90476 6.66097,-4.95591 6.8345,-9.65268 v -0.046 a 9.2208815,9.2208815 0 0 0 -4.63074,-8.03083 c -2.61907,-1.6451 -5.81735,-2.74328 -9.19454,-4.49656 -6.73197,-3.50656 -14.37052,-9.2014 -18.95888,-25.75959 -3.63644,-13.13867 -8.4466,-22.9729 -13.51207,-29.59664 -5.065,-6.60198 -9.15386,-12.4806 -15.62585,-11.74469 -11.27739,1.27708 -16.57765,17.44527 -21.94543,26.01729 -3.29015,5.28148 -6.38723,10.53118 -9.07147,14.70898 -2.16452,3.39831 -3.78986,5.28944 -5.06695,6.58824 -4.15593,-4.459 -6.62947,-9.26159 -6.19652,-14.93233 0.51938,-6.36374 4.16154,-13.63691 7.51656,-21.36423 6.71022,-15.43342 15.25418,-32.800235 13.50062,-49.964897 -1.27704,-12.554554 -7.84815,-26.617485 -17.06903,-33.847131 A 30.368606,30.368606 0 0 0 96.570825,41.221311 32.987518,32.987518 0 0 0 92.823684,40.919506 Z M 91.915632,62.192256 C 98.43114,64.746381 103.5218,70.334191 105.72951,74.64136 A 50.49866,50.49866 0 0 0 91.87096,68.791321 33.117519,33.117519 0 0 0 80.383399,75.435674 21.645391,21.645391 0 0 1 91.915632,62.192256 Z M 66.68177,72.124981 c 5.279137,0.07905 10.374264,1.52798 13.702205,3.232527 -5.77961,0.172936 -11.168636,1.072577 -14.999334,2.371259 -2.402653,2.922186 -4.443303,6.502903 -5.525562,10.961901 -1.991346,-5.800793 -1.519621,-11.303222 1.532388,-16.151584 1.742516,-0.318948 3.531011,-0.440394 5.290706,-0.414045 z m 24.216198,3.098343 c 5.64943,-0.541187 10.537482,6.691896 10.905712,16.12924 0.17294,4.047748 -0.53549,7.13802 -1.834365,10.189856 a 56.170009,56.170009 0 0 0 -15.279373,2.44961 c -0.302955,-0.47589 -0.657445,-0.91223 -0.917217,-1.43171 -0.04602,0.60607 -0.148888,1.21643 -0.25716,1.8008 -5.000063,1.6667 -9.344,4.60732 -12.807034,7.24798 -2.424353,-2.64078 -4.314044,-6.88947 -4.876822,-11.867884 -0.995665,-8.614976 2.212291,-17.421224 7.147179,-17.91889 3.22514,-0.3247 6.356299,3.813117 8.456337,8.120746 0.627724,-7.922019 4.52766,-14.243961 9.462547,-14.719863 z m 14.831542,29.999236 c -0.15177,13.59339 -13.6415,29.87382 -21.84528,29.8091 -11.536817,-0.10827 -15.475235,-7.94378 -17.985895,-13.35514 13.030441,-3.09526 29.592635,-10.43612 39.831175,-16.45339 z"
   fill-rule="evenodd"
   stroke-width="21.6454"
   id="path6"
   style="fill:#ffffff;fill-opacity:1" /><path
   d="m 79.29827,97.38461 a 3.6255895,4.9933566 0 0 1 -7.251177,0 3.6255895,4.9933566 0 1 1 7.251177,0 z m 15.562911,-3.722978 a 3.6255895,4.9933566 0 0 1 -7.251176,0 3.6255895,4.9933566 0 1 1 7.251176,0 z"
   id="path8"
   style="fill:#ffffff;fill-opacity:1;stroke-width:21.6452" /><path
   d="m 104.47166,112.53628 c -2.38094,3.1386 -7.424301,5.51955 -15.801039,9.19922 9.545586,-2.01299 9.372409,-0.0647 9.675478,2.85719 a 40.476616,40.476616 0 0 0 6.125561,-12.05641 z m -20.130087,10.86591 c -8.874513,2.59747 -12.770663,3.20349 -16.493642,2.09964 a 17.662524,17.662524 0 0 0 8.39833,8.00873 c -1.450217,-2.92214 -1.450217,-5.58449 8.073669,-10.10837 z"
   opacity="0.5"
   id="path10-3"
   style="fill:#ffffff;fill-opacity:1;stroke-width:21.6452" /></svg>
