<?xml version="1.0" encoding="UTF-8" standalone="no"?>
<!-- Generator: Adobe Illustrator 23.0.0, SVG Export Plug-In . SVG Version: 6.00 Build 0)  -->

<svg
   xmlns:dc="http://purl.org/dc/elements/1.1/"
   xmlns:cc="http://creativecommons.org/ns#"
   xmlns:rdf="http://www.w3.org/1999/02/22-rdf-syntax-ns#"
   xmlns:svg="http://www.w3.org/2000/svg"
   xmlns="http://www.w3.org/2000/svg"
   xmlns:xlink="http://www.w3.org/1999/xlink"
   xmlns:sodipodi="http://sodipodi.sourceforge.net/DTD/sodipodi-0.dtd"
   xmlns:inkscape="http://www.inkscape.org/namespaces/inkscape"
   version="1.1"
   id="레이어_1"
   x="0px"
   y="0px"
   viewBox="0 0 256 256"
   style="enable-background:new 0 0 256 256;"
   xml:space="preserve"
   sodipodi:docname="goa-account-fedora.svg"
   inkscape:version="0.92.5 (2060ec1f9f, 2020-04-08)"><metadata
   id="metadata27"><rdf:RDF><cc:Work
       rdf:about=""><dc:format>image/svg+xml</dc:format><dc:type
         rdf:resource="http://purl.org/dc/dcmitype/StillImage" /><dc:title></dc:title></cc:Work></rdf:RDF></metadata><defs
   id="defs25">
	
	

		
		
		
	</defs><sodipodi:namedview
   pagecolor="#ffffff"
   bordercolor="#666666"
   borderopacity="1"
   objecttolerance="10"
   gridtolerance="10"
   guidetolerance="10"
   inkscape:pageopacity="0"
   inkscape:pageshadow="2"
   inkscape:window-width="1920"
   inkscape:window-height="1004"
   id="namedview23"
   showgrid="false"
   inkscape:zoom="0.921875"
   inkscape:cx="128"
   inkscape:cy="128"
   inkscape:window-x="0"
   inkscape:window-y="0"
   inkscape:window-maximized="1"
   inkscape:current-layer="레이어_1" />
<style
   type="text/css"
   id="style2">
	.st0{fill:#E6E6E6;}
	.st1{fill:#FAFAFA;}
	.st2{fill:#F1511B;}
	.st3{fill:#00ADEF;}
	.st4{fill:#80CC28;}
	.st5{fill:#FBBC09;}
</style>
<path
   class="st0"
   d="M 251.7,90.4 C 248.6,67 240.3,45.8 225.7,30.3 v 0 C 210.1,15.7 189,7.4 165.6,4.3 143.2,1.3 128,2 128,2 128,2 112.8,1.3 90.4,4.3 67,7.4 45.8,15.7 30.3,30.3 15.7,45.8 7.5,67 4.3,90.4 1.3,112.7 2.1,128 2.1,128 c 0,0 -0.7,15.2 2.2,37.6 3.1,23.4 11.4,44.6 26,60.1 v 0 c 15.6,14.6 36.7,22.9 60.1,26 22.3,3 37.6,2.2 37.6,2.2 0,0 15.2,0.7 37.6,-2.2 23.4,-3.1 44.6,-11.4 60.1,-26 v 0 c 14.6,-15.6 22.9,-36.7 26,-60.1 3,-22.3 2.2,-37.6 2.2,-37.6 0,0 0.8,-15.2 -2.2,-37.6"
   id="path4"
   inkscape:connector-curvature="0"
   style="fill:#e6e6e6" /><path
   class="st1"
   d="m 249.8,91 c -3,-23 -11.2,-43.9 -25.6,-59.2 v 0 C 208.8,17.5 188,9.3 165,6.3 142.9,3.3 128,4 128,4 128,4 113.1,3.3 91,6.2 68,9.2 47.1,17.4 31.8,31.8 17.5,47.1 9.4,68 6.2,91 c -2.9,22 -2.1,37 -2.1,37 0,0 -0.7,15 2.1,37 3,23 11.2,43.9 25.6,59.2 v 0 c 15.4,14.4 36.2,22.6 59.2,25.6 22,2.9 37,2.1 37,2.1 0,0 14.9,0.7 37,-2.1 23,-3 43.9,-11.2 59.2,-25.6 v 0 c 14.4,-15.3 22.6,-36.1 25.6,-59.2 2.9,-22 2.1,-37 2.1,-37 0,0 0.8,-15 -2.1,-37"
   id="path6"
   inkscape:connector-curvature="0"
   style="fill:#0b57a4;fill-opacity:1" />

<path
   inkscape:connector-curvature="0"
   id="path4-3"
   style="color:#000000;font-variant-ligatures:normal;font-variant-position:normal;font-variant-caps:normal;font-variant-numeric:normal;font-variant-alternates:normal;font-feature-settings:normal;text-indent:0;text-decoration:none;text-decoration-line:none;text-decoration-style:solid;text-decoration-color:#000000;text-transform:none;text-orientation:mixed;dominant-baseline:auto;white-space:normal;shape-padding:0;opacity:1;isolation:auto;mix-blend-mode:normal;solid-color:#000000;fill:#072c61;fill-opacity:1;stroke-width:7.93873882;color-rendering:auto;image-rendering:auto;shape-rendering:auto"
   stop-color="#000000"
   dominant-baseline="auto"
   d="m 87.089279,117.06815 c -28.53989,0 -51.93718,23.31808 -51.93718,51.76134 0,28.44326 23.39729,51.76133 51.93718,51.76133 28.540711,0 51.937181,-23.31807 51.937181,-51.76133 v -51.76134 z m 0,23.77545 h 28.080581 v 27.98547 c 0,15.57936 -12.44828,27.98548 -28.080581,27.98548 -15.6323,0 -28.0814,-12.4053 -28.0814,-27.98548 0,-15.57935 12.4491,-27.98547 28.0814,-27.98547 z" /><path
   inkscape:connector-curvature="0"
   id="path6-6"
   style="color:#000000;font-variant-ligatures:normal;font-variant-position:normal;font-variant-caps:normal;font-variant-numeric:normal;font-variant-alternates:normal;font-feature-settings:normal;text-indent:0;text-decoration:none;text-decoration-line:none;text-decoration-style:solid;text-decoration-color:#000000;text-transform:none;text-orientation:mixed;dominant-baseline:auto;white-space:normal;shape-padding:0;opacity:1;isolation:auto;mix-blend-mode:normal;solid-color:#000000;fill:#072c61;fill-opacity:1;stroke-width:7.93873882;color-rendering:auto;image-rendering:auto;shape-rendering:auto"
   stop-color="#000000"
   dominant-baseline="auto"
   d="m 166.92066,37.404346 c -28.54071,0 -51.9537,23.31808 -51.9537,51.76133 v 51.761344 h 51.9537 c 28.53989,0 51.93718,-23.31808 51.93718,-51.761344 0,-28.44325 -23.39729,-51.76133 -51.93718,-51.76133 z m 0,23.77545 c 15.63231,0 28.08054,12.4053 28.08054,27.98547 0,15.579364 -12.44906,27.985484 -28.08054,27.985484 H 138.82443 V 89.165266 c 0,-15.57935 12.46311,-27.98547 28.09623,-27.98547 z" /><path
   style="fill:#ffffff;stroke-width:0.8348313;shape-rendering:auto"
   inkscape:connector-curvature="0"
   d="m 139.33159,116.81748 v 51.95859 c 0,28.75721 -23.39522,52.07364 -52.250581,52.07364 -4.37769,0 -7.49039,-0.49176 -11.54316,-1.5477 -5.90915,-1.54183 -10.73793,-6.3699 -10.73917,-11.98614 0,-6.78906 4.94382,-11.72685 12.33529,-11.72685 3.51736,0 4.79416,0.67262 9.94704,0.67262 15.212541,0 27.552381,-12.28079 27.580441,-27.44181 v -23.88476 a 3.8919912,3.8788128 0 0 0 -3.89703,-3.87384 l -18.118241,-0.003 c -6.75025,0 -12.20501,-5.3664 -12.20501,-12.1119 -0.003,-6.7874 5.51125,-12.13202 12.33447,-12.13202"
   id="b" /><use
   y="0"
   x="0"
   style="fill:#ffffff"
   id="use9"
   xlink:href="#b"
   height="1"
   width="1"
   transform="rotate(180,126.99876,128.99758)" /></svg>