<?xml version="1.0" encoding="UTF-8" standalone="no"?>
<!-- Generator: Adobe Illustrator 23.0.0, SVG Export Plug-In . SVG Version: 6.00 Build 0)  -->

<svg
   xmlns:dc="http://purl.org/dc/elements/1.1/"
   xmlns:cc="http://creativecommons.org/ns#"
   xmlns:rdf="http://www.w3.org/1999/02/22-rdf-syntax-ns#"
   xmlns:svg="http://www.w3.org/2000/svg"
   xmlns="http://www.w3.org/2000/svg"
   xmlns:sodipodi="http://sodipodi.sourceforge.net/DTD/sodipodi-0.dtd"
   xmlns:inkscape="http://www.inkscape.org/namespaces/inkscape"
   version="1.1"
   id="레이어_1"
   x="0px"
   y="0px"
   viewBox="0 0 256 256"
   style="enable-background:new 0 0 256 256;"
   xml:space="preserve"
   sodipodi:docname="google.svg"
   inkscape:version="0.92.5 (2060ec1f9f, 2020-04-08)"><metadata
   id="metadata57"><rdf:RDF><cc:Work
       rdf:about=""><dc:format>image/svg+xml</dc:format><dc:type
         rdf:resource="http://purl.org/dc/dcmitype/StillImage" /></cc:Work></rdf:RDF></metadata><defs
   id="defs55" /><sodipodi:namedview
   pagecolor="#ffffff"
   bordercolor="#666666"
   borderopacity="1"
   objecttolerance="10"
   gridtolerance="10"
   guidetolerance="10"
   inkscape:pageopacity="0"
   inkscape:pageshadow="2"
   inkscape:window-width="1920"
   inkscape:window-height="1001"
   id="namedview53"
   showgrid="false"
   inkscape:zoom="2.6074563"
   inkscape:cx="159.15555"
   inkscape:cy="153.61732"
   inkscape:window-x="0"
   inkscape:window-y="0"
   inkscape:window-maximized="1"
   inkscape:current-layer="레이어_1" />
<style
   type="text/css"
   id="style2">
	.st0{opacity:0.1;}
	.st1{fill:#FFFFFF;}
	.st2{clip-path:url(#SVGID_2_);fill:#FBBC05;}
	.st3{clip-path:url(#SVGID_4_);fill:#EA4335;}
	.st4{clip-path:url(#SVGID_6_);fill:#34A853;}
	.st5{clip-path:url(#SVGID_8_);fill:#4285F4;}
</style>
<g
   class="st0"
   id="g8">
	<g
   id="g6">
		<path
   d="M132.8,0.5c6.2,0,18.1,0.3,33.3,2.3c23.7,3.1,45.1,11.5,60.8,26.3l0,0C241.6,44.8,250,66.2,253.1,90c3,22.6,2.3,38,2.3,38    s0.7,15.4-2.3,38c-3.1,23.7-11.5,45.1-26.3,60.9l0,0c-15.7,14.8-37.1,23.1-60.8,26.3c-15.1,2-27,2.3-33.2,2.3    c-3.1,0-4.7-0.1-4.7-0.1s-1.7,0.1-4.7,0.1c-6.2,0-18.1-0.3-33.2-2.3c-23.7-3.1-45.1-11.5-60.8-26.3l0,0    C14.4,211.2,6,189.8,2.9,166c-3-22.6-2.3-38-2.3-38s-0.7-15.4,2.3-38C6,66.2,14.4,44.8,29.2,29.1l0,0C44.8,14.3,66.3,5.9,89.9,2.8    c15.1-2,27-2.3,33.3-2.3c3.1,0,4.7,0.1,4.7,0.1S129.7,0.5,132.8,0.5"
   id="path4" />
	</g>
</g>
<path
   class="st1"
   d="M251.7,90.4c-3.1-23.4-11.4-44.6-26-60.1l0,0c-15.6-14.6-36.7-22.9-60.1-26C143.2,1.3,128,2,128,2  s-15.2-0.7-37.6,2.3C67,7.4,45.8,15.7,30.3,30.3C15.7,45.8,7.5,67,4.3,90.4c-3,22.3-2.2,37.6-2.2,37.6s-0.7,15.2,2.2,37.6  c3.1,23.4,11.4,44.6,26,60.1l0,0c15.6,14.6,36.7,22.9,60.1,26c22.3,3,37.6,2.2,37.6,2.2s15.2,0.7,37.6-2.2  c23.4-3.1,44.6-11.4,60.1-26l0,0c14.6-15.6,22.9-36.7,26-60.1c3-22.3,2.2-37.6,2.2-37.6S254.7,112.8,251.7,90.4"
   id="path10" />




<path
   d="m 207.98242,129.40267 c 0,-5.39505 -0.47805,-10.51692 -1.29755,-15.50221 H 129.51529 V 144.7 H 173.7 c -1.98046,10.10717 -7.78525,18.64362 -16.39,24.44842 v 20.4875 h 26.36058 c 15.43392,-14.27296 24.31184,-35.3068 24.31184,-60.23325 z"
   id="path2"
   inkscape:connector-curvature="0"
   style="fill:#4285f4;stroke-width:6.82916689" /><path
   d="m 129.51529,209.50879 c 22.1265,0 40.63354,-7.3755 54.15529,-19.87287 L 157.31,169.14842 c -7.3755,4.917 -16.73146,7.92183 -27.79471,7.92183 -21.37529,0 -39.472586,-14.40954 -45.960294,-33.87267 H 56.374913 v 21.10213 c 13.453458,26.77033 41.111583,45.20908 73.140377,45.20908 z"
   id="path4-3"
   inkscape:connector-curvature="0"
   style="fill:#34a853;stroke-width:6.82916689" /><path
   d="m 83.554996,143.19758 c -1.707292,-4.917 -2.595084,-10.17546 -2.595084,-15.63879 0,-5.46333 0.956084,-10.72179 2.595084,-15.63879 V 90.81787 H 56.374913 c -5.599917,11.06325 -8.809625,23.49234 -8.809625,36.74092 0,13.24858 3.209708,25.67767 8.809625,36.74092 z"
   id="path6"
   inkscape:connector-curvature="0"
   style="fill:#fbbc05;stroke-width:6.82916689" /><path
   d="m 129.51529,78.04733 c 12.08763,0 22.87771,4.16579 31.41417,12.2925 L 184.28521,66.98408 C 170.14883,53.7355 151.64179,45.60879 129.51529,45.60879 c -32.028794,0 -59.686919,18.43875 -73.140377,45.20908 L 83.554996,111.92 C 90.042704,92.45687 108.14,78.04733 129.51529,78.04733 Z"
   id="path8"
   inkscape:connector-curvature="0"
   style="fill:#ea4335;stroke-width:6.82916689" /></svg>