<?xml version="1.0" encoding="utf-8"?>
<!-- Generator: Adobe Illustrator 23.0.0, SVG Export Plug-In . SVG Version: 6.00 Build 0)  -->
<svg version="1.1" id="레이어_1" xmlns="http://www.w3.org/2000/svg" xmlns:xlink="http://www.w3.org/1999/xlink" x="0px"
	 y="0px" viewBox="0 0 256 256" style="enable-background:new 0 0 256 256;" xml:space="preserve">
<style type="text/css">
	.st0{opacity:0.1;}
	.st1{fill:#6182D2;}
	.st2{fill:#3A3C92;}
	.st3{fill:#FFFFFF;}
	.st4{fill:#7785DD;}
</style>
<g class="st0">
	<g>
		<path d="M132.8,0.5c6.2,0,18.1,0.3,33.3,2.3c23.7,3.1,45.1,11.5,60.8,26.3l0,0C241.6,44.8,250,66.2,253.1,90c3,22.6,2.3,38,2.3,38
			s0.7,15.4-2.3,38c-3.1,23.7-11.5,45.1-26.3,60.9l0,0c-15.7,14.8-37.1,23.1-60.8,26.3c-15.1,2-27,2.3-33.2,2.3
			c-3.1,0-4.7-0.1-4.7-0.1s-1.7,0.1-4.7,0.1c-6.2,0-18.1-0.3-33.2-2.3c-23.7-3.1-45.1-11.5-60.8-26.3l0,0
			C14.4,211.2,6,189.8,2.9,166c-3-22.6-2.3-38-2.3-38s-0.7-15.4,2.3-38C6,66.2,14.4,44.8,29.2,29.1l0,0C44.8,14.3,66.3,5.9,89.9,2.8
			c15.1-2,27-2.3,33.3-2.3c3.1,0,4.7,0.1,4.7,0.1S129.7,0.5,132.8,0.5"/>
	</g>
</g>
<path class="st1" d="M251.7,90.4c-3.1-23.4-11.4-44.6-26-60.1l0,0c-15.6-14.6-36.7-22.9-60.1-26C143.2,1.3,128,2,128,2
	s-15.2-0.7-37.6,2.3C67,7.4,45.8,15.7,30.3,30.3C15.7,45.8,7.5,67,4.3,90.4c-3,22.3-2.2,37.6-2.2,37.6s-0.7,15.2,2.2,37.6
	c3.1,23.4,11.4,44.6,26,60.1l0,0c15.6,14.6,36.7,22.9,60.1,26c22.3,3,37.6,2.2,37.6,2.2s15.2,0.7,37.6-2.2
	c23.4-3.1,44.6-11.4,60.1-26l0,0c14.6-15.6,22.9-36.7,26-60.1c3-22.3,2.2-37.6,2.2-37.6S254.7,112.8,251.7,90.4"/>
<g>
	<path class="st2" d="M209.7,189.8c-1.8-1.5-3.6-3-5.3-4.5c-0.3-0.4-1.5-2-1.4-4.3c0.1-2,1-3.3,1.4-3.8c0.9-0.4,2.9-2.7,5.9-5.5
		c2.1-1.9,2.5-5,1.1-7.4l-5.7-9.9c-1.5-2.7-4.9-3.7-7.7-2.5c-2,0.7-3.9,1.4-5.9,2.1c-0.7,0.1-2.5,0.4-4.5-0.5
		c-2.9-1.3-3.9-3.9-4.1-4.5c0.1-1.1-0.8-3.3-1.1-6.3c-0.3-3.1-2.9-5.4-6-5.4h-11.5c-2.8,0-5.2,1.9-5.9,4.7c-0.5,2.3-1,4.5-1.6,6.8
		c-0.2,0.8-0.7,2.1-1.9,3.2c-2.6,2.5-6.3,1.8-6.7,1.7c-0.9-0.6-3.2-0.9-5.9-2.1c-2.8-1.3-6.1-0.2-7.7,2.5l-5.7,9.9
		c-1.4,2.4-0.9,5.5,1.1,7.4c1.8,1.7,3.7,3.4,5.5,5.1c0.4,0.4,1.8,1.9,1.9,4.3c0.2,2.9-1.6,4.7-1.9,5.1c-1,0.4-2.4,2.4-4.9,4.2
		c-2.5,1.8-3.2,5.2-1.7,7.9l5.7,9.9c1.4,2.4,4.3,3.6,7,2.7c2.5-0.8,5.1-1.5,7.6-2.3c0.7-0.2,2.1-0.4,3.7,0.2c2.9,1,3.9,3.9,4,4.3
		c-0.1,1,0.8,3.3,1.5,6.5c0.6,2.7,3.1,4.7,5.9,4.7h11.5c3.1,0,5.7-2.3,6-5.4c0.4-2,0.7-4,1.1-6.1c0.3-0.7,1-1.8,2.2-2.8
		c2.2-1.8,4.8-1.7,5.5-1.6c0.8,0.6,3.7,1.1,7.5,2.3c2.7,0.8,5.6-0.3,7-2.7l5.7-9.9C212.9,195,212.2,191.6,209.7,189.8z M155.2,180.8
		c0-8.3,6.7-15,15-15c8.3,0,15,6.7,15,15c0,8.3-6.7,15-15,15C161.9,195.8,155.2,189.1,155.2,180.8z"/>
	<path class="st3" d="M129.3,198.1c-1.5-2.7-0.8-6.1,1.7-7.9c2.5-1.8,3.9-3.7,4.9-4.2c0.3-0.3,2-2.2,1.9-5.1
		c-0.1-2.4-1.5-3.9-1.9-4.3c-1.8-1.7-3.7-3.4-5.5-5.1c-2.1-1.9-2.5-5-1.1-7.4l5.7-9.9c1.5-2.7,4.9-3.7,7.7-2.5
		c2.7,1.2,5.1,1.5,5.9,2.1c0.4,0.1,4.1,0.7,6.7-1.7c1.2-1.2,1.7-2.5,1.9-3.2c0.5-2.3,1-4.5,1.6-6.8c0.6-2.7,3.1-4.7,5.9-4.7h7.4
		V72.1c0-15.5-12.6-28.1-28.1-28.1H83.9c-15.5,0-28.1,12.6-28.1,28.1v99.3c0,15.5,12.6,28.1,28.1,28.1h46.2L129.3,198.1z"/>
	<rect x="107.7" y="106.4" class="st2" width="42.1" height="14"/>
	<rect x="107.7" y="76.5" class="st2" width="42.1" height="14"/>
	<circle class="st4" cx="83.2" cy="83.5" r="8"/>
	<circle class="st4" cx="83.2" cy="113.4" r="8"/>
</g>
</svg>
