<?xml version="1.0" encoding="UTF-8" standalone="no"?>
<!-- Generator: Adobe Illustrator 19.1.0, SVG Export Plug-In . SVG Version: 6.00 Build 0)  -->

<svg
   xmlns:dc="http://purl.org/dc/elements/1.1/"
   xmlns:cc="http://creativecommons.org/ns#"
   xmlns:rdf="http://www.w3.org/1999/02/22-rdf-syntax-ns#"
   xmlns:svg="http://www.w3.org/2000/svg"
   xmlns="http://www.w3.org/2000/svg"
   xmlns:sodipodi="http://sodipodi.sourceforge.net/DTD/sodipodi-0.dtd"
   xmlns:inkscape="http://www.inkscape.org/namespaces/inkscape"
   version="1.1"
   id="Layer_1"
   x="0px"
   y="0px"
   viewBox="0 0 256 256"
   xml:space="preserve"
   sodipodi:docname="idea.svg"
   width="256"
   height="256"
   inkscape:version="0.92.5 (2060ec1f9f, 2020-04-08)"><metadata
   id="metadata99"><rdf:RDF><cc:Work
       rdf:about=""><dc:format>image/svg+xml</dc:format><dc:type
         rdf:resource="http://purl.org/dc/dcmitype/StillImage" /><dc:title></dc:title></cc:Work></rdf:RDF></metadata><defs
   id="defs97">
	
	

		
		
		
		
	
		<linearGradient
   id="SVGID_1_"
   gradientUnits="userSpaceOnUse"
   x1="0.78979999"
   y1="40.089298"
   x2="33.3172"
   y2="40.089298">
			<stop
   offset="0.2581"
   style="stop-color:#F97A12"
   id="stop2" />
			<stop
   offset="0.4591"
   style="stop-color:#B07B58"
   id="stop4" />
			<stop
   offset="0.7241"
   style="stop-color:#577BAE"
   id="stop6" />
			<stop
   offset="0.9105"
   style="stop-color:#1E7CE5"
   id="stop8" />
			<stop
   offset="1"
   style="stop-color:#087CFA"
   id="stop10" />
		</linearGradient>
		
		<linearGradient
   id="SVGID_2_"
   gradientUnits="userSpaceOnUse"
   x1="25.767401"
   y1="24.879999"
   x2="79.424004"
   y2="54.57">
			<stop
   offset="0"
   style="stop-color:#F97A12"
   id="stop15" />
			<stop
   offset="7.179946e-002"
   style="stop-color:#CB7A3E"
   id="stop17" />
			<stop
   offset="0.1541"
   style="stop-color:#9E7B6A"
   id="stop19" />
			<stop
   offset="0.242"
   style="stop-color:#757B91"
   id="stop21" />
			<stop
   offset="0.3344"
   style="stop-color:#537BB1"
   id="stop23" />
			<stop
   offset="0.4324"
   style="stop-color:#387CCC"
   id="stop25" />
			<stop
   offset="0.5381"
   style="stop-color:#237CE0"
   id="stop27" />
			<stop
   offset="0.6552"
   style="stop-color:#147CEF"
   id="stop29" />
			<stop
   offset="0.7925"
   style="stop-color:#0B7CF7"
   id="stop31" />
			<stop
   offset="1"
   style="stop-color:#087CFA"
   id="stop33" />
		</linearGradient>
		
		<linearGradient
   id="SVGID_3_"
   gradientUnits="userSpaceOnUse"
   x1="63.227699"
   y1="42.915298"
   x2="48.290298"
   y2="-1.7191">
			<stop
   offset="0"
   style="stop-color:#FE315D"
   id="stop38" />
			<stop
   offset="7.840246e-002"
   style="stop-color:#CB417E"
   id="stop40" />
			<stop
   offset="0.1601"
   style="stop-color:#9E4E9B"
   id="stop42" />
			<stop
   offset="0.2474"
   style="stop-color:#755BB4"
   id="stop44" />
			<stop
   offset="0.3392"
   style="stop-color:#5365CA"
   id="stop46" />
			<stop
   offset="0.4365"
   style="stop-color:#386DDB"
   id="stop48" />
			<stop
   offset="0.5414"
   style="stop-color:#2374E9"
   id="stop50" />
			<stop
   offset="0.6576"
   style="stop-color:#1478F3"
   id="stop52" />
			<stop
   offset="0.794"
   style="stop-color:#0B7BF8"
   id="stop54" />
			<stop
   offset="1"
   style="stop-color:#087CFA"
   id="stop56" />
		</linearGradient>
		
		<linearGradient
   id="SVGID_4_"
   gradientUnits="userSpaceOnUse"
   x1="10.7204"
   y1="16.473"
   x2="55.523701"
   y2="90.580002">
			<stop
   offset="0"
   style="stop-color:#FE315D"
   id="stop61" />
			<stop
   offset="4.023279e-002"
   style="stop-color:#F63462"
   id="stop63" />
			<stop
   offset="0.1037"
   style="stop-color:#DF3A71"
   id="stop65" />
			<stop
   offset="0.1667"
   style="stop-color:#C24383"
   id="stop67" />
			<stop
   offset="0.2912"
   style="stop-color:#AD4A91"
   id="stop69" />
			<stop
   offset="0.5498"
   style="stop-color:#755BB4"
   id="stop71" />
			<stop
   offset="0.9175"
   style="stop-color:#1D76ED"
   id="stop73" />
			<stop
   offset="1"
   style="stop-color:#087CFA"
   id="stop75" />
		</linearGradient>
		
	</defs><sodipodi:namedview
   pagecolor="#ffffff"
   bordercolor="#666666"
   borderopacity="1"
   objecttolerance="10"
   gridtolerance="10"
   guidetolerance="10"
   inkscape:pageopacity="0"
   inkscape:pageshadow="2"
   inkscape:window-width="1920"
   inkscape:window-height="1004"
   id="namedview95"
   showgrid="false"
   inkscape:zoom="3.3714286"
   inkscape:cx="0.88983051"
   inkscape:cy="35"
   inkscape:window-x="0"
   inkscape:window-y="0"
   inkscape:window-maximized="1"
   inkscape:current-layer="Layer_1" />

<path
   d="m 132.79987,0.49999 c 6.2,0 18.1,0.30001 33.3,2.30001 23.7,3.1 45.1,11.5 60.8,26.3 v 0 c 14.70001,15.7 23.10001,37.09999 26.20001,60.9 3,22.6 2.3,38 2.3,38 0,0 0.7,15.4 -2.3,38 -3.1,23.7 -11.5,45.1 -26.30001,60.9 v 0 c -15.7,14.8 -37.1,23.1 -60.8,26.3 -15.1,2 -27,2.3 -33.2,2.3 -3.1,0 -4.7,-0.1 -4.7,-0.1 0,0 -1.7,0.1 -4.7,0.1 -6.2,0 -18.1,-0.3 -33.199998,-2.3 -23.7,-3.1 -45.1,-11.5 -60.800004,-26.3 v 0 c -15,-15.7 -23.4000002,-37.1 -26.5000002,-60.9 -3.00000003,-22.6 -2.30000003,-38 -2.30000003,-38 0,0 -0.7,-15.4 2.30000003,-38 3.1,-23.80001 11.5000002,-45.2 26.3000002,-60.9 v 0 C 44.799872,14.3 66.299872,5.9 89.899872,2.8 104.99987,0.8 116.89987,0.49999 123.19987,0.49999 c 3.1,0 4.7,0.1 4.7,0.1 0,0 1.8,-0.1 4.9,-0.1"
   id="path4"
   inkscape:connector-curvature="0"
   style="opacity:0.1" /><path
   class="st1"
   d="m 251.69988,90.4 c -3.1,-23.40001 -11.4,-44.6 -26.00001,-60.1 v 0 c -15.6,-14.6 -36.7,-22.9 -60.1,-26 -22.4,-3 -37.6,-2.30001 -37.6,-2.30001 0,0 -15.2,-0.69999 -37.599998,2.30001 -23.4,3.1 -44.6,11.4 -60.100004,26 -14.6,15.5 -22.8000002,36.69999 -26.0000002,60.1 -3,22.3 -2.2,37.6 -2.2,37.6 0,0 -0.7,15.2 2.2,37.6 3.1,23.4 11.4000002,44.6 26.0000002,60.1 v 0 c 15.600004,14.6 36.700004,22.9 60.100004,26 22.299998,3 37.599998,2.2 37.599998,2.2 0,0 15.2,0.7 37.6,-2.2 23.4,-3.1 44.6,-11.4 60.1,-26 v 0 c 14.60001,-15.6 22.90001,-36.7 26.00001,-60.1 3,-22.3 2.2,-37.6 2.2,-37.6 0,0 0.8,-15.2 -2.2,-37.6"
   id="path10"
   inkscape:connector-curvature="0"
   style="opacity:0.9;fill:#fefefe;fill-opacity:1" /><polygon
   style="fill:url(#SVGID_1_)"
   points="33.3,35 17.7,54.6 0.8,41.2 9.2,25.6 "
   id="polygon13"
   transform="matrix(2.5714286,0,0,2.5714286,38,44)" /><polygon
   style="fill:url(#SVGID_2_)"
   points="38.9,12.3 48.2,1.1 70,18.7 68.7,59.2 41.8,70 25.6,59.6 49.3,35 "
   id="polygon36"
   transform="matrix(2.5714286,0,0,2.5714286,38,44)" /><polygon
   style="fill:url(#SVGID_3_)"
   points="48.2,1.1 70,18.7 48.7,43.9 38.9,12.3 "
   id="polygon59"
   transform="matrix(2.5714286,0,0,2.5714286,38,44)" /><polygon
   style="fill:url(#SVGID_4_)"
   points="16,33.1 0,27.7 10.1,0 32.1,2.7 53.7,27.4 33.7,58.1 5.6,68.3 10.1,52.5 "
   id="polygon78"
   transform="matrix(2.5714286,0,0,2.5714286,38,44)" /><rect
   x="73.228577"
   y="78.714287"
   style="fill:#000000;stroke-width:2.57142854"
   width="111.08572"
   height="111.08572"
   id="rect82" /><rect
   x="83.51429"
   y="168.97142"
   style="fill:#ffffff;stroke-width:2.57142854"
   width="41.657146"
   height="6.9428573"
   id="rect84" /><polygon
   style="fill:#ffffff"
   points="20.4,37 29.4,37 29.4,33.7 26.9,33.7 26.9,22.4 29.4,22.4 29.4,19.1 20.4,19.1 20.4,22.4 23,22.4 23,33.7 20.4,33.7 "
   id="polygon86"
   transform="matrix(2.5714286,0,0,2.5714286,38,44)" /><path
   style="fill:#ffffff;stroke-width:2.57142854"
   d="m 135.71429,139.91429 c -3.6,0 -6.68572,-0.77143 -9,-2.05715 -2.31429,-1.28571 -4.37143,-3.08571 -5.91429,-4.88571 l 6.42857,-7.2 c 1.28572,1.54286 2.57143,2.57143 3.85714,3.34286 1.28572,0.77142 2.82858,1.28571 4.37143,1.28571 1.8,0 3.34286,-0.51429 4.62857,-1.8 1.02858,-1.28571 1.54286,-3.08571 1.54286,-5.91429 V 93.114286 h 10.28572 V 123.2 c 0,2.82857 -0.25715,5.14286 -1.02858,7.2 -0.77142,2.05714 -1.8,3.6 -3.34285,5.14286 -1.28572,1.28571 -3.08572,2.57143 -5.14286,3.08571 -2.05714,0.77143 -4.11429,1.28572 -6.68571,1.28572"
   id="path88"
   inkscape:connector-curvature="0" /></svg>