<?xml version="1.0" encoding="utf-8"?>
<!-- Generator: Adobe Illustrator 23.0.0, SVG Export Plug-In . SVG Version: 6.00 Build 0)  -->
<svg version="1.1" id="레이어_1" xmlns="http://www.w3.org/2000/svg" xmlns:xlink="http://www.w3.org/1999/xlink" x="0px"
	 y="0px" viewBox="0 0 256 256" style="enable-background:new 0 0 256 256;" xml:space="preserve">
<style type="text/css">
	.st0{opacity:0.1;}
	.st1{fill:#60BAFF;}
	.st2{fill:#FFDD2A;}
	.st3{fill:#FFFFFF;}
</style>
<g class="st0">
	<g>
		<path d="M132.8,0.5c6.2,0,18.1,0.3,33.3,2.3c23.7,3.1,45.1,11.5,60.8,26.3l0,0C241.6,44.8,250,66.2,253.1,90c3,22.6,2.3,38,2.3,38
			s0.7,15.4-2.3,38c-3.1,23.7-11.5,45.1-26.3,60.9l0,0c-15.7,14.8-37.1,23.1-60.8,26.3c-15.1,2-27,2.3-33.2,2.3
			c-3.1,0-4.7-0.1-4.7-0.1s-1.7,0.1-4.7,0.1c-6.2,0-18.1-0.3-33.2-2.3c-23.7-3.1-45.1-11.5-60.8-26.3l0,0
			C14.4,211.2,6,189.8,2.9,166c-3-22.6-2.3-38-2.3-38s-0.7-15.4,2.3-38C6,66.2,14.4,44.8,29.2,29.1l0,0C44.8,14.3,66.3,5.9,89.9,2.8
			c15.1-2,27-2.3,33.3-2.3c3.1,0,4.7,0.1,4.7,0.1S129.7,0.5,132.8,0.5"/>
	</g>
</g>
<path class="st1" d="M251.7,90.4c-3.1-23.4-11.4-44.6-26-60.1l0,0c-15.6-14.6-36.7-22.9-60.1-26C143.2,1.3,128,2,128,2
	s-15.2-0.7-37.6,2.3C67,7.4,45.8,15.7,30.3,30.3C15.7,45.8,7.5,67,4.3,90.4c-3,22.3-2.2,37.6-2.2,37.6s-0.7,15.2,2.2,37.6
	c3.1,23.4,11.4,44.6,26,60.1l0,0c15.6,14.6,36.7,22.9,60.1,26c22.3,3,37.6,2.2,37.6,2.2s15.2,0.7,37.6-2.2
	c23.4-3.1,44.6-11.4,60.1-26l0,0c14.6-15.6,22.9-36.7,26-60.1c3-22.3,2.2-37.6,2.2-37.6S254.7,112.8,251.7,90.4"/>
<g>
	<g>
		<circle class="st2" cx="128.3" cy="125.6" r="50.6"/>
		<path class="st2" d="M128.3,65.8L128.3,65.8c-2.9,0-5.3-2.4-5.3-5.3v-8c0-2.9,2.4-5.3,5.3-5.3h0c2.9,0,5.3,2.4,5.3,5.3v8
			C133.6,63.4,131.3,65.8,128.3,65.8z"/>
		<path class="st2" d="M96.7,74.4L96.7,74.4c-2.5,1.5-5.8,0.6-7.3-1.9l-4-6.9c-1.5-2.5-0.6-5.8,1.9-7.3l0,0c2.5-1.5,5.8-0.6,7.3,1.9
			l4,6.9C100.1,69.6,99.3,72.9,96.7,74.4z"/>
		<path class="st2" d="M156.5,74.4L156.5,74.4c2.5,1.5,5.8,0.6,7.3-1.9l4-6.9c1.5-2.5,0.6-5.8-1.9-7.3v0c-2.5-1.5-5.8-0.6-7.3,1.9
			l-4,6.9C153.1,69.6,153.9,72.9,156.5,74.4z"/>
		<path class="st2" d="M206.4,125.6L206.4,125.6c0,2.9-2.4,5.3-5.3,5.3h-8c-2.9,0-5.3-2.4-5.3-5.3v0c0-2.9,2.4-5.3,5.3-5.3h8
			C204,120.3,206.4,122.7,206.4,125.6z"/>
		<path class="st2" d="M68.2,128.3L68.2,128.3c0,2.9-2.4,5.3-5.3,5.3h-8c-2.9,0-5.3-2.4-5.3-5.3l0,0c0-2.9,2.4-5.3,5.3-5.3h8
			C65.9,123,68.2,125.4,68.2,128.3z"/>
		<path class="st2" d="M180.6,95.8L180.6,95.8c1.9,2.3,5.2,2.5,7.5,0.7l6.1-5.1c2.3-1.9,2.5-5.2,0.7-7.5l0,0
			c-1.9-2.3-5.2-2.5-7.5-0.7l-6.1,5.1C179,90.2,178.7,93.5,180.6,95.8z"/>
		<path class="st2" d="M75.4,99.8L75.4,99.8c-1.9,2.3-5.2,2.5-7.5,0.7l-6.1-5.1c-2.3-1.9-2.5-5.2-0.7-7.5l0,0
			c1.9-2.3,5.2-2.5,7.5-0.7l6.1,5.1C77,94.2,77.3,97.6,75.4,99.8z"/>
	</g>
	<path class="st3" d="M186.1,143h-5.7c-5.7-19.2-23.5-33.3-44.5-33.3S97,123.8,91.3,143H69.9c-12.1,0-21.9,9.8-21.9,21.9v0
		c0,12.1,9.8,21.9,21.9,21.9h116.2c12.1,0,21.9-9.8,21.9-21.9v0C208,152.8,198.2,143,186.1,143z"/>
</g>
</svg>
