<?xml version="1.0" encoding="UTF-8" standalone="no"?>
<!-- Generator: Adobe Illustrator 23.0.0, SVG Export Plug-In . SVG Version: 6.00 Build 0)  -->

<svg
   xmlns:ns="&amp;ns_sfw;"
   xmlns:dc="http://purl.org/dc/elements/1.1/"
   xmlns:cc="http://creativecommons.org/ns#"
   xmlns:rdf="http://www.w3.org/1999/02/22-rdf-syntax-ns#"
   xmlns:svg="http://www.w3.org/2000/svg"
   xmlns="http://www.w3.org/2000/svg"
   xmlns:sodipodi="http://sodipodi.sourceforge.net/DTD/sodipodi-0.dtd"
   xmlns:inkscape="http://www.inkscape.org/namespaces/inkscape"
   version="1.1"
   id="레이어_1"
   x="0px"
   y="0px"
   viewBox="0 0 256 256"
   style="enable-background:new 0 0 256 256;"
   xml:space="preserve"
   sodipodi:docname="java.svg"
   inkscape:version="0.92.5 (2060ec1f9f, 2020-04-08)"><defs
   id="defs29" /><sodipodi:namedview
   pagecolor="#ffffff"
   bordercolor="#666666"
   borderopacity="1"
   objecttolerance="10"
   gridtolerance="10"
   guidetolerance="10"
   inkscape:pageopacity="0"
   inkscape:pageshadow="2"
   inkscape:window-width="1920"
   inkscape:window-height="998"
   id="namedview27"
   showgrid="false"
   inkscape:zoom="0.921875"
   inkscape:cx="128"
   inkscape:cy="128"
   inkscape:window-x="0"
   inkscape:window-y="24"
   inkscape:window-maximized="1"
   inkscape:current-layer="레이어_1" />
<style
   type="text/css"
   id="style2">
	.st0{opacity:0.1;}
	.st1{fill:#618FFA;}
	.st2{fill-rule:evenodd;clip-rule:evenodd;fill:#FFFFFF;}
	.st3{fill:#FFFFFF;}
</style>
<metadata
   id="metadata4">
	<ns:sfw>
		<ns:slices />
		<ns:sliceSourceBounds
   bottomLeftOrigin="true"
   height="255"
   width="254.9"
   x="0.5"
   y="0.5" />
	</ns:sfw>
<rdf:RDF><cc:Work
     rdf:about=""><dc:format>image/svg+xml</dc:format><dc:type
       rdf:resource="http://purl.org/dc/dcmitype/StillImage" /><dc:title></dc:title></cc:Work></rdf:RDF></metadata>
<g
   class="st0"
   id="g10">
	<g
   id="g8">
		<path
   d="M132.8,0.5c6.2,0,18.1,0.3,33.3,2.3c23.7,3.1,45.1,11.5,60.8,26.3l0,0C241.6,44.8,250,66.2,253.1,90c3,22.6,2.3,38,2.3,38    s0.7,15.4-2.3,38c-3.1,23.7-11.5,45.1-26.3,60.9l0,0c-15.7,14.8-37.1,23.1-60.8,26.3c-15.1,2-27,2.3-33.2,2.3    c-3.1,0-4.7-0.1-4.7-0.1s-1.7,0.1-4.7,0.1c-6.2,0-18.1-0.3-33.2-2.3c-23.7-3.1-45.1-11.5-60.8-26.3l0,0    C14.4,211.2,6,189.8,2.9,166c-3-22.6-2.3-38-2.3-38s-0.7-15.4,2.3-38C6,66.2,14.4,44.8,29.2,29.1l0,0C44.8,14.3,66.3,5.9,89.9,2.8    c15.1-2,27-2.3,33.3-2.3c3.1,0,4.7,0.1,4.7,0.1S129.7,0.5,132.8,0.5"
   id="path6" />
	</g>
</g>
<path
   class="st1"
   d="M251.7,90.4c-3.1-23.4-11.4-44.6-26-60.1l0,0c-15.6-14.6-36.7-22.9-60.1-26C143.2,1.3,128,2,128,2  s-15.2-0.7-37.6,2.3C67,7.4,45.8,15.7,30.3,30.3C15.7,45.8,7.5,67,4.3,90.4c-3,22.3-2.2,37.6-2.2,37.6s-0.7,15.2,2.2,37.6  c3.1,23.4,11.4,44.6,26,60.1l0,0c15.6,14.6,36.7,22.9,60.1,26c22.3,3,37.6,2.2,37.6,2.2s15.2,0.7,37.6-2.2  c23.4-3.1,44.6-11.4,60.1-26l0,0c14.6-15.6,22.9-36.7,26-60.1c3-22.3,2.2-37.6,2.2-37.6S254.7,112.8,251.7,90.4"
   id="path12"
   style="fill:#fafafa;fill-opacity:1" />


<path
   id="path1440"
   d="m 102.31091,177.20391 c 0,0 -6.878574,4.00013 4.89524,5.35372 14.26364,1.62721 21.55362,1.39386 37.27225,-1.58113 0,0 4.13258,2.59122 9.90401,4.83556 -35.23701,15.10199 -79.748304,-0.87473 -52.0715,-8.60815"
   style="fill:#056eb6;fill-opacity:1;stroke-width:0.48515782"
   inkscape:connector-curvature="0" /><path
   id="path1442"
   d="m 98.00513,157.4968 c 0,0 -7.714981,5.71079 4.06756,6.92951 15.23687,1.57191 27.26975,1.70048 48.09127,-2.30887 0,0 2.8799,2.91968 7.40836,4.51634 -42.60365,12.45788 -90.056452,0.98244 -59.56719,-9.13698"
   style="fill:#056eb6;fill-opacity:1;stroke-width:0.48515782"
   inkscape:connector-curvature="0" /><path
   id="path1444"
   d="m 134.30415,124.067 c 8.68239,9.99619 -2.28121,18.9915 -2.28121,18.9915 0,0 22.04606,-11.38083 11.9213,-25.63234 -9.45621,-13.29041 -16.70786,-19.8939 22.54965,-42.66187 0,0 -61.62135,15.39018 -32.18974,49.30271"
   style="fill:#e21822;fill-opacity:1;stroke-width:0.48515782"
   inkscape:connector-curvature="0" /><path
   id="path1446"
   d="m 180.90793,191.78047 c 0,0 5.09027,4.1942 -5.606,7.43893 -20.33927,6.1615 -84.654222,8.02209 -102.520643,0.24549 -6.42252,-2.79403 5.621525,-6.67141 9.410118,-7.48501 3.951128,-0.85679 6.20905,-0.69718 6.20905,-0.69718 -7.142493,-5.03157 -46.166159,9.87975 -19.822093,14.15011 71.844118,11.65107 130.964958,-5.24649 112.329568,-13.65234"
   style="fill:#056eb6;fill-opacity:1;stroke-width:0.48515782"
   inkscape:connector-curvature="0" /><path
   id="path1448"
   d="m 105.61871,137.07796 c 0,0 -32.714678,7.77029 -11.585089,10.59197 8.921569,1.19446 26.706489,0.92422 43.272689,-0.46381 13.53881,-1.14207 27.13342,-3.57028 27.13342,-3.57028 0,0 -4.77395,2.04446 -8.22779,4.40281 -33.22118,8.73721 -97.398347,4.67255 -78.922568,-4.26454 15.624995,-7.55294 28.329338,-6.69615 28.329338,-6.69615"
   style="fill:#056eb6;fill-opacity:1;stroke-width:0.48515782"
   inkscape:connector-curvature="0" /><path
   id="path1450"
   d="m 164.30486,169.88142 c 33.77086,-17.54864 18.15654,-34.41273 7.25796,-32.14073 -2.67128,0.55599 -3.86234,1.03775 -3.86234,1.03775 0,0 0.99166,-1.55347 2.88572,-2.2259 21.5609,-7.58011 38.14262,22.35655 -6.96008,34.21332 0,4.9e-4 0.52252,-0.46672 0.67874,-0.88444"
   style="fill:#056eb6;fill-opacity:1;stroke-width:0.48515782"
   inkscape:connector-curvature="0" /><path
   id="path1452"
   d="m 143.94424,38.000004 c 0,0 18.70283,18.709136 -17.73882,47.478516 -29.222521,23.07799 -6.66365,36.23644 -0.0121,51.2705 -17.05767,-15.39017 -29.575718,-28.9382 -21.17763,-41.54745 12.3264,-18.50926 46.47472,-27.48323 38.92858,-57.201566"
   style="fill:#e21822;fill-opacity:1;stroke-width:0.48515782"
   inkscape:connector-curvature="0" /><path
   id="path1454"
   d="m 108.93719,217.43416 c 32.41582,2.07502 82.19398,-1.15128 83.37292,-16.48954 0,0 -2.26618,5.81462 -26.78993,10.43235 -27.66758,5.20671 -61.79164,4.59881 -82.030975,1.2619 4.86e-4,-4.9e-4 4.143247,3.42909 25.447985,4.79529"
   style="fill:#056eb6;fill-opacity:1;stroke-width:0.48515782"
   inkscape:connector-curvature="0" /></svg>