<?xml version="1.0" encoding="utf-8"?>
<!-- Generator: Adobe Illustrator 23.0.0, SVG Export Plug-In . SVG Version: 6.00 Build 0)  -->
<svg version="1.1" id="레이어_1" xmlns="http://www.w3.org/2000/svg" xmlns:xlink="http://www.w3.org/1999/xlink" x="0px"
	 y="0px" viewBox="0 0 256 256" style="enable-background:new 0 0 256 256;" xml:space="preserve">
<style type="text/css">
	.st0{opacity:0.1;}
	.st1{fill:#7751AE;}
	.st2{fill:#FFFFFF;}
	.st3{fill:#A88BEC;}
</style>
<g class="st0">
	<g>
		<path d="M132.7,0.5c6.2,0,18.1,0.3,33.3,2.3c23.7,3.1,45.1,11.5,60.9,26.3h0C241.6,44.8,250,66.3,253.2,90c3,22.6,2.3,38,2.3,38
			s0.7,15.4-2.3,38c-3.1,23.7-11.5,45.1-26.3,60.9l0,0c-15.7,14.8-37.2,23.2-60.9,26.3c-15.1,2-27.1,2.3-33.3,2.3
			c-3.1,0-4.7-0.1-4.7-0.1s-1.7,0.1-4.7,0.1c-6.2,0-18.1-0.3-33.3-2.3c-23.7-3.1-45.1-11.5-60.9-26.3l0,0
			C14.4,211.2,6,189.7,2.8,166c-3-22.6-2.3-38-2.3-38s-0.7-15.4,2.3-38C6,66.3,14.4,44.8,29.1,29.1h0C44.9,14.3,66.3,5.9,90,2.8
			c15.2-2,27.1-2.3,33.3-2.3c3.1,0,4.7,0.1,4.7,0.1S129.7,0.5,132.7,0.5"/>
	</g>
</g>
<path class="st1" d="M251.7,90.4c-3.1-23.4-11.4-44.6-26-60.2h0c-15.5-14.6-36.7-22.9-60.1-26C143.2,1.3,128,2,128,2
	s-15.2-0.7-37.6,2.2C67,7.4,45.8,15.7,30.3,30.3C15.7,45.8,7.4,67,4.3,90.4c-3,22.4-2.2,37.6-2.2,37.6s-0.7,15.2,2.2,37.6
	c3.1,23.4,11.4,44.6,26,60.1v0c15.5,14.6,36.7,22.9,60.1,26c22.3,3,37.6,2.2,37.6,2.2s15.2,0.7,37.6-2.2c23.4-3.1,44.6-11.4,60.1-26
	l0,0c14.6-15.5,22.9-36.7,26-60.1c3-22.4,2.2-37.6,2.2-37.6S254.6,112.8,251.7,90.4"/>
<g>
	<g>
		<path class="st1" d="M188.6,78.4h-11.1c0.1,0.8,0.2,1.5,0.2,2.3c0,7.2-5.8,13-13,13c-7.2,0-13-5.8-13-13c0-0.8,0.1-1.6,0.2-2.3
			H66.5c-7.5,0-13.6,6.1-13.6,13.6v4.2c6.2,1,11,6.3,11,12.8c0,6.5-4.8,11.9-11,12.8v49.6c0,7.5,6.1,13.6,13.6,13.6h71
			c21.6-21.6,43.1-43.3,64.7-64.9v-28C202.2,84.5,196.1,78.4,188.6,78.4z M89.2,121.9c-7.2,0-13-5.8-13-13s5.8-13,13-13
			c7.2,0,13,5.8,13,13S96.4,121.9,89.2,121.9z M126.8,121.9c-7.2,0-13-5.8-13-13s5.8-13,13-13s13,5.8,13,13S134,121.9,126.8,121.9z"
			/>
		<circle class="st1" cx="166.6" cy="51.8" r="11.5"/>
		<g>
			<path class="st1" d="M190.5,196.2c-8.5,1.9-17,3.9-25.5,5.8c2-8.5,4-16.9,6-25.4c2.8-2.8,5.7-5.7,8.5-8.5
				c6.5,6.5,13,13,19.5,19.6C196.2,190.5,193.4,193.4,190.5,196.2z"/>
			
				<rect x="173" y="153.9" transform="matrix(0.7071 -0.7071 0.7071 0.7071 -60.1954 190.1667)" class="st1" width="52.8" height="27.6"/>
		</g>
	</g>
	<g>
		<path class="st2" d="M188.6,78.4h-11.1c0.1,0.8,0.2,1.5,0.2,2.3c0,7.2-5.8,13-13,13c-7.2,0-13-5.8-13-13c0-0.8,0.1-1.6,0.2-2.3
			H66.5c-7.5,0-13.6,6.1-13.6,13.6v4.2c6.2,1,11,6.3,11,12.8c0,6.5-4.8,11.9-11,12.8v49.6c0,7.5,6.1,13.6,13.6,13.6h71
			c21.6-21.6,43.1-43.3,64.7-64.9v-28C202.2,84.5,196.1,78.4,188.6,78.4z M89.2,121.9c-7.2,0-13-5.8-13-13s5.8-13,13-13
			c7.2,0,13,5.8,13,13S96.4,121.9,89.2,121.9z M126.8,121.9c-7.2,0-13-5.8-13-13s5.8-13,13-13s13,5.8,13,13S134,121.9,126.8,121.9z"
			/>
		<circle class="st3" cx="166.6" cy="51.8" r="11.5"/>
		<g>
			<path class="st3" d="M190.5,196.2c-8.5,1.9-17,3.9-25.5,5.8c2-8.5,4-16.9,6-25.4c2.8-2.8,5.7-5.7,8.5-8.5
				c6.5,6.5,13,13,19.5,19.6C196.2,190.5,193.4,193.4,190.5,196.2z"/>
			
				<rect x="173" y="153.9" transform="matrix(0.7071 -0.7071 0.7071 0.7071 -60.1954 190.1667)" class="st2" width="52.8" height="27.6"/>
		</g>
	</g>
</g>
</svg>
