<?xml version="1.0" encoding="UTF-8" standalone="no"?>
<!-- Created with Inkscape (http://www.inkscape.org/) -->

<svg
   xmlns:dc="http://purl.org/dc/elements/1.1/"
   xmlns:cc="http://creativecommons.org/ns#"
   xmlns:rdf="http://www.w3.org/1999/02/22-rdf-syntax-ns#"
   xmlns:svg="http://www.w3.org/2000/svg"
   xmlns="http://www.w3.org/2000/svg"
   xmlns:xlink="http://www.w3.org/1999/xlink"
   xmlns:sodipodi="http://sodipodi.sourceforge.net/DTD/sodipodi-0.dtd"
   xmlns:inkscape="http://www.inkscape.org/namespaces/inkscape"
   width="256"
   version="1.1"
   height="256"
   id="svg2"
   inkscape:version="0.92.5 (2060ec1f9f, 2020-04-08)"
   sodipodi:docname="kdevelop.svg">
  <sodipodi:namedview
     pagecolor="#ffffff"
     bordercolor="#666666"
     borderopacity="1"
     objecttolerance="10"
     gridtolerance="10"
     guidetolerance="10"
     inkscape:pageopacity="0"
     inkscape:pageshadow="2"
     inkscape:window-width="1920"
     inkscape:window-height="1004"
     id="namedview43"
     showgrid="false"
     inkscape:zoom="1.9999999"
     inkscape:cx="28.720116"
     inkscape:cy="97.258122"
     inkscape:window-x="0"
     inkscape:window-y="0"
     inkscape:window-maximized="1"
     inkscape:current-layer="layer1" />
  <defs
     id="defs2987">
    <linearGradient
       inkscape:collect="always"
       id="linearGradient4227-4">
      <stop
         style="stop-color:#292c2f"
         id="stop4229-6" />
      <stop
         offset="1"
         style="stop-opacity:0"
         id="stop4231-9" />
    </linearGradient>
    <linearGradient
       inkscape:collect="always"
       xlink:href="#linearGradient4899"
       id="linearGradient4282"
       y1="13.444166"
       x1="17.03047"
       y2="29.398035"
       x2="34.763885"
       gradientUnits="userSpaceOnUse"
       gradientTransform="matrix(5.0020204,-4.5138487e-8,4.5138487e-8,5.0020204,-222.98712,-9.6355043)" />
    <linearGradient
       inkscape:collect="always"
       id="linearGradient4331">
      <stop
         style="stop-color:#7ceca4;stop-opacity:1"
         id="stop4333" />
      <stop
         offset="1"
         style="stop-color:#e5fbf7;stop-opacity:1"
         id="stop4335" />
    </linearGradient>
    <linearGradient
       inkscape:collect="always"
       id="linearGradient4899">
      <stop
         style="stop-color:#375a7d;stop-opacity:1"
         id="stop4901" />
      <stop
         offset="1"
         style="stop-color:#377d50;stop-opacity:1"
         id="stop4903" />
    </linearGradient>
    <linearGradient
       inkscape:collect="always"
       id="linearGradient4298">
      <stop
         style="stop-color:#338173;stop-opacity:1"
         id="stop4300" />
      <stop
         offset="1"
         style="stop-color:#54d883;stop-opacity:1"
         id="stop4302-2" />
    </linearGradient>
    <linearGradient
       inkscape:collect="always"
       xlink:href="#linearGradient4458-3"
       id="linearGradient4464"
       x1="-44.393879"
       x2="-14.393877"
       gradientUnits="userSpaceOnUse"
       gradientTransform="matrix(5.0020204,-4.5138485e-8,4.5138485e-8,5.0020204,249.96739,-25.525884)" />
    <linearGradient
       inkscape:collect="always"
       xlink:href="#linearGradient4298"
       id="linearGradient4282-1"
       y1="14.811282"
       x1="9.498888"
       y2="30.251848"
       x2="36.242733"
       gradientUnits="userSpaceOnUse"
       gradientTransform="matrix(4.6172494,-4.1666293e-8,4.1666293e-8,4.6172494,-213.75259,-0.40101605)" />
    <linearGradient
       inkscape:collect="always"
       xlink:href="#linearGradient4331"
       id="linearGradient4508"
       x1="13.863942"
       x2="27.054085"
       gradientUnits="userSpaceOnUse"
       y1="27.050848"
       y2="27.050848"
       gradientTransform="matrix(5.0020204,0,0,5.0020204,7.959599,-200.05675)" />
    <linearGradient
       inkscape:collect="always"
       xlink:href="#linearGradient4227-4"
       id="linearGradient4246"
       x1="24"
       y1="23"
       x2="40"
       y2="39"
       gradientUnits="userSpaceOnUse" />
    <linearGradient
       inkscape:collect="always"
       xlink:href="#linearGradient4458-3"
       id="linearGradient4472-7"
       y1="15.777568"
       x1="3.2416697"
       y2="37"
       x2="40"
       gradientUnits="userSpaceOnUse"
       gradientTransform="rotate(-165,24,24)" />
    <linearGradient
       inkscape:collect="always"
       id="linearGradient4458-3">
      <stop
         style="stop-color:#b0b8b8;stop-opacity:1"
         id="stop4460-2" />
      <stop
         offset="1"
         style="stop-color:#eff1f1;stop-opacity:1"
         id="stop4462-4" />
    </linearGradient>
  </defs>
  <metadata
     id="metadata2990">
    <rdf:RDF>
      <cc:Work
         rdf:about="">
        <dc:format>image/svg+xml</dc:format>
        <dc:type
           rdf:resource="http://purl.org/dc/dcmitype/StillImage" />
        <dc:title></dc:title>
      </cc:Work>
    </rdf:RDF>
  </metadata>
  <g
     inkscape:label="Layer 1"
     inkscape:groupmode="layer"
     id="layer1"
     transform="translate(0,208)">
    <path
       style="opacity:0.1"
       d="m 132.79987,-207.5 c 6.2,0 18.1,0.3 33.3,2.3 23.7,3.1 45.1,11.5 60.8,26.3 v 0 c 14.7,15.7 23.1,37.1 26.2,60.9 3,22.600002 2.3,38.000002 2.3,38.000002 0,0 0.7,15.4 -2.3,38 -3.1,23.699998 -11.5,45.099998 -26.3,60.899998 v 0 c -15.7,14.8 -37.1,23.1 -60.8,26.3 -15.1,2 -27,2.3 -33.2,2.3 -3.1,0 -4.7,-0.1 -4.7,-0.1 0,0 -1.7,0.1 -4.7,0.1 -6.2,0 -18.1,-0.3 -33.200002,-2.3 -23.7,-3.1 -45.1,-11.5 -60.8,-26.3 v 0 c -15,-15.7 -23.4000002,-37.1 -26.5000002,-60.899998 -3.00000003,-22.6 -2.30000003,-38 -2.30000003,-38 0,0 -0.7,-15.4 2.30000003,-38.000002 3.1,-23.8 11.5000002,-45.2 26.3000002,-60.9 v 0 c 15.6,-14.8 37.1,-23.2 60.7,-26.3 15.100002,-2 27.000002,-2.3 33.300002,-2.3 3.1,0 4.7,0.1 4.7,0.1 0,0 1.8,-0.1 4.9,-0.1"
       id="path4"
       inkscape:connector-curvature="0" />
    <path
       style="opacity:0.9;fill:#fafafa"
       inkscape:connector-curvature="0"
       id="path10"
       d="m 251.69967,-117.59979 c -3.1,-23.4 -11.4,-44.6 -26,-60.1 v 0 c -15.6,-14.6 -36.7,-22.9 -60.1,-26 -22.4,-3 -37.6,-2.3 -37.6,-2.3 0,0 -15.2,-0.7 -37.600016,2.3 -23.4,3.1 -44.6,11.4 -60.1,26 -14.6,15.5 -22.7999992,36.7 -25.9999992,60.1 -3,22.300002 -2.2,37.600002 -2.2,37.600002 0,0 -0.7,15.2 2.2,37.6 3.1,23.399998 11.3999992,44.599998 25.9999992,60.099998 v 0 c 15.6,14.6 36.7,22.9 60.1,26 22.300016,3 37.600016,2.2 37.600016,2.2 0,0 15.2,0.7 37.6,-2.2 23.4,-3.1 44.6,-11.4 60.1,-26 v 0 c 14.6,-15.6 22.9,-36.7 26,-60.099998 3,-22.3 2.2,-37.6 2.2,-37.6 0,0 0.8,-15.2 -2.2,-37.600002"
       class="st1" />
    <circle
       cx="102.9387"
       cy="-110.41305"
       r="75.030304"
       id="path4212-7"
       style="color:#000000;fill:url(#linearGradient4464);fill-opacity:1;stroke-width:15.00606155;stroke-linecap:round;stroke-linejoin:round"
       transform="rotate(15)" />
    <g
       id="g4194"
       transform="matrix(5.0020204,0,0,5.0020204,7.959599,-200.05675)">
      <path
         d="m 21.951885,43.88376 a 20,20 0 0 0 4.097059,0.0059 l 0.47475,-3.099941 a 17,17 0 0 0 3.687344,-0.985474 l 1.956347,2.441079 a 20,20 0 0 0 3.54897,-2.053782 l -1.134988,-2.910508 a 17,17 0 0 0 2.709819,-2.695171 l 2.892828,1.126963 a 20,20 0 0 0 2.050081,-3.553369 l -2.421947,-1.941032 a 17,17 0 0 0 0.608591,-1.818511 17,17 0 0 0 0.369366,-1.876546 l 3.093655,-0.475263 a 20,20 0 0 0 0.0059,-4.097059 l -3.099941,-0.47475 a 17,17 0 0 0 -0.985474,-3.687344 l 2.441079,-1.956347 a 20,20 0 0 0 -2.053782,-3.54897 l -2.910508,1.134988 A 17,17 0 0 0 34.585873,10.708814 L 35.712836,7.8159861 A 20,20 0 0 0 32.159467,5.7659047 L 30.218435,8.1878515 A 17,17 0 0 0 28.399924,7.5792609 17,17 0 0 0 26.523378,7.2098952 L 26.048115,4.1162403 a 20,20 0 0 0 -4.097058,-0.00591 L 21.476306,7.2102707 A 17,17 0 0 0 17.788962,8.1957452 L 15.832615,5.7546645 a 20,20 0 0 0 -3.54897,2.0537839 l 1.134988,2.9105076 a 17,17 0 0 0 -2.709819,2.695171 L 7.8159861,12.287164 a 20,20 0 0 0 -2.0500814,3.553369 l 2.4219468,1.941032 a 17,17 0 0 0 -0.6085907,1.818511 17,17 0 0 0 -0.3693656,1.876546 l -3.093655,0.475263 a 20,20 0 0 0 -0.00591,4.097058 l 3.0999414,0.474751 a 17,17 0 0 0 0.9854746,3.687344 l -2.4410807,1.956347 a 20,20 0 0 0 2.0537839,3.54897 l 2.9105076,-1.134988 a 17,17 0 0 0 2.695171,2.709819 l -1.126963,2.892828 a 20,20 0 0 0 3.553369,2.050081 l 1.941032,-2.421947 a 17,17 0 0 0 1.818511,0.608591 17,17 0 0 0 1.876546,0.369366 l 0.475263,3.093655 z m -1.575352,-6.360798 a 14,14 0 0 1 -9.899495,-17.146429 14,14 0 0 1 17.146429,-9.899495 14,14 0 0 1 9.899495,17.146429 14,14 0 0 1 -17.146429,9.899495 z"
         id="path4162-5-1"
         style="color:#000000;fill:url(#linearGradient4472-7);stroke-width:3;stroke-linecap:round;stroke-linejoin:round"
         inkscape:connector-curvature="0" />
      <path
         id="rect4204"
         d="M 33.193359,14.806641 14.806641,33.193359 25.542969,43.927734 c 0.168605,-0.0128 0.337536,-0.02002 0.505859,-0.03711 l 0.47461,-3.101563 c 1.262209,-0.189034 2.499274,-0.51851 3.6875,-0.984374 l 1.957031,2.441406 c 1.250229,-0.561198 2.439325,-1.250314 3.548828,-2.054688 L 34.582031,37.28125 c 1.00171,-0.793675 1.909892,-1.69792 2.708985,-2.695312 l 2.892578,1.126953 c 0.803351,-1.111055 1.491025,-2.30114 2.050781,-3.552735 L 39.8125,30.21875 c 0.236918,-0.594237 0.438936,-1.201221 0.607422,-1.818359 0.158239,-0.618088 0.283284,-1.245003 0.371094,-1.876953 l 3.091796,-0.47461 c 0.01771,-0.16959 0.02766,-0.339876 0.04102,-0.509766 z"
         style="color:#000000;clip-rule:nonzero;display:inline;overflow:visible;visibility:visible;opacity:0.2;isolation:auto;mix-blend-mode:normal;color-interpolation:sRGB;color-interpolation-filters:linearRGB;solid-color:#000000;solid-opacity:1;fill:url(#linearGradient4246);fill-opacity:1;fill-rule:evenodd;stroke:none;stroke-width:2;stroke-linecap:round;stroke-linejoin:bevel;stroke-miterlimit:4;stroke-dasharray:none;stroke-dashoffset:0;stroke-opacity:1;marker:none;color-rendering:auto;image-rendering:auto;shape-rendering:auto;text-rendering:auto;enable-background:accumulate"
         inkscape:connector-curvature="0" />
      <path
         sodipodi:nodetypes="ccccccccccccccccccccccccccccccccccccccccccccccccccccccccccccccccccccccc"
         inkscape:connector-curvature="0"
         id="path4162-6"
         d="m 41.882812,15.123047 -2.078124,1.666015 c 0.09619,0.25884 0.186062,0.519986 0.269531,0.783204 l 2.171875,-1.740235 C 42.129719,15.593314 42.008601,15.35694 41.882812,15.123047 Z M 6.125,15.128906 c -0.1244997,0.23457 -0.2443152,0.471596 -0.359375,0.710938 l 2.1542969,1.726562 C 8.0027149,17.30255 8.0919345,17.040753 8.1875,16.78125 Z m -2.0917969,8.361328 c -0.029269,0.853616 -0.00383,1.708231 0.076172,2.558594 l 3.1015625,0.47461 c 0.1524895,0.987221 0.3916963,1.95908 0.7148437,2.904296 l 0.2695313,-0.216796 c -0.4655008,-1.18832 -0.7957062,-2.42528 -0.984375,-3.6875 L 4.109375,25.048828 C 4.063719,24.530485 4.038309,24.010558 4.0332031,23.490234 Z m 39.9335939,0.01953 c -0.0082,0.513909 -0.03622,1.027311 -0.08398,1.539062 l -3.091796,0.47461 c -0.08837,0.632122 -0.212262,1.258766 -0.371099,1.876955 -0.168109,0.617063 -0.370905,1.224148 -0.607422,1.818359 l 0.267578,0.214844 c 0.124273,-0.340688 0.237612,-0.685265 0.339844,-1.033203 0.158835,-0.618189 0.282729,-1.244832 0.371094,-1.876953 l 3.091796,-0.47461 c 0.08177,-0.843719 0.109822,-1.691784 0.08398,-2.539064 z M 41.875,31.871094 c -0.484384,0.992335 -1.05012,1.942849 -1.691406,2.841797 l -2.892578,-1.126953 c -0.798824,0.997396 -1.707559,1.901545 -2.708985,2.695312 l 0.291016,0.744141 c 0.88628,-0.729434 1.696403,-1.546756 2.417969,-2.439453 l 2.892578,1.126953 c 0.803557,-1.110824 1.490764,-2.30133 2.050781,-3.552735 z m -35.7578125,0.0059 -0.3632813,0.291016 c 0.5614935,1.250218 1.2500075,2.43941 2.0546876,3.548828 L 10.71875,34.582031 c 0.714615,0.901357 1.518866,1.727858 2.400391,2.466797 l 0.294921,-0.757812 C 12.416666,35.492192 11.512517,34.583457 10.71875,33.582031 L 7.8085938,34.716797 C 7.1674003,33.818473 6.6016667,32.868616 6.1171875,31.876953 Z m 24.0937505,6.927735 c -1.18832,0.4655 -2.42528,0.795706 -3.6875,0.984374 l -0.47461,3.101563 c -1.36255,0.137699 -2.73564,0.135086 -4.097656,-0.0078 L 21.476562,39.79107 C 20.84444,39.702688 20.217796,39.578775 19.599609,39.419922 18.982546,39.251813 18.375461,39.049017 17.78125,38.8125 l -1.941406,2.421875 C 14.703893,40.72088 13.61844,40.102303 12.597656,39.386719 l -0.310547,0.796875 c 1.110824,0.803557 2.30133,1.490764 3.552735,2.050781 L 17.78125,39.8125 c 0.594211,0.236517 1.201296,0.439313 1.818359,0.607422 0.618189,0.158835 1.244832,0.282729 1.876953,0.371094 l 0.47461,3.091796 c 1.362016,0.142886 2.735106,0.145499 4.097656,0.0078 l 0.47461,-3.101563 c 1.26222,-0.188668 2.49918,-0.518874 3.6875,-0.984374 l 1.957031,2.441406 c 1.250218,-0.561494 2.43941,-1.250008 3.548828,-2.054688 L 35.40625,39.396484 c -1.019465,0.716048 -2.103604,1.335276 -3.238281,1.84961 l -1.957031,-2.441406 z"
         style="color:#000000;opacity:0.2;fill:#172525;stroke-width:3;stroke-linecap:round;stroke-linejoin:round" />
    </g>
    <circle
       cx="-102.93867"
       cy="110.41305"
       r="65.026268"
       id="path4212"
       style="color:#000000;fill:url(#linearGradient4282);stroke-width:15.00606155;stroke-linecap:round;stroke-linejoin:round"
       transform="rotate(-165)" />
    <circle
       cx="-102.93867"
       cy="110.41305"
       r="60.024239"
       id="path4212-9"
       style="color:#000000;fill:url(#linearGradient4282-1);stroke-width:15.00606155;stroke-linecap:round;stroke-linejoin:round"
       transform="rotate(-165)" />
    <path
       inkscape:connector-curvature="0"
       style="color:#000000;fill:url(#linearGradient4508);stroke-width:15.00606155;stroke-linecap:round;stroke-linejoin:round"
       id="path4498"
       d="m 128.86152,-78.977081 c 14.29468,18.629195 16.5493,40.892993 5.03583,49.727596 -11.51348,8.834604 -34.84037,1.438546 -49.13505,-17.190653 -14.294689,-18.629195 -14.144058,-41.437027 -2.630587,-50.271626 11.51348,-8.834596 32.435117,-0.894511 46.729807,17.734683 z" />
    <path
       inkscape:connector-curvature="0"
       style="fill:#334545;fill-rule:evenodd;stroke-width:5.00202036"
       id="path4510"
       d="m 82.989904,-60.00018 20.008086,20.008081 10.00404,-30.012122 z" />
  </g>
</svg>
