<?xml version="1.0" encoding="UTF-8" standalone="no"?>
<!-- Created with Inkscape (http://www.inkscape.org/) -->

<svg
   xmlns:dc="http://purl.org/dc/elements/1.1/"
   xmlns:cc="http://creativecommons.org/ns#"
   xmlns:rdf="http://www.w3.org/1999/02/22-rdf-syntax-ns#"
   xmlns:svg="http://www.w3.org/2000/svg"
   xmlns="http://www.w3.org/2000/svg"
   xmlns:xlink="http://www.w3.org/1999/xlink"
   xmlns:sodipodi="http://sodipodi.sourceforge.net/DTD/sodipodi-0.dtd"
   xmlns:inkscape="http://www.inkscape.org/namespaces/inkscape"
   width="256"
   height="256"
   viewBox="0 0 67.733332 67.733335"
   version="1.1"
   id="svg882"
   sodipodi:docname="krita.svg"
   inkscape:version="0.92.5 (2060ec1f9f, 2020-04-08)">
  <defs
     id="defs876">
    <radialGradient
       id="SVGID_2_"
       cx="158.10989"
       cy="183.8681"
       r="197.5515"
       fx="144.1669"
       fy="326.50751"
       gradientTransform="matrix(1,0,0,-1,0,256)"
       gradientUnits="userSpaceOnUse">
      <stop
         offset="0.05465172"
         style="stop-color:#e167e1;stop-opacity:0.84189725"
         id="stop21" />
      <stop
         offset="0.99879998"
         style="stop-color:#ff43ff;stop-opacity:0"
         id="stop25" />
    </radialGradient>
    <radialGradient
       id="SVGID_1_"
       cx="203.4938"
       cy="-151.1386"
       r="200.87781"
       fx="273.34"
       fy="-339.48251"
       gradientTransform="matrix(-0.3694,0.9293,0.9364,0.3722,367.3826,-0.3594)"
       gradientUnits="userSpaceOnUse">
      <stop
         offset="0.05735762"
         style="stop-color:#eaf277;stop-opacity:0.89803922"
         id="stop14" />
      <stop
         offset="0.99999988"
         style="stop-color:#eaf277;stop-opacity:0.19607843"
         id="stop16" />
    </radialGradient>
    <radialGradient
       inkscape:collect="always"
       xlink:href="#SVGID_1_"
       id="radialGradient1495"
       cx="10.510586"
       cy="287.76492"
       fx="10.510586"
       fy="287.76492"
       r="33.336651"
       gradientTransform="matrix(2.4764642,0.62883055,-0.43868657,1.7276382,108.37823,-214.86014)"
       gradientUnits="userSpaceOnUse" />
    <radialGradient
       inkscape:collect="always"
       xlink:href="#SVGID_2_"
       id="radialGradient838"
       cx="64.244179"
       cy="239.59364"
       fx="64.244179"
       fy="239.59364"
       r="33.336649"
       gradientTransform="matrix(0.65971947,-0.81127725,1.0218746,0.83097441,-224.17144,91.245843)"
       gradientUnits="userSpaceOnUse" />
  </defs>
  <sodipodi:namedview
     id="base"
     pagecolor="#ffffff"
     bordercolor="#666666"
     borderopacity="1.0"
     inkscape:pageopacity="0.0"
     inkscape:pageshadow="2"
     inkscape:zoom="1.979899"
     inkscape:cx="107.41709"
     inkscape:cy="132.58068"
     inkscape:document-units="px"
     inkscape:current-layer="layer1"
     showgrid="false"
     units="px"
     inkscape:window-width="1920"
     inkscape:window-height="1004"
     inkscape:window-x="0"
     inkscape:window-y="0"
     inkscape:window-maximized="1" />
  <metadata
     id="metadata879">
    <rdf:RDF>
      <cc:Work
         rdf:about="">
        <dc:format>image/svg+xml</dc:format>
        <dc:type
           rdf:resource="http://purl.org/dc/dcmitype/StillImage" />
        <dc:title />
      </cc:Work>
    </rdf:RDF>
  </metadata>
  <g
     inkscape:label="Layer 1"
     inkscape:groupmode="layer"
     id="layer1"
     transform="translate(0,-229.26665)">
    <g
       transform="matrix(0.26458333,0,0,0.26458333,0.38996085,228.86898)"
       class="st0"
       id="g10"
       style="opacity:0.1">
      <g
         id="g8">
        <path
           d="m 132.8,0.5 c 6.2,0 18.1,0.3 33.3,2.3 23.7,3.1 45.1,11.5 60.8,26.3 v 0 c 14.7,15.7 23.1,37.1 26.2,60.9 3,22.6 2.3,38 2.3,38 0,0 0.7,15.4 -2.3,38 -3.1,23.7 -11.5,45.1 -26.3,60.9 v 0 c -15.7,14.8 -37.1,23.1 -60.8,26.3 -15.1,2 -27,2.3 -33.2,2.3 -3.1,0 -4.7,-0.1 -4.7,-0.1 0,0 -1.7,0.1 -4.7,0.1 -6.2,0 -18.1,-0.3 -33.2,-2.3 -23.7,-3.1 -45.1,-11.5 -60.8,-26.3 v 0 C 14.4,211.2 6,189.8 2.9,166 -0.1,143.4 0.6,128 0.6,128 0.6,128 -0.1,112.6 2.9,90 6,66.2 14.4,44.8 29.2,29.1 v 0 C 44.8,14.3 66.3,5.9 89.9,2.8 c 15.1,-2 27,-2.3 33.3,-2.3 3.1,0 4.7,0.1 4.7,0.1 0,0 1.8,-0.1 4.9,-0.1"
           id="path6"
           inkscape:connector-curvature="0" />
      </g>
    </g>
    <path
       inkscape:connector-curvature="0"
       class="st1"
       d="m 66.985591,252.78731 c -0.82021,-6.19125 -3.01625,-11.80041 -6.87917,-15.90146 v 0 c -4.1275,-3.86291 -9.71021,-6.05895 -15.90146,-6.87916 -5.92666,-0.79375 -9.94833,-0.60854 -9.94833,-0.60854 0,0 -4.02167,-0.18521 -9.94833,0.60854 -6.19125,0.82021 -11.80042,3.01625 -15.9014601,6.87916 -3.86292,4.10105 -6.0325,9.71021 -6.87917,15.90146 -0.79375005,5.90021 -0.58208005,9.94834 -0.58208005,9.94834 0,0 -0.18521,4.02166 0.58208005,9.94833 0.82021,6.19125 3.01625,11.80042 6.87917,15.90146 v 0 c 4.1275001,3.86291 9.7102101,6.05896 15.9014601,6.87916 5.9002,0.79375 9.94833,0.58209 9.94833,0.58209 0,0 4.02167,0.18521 9.94833,-0.58209 6.19125,-0.8202 11.80042,-3.01625 15.90146,-6.87916 v 0 c 3.86292,-4.1275 6.05896,-9.71021 6.87917,-15.90146 0.79375,-5.90021 0.58208,-9.94833 0.58208,-9.94833 0,0 0.21167,-4.02167 -0.58208,-9.94834"
       id="path12"
       style="fill:#22bdd4;fill-opacity:1;stroke-width:0.26458332" />
    <path
       inkscape:connector-curvature="0"
       class="st2"
       d="m 66.985591,252.78731 c -0.82021,-6.19125 -3.01625,-11.80041 -6.87917,-15.90146 v 0 c -4.1275,-3.86291 -9.71021,-6.05895 -15.90146,-6.87916 -5.92666,-0.79375 -9.94833,-0.60854 -9.94833,-0.60854 0,0 -4.02167,-0.18521 -9.94833,0.60854 -6.19125,0.82021 -11.80042,3.01625 -15.9014601,6.87916 -3.86292,4.10105 -6.0325,9.71021 -6.87917,15.90146 -0.79375005,5.90021 -0.58208005,9.94834 -0.58208005,9.94834 0,0 -0.18521,4.02166 0.58208005,9.94833 0.82021,6.19125 3.01625,11.80042 6.87917,15.90146 v 0 c 4.1275001,3.86291 9.7102101,6.05896 15.9014601,6.87916 5.9002,0.79375 9.94833,0.58209 9.94833,0.58209 0,0 4.02167,0.18521 9.94833,-0.58209 6.19125,-0.8202 11.80042,-3.01625 15.90146,-6.87916 v 0 c 3.86292,-4.1275 6.05896,-9.71021 6.87917,-15.90146 0.79375,-5.90021 0.58208,-9.94833 0.58208,-9.94833 0,0 0.21167,-4.02167 -0.58208,-9.94834"
       id="path19"
       style="fill:url(#radialGradient1495);fill-opacity:1;stroke-width:0.26458332" />
    <path
       inkscape:connector-curvature="0"
       class="st3"
       d="m 66.985591,252.78731 c -0.82021,-6.19125 -3.01625,-11.80041 -6.87917,-15.90146 v 0 c -4.1275,-3.86291 -9.71021,-6.05895 -15.90146,-6.87916 -5.92666,-0.79375 -9.94833,-0.60854 -9.94833,-0.60854 0,0 -4.02167,-0.18521 -9.94833,0.60854 -6.19125,0.82021 -11.80042,3.01625 -15.9014601,6.87916 -3.86292,4.10105 -6.0325,9.71021 -6.87917,15.90146 -0.79375005,5.90021 -0.58208005,9.94834 -0.58208005,9.94834 0,0 -0.18521,4.02166 0.58208005,9.94833 0.82021,6.19125 3.01625,11.80042 6.87917,15.90146 v 0 c 4.1275001,3.86291 9.7102101,6.05896 15.9014601,6.87916 5.9002,0.79375 9.94833,0.58209 9.94833,0.58209 0,0 4.02167,0.18521 9.94833,-0.58209 6.19125,-0.8202 11.80042,-3.01625 15.90146,-6.87916 v 0 c 3.86292,-4.1275 6.05896,-9.71021 6.87917,-15.90146 0.79375,-5.90021 0.58208,-9.94833 0.58208,-9.94833 0,0 0.21167,-4.02167 -0.58208,-9.94834"
       id="path28"
       style="fill:url(#radialGradient838);fill-opacity:1;stroke-width:0.26458332" />
    <g
       transform="matrix(0.31773155,0,0,0.31773155,-21.528615,216.4289)"
       id="g16">
      <path
         style="fill:#ffffff"
         inkscape:connector-curvature="0"
         id="path12-3"
         d="m 167.2,175.1 -20.4,-11.8 c 16.1,-26.3 32.2,-52.6 48.3,-78.9 2.5,-4.1 7.9,-5.5 12.1,-3.1 l 1,0.6 c 4.5,2.5 6.1,8.2 3.6,12.7 -14.1,26.6 -28.3,53.1 -42.3,79.7 -0.4,1 -1.5,1.3 -2.3,0.8 z"
         class="st2" />
      <path
         style="fill:#ffffff"
         inkscape:connector-curvature="0"
         id="path14"
         d="m 136.2,215.9 c -2.6,0.1 -4.6,-3 -5,-3.6 -7.4,-7.8 -9.8,-19 -6,-28.8 3.7,-9.8 12.1,-14.1 16.6,-15.9 1.8,-0.7 3.8,-0.5 5.5,0.5 l 16.1,9.3 c 1.6,0.9 1.8,3.1 0.5,4.4 -9.7,8.5 -13.6,14.9 -15.5,19.5 -1.8,4.5 -4.2,7.3 -9.2,12.8 -0.4,0.5 -1.4,1.7 -3,1.8 z"
         class="st2" />
    </g>
  </g>
</svg>
