<?xml version="1.0" encoding="utf-8"?>
<!-- Generator: Adobe Illustrator 23.0.0, SVG Export Plug-In . SVG Version: 6.00 Build 0)  -->
<svg version="1.1" id="레이어_1" xmlns="http://www.w3.org/2000/svg" xmlns:xlink="http://www.w3.org/1999/xlink" x="0px"
	 y="0px" viewBox="0 0 256 256" style="enable-background:new 0 0 256 256;" xml:space="preserve">
<style type="text/css">
	.st0{opacity:0.1;}
	.st1{fill:#FEC006;}
	.st2{fill:#F7931E;}
	.st3{fill:#FFFFFF;}
	.st4{fill:#7A7A7A;}
</style>
<g class="st0">
	<g>
		<path d="M132.8,0.5c6.2,0,18.1,0.3,33.3,2.3c23.7,3.1,45.1,11.5,60.8,26.3l0,0C241.6,44.8,250,66.2,253.1,90c3,22.6,2.3,38,2.3,38
			s0.7,15.4-2.3,38c-3.1,23.7-11.5,45.1-26.3,60.9l0,0c-15.7,14.8-37.1,23.1-60.8,26.3c-15.1,2-27,2.3-33.2,2.3
			c-3.1,0-4.7-0.1-4.7-0.1s-1.7,0.1-4.7,0.1c-6.2,0-18.1-0.3-33.2-2.3c-23.7-3.1-45.1-11.5-60.8-26.3l0,0
			C14.4,211.2,6,189.8,2.9,166c-3-22.6-2.3-38-2.3-38s-0.7-15.4,2.3-38C6,66.2,14.4,44.8,29.2,29.1l0,0C44.8,14.3,66.3,5.9,89.9,2.8
			c15.1-2,27-2.3,33.3-2.3c3.1,0,4.7,0.1,4.7,0.1S129.7,0.5,132.8,0.5"/>
	</g>
</g>
<path class="st1" d="M251.7,90.4c-3.1-23.4-11.4-44.6-26-60.1l0,0c-15.6-14.6-36.7-22.9-60.1-26C143.2,1.3,128,2,128,2
	s-15.2-0.7-37.6,2.3C67,7.4,45.8,15.7,30.3,30.3C15.7,45.8,7.5,67,4.3,90.4c-3,22.3-2.2,37.6-2.2,37.6s-0.7,15.2,2.2,37.6
	c3.1,23.4,11.4,44.6,26,60.1l0,0c15.6,14.6,36.7,22.9,60.1,26c22.3,3,37.6,2.2,37.6,2.2s15.2,0.7,37.6-2.2
	c23.4-3.1,44.6-11.4,60.1-26l0,0c14.6-15.6,22.9-36.7,26-60.1c3-22.3,2.2-37.6,2.2-37.6S254.7,112.8,251.7,90.4"/>
<g>
	<path class="st2" d="M193,47c0-4.9-4-9-9-9h-39l48,48V47z"/>
	<path class="st3" d="M130.4,38H72c-4.9,0-9,4-9,9V209c0,4.9,4,9,9,9H184c4.9,0,9-4,9-9V101.3C172.1,80.2,151.3,59.1,130.4,38z"/>
</g>
<path class="st4" d="M167.2,117c-2.2-1.6-3.9-2.6-6.1-2.7c-4-0.2-6.8,2.7-7.2,3c-2.8,2.9-2.9,6.7-2.9,11c0,3.4,0.4,9,3.1,15.6
	c0.1,0.7,1.5,9.4-1.8,10.9c-0.5,0.2-1.7,0.5-4.8-1.3c-7.3-4.4-8.2-10.4-16.2-18.2c-1.3-1.2-2.2-2.1-3.7-3.1
	c-1.8-1.2-6.6-4.5-13.4-4.3c-2,0.1-8.7,0.7-13.2,5.7c-2,2.3-2.9,5-4.7,10.4c-1.5,4.5-2.3,8.3-2.8,11c-5.2,0-10.3,0-15.5,0
	c0,2.2,0,4.3,0,6.5c5.1,0,10.2,0,15.3,0c-0.3,4.7-0.6,18.6,8.4,28.2c3.3,3.6,6.1,4.7,7.3,5.2c7.4,2.6,17.8-0.1,21.6-7.4
	c4.8-9.3-4-20.3-9.3-24.5c-4.1-3.2-8.9-4.7-10.2-5.2c-4.3-1.3-8.1-1.5-10.6-1.5c0.2-5.2,1.3-9.2,2.2-11.8c1.2-3.4,2-5.5,4.1-7.3
	c3.7-3.1,8.5-2.7,9.4-2.6c5.7,0.6,9.5,4.9,13,8.8c2.7,3.1,2.8,4.2,7.7,10c3.3,3.9,4.4,4.7,5.2,5.3c1.7,1.1,6.6,4.5,11.9,2.6
	c5.2-1.9,6.9-7.6,7.2-8.4c0.1-0.5,0.6-2.2,0.4-5.9c-0.2-2.9-0.8-7.3-3.1-12.6c-0.5-2.1-0.9-4.9-0.7-8.2c0.2-2.6,0.3-4.2,1.3-4.8
	c1.7-1.1,4.8,1.1,7.2,2.8c1.8,1.3,4.3,3.4,6.8,6.7c1.6-1.5,3.2-2.9,4.8-4.4C173.8,122.1,170,119,167.2,117z M111.8,166
	c3.7,1.6,7.3,3.1,10,6.7c0.8,1.1,5.6,7.7,2.5,12.7c-2.1,3.2-6.8,4.6-11.5,3.5c-1.2-0.3-2.3-0.7-3.2-1.2c-9.9-5.4-9.2-22.3-9.1-24.4
	C103.1,163.4,107.2,164.1,111.8,166z"/>
</svg>
