<?xml version="1.0" encoding="utf-8"?>
<!-- Generator: Adobe Illustrator 23.0.0, SVG Export Plug-In . SVG Version: 6.00 Build 0)  -->
<svg version="1.1" id="레이어_1" xmlns="http://www.w3.org/2000/svg" xmlns:xlink="http://www.w3.org/1999/xlink" x="0px"
	 y="0px" viewBox="0 0 256 256" style="enable-background:new 0 0 256 256;" xml:space="preserve">
<style type="text/css">
	.st0{opacity:0.1;}
	.st1{fill:#9933CC;}
	.st2{fill:#662D91;}
	.st3{fill:#FFFFFF;}
	.st4{fill:#F7931E;}
</style>
<g class="st0">
	<g>
		<path d="M132.8,0.5c6.2,0,18.1,0.3,33.3,2.3c23.7,3.1,45.1,11.5,60.8,26.3l0,0C241.6,44.8,250,66.2,253.1,90c3,22.6,2.3,38,2.3,38
			s0.7,15.4-2.3,38c-3.1,23.7-11.5,45.1-26.3,60.9l0,0c-15.7,14.8-37.1,23.1-60.8,26.3c-15.1,2-27,2.3-33.2,2.3
			c-3.1,0-4.7-0.1-4.7-0.1s-1.7,0.1-4.7,0.1c-6.2,0-18.1-0.3-33.2-2.3c-23.7-3.1-45.1-11.5-60.8-26.3l0,0
			C14.4,211.2,6,189.8,2.9,166c-3-22.6-2.3-38-2.3-38s-0.7-15.4,2.3-38C6,66.2,14.4,44.8,29.2,29.1l0,0C44.8,14.3,66.3,5.9,89.9,2.8
			c15.1-2,27-2.3,33.3-2.3c3.1,0,4.7,0.1,4.7,0.1S129.7,0.5,132.8,0.5"/>
	</g>
</g>
<path class="st1" d="M251.7,90.4c-3.1-23.4-11.4-44.6-26-60.1l0,0c-15.6-14.6-36.7-22.9-60.1-26C143.2,1.3,128,2,128,2
	s-15.2-0.7-37.6,2.3C67,7.4,45.8,15.7,30.3,30.3C15.7,45.8,7.5,67,4.3,90.4c-3,22.3-2.2,37.6-2.2,37.6s-0.7,15.2,2.2,37.6
	c3.1,23.4,11.4,44.6,26,60.1l0,0c15.6,14.6,36.7,22.9,60.1,26c22.3,3,37.6,2.2,37.6,2.2s15.2,0.7,37.6-2.2
	c23.4-3.1,44.6-11.4,60.1-26l0,0c14.6-15.6,22.9-36.7,26-60.1c3-22.3,2.2-37.6,2.2-37.6S254.7,112.8,251.7,90.4"/>
<g>
	<path class="st2" d="M193,47c0-4.9-4-9-9-9h-39l48,48V47z"/>
	<path class="st3" d="M130.4,38H72c-4.9,0-9,4-9,9V209c0,4.9,4,9,9,9H184c4.9,0,9-4,9-9V101.3C172.1,80.2,151.3,59.1,130.4,38z"/>
</g>
<path class="st4" d="M186,142.6"/>
<path class="st1" d="M128,123.7c-15.2,0-27.5,5.6-27.5,12.5v55c0,6.9,12.3,12.5,27.5,12.5s27.5-5.6,27.5-12.5v-55
	C155.5,129.3,143.2,123.7,128,123.7z"/>
<path class="st3" d="M149,145c-4,1.8-11.1,4.3-20.1,4.5c-10,0.2-17.7-2.5-21.8-4.4c0,1.2,0,2.5-0.1,3.7c0,0.6,0,1.2,0,1.8
	c0,12.4,0,24.8,0.1,37.3h0c0.2,4.1,11,8.8,20.7,8.9c9.9,0.1,21-4.7,21.1-8.9h0c0-10.2,0.1-20.4,0.1-30.6c0-2.4,0-4.8,0-7.3
	C149,148.3,149,146.6,149,145z"/>
</svg>
