<?xml version="1.0" encoding="UTF-8" standalone="no"?>
<svg
   xmlns:dc="http://purl.org/dc/elements/1.1/"
   xmlns:cc="http://creativecommons.org/ns#"
   xmlns:rdf="http://www.w3.org/1999/02/22-rdf-syntax-ns#"
   xmlns:svg="http://www.w3.org/2000/svg"
   xmlns="http://www.w3.org/2000/svg"
   xmlns:xlink="http://www.w3.org/1999/xlink"
   xmlns:sodipodi="http://sodipodi.sourceforge.net/DTD/sodipodi-0.dtd"
   xmlns:inkscape="http://www.inkscape.org/namespaces/inkscape"
   version="1.1"
   id="레이어_1"
   x="0px"
   y="0px"
   viewBox="0 0 256 256"
   style="enable-background:new 0 0 256 256;"
   xml:space="preserve"
   sodipodi:docname="lollypop.svg"
   inkscape:version="1.0.2 (e86c870879, 2021-01-15)"><metadata
   id="metadata53"><rdf:RDF><cc:Work
       rdf:about=""><dc:format>image/svg+xml</dc:format><dc:type
         rdf:resource="http://purl.org/dc/dcmitype/StillImage" /><dc:title></dc:title></cc:Work></rdf:RDF></metadata><defs
   id="defs51">
	
	
	

		<defs
   id="defs19">
			<path
   id="SVGID_3_"
   d="M 251.7,90.4 C 248.6,67 240.3,45.8 225.7,30.2 v 0 C 210.2,15.6 189,7.3 165.6,4.2 143.2,1.3 128,2 128,2 128,2 112.8,1.3 90.4,4.2 67,7.4 45.8,15.7 30.3,30.3 15.7,45.8 7.4,67 4.3,90.4 1.3,112.8 2.1,128 2.1,128 c 0,0 -0.7,15.2 2.2,37.6 3.1,23.4 11.4,44.6 26,60.1 v 0 c 15.5,14.6 36.7,22.9 60.1,26 22.3,3 37.6,2.2 37.6,2.2 0,0 15.2,0.7 37.6,-2.2 23.4,-3.1 44.6,-11.4 60.1,-26 v 0 c 14.6,-15.5 22.9,-36.7 26,-60.1 3,-22.4 2.2,-37.6 2.2,-37.6 0,0 0.7,-15.2 -2.2,-37.6"
   inkscape:connector-curvature="0" />
		</defs>
		
		<clipPath
   id="SVGID_4_">
			<use
   xlink:href="#SVGID_3_"
   style="overflow:visible"
   id="use23"
   x="0"
   y="0"
   width="100%"
   height="100%" />
		</clipPath>
		
	<linearGradient
   id="a"
   x2="0"
   y1="47"
   y2="1"
   gradientTransform="matrix(5.4782667,0,0,5.4787515,-3.480058,-3.3838421)"
   gradientUnits="userSpaceOnUse"><stop
     stop-color="#ed4964"
     offset="0"
     id="stop915" /><stop
     stop-color="#ef5b74"
     offset="1"
     id="stop917" /></linearGradient></defs><sodipodi:namedview
   pagecolor="#ffffff"
   bordercolor="#666666"
   borderopacity="1"
   objecttolerance="10"
   gridtolerance="10"
   guidetolerance="10"
   inkscape:pageopacity="0"
   inkscape:pageshadow="2"
   inkscape:window-width="1852"
   inkscape:window-height="1048"
   id="namedview49"
   showgrid="false"
   inkscape:zoom="1.3037281"
   inkscape:cx="-51.005011"
   inkscape:cy="165.67445"
   inkscape:window-x="68"
   inkscape:window-y="32"
   inkscape:window-maximized="1"
   inkscape:current-layer="레이어_1"
   inkscape:document-rotation="0"
   showguides="true" />
<style
   type="text/css"
   id="style2">
	.st0{opacity:0.1;}
	.st1{clip-path:url(#SVGID_4_);fill:#744DB1;}
	.st2{fill:#B59FEE;}
	.st3{fill:#FFFFFF;}
	.st4{fill:#6342A4;}
</style>
<g
   class="st0"
   id="g8">
	<g
   id="g6">
		<path
   d="M132.7,0.5c6.2,0,18.1,0.3,33.3,2.3c23.7,3.1,45.1,11.5,60.9,26.3h0C241.6,44.8,250,66.3,253.2,90c3,22.6,2.3,38,2.3,38    s0.7,15.4-2.3,38c-3.1,23.7-11.5,45.1-26.3,60.9l0,0c-15.7,14.8-37.2,23.2-60.9,26.3c-15.1,2-27.1,2.3-33.3,2.3    c-3.1,0-4.7-0.1-4.7-0.1s-1.7,0.1-4.7,0.1c-6.2,0-18.1-0.3-33.3-2.3c-23.7-3.1-45.1-11.5-60.9-26.3l0,0    C14.4,211.2,6,189.7,2.8,166c-3-22.6-2.3-38-2.3-38s-0.7-15.4,2.3-38C6,66.3,14.4,44.8,29.1,29.1h0C44.9,14.3,66.3,5.9,90,2.8    c15.2-2,27.1-2.3,33.3-2.3c3.1,0,4.7,0.1,4.7,0.1S129.7,0.5,132.7,0.5"
   id="path4" />
	</g>
</g>
<path
   id="use21"
   d="M 251.7,90.4 C 248.6,67 240.3,45.8 225.7,30.2 v 0 C 210.2,15.6 189,7.3 165.6,4.2 143.2,1.3 128,2 128,2 128,2 112.8,1.3 90.4,4.2 67,7.4 45.8,15.7 30.3,30.3 15.7,45.8 7.4,67 4.3,90.4 1.3,112.8 2.1,128 2.1,128 c 0,0 -0.7,15.2 2.2,37.6 3.1,23.4 11.4,44.6 26,60.1 v 0 c 15.5,14.6 36.7,22.9 60.1,26 22.3,3 37.6,2.2 37.6,2.2 0,0 15.2,0.7 37.6,-2.2 23.4,-3.1 44.6,-11.4 60.1,-26 v 0 c 14.6,-15.5 22.9,-36.7 26,-60.1 3,-22.4 2.2,-37.6 2.2,-37.6 0,0 0.7,-15.2 -2.2,-37.6"
   inkscape:connector-curvature="0"
   style="fill:#ffffff;fill-opacity:1" />


<path
   d="m 591.32656,90.337969 c 72.648,0 83.031,10.357001 83.031,82.936991 v 58.125 c 0,72.58101 -10.383,82.93801 -83.031,82.93801 h -73.938 c -72.64799,0 -83.03099,-10.357 -83.03099,-82.93801 v -58.124 c 0,-72.57999 10.383,-82.936991 83.03099,-82.936991 z"
   fill="#fe4068"
   id="path26" /><path
   id="use21-6"
   style="fill:#fe4068;fill-opacity:1"
   d="M 122.00977 1.9316406 C 118.79883 1.9565406 114.39649 2.0716547 109.04688 2.40625 C 106.37207 2.5735477 103.45972 2.7960049 100.3418 3.0898438 C 97.223876 3.3836826 93.90039 3.7480469 90.400391 4.2011719 C 89.627171 4.3069119 88.863993 4.4338612 88.095703 4.5507812 C 66.925516 7.7723391 47.675108 15.245317 32.986328 27.894531 C 32.07552 28.678872 31.175884 29.476491 30.300781 30.300781 C 28.475781 32.238281 26.749414 34.264268 25.119141 36.373047 C 25.118831 36.373447 25.11945 36.3746 25.119141 36.375 C 22.674107 39.537802 20.444877 42.884891 18.425781 46.394531 C 18.425503 46.395015 18.42606 46.396 18.425781 46.396484 C 17.079864 48.736088 15.826073 51.148349 14.664062 53.625 C 13.501807 56.102173 12.429834 58.64353 11.447266 61.244141 C 10.464697 63.844751 9.5708496 66.504464 8.7636719 69.214844 C 7.9564942 71.925223 7.2356934 74.685708 6.5996094 77.492188 C 6.5994689 77.492807 6.5997498 77.493521 6.5996094 77.494141 C 5.9637028 80.300021 5.4125431 83.150789 4.9433594 86.039062 C 4.9432562 86.039698 4.9434626 86.04038 4.9433594 86.041016 C 4.7088367 87.484846 4.4944463 88.938532 4.3007812 90.400391 C 4.1039722 91.869898 3.9251743 93.303697 3.7597656 94.708984 C 3.5946169 96.112063 3.4469798 97.477942 3.3105469 98.8125 C 3.0375997 101.48241 2.8258758 103.98095 2.6523438 106.34961 C 2.6518805 106.35594 2.6508533 106.36282 2.6503906 106.36914 C 1.6752236 119.69455 2.0996094 128.00195 2.0996094 128.00195 C 2.0996094 128.00195 1.4573948 142.22638 4.0332031 163.40625 C 4.1220879 164.13712 4.2040474 164.85438 4.3007812 165.60156 C 4.6882813 168.52656 5.1568359 171.41622 5.7089844 174.26562 C 5.7091058 174.26625 5.708863 174.26695 5.7089844 174.26758 C 6.2610479 177.11634 6.8962527 179.92406 7.6171875 182.68359 C 7.6173467 182.6842 7.6170283 182.68494 7.6171875 182.68555 C 7.9775941 184.065 8.3602612 185.43252 8.7636719 186.78711 C 8.860951 187.11378 8.9705131 187.43265 9.0703125 187.75781 C 9.7986219 190.13063 10.583084 192.47054 11.447266 194.75781 C 11.93855 196.05812 12.452344 197.34298 12.988281 198.61328 C 12.988515 198.61384 12.988047 198.61468 12.988281 198.61523 C 13.524006 199.88497 14.083186 201.1389 14.664062 202.37695 C 14.951269 202.98912 15.26025 203.58535 15.558594 204.18945 C 15.863844 204.80751 16.157633 205.43356 16.474609 206.04297 C 16.47501 206.04374 16.476161 206.04415 16.476562 206.04492 C 19.610581 212.06985 23.319533 217.66706 27.636719 222.72852 C 27.637047 222.7289 27.636391 222.73008 27.636719 222.73047 C 28.499972 223.74251 29.388614 224.73277 30.300781 225.70117 C 31.058638 226.41503 31.837927 227.10631 32.626953 227.78516 C 33.287479 228.36079 33.961614 228.92006 34.640625 229.47461 C 49.653047 241.73537 69.107724 248.88035 90.400391 251.70117 C 94.319794 252.22845 98.007371 252.63178 101.44922 252.94922 C 103.27428 253.11754 104.98485 253.25102 106.65625 253.37109 C 107.88663 253.45967 109.02302 253.52775 110.16406 253.59375 C 110.90897 253.63672 111.70336 253.6922 112.4082 253.72656 C 112.57133 253.73451 112.7004 253.73662 112.86133 253.74414 C 114.35969 253.81452 115.77966 253.86881 117.08008 253.90625 C 117.88347 253.92911 118.5583 253.94032 119.28125 253.95312 C 119.99622 253.96612 120.70064 253.98126 121.33398 253.98633 C 121.98021 253.99126 122.52065 253.9916 123.07812 253.99023 C 123.6292 253.98927 124.12004 253.98762 124.58203 253.98242 C 125.06158 253.9768 125.27084 253.97489 125.65039 253.9668 C 127.13755 253.93877 128 253.90039 128 253.90039 C 128 253.90039 128.94965 253.94446 130.72461 253.96484 C 132.49976 253.98523 135.1002 253.98232 138.40039 253.88867 C 140.05087 253.84183 141.87628 253.77246 143.86133 253.67188 C 147.82973 253.47082 152.43472 253.14554 157.55273 252.62891 C 157.55336 252.62884 157.55406 252.62897 157.55469 252.62891 C 160.11351 252.37059 162.80032 252.06356 165.59961 251.70117 C 166.27743 251.61137 166.94705 251.50285 167.62109 251.4043 C 167.6212 251.40368 167.62098 251.40296 167.62109 251.40234 C 190.19335 248.10208 210.60582 239.89446 225.65234 225.74414 C 225.66779 225.72962 225.68379 225.71571 225.69922 225.70117 C 225.69958 225.70084 225.70082 225.70151 225.70117 225.70117 C 240.30117 210.20117 248.60117 189.00157 251.70117 165.60156 C 251.71639 165.48792 251.72522 165.38668 251.74023 165.27344 C 252.02018 163.1633 252.26018 161.13421 252.47656 159.16016 C 252.50711 158.87991 252.54096 158.59569 252.57031 158.31836 C 252.78821 156.27183 252.97084 154.31548 253.12891 152.43555 C 253.13415 152.37316 253.14325 152.30244 253.14844 152.24023 C 253.14777 152.23963 253.14715 152.23888 253.14648 152.23828 C 254.38392 137.3866 253.90039 128.00195 253.90039 128.00195 C 253.90039 128.00195 254.5501 113.63586 251.92969 92.283203 C 251.9303 92.283381 251.93103 92.283025 251.93164 92.283203 C 251.85454 91.654601 251.7841 91.040956 251.70117 90.400391 C 250.15117 78.700391 247.30117 67.551759 243.01367 57.376953 C 243.01334 57.376158 243.01205 57.375795 243.01172 57.375 C 241.94012 54.832131 240.78066 52.349981 239.52734 49.935547 C 239.52694 49.934761 239.5258 49.93438 239.52539 49.933594 C 237.01826 45.10409 234.14283 40.54458 230.88281 36.308594 C 230.88225 36.307868 230.88142 36.307367 230.88086 36.306641 C 229.25108 34.189084 227.52555 32.150504 225.70117 30.201172 C 225.70082 30.20084 225.69957 30.201504 225.69922 30.201172 C 224.9057 29.453766 224.09267 28.729261 223.26562 28.019531 C 222.56869 27.414345 221.85608 26.827895 221.13867 26.246094 C 221.11387 26.225977 221.08928 26.205636 221.06445 26.185547 C 221.06386 26.185719 221.06309 26.185375 221.0625 26.185547 C 206.09075 14.072781 186.75196 7.0034058 165.59961 4.2011719 C 161.46423 3.6657884 157.67626 3.285751 154.08203 2.96875 C 154.07864 2.9684508 154.07566 2.969049 154.07227 2.96875 C 141.59067 1.8683424 133.13308 1.8841671 129.89648 1.9570312 C 128.66783 1.9757977 128 2.0019531 128 2.0019531 C 128 2.0019531 125.8629 1.9017406 122.00977 1.9316406 z M 148.0625 10.537109 C 152.55593 10.858036 157.62195 11.330354 163.2168 12.054688 C 181.0971 14.423444 197.60225 20.038669 210.95898 29.451172 C 183.03159 39.392143 152.24136 58.450278 131.95508 94.894531 C 131.95508 94.894531 119.8226 49.845506 148.0625 10.537109 z M 86.791016 13.021484 C 83.074937 40.454785 83.877148 76.523629 103.44336 107.94141 C 103.44336 107.94141 50.106612 97.830956 35.087891 38.080078 C 35.55825 37.551704 36.018735 37.015079 36.503906 36.5 C 49.682076 24.087014 67.266403 16.550458 86.791016 13.021484 z M 223.76562 87.962891 C 229.9403 88.018493 236.51459 88.691278 243.46484 90.154297 C 243.59758 91.029702 243.73468 91.902863 243.85156 92.785156 C 246.5675 113.76347 245.91211 127.99805 245.91211 127.99805 C 245.91211 127.99805 246.24012 134.83053 245.54883 145.84961 C 225.4365 129.94594 196.51587 115.06378 158.60352 115.02344 L 152.53516 147.4082 C 152.53516 147.4082 207.61725 158.63007 223.2793 215.13477 C 222.0688 216.63206 220.82142 218.09725 219.50195 219.49805 C 206.26133 231.96985 188.57313 239.51905 168.9375 242.95508 C 172.70523 215.4814 171.97438 179.24553 152.32812 147.69922 L 158.60352 115.02344 C 158.60352 115.02344 182.18473 87.58846 223.76562 87.962891 z M 10.333984 112.09961 C 31.474158 127.08736 61.525851 141.8081 97.169922 140.61719 C 97.169922 140.61719 66.134909 176.71443 12.494141 165.51953 C 12.379368 164.75057 12.256867 163.98518 12.154297 163.21094 C 9.4383548 142.23264 10.09375 127.99805 10.09375 127.99805 C 10.09375 127.99805 9.7951864 121.98206 10.333984 112.09961 z M 123.81836 160.74414 C 123.81836 160.74414 136.01174 206.00717 107.51562 245.38086 C 103.12579 245.05576 98.19013 244.57426 92.789062 243.84766 C 74.765342 241.45991 58.143257 235.76973 44.730469 226.2207 C 72.680339 216.28807 103.51125 197.22582 123.81836 160.74414 z " /><circle
   style="fill:#fe4068;stroke:none;stroke-width:5.14777;fill-opacity:1"
   id="path852"
   cx="127.0565"
   cy="129.63342"
   r="70" /><path
   id="path852-9"
   style="fill:#ffffff;stroke:none;stroke-width:4.41237"
   d="m 187.057,129.633 a 60,60 0 0 1 -60,60 60,60 0 0 1 -60,-60 60,60 0 0 1 60,-60 60,60 0 0 1 60,60 z" /><path
   class="st4"
   d="m 99.491356,102.42265 v 53.9326 c 0,5.09362 5.543074,8.38951 10.037454,5.69289 l 46.59176,-26.9663 c 4.49439,-2.54682 4.49439,-8.98876 0,-11.53558 L 109.52881,96.579962 c -4.49438,-2.397004 -10.037454,0.749064 -10.037454,5.842688 z"
   id="path46"
   inkscape:connector-curvature="0"
   style="fill:#fe4068;fill-opacity:1;stroke-width:1.49813" /></svg>
