<?xml version="1.0" encoding="UTF-8" standalone="no"?>
<!-- Generator: Adobe Illustrator 23.0.0, SVG Export Plug-In . SVG Version: 6.00 Build 0)  -->

<svg
   xmlns:dc="http://purl.org/dc/elements/1.1/"
   xmlns:cc="http://creativecommons.org/ns#"
   xmlns:rdf="http://www.w3.org/1999/02/22-rdf-syntax-ns#"
   xmlns:svg="http://www.w3.org/2000/svg"
   xmlns="http://www.w3.org/2000/svg"
   xmlns:sodipodi="http://sodipodi.sourceforge.net/DTD/sodipodi-0.dtd"
   xmlns:inkscape="http://www.inkscape.org/namespaces/inkscape"
   version="1.1"
   id="레이어_1"
   x="0px"
   y="0px"
   viewBox="0 0 256 256"
   style="enable-background:new 0 0 256 256;"
   xml:space="preserve"
   sodipodi:docname="multimedia-volume-control.svg"
   inkscape:version="0.92.5 (2060ec1f9f, 2020-04-08)"><metadata
   id="metadata17"><rdf:RDF><cc:Work
       rdf:about=""><dc:format>image/svg+xml</dc:format><dc:type
         rdf:resource="http://purl.org/dc/dcmitype/StillImage" /><dc:title></dc:title></cc:Work></rdf:RDF></metadata><defs
   id="defs15">
	
	

		
		
	</defs><sodipodi:namedview
   pagecolor="#ffffff"
   bordercolor="#666666"
   borderopacity="1"
   objecttolerance="10"
   gridtolerance="10"
   guidetolerance="10"
   inkscape:pageopacity="0"
   inkscape:pageshadow="2"
   inkscape:window-width="1920"
   inkscape:window-height="1004"
   id="namedview13"
   showgrid="false"
   inkscape:zoom="0.921875"
   inkscape:cx="128"
   inkscape:cy="128"
   inkscape:window-x="0"
   inkscape:window-y="0"
   inkscape:window-maximized="1"
   inkscape:current-layer="레이어_1" />
<style
   type="text/css"
   id="style2">
	.st0{fill:#7783FA;}
	.st1{fill:#FFFFFF;}
</style>
<path
   class="st0"
   d="M 251.7,90.4 C 248.6,67 240.3,45.8 225.7,30.3 v 0 C 210.1,15.7 189,7.4 165.6,4.3 143.2,1.3 128,2 128,2 128,2 112.8,1.3 90.4,4.3 67,7.4 45.8,15.7 30.3,30.3 15.7,45.8 7.5,67 4.3,90.4 1.3,112.7 2.1,128 2.1,128 c 0,0 -0.7,15.2 2.2,37.6 3.1,23.4 11.4,44.6 26,60.1 v 0 c 15.6,14.6 36.7,22.9 60.1,26 22.3,3 37.6,2.2 37.6,2.2 0,0 15.2,0.7 37.6,-2.2 23.4,-3.1 44.6,-11.4 60.1,-26 v 0 c 14.6,-15.6 22.9,-36.7 26,-60.1 3,-22.3 2.2,-37.6 2.2,-37.6 0,0 0.8,-15.2 -2.2,-37.6"
   id="path4"
   inkscape:connector-curvature="0"
   style="fill:#7783fa" />

<path
   style="fill:#ffffff;fill-rule:evenodd;stroke-width:12.30808067;paint-order:normal"
   d="m 172.10855,63.005278 c -4.86928,0.146358 -7.91209,6.578922 -3.15615,11.261285 14.95063,13.940132 23.45429,33.454777 23.4863,53.896037 -0.0234,20.49788 -8.56586,40.06326 -23.58246,54.0157 -5.76449,5.49224 2.1351,14.11543 8.36582,8.96844 17.5144,-16.26637 27.48223,-39.08061 27.52284,-62.98414 -0.0234,-23.85675 -9.93653,-46.634364 -27.37966,-62.909339 v -0.0022 c -1.80747,-1.645837 -3.63359,-2.294633 -5.25669,-2.245846 z M 118.59501,66.622992 81.669951,103.5459 H 57.053252 c -6.818676,0 -12.30835,5.48967 -12.30835,12.30835 v 24.6167 c 0,6.81867 5.489674,12.30835 12.30835,12.30835 h 24.616699 l 36.925059,36.92292 z m 24.82825,14.567017 c -4.62819,0.20167 -7.92965,6.320738 -3.57712,11.032642 9.97508,9.292709 15.64838,22.307519 15.67177,35.939949 -0.0157,13.66566 -5.71027,26.70925 -15.72092,36.01047 -5.81667,5.29162 1.718,14.18049 8.36584,8.9898 12.51485,-11.62191 19.63851,-27.92157 19.66558,-45.00027 -0.0211,-17.03931 -7.10635,-33.308456 -19.56729,-44.929746 h -0.002 c -1.60297,-1.519094 -3.293,-2.110068 -4.83573,-2.042845 z"
   id="rect2"
   inkscape:connector-curvature="0" /></svg>