<?xml version="1.0" encoding="UTF-8" standalone="no"?>
<!-- Generator: Adobe Illustrator 23.0.0, SVG Export Plug-In . SVG Version: 6.00 Build 0)  -->

<svg
   xmlns:dc="http://purl.org/dc/elements/1.1/"
   xmlns:cc="http://creativecommons.org/ns#"
   xmlns:rdf="http://www.w3.org/1999/02/22-rdf-syntax-ns#"
   xmlns:svg="http://www.w3.org/2000/svg"
   xmlns="http://www.w3.org/2000/svg"
   xmlns:sodipodi="http://sodipodi.sourceforge.net/DTD/sodipodi-0.dtd"
   xmlns:inkscape="http://www.inkscape.org/namespaces/inkscape"
   version="1.1"
   id="레이어_1"
   x="0px"
   y="0px"
   viewBox="0 0 256 256"
   style="enable-background:new 0 0 256 256;"
   xml:space="preserve"
   sodipodi:docname="multimedia.svg"
   inkscape:version="0.92.5 (2060ec1f9f, 2020-04-08)"><metadata
   id="metadata21"><rdf:RDF><cc:Work
       rdf:about=""><dc:format>image/svg+xml</dc:format><dc:type
         rdf:resource="http://purl.org/dc/dcmitype/StillImage" /><dc:title></dc:title></cc:Work></rdf:RDF></metadata><defs
   id="defs19">
		
		
	
			
		
				
			
	
	
</defs><sodipodi:namedview
   pagecolor="#ffffff"
   bordercolor="#666666"
   borderopacity="1"
   objecttolerance="10"
   gridtolerance="10"
   guidetolerance="10"
   inkscape:pageopacity="0"
   inkscape:pageshadow="2"
   inkscape:window-width="1920"
   inkscape:window-height="1001"
   id="namedview17"
   showgrid="false"
   inkscape:zoom="1.3037281"
   inkscape:cx="-197.17952"
   inkscape:cy="160.70576"
   inkscape:window-x="0"
   inkscape:window-y="0"
   inkscape:window-maximized="1"
   inkscape:current-layer="레이어_1" />
<style
   type="text/css"
   id="style2">
	.st0{opacity:0.1;}
	.st1{fill:#FAFAFA;}
</style>


<path
   style="opacity:0.9;fill:#7750ae;fill-opacity:1"
   inkscape:connector-curvature="0"
   id="path10"
   d="m 251.6998,90.400211 c -3.1,-23.4 -11.4,-44.6 -26,-60.1 v 0 c -15.6,-14.6 -36.7,-22.9000004 -60.1,-26.0000004 -22.4,-3 -37.6,-2.3 -37.6,-2.3 0,0 -15.2,-0.7 -37.600014,2.3 -23.4,3.1 -44.6,11.4000004 -60.1,26.0000004 -14.6,15.5 -22.7999996,36.7 -25.9999996,60.1 -3,22.299999 -2.2,37.599999 -2.2,37.599999 0,0 -0.7,15.2 2.2,37.6 3.1,23.4 11.3999996,44.6 25.9999996,60.1 v 0 c 15.6,14.6 36.7,22.9 60.1,26 22.300014,3 37.600014,2.2 37.600014,2.2 0,0 15.2,0.7 37.6,-2.2 23.4,-3.1 44.6,-11.4 60.1,-26 v 0 c 14.6,-15.6 22.9,-36.7 26,-60.1 3,-22.3 2.2,-37.6 2.2,-37.6 0,0 0.8,-15.2 -2.2,-37.599999"
   class="st1" /><path
   d="M 56.400391 61.900391 C 50.700391 61.900391 46 66.500781 46 72.300781 L 46 101.09961 L 100 101.09961 C 105.16427 101.09961 109.49479 97.237941 110.26562 92.199219 L 119.5 92.199219 L 119.5 83 C 114.5 83 110.50039 78.900391 110.40039 73.900391 L 110.40039 72.300781 C 110.40039 66.600781 105.8 61.900391 100 61.900391 L 56.400391 61.900391 z "
   id="path22"
   style="fill:#422470;fill-opacity:1" /><path
   style="fill:#ffffff"
   inkscape:connector-curvature="0"
   id="path26"
   d="m 223.8,160.4 c -1,-3.8 -3.7,-11.9 -11.1,-19 -9.6,-9.2 -20.9,-10.8 -25.7,-11.2 v -0.1 h -12.8 v 44.6 c -2.7,-1.2 -5.6,-1.8 -8.7,-1.8 -11.9,0 -21.5,9.6 -21.5,21.5 0,11.9 9.6,21.5 21.5,21.5 11.9,0 21.5,-9.6 21.5,-21.5 0,-0.5 0,-0.9 -0.1,-1.4 h 0.1 v -50 c 3.4,0.3 10.6,1.6 16.7,7.4 5,4.7 6.9,10.2 7.5,12.7 0,5 0.1,10 0,15 H 224 v -9.6 c -0.1,-2.7 -0.1,-5.4 -0.2,-8.1 z"
   class="st3" /><circle
   style="fill:#ab8dff"
   id="circle28"
   r="10"
   cy="194.39999"
   cx="165.5"
   class="st4" /><path
   inkscape:connector-curvature="0"
   class="st3"
   d="M 176,112.2 V 95.8 C 176,88.8 170.3,83 163.2,83 H 58.8 C 51.8,83 46,88.7 46,95.8 v 65.5 c 0,7 5.7,12.8 12.8,12.8 h 55.3 c 20.6,-20.6 41.3,-41.3 61.9,-61.9 z"
   id="path32"
   style="fill:#ffffff" /><path
   inkscape:connector-curvature="0"
   class="st5"
   d="m 90.7,112 v 36.4 c 0,3.5 3.8,5.6 6.8,3.9 L 129,134.1 c 3,-1.7 3,-6.1 0,-7.8 L 97.5,108.1 c -3,-1.7 -6.8,0.4 -6.8,3.9 z"
   id="path34"
   style="fill:#7c3ba6;fill-opacity:1" /></svg>