<?xml version="1.0" encoding="UTF-8" standalone="no"?>
<svg
   xmlns:dc="http://purl.org/dc/elements/1.1/"
   xmlns:cc="http://creativecommons.org/ns#"
   xmlns:rdf="http://www.w3.org/1999/02/22-rdf-syntax-ns#"
   xmlns:svg="http://www.w3.org/2000/svg"
   xmlns="http://www.w3.org/2000/svg"
   xmlns:sodipodi="http://sodipodi.sourceforge.net/DTD/sodipodi-0.dtd"
   xmlns:inkscape="http://www.inkscape.org/namespaces/inkscape"
   version="1.1"
   id="레이어_1"
   x="0px"
   y="0px"
   viewBox="0 0 256 256"
   style="enable-background:new 0 0 256 256;"
   xml:space="preserve"
   sodipodi:docname="nvidia.svg"
   inkscape:version="1.0.2 (e86c870879, 2021-01-15)"><metadata
   id="metadata20"><rdf:RDF><cc:Work
       rdf:about=""><dc:format>image/svg+xml</dc:format><dc:type
         rdf:resource="http://purl.org/dc/dcmitype/StillImage" /><dc:title></dc:title></cc:Work></rdf:RDF></metadata><defs
   id="defs18" /><sodipodi:namedview
   pagecolor="#ffffff"
   bordercolor="#666666"
   borderopacity="1"
   objecttolerance="10"
   gridtolerance="10"
   guidetolerance="10"
   inkscape:pageopacity="0"
   inkscape:pageshadow="2"
   inkscape:window-width="1852"
   inkscape:window-height="1048"
   id="namedview16"
   showgrid="false"
   inkscape:zoom="3.2773438"
   inkscape:cx="128.61025"
   inkscape:cy="128"
   inkscape:window-x="68"
   inkscape:window-y="32"
   inkscape:window-maximized="1"
   inkscape:current-layer="레이어_1" />
<style
   type="text/css"
   id="style2">
	.st0{opacity:0.1;}
	.st1{fill:#FFFFFF;}
	.st2{fill:#FF0000;}
</style>
<g
   class="st0"
   id="g8">
	<g
   id="g6">
		<path
   d="M132.7,0.5c6.2,0,18.1,0.3,33.3,2.3c23.7,3.1,45.1,11.5,60.9,26.3l0,0C241.6,44.8,250,66.3,253.2,90c3,22.6,2.3,38,2.3,38    s0.7,15.4-2.3,38c-3.1,23.7-11.5,45.1-26.3,60.9l0,0c-15.7,14.8-37.2,23.2-60.9,26.3c-15.1,2-27.1,2.3-33.3,2.3    c-3.1,0-4.7-0.1-4.7-0.1s-1.7,0.1-4.7,0.1c-6.2,0-18.1-0.3-33.3-2.3c-23.7-3.1-45.1-11.5-60.9-26.3l0,0    C14.4,211.2,6,189.7,2.8,166c-3-22.6-2.3-38-2.3-38s-0.7-15.4,2.3-38C6,66.3,14.4,44.8,29.1,29.1l0,0C44.9,14.3,66.3,5.9,90,2.8    c15.2-2,27.1-2.3,33.3-2.3c3.1,0,4.7,0.1,4.7,0.1S129.7,0.5,132.7,0.5"
   id="path4" />
	</g>
</g>
<path
   class="st1"
   d="M251.7,90.4c-3.1-23.4-11.4-44.6-26-60.2l0,0c-15.5-14.6-36.7-22.9-60.1-26C143.2,1.3,128,2,128,2  s-15.2-0.7-37.6,2.2C67,7.4,45.8,15.7,30.3,30.3C15.7,45.8,7.4,67,4.3,90.4c-3,22.4-2.2,37.6-2.2,37.6s-0.7,15.2,2.2,37.6  c3.1,23.4,11.4,44.6,26,60.1l0,0c15.5,14.6,36.7,22.9,60.1,26c22.3,3,37.6,2.2,37.6,2.2s15.2,0.7,37.6-2.2  c23.4-3.1,44.6-11.4,60.1-26l0,0c14.6-15.5,22.9-36.7,26-60.1c3-22.4,2.2-37.6,2.2-37.6S254.6,112.8,251.7,90.4"
   id="path10"
   style="fill:#333333" />

<path
   id="rect842-6"
   style="fill:#4bd239;fill-opacity:1;stroke-width:19.8225"
   d="m 113.49465,79.513052 v 0.01933 0.0099 c -1.17062,0.04658 -2.06616,0.09024 -3.21339,0.183903 -39.00592,3.184135 -72.766588,36.993035 -72.766588,36.993035 0,0 19.127568,56.61637 72.766588,61.7906 1.17062,0.11597 2.01933,0.18534 3.21339,0.23242 v 0.01 c 1.42821,0.0937 2.8765,0.1452 4.37493,0.1452 28.30621,0 78.22227,-14.77538 99.64509,-33.13111 -3.13736,-3.25442 -18.42848,-10.6908 -22.17454,-13.7345 -22.49984,19.87761 -45.79485,36.66399 -77.96418,36.66399 -1.31116,0 -2.61697,-0.0198 -3.8813,-0.11596 -1.19406,-0.0694 -2.06616,-0.20814 -3.21339,-0.34838 -39.35713,-5.08062 -52.81821,-49.46926 -52.81821,-49.46926 0,0 17.60514,-26.64607 52.81821,-29.3854 1.12379,-0.0714 2.04277,-0.16155 3.21339,-0.18385 v -0.0297 -0.01 c 31.84161,-0.9599 53.0505,28.07875 53.0505,28.07875 0,0 -22.61793,32.12452 -46.82692,32.12452 -5.08121,-0.0832 -9.43697,-1.53897 -9.43697,-1.53897 -16.76368,-5.75959 -22.2133,-25.82353 -22.2133,-25.82353 0,0 9.70924,-11.91702 22.16489,-10.3952 h 0.0495 c 1.28773,0.16304 2.11304,0.391 3.21344,0.6485 v -0.0198 -0.01 c 9.43538,2.1774 12.45297,7.86875 19.12564,19.27083 l 16.61883,-14.32486 c 0,0 -12.12466,-16.28006 -32.54075,-16.28006 -0.98335,0 -2.26731,0.0694 -3.20372,0.11596 v 0.01 c -1.17067,0.0714 -2.06621,0.19277 -3.21344,0.30973 -23.71728,2.62222 -37.99968,18.82562 -37.99968,18.82562 0,0 8.24187,31.6524 37.99968,37.06079 1.14723,0.2339 2.01938,0.37266 3.21344,0.51301 1.86366,0.20367 3.79438,0.20863 5.38152,0.27107 34.58084,0 67.75284,-41.25182 67.75284,-41.25182 0,0 -27.56851,-36.906698 -70.15325,-37.225346 z"
   sodipodi:nodetypes="ccccccccsccsccccccccccccccccccscccccccccc" /></svg>
