<?xml version="1.0" encoding="utf-8"?>
<!-- Generator: Adobe Illustrator 23.0.0, SVG Export Plug-In . SVG Version: 6.00 Build 0)  -->
<svg version="1.1" id="레이어_1" xmlns="http://www.w3.org/2000/svg" xmlns:xlink="http://www.w3.org/1999/xlink" x="0px"
	 y="0px" viewBox="0 0 256 256" style="enable-background:new 0 0 256 256;" xml:space="preserve">
<style type="text/css">
	.st0{opacity:0.1;}
	.st1{fill:#008375;}
	.st2{fill:#FFFFFF;}
	.st3{fill:#00665E;}
</style>
<g class="st0">
	<g>
		<path d="M132.7,0.5c6.2,0,18.1,0.3,33.3,2.3c23.7,3.1,45.1,11.5,60.9,26.3h0C241.6,44.8,250,66.3,253.2,90c3,22.6,2.3,38,2.3,38
			s0.7,15.4-2.3,38c-3.1,23.7-11.5,45.1-26.3,60.9l0,0c-15.7,14.8-37.2,23.2-60.9,26.3c-15.1,2-27.1,2.3-33.3,2.3
			c-3.1,0-4.7-0.1-4.7-0.1s-1.7,0.1-4.7,0.1c-6.2,0-18.1-0.3-33.3-2.3c-23.7-3.1-45.1-11.5-60.9-26.3l0,0
			C14.4,211.2,6,189.7,2.8,166c-3-22.6-2.3-38-2.3-38s-0.7-15.4,2.3-38C6,66.3,14.4,44.8,29.1,29.1h0C44.9,14.3,66.3,5.9,90,2.8
			c15.2-2,27.1-2.3,33.3-2.3c3.1,0,4.7,0.1,4.7,0.1S129.7,0.5,132.7,0.5"/>
	</g>
</g>
<path class="st1" d="M251.7,90.4c-3.1-23.4-11.4-44.6-26-60.2h0c-15.5-14.6-36.7-22.9-60.1-26C143.2,1.3,128,2,128,2
	s-15.2-0.7-37.6,2.2C67,7.4,45.8,15.7,30.3,30.3C15.7,45.8,7.4,67,4.3,90.4c-3,22.4-2.2,37.6-2.2,37.6s-0.7,15.2,2.2,37.6
	c3.1,23.4,11.4,44.6,26,60.1v0c15.5,14.6,36.7,22.9,60.1,26c22.3,3,37.6,2.2,37.6,2.2s15.2,0.7,37.6-2.2c23.4-3.1,44.6-11.4,60.1-26
	l0,0c14.6-15.5,22.9-36.7,26-60.1c3-22.4,2.2-37.6,2.2-37.6S254.6,112.8,251.7,90.4"/>
<path class="st2" d="M181,58h-7.5c0,9.7-7.9,17.6-17.6,17.6s-17.6-7.9-17.6-17.6h-19.9c0,9.7-7.9,17.6-17.6,17.6S83.4,67.7,83.4,58
	H75c-9.4,0-17,7.6-17,17v106c0,9.4,7.6,17,17,17h106c9.4,0,17-7.6,17-17V75C198,65.6,190.4,58,181,58z"/>
<g>
	<path class="st3" d="M124.7,166H81.3v-7.4l21.5-23.5c3.1-3.5,5.3-6.4,6.6-8.7c1.3-2.3,2-4.7,2-7c0-3.1-0.9-5.6-2.6-7.5
		c-1.7-1.9-4.1-2.8-7-2.8c-3.5,0-6.2,1.1-8.1,3.2c-1.9,2.1-2.9,5-2.9,8.7H80c0-3.9,0.9-7.5,2.7-10.6c1.8-3.2,4.3-5.6,7.7-7.3
		c3.3-1.7,7.2-2.6,11.5-2.6c6.3,0,11.2,1.6,14.8,4.7c3.6,3.2,5.4,7.5,5.4,13.1c0,3.2-0.9,6.6-2.7,10.1c-1.8,3.5-4.8,7.6-8.9,12
		l-15.8,16.9h30V166z"/>
	<path class="st3" d="M173.6,118.4c0,3.2-0.8,6-2.4,8.5c-1.6,2.5-3.8,4.4-6.7,5.8c3.4,1.6,6,3.7,7.8,6.4c1.8,2.7,2.7,5.8,2.7,9.2
		c0,5.7-1.9,10.2-5.8,13.5c-3.8,3.3-9,5-15.4,5c-6.4,0-11.6-1.7-15.4-5c-3.9-3.3-5.8-7.8-5.8-13.5c0-3.5,0.9-6.6,2.8-9.3
		c1.8-2.8,4.4-4.9,7.7-6.3c-2.8-1.4-5-3.4-6.6-5.8c-1.6-2.5-2.4-5.3-2.4-8.5c0-5.5,1.8-9.9,5.3-13.1c3.5-3.2,8.3-4.8,14.4-4.8
		c6.1,0,10.9,1.6,14.4,4.8C171.8,108.6,173.6,112.9,173.6,118.4z M164.2,147.9c0-3.2-1-5.8-2.9-7.7c-1.9-2-4.4-3-7.6-3
		c-3.1,0-5.6,1-7.5,2.9c-1.9,2-2.8,4.5-2.8,7.8c0,3.2,0.9,5.7,2.8,7.6c1.8,1.9,4.4,2.8,7.7,2.8c3.3,0,5.8-0.9,7.6-2.8
		C163.3,153.7,164.2,151.1,164.2,147.9z M162.9,118.8c0-2.8-0.8-5.1-2.4-6.9c-1.6-1.8-3.8-2.7-6.6-2.7s-4.9,0.9-6.5,2.6
		c-1.6,1.7-2.4,4.1-2.4,7.1c0,3,0.8,5.3,2.4,7.1c1.6,1.7,3.8,2.6,6.5,2.6s4.9-0.9,6.5-2.6C162,124.2,162.9,121.8,162.9,118.8z"/>
</g>
</svg>
