<?xml version="1.0" encoding="UTF-8" standalone="no"?>
<!-- Generator: Adobe Illustrator 23.0.0, SVG Export Plug-In . SVG Version: 6.00 Build 0)  -->

<svg
   xmlns:dc="http://purl.org/dc/elements/1.1/"
   xmlns:cc="http://creativecommons.org/ns#"
   xmlns:rdf="http://www.w3.org/1999/02/22-rdf-syntax-ns#"
   xmlns:svg="http://www.w3.org/2000/svg"
   xmlns="http://www.w3.org/2000/svg"
   xmlns:sodipodi="http://sodipodi.sourceforge.net/DTD/sodipodi-0.dtd"
   xmlns:inkscape="http://www.inkscape.org/namespaces/inkscape"
   version="1.1"
   id="레이어_1"
   x="0px"
   y="0px"
   viewBox="0 0 256 256"
   style="enable-background:new 0 0 256 256;"
   xml:space="preserve"
   sodipodi:docname="preferences-desktop-plasma.svg"
   inkscape:version="0.92.5 (2060ec1f9f, 2020-04-08)"><metadata
   id="metadata17"><rdf:RDF><cc:Work
       rdf:about=""><dc:format>image/svg+xml</dc:format><dc:type
         rdf:resource="http://purl.org/dc/dcmitype/StillImage" /><dc:title></dc:title></cc:Work></rdf:RDF></metadata><defs
   id="defs15" /><sodipodi:namedview
   pagecolor="#ffffff"
   bordercolor="#666666"
   borderopacity="1"
   objecttolerance="10"
   gridtolerance="10"
   guidetolerance="10"
   inkscape:pageopacity="0"
   inkscape:pageshadow="2"
   inkscape:window-width="1920"
   inkscape:window-height="1004"
   id="namedview13"
   showgrid="false"
   inkscape:zoom="0.92187502"
   inkscape:cx="257.99908"
   inkscape:cy="60.999065"
   inkscape:window-x="0"
   inkscape:window-y="0"
   inkscape:window-maximized="1"
   inkscape:current-layer="레이어_1" />
<style
   type="text/css"
   id="style2">
	.st0{fill:#5D7E95;}
	.st1{fill:#FFFFFF;}
</style>
<path
   class="st0"
   d="M251.7,90.4c-3.1-23.4-11.4-44.6-26-60.1l0,0c-15.6-14.6-36.7-22.9-60.1-26C143.2,1.3,128,2,128,2  s-15.2-0.7-37.6,2.3C67,7.4,45.8,15.7,30.3,30.3C15.7,45.8,7.5,67,4.3,90.4c-3,22.3-2.2,37.6-2.2,37.6s-0.7,15.2,2.2,37.6  c3.1,23.4,11.4,44.6,26,60.1l0,0c15.6,14.6,36.7,22.9,60.1,26c22.3,3,37.6,2.2,37.6,2.2s15.2,0.7,37.6-2.2  c23.4-3.1,44.6-11.4,60.1-26l0,0c14.6-15.6,22.9-36.7,26-60.1c3-22.3,2.2-37.6,2.2-37.6S254.7,112.8,251.7,90.4"
   id="path4"
   style="fill:#28b9d8;fill-opacity:1" />



<path
   d="m 88.926945,49.762128 c -5.539908,0 -9.999834,4.459925 -9.999834,9.999833 0,5.539908 4.459926,9.999834 9.999834,9.999834 5.539908,0 9.999834,-4.459926 9.999834,-9.999834 0,-5.539908 -4.459926,-9.999833 -9.999834,-9.999833 z m 62.856285,0 -22.85695,22.856952 34.28543,34.28544 -34.28543,34.28475 22.85695,22.85696 57.14171,-57.14171 -22.85695,-22.856963 z M 63.924694,109.76113 c -8.309862,0 -14.99975,6.68989 -14.99975,14.99975 0,8.30986 6.689888,14.99975 14.99975,14.99975 8.309862,0 14.99975,-6.68989 14.99975,-14.99975 0,-8.30986 -6.689888,-14.99975 -14.99975,-14.99975 z m 44.999256,59.99901 c -11.07982,0 -19.999672,8.91984 -19.999672,19.99967 0,11.07981 8.919852,19.99966 19.999672,19.99966 11.07981,0 19.99966,-8.91985 19.99966,-19.99966 0,-11.07983 -8.91985,-19.99967 -19.99966,-19.99967 z"
   id="path25"
   inkscape:connector-curvature="0"
   style="fill:#ffffff;stroke-width:6.66655588" /></svg>