<?xml version="1.0" encoding="UTF-8" standalone="no"?>
<!-- Generator: Adobe Illustrator 23.0.0, SVG Export Plug-In . SVG Version: 6.00 Build 0)  -->

<svg
   xmlns:dc="http://purl.org/dc/elements/1.1/"
   xmlns:cc="http://creativecommons.org/ns#"
   xmlns:rdf="http://www.w3.org/1999/02/22-rdf-syntax-ns#"
   xmlns:svg="http://www.w3.org/2000/svg"
   xmlns="http://www.w3.org/2000/svg"
   xmlns:sodipodi="http://sodipodi.sourceforge.net/DTD/sodipodi-0.dtd"
   xmlns:inkscape="http://www.inkscape.org/namespaces/inkscape"
   version="1.1"
   id="레이어_1"
   x="0px"
   y="0px"
   viewBox="0 0 256 256"
   style="enable-background:new 0 0 256 256;"
   xml:space="preserve"
   sodipodi:docname="preferences-desktop-user-password.svg"
   inkscape:version="0.92.5 (2060ec1f9f, 2020-04-08)"><metadata
   id="metadata17"><rdf:RDF><cc:Work
       rdf:about=""><dc:format>image/svg+xml</dc:format><dc:type
         rdf:resource="http://purl.org/dc/dcmitype/StillImage" /><dc:title></dc:title></cc:Work></rdf:RDF></metadata><defs
   id="defs15" /><sodipodi:namedview
   pagecolor="#ffffff"
   bordercolor="#666666"
   borderopacity="1"
   objecttolerance="10"
   gridtolerance="10"
   guidetolerance="10"
   inkscape:pageopacity="0"
   inkscape:pageshadow="2"
   inkscape:window-width="1920"
   inkscape:window-height="1004"
   id="namedview13"
   showgrid="false"
   inkscape:zoom="0.65186406"
   inkscape:cx="122.86274"
   inkscape:cy="111.07235"
   inkscape:window-x="0"
   inkscape:window-y="0"
   inkscape:window-maximized="1"
   inkscape:current-layer="레이어_1" />
<style
   type="text/css"
   id="style2">
	.st0{fill:#5D7E95;}
	.st1{fill:#FFFFFF;}
</style>
<path
   class="st0"
   d="M251.7,90.4c-3.1-23.4-11.4-44.6-26-60.1l0,0c-15.6-14.6-36.7-22.9-60.1-26C143.2,1.3,128,2,128,2  s-15.2-0.7-37.6,2.3C67,7.4,45.8,15.7,30.3,30.3C15.7,45.8,7.5,67,4.3,90.4c-3,22.3-2.2,37.6-2.2,37.6s-0.7,15.2,2.2,37.6  c3.1,23.4,11.4,44.6,26,60.1l0,0c15.6,14.6,36.7,22.9,60.1,26c22.3,3,37.6,2.2,37.6,2.2s15.2,0.7,37.6-2.2  c23.4-3.1,44.6-11.4,60.1-26l0,0c14.6-15.6,22.9-36.7,26-60.1c3-22.3,2.2-37.6,2.2-37.6S254.7,112.8,251.7,90.4"
   id="path4"
   style="fill:#2daa9a;fill-opacity:1" />



<path
   style="opacity:1;fill:#ffffff;fill-opacity:1;stroke-width:1.01409769"
   d="M 129 44.458984 A 38.181818 38.181818 0 0 0 90.900391 80.292969 L 90.818359 80.292969 L 90.818359 82.640625 L 90.818359 104.08594 L 80.390625 104.08594 C 74.080659 104.08594 69 109.16464 69 115.47461 L 69 195.55273 C 69 201.86271 74.080659 206.94336 80.390625 206.94336 L 177.60938 206.94336 C 183.91933 206.94336 189 201.86271 189 195.55273 L 189 115.47461 C 189 109.16464 183.91932 104.08594 177.60938 104.08594 L 167.18164 104.08594 L 167.18164 82.640625 L 167.18164 80.292969 L 167.06445 80.292969 A 38.181818 38.181818 0 0 0 129 44.458984 z M 129 55.794922 A 27.272728 27.272728 0 0 1 156.25781 82.640625 L 156.27344 82.640625 L 156.27344 104.08594 L 101.72656 104.08594 L 101.72656 82.640625 L 101.74805 82.640625 A 27.272728 27.272728 0 0 1 129 55.794922 z M 129.14844 129.36719 A 11.945453 11.945453 0 0 1 141.09375 141.3125 A 11.945453 11.945453 0 0 1 135.12109 151.64062 L 135.12109 183.91211 L 123.17578 183.91211 L 123.17578 151.64453 A 11.945453 11.945453 0 0 1 117.20312 141.3125 A 11.945453 11.945453 0 0 1 129.14844 129.36719 z "
   id="rect824" /></svg>