<?xml version="1.0" encoding="UTF-8" standalone="no"?>
<svg
   xmlns:dc="http://purl.org/dc/elements/1.1/"
   xmlns:cc="http://creativecommons.org/ns#"
   xmlns:rdf="http://www.w3.org/1999/02/22-rdf-syntax-ns#"
   xmlns:svg="http://www.w3.org/2000/svg"
   xmlns="http://www.w3.org/2000/svg"
   xmlns:sodipodi="http://sodipodi.sourceforge.net/DTD/sodipodi-0.dtd"
   xmlns:inkscape="http://www.inkscape.org/namespaces/inkscape"
   version="1.1"
   id="레이어_1"
   x="0px"
   y="0px"
   viewBox="0 0 256 256"
   style="enable-background:new 0 0 256 256;"
   xml:space="preserve"
   sodipodi:docname="preferences-system-hotcorners.svg"
   inkscape:version="1.0.2 (e86c870879, 2021-01-15)"><metadata
   id="metadata17"><rdf:RDF><cc:Work
       rdf:about=""><dc:format>image/svg+xml</dc:format><dc:type
         rdf:resource="http://purl.org/dc/dcmitype/StillImage" /><dc:title></dc:title></cc:Work></rdf:RDF></metadata><defs
   id="defs15" /><sodipodi:namedview
   pagecolor="#ffffff"
   bordercolor="#666666"
   borderopacity="1"
   objecttolerance="10"
   gridtolerance="10"
   guidetolerance="10"
   inkscape:pageopacity="0"
   inkscape:pageshadow="2"
   inkscape:window-width="1852"
   inkscape:window-height="1048"
   id="namedview13"
   showgrid="false"
   inkscape:zoom="2.6074562"
   inkscape:cx="65.530057"
   inkscape:cy="112.03192"
   inkscape:window-x="68"
   inkscape:window-y="32"
   inkscape:window-maximized="1"
   inkscape:current-layer="레이어_1"
   inkscape:document-rotation="0" />
<style
   type="text/css"
   id="style2">
	.st0{fill:#5D7E95;}
	.st1{fill:#FFFFFF;}
</style>
<path
   class="st0"
   d="M251.7,90.4c-3.1-23.4-11.4-44.6-26-60.1l0,0c-15.6-14.6-36.7-22.9-60.1-26C143.2,1.3,128,2,128,2  s-15.2-0.7-37.6,2.3C67,7.4,45.8,15.7,30.3,30.3C15.7,45.8,7.5,67,4.3,90.4c-3,22.3-2.2,37.6-2.2,37.6s-0.7,15.2,2.2,37.6  c3.1,23.4,11.4,44.6,26,60.1l0,0c15.6,14.6,36.7,22.9,60.1,26c22.3,3,37.6,2.2,37.6,2.2s15.2,0.7,37.6-2.2  c23.4-3.1,44.6-11.4,60.1-26l0,0c14.6-15.6,22.9-36.7,26-60.1c3-22.3,2.2-37.6,2.2-37.6S254.7,112.8,251.7,90.4"
   id="path4"
   style="fill:#28b9d8;fill-opacity:1" />



<path
   id="path834"
   style="fill:#ffffff;stroke-width:4.36098"
   d="m 66.156025,50.500004 a 27.770759,27.770759 0 0 0 -27.656021,27.770759 27.770759,27.770759 0 0 0 0,0.114738 v 6.283467 24.747942 a 9.4787068,9.4787068 0 0 0 0,0.0396 9.4787068,9.4787068 0 0 0 9.479442,9.47735 h 6.214624 a 56.075571,56.075571 0 0 0 48.4674,-48.461126 V 60.016996 a 9.4787069,9.4787069 0 0 0 0,-0.03756 9.4787069,9.4787069 0 0 0 -9.477353,-9.479437 H 68.396544 66.270763 a 27.770759,27.770759 0 0 0 -0.114738,0 z" /><path
   id="rect909"
   style="fill:#ffffff;stroke-width:4.23451"
   d="m 110.85376,65.964595 a 9.4787069,9.4787069 0 0 1 0.35256,2.5597 9.4787069,9.4787069 0 0 1 0,0.03755 v 8.083812 h 82.50077 c 2.27791,0 4.11179,1.833879 4.11179,4.111791 v 98.587032 c 0,2.27791 -1.83388,4.11179 -4.11179,4.11179 H 67.3493 c -2.277912,0 -4.111792,-1.83388 -4.111792,-4.11179 v -51.93249 a 56.075571,56.075571 0 0 1 -0.498589,0.0667 h -6.214624 a 9.4787068,9.4787068 0 0 1 -3.967848,-0.872 v 56.0255 c 0,6.37483 5.130257,11.50509 11.505089,11.50509 H 196.99277 c 6.37483,0 11.50717,-5.13026 11.50717,-11.50509 V 77.471769 c 0,-6.374832 -5.13234,-11.507174 -11.50717,-11.507174 z" /></svg>
