<?xml version="1.0" encoding="UTF-8" standalone="no"?>
<svg
   xmlns:dc="http://purl.org/dc/elements/1.1/"
   xmlns:cc="http://creativecommons.org/ns#"
   xmlns:rdf="http://www.w3.org/1999/02/22-rdf-syntax-ns#"
   xmlns:svg="http://www.w3.org/2000/svg"
   xmlns="http://www.w3.org/2000/svg"
   xmlns:sodipodi="http://sodipodi.sourceforge.net/DTD/sodipodi-0.dtd"
   xmlns:inkscape="http://www.inkscape.org/namespaces/inkscape"
   width="256"
   height="256"
   viewBox="0 0 67.733332 67.733335"
   version="1.1"
   id="svg869"
   inkscape:version="1.0.2 (e86c870879, 2021-01-15)"
   sodipodi:docname="preferences-system-sharing.svg">
  <defs
     id="defs863" />
  <sodipodi:namedview
     id="base"
     pagecolor="#ffffff"
     bordercolor="#666666"
     borderopacity="1.0"
     inkscape:pageopacity="0.0"
     inkscape:pageshadow="2"
     inkscape:zoom="0.49497475"
     inkscape:cx="-146.8893"
     inkscape:cy="249.04319"
     inkscape:document-units="px"
     inkscape:current-layer="layer1"
     inkscape:document-rotation="0"
     showgrid="false"
     units="px"
     inkscape:window-width="1411"
     inkscape:window-height="1012"
     inkscape:window-x="118"
     inkscape:window-y="32"
     inkscape:window-maximized="0" />
  <metadata
     id="metadata866">
    <rdf:RDF>
      <cc:Work
         rdf:about="">
        <dc:format>image/svg+xml</dc:format>
        <dc:type
           rdf:resource="http://purl.org/dc/dcmitype/StillImage" />
        <dc:title></dc:title>
      </cc:Work>
    </rdf:RDF>
  </metadata>
  <g
     inkscape:label="레이어 1"
     inkscape:groupmode="layer"
     id="layer1">
    <path
       class="st2"
       d="M 66.5815,23.938946 C 65.781952,17.74245 63.583198,12.145615 59.718714,8.0146163 v 0 C 55.587719,4.1501357 49.990883,1.951379 43.794387,1.151831 37.864406,0.35228311 33.866667,0.55217008 33.866667,0.55217008 c 0,0 -3.99774,-0.19987438 -9.927721,0.59966092 C 17.74245,1.951379 12.145615,4.1501357 8.0146189,8.0146163 4.1501357,12.078984 1.951379,17.74245 1.151831,23.938946 c -0.79954789,5.929979 -0.59966092,9.927718 -0.59966092,9.927718 0,0 -0.19987438,3.99774 0.59966092,9.927721 0.799548,6.196496 2.9983047,11.793331 6.8627879,15.924329 v 0 c 4.1309961,3.864481 9.7278311,6.063238 15.9243271,6.862786 5.929981,0.799548 9.927721,0.599661 9.927721,0.599661 0,0 3.997739,0.199874 9.92772,-0.599661 6.196496,-0.799548 11.793332,-2.998305 15.924327,-6.862786 v 0 c 3.864484,-4.130998 6.063238,-9.727833 6.862786,-15.924329 0.799548,-5.929981 0.599661,-9.927721 0.599661,-9.927721 0,0 0.199899,-3.997739 -0.599661,-9.927718"
       id="path16"
       style="opacity:1;fill:#53a4ff;fill-opacity:1;stroke-width:0.666289" />
    <path
       class="st1"
       d="m 46.193031,15.610321 c -0.932807,0 -1.798983,0.199875 -2.598531,0.666289 -2.798417,-1.465837 -5.996609,-2.332013 -9.328059,-2.332013 -11.060412,0 -19.988698,8.928283 -19.988698,19.988698 1.132694,0 2.332016,0 3.464707,0 0.466404,-8.994914 7.928851,-16.190845 17.057023,-16.190845 2.198757,0 4.330883,0.399774 6.263125,1.199322 -0.333146,0.732917 -0.533033,1.532465 -0.533033,2.398643 0,3.131562 2.531903,5.663464 5.663466,5.663464 3.131561,0 5.663463,-2.531902 5.663463,-5.663464 0,-3.198191 -2.531902,-5.730094 -5.663463,-5.730094 z m 0,8.328625 c -1.46584,0 -2.665161,-1.199322 -2.665161,-2.665161 0,-1.465837 1.199321,-2.665159 2.665161,-2.665159 1.465837,0 2.665159,1.199322 2.665159,2.665159 0,1.465839 -1.199322,2.665161 -2.665159,2.665161 z"
       id="path18"
       style="fill:#ffffff;stroke-width:0.666289" />
    <path
       class="st1"
       d="m 22.273222,52.189638 c 0.932807,0 1.798983,-0.199875 2.598531,-0.666289 2.798418,1.465837 5.996609,2.332013 9.32806,2.332013 11.060411,0 19.988697,-8.928284 19.988697,-19.988698 -1.132694,0 -2.332016,0 -3.464709,0 -0.466402,8.994914 -7.928849,16.190845 -17.057021,16.190845 -2.198757,0 -4.330885,-0.399774 -6.263125,-1.199322 0.333144,-0.732917 0.533031,-1.532465 0.533031,-2.398643 0,-3.131561 -2.5319,-5.663464 -5.663464,-5.663464 -3.131563,0 -5.663463,2.531903 -5.663463,5.663464 0,3.198191 2.5319,5.730094 5.663463,5.730094 z m 0,-8.328625 c 1.465837,0 2.665159,1.199322 2.665159,2.665161 0,1.465837 -1.199322,2.665159 -2.665159,2.665159 -1.465837,0 -2.665159,-1.199322 -2.665159,-2.665159 0,-1.465839 1.199322,-2.665161 2.665159,-2.665161 z"
       id="path20"
       style="fill:#ffffff;stroke-width:0.666289" />
  </g>
  <style
     type="text/css"
     id="style2">
	.st0{fill:#48C2C5;}
	.st1{fill:#FFFFFF;}
</style>
</svg>
