<?xml version="1.0" encoding="UTF-8" standalone="no"?>
<!-- Generator: Adobe Illustrator 23.0.0, SVG Export Plug-In . SVG Version: 6.00 Build 0)  -->

<svg
   xmlns:dc="http://purl.org/dc/elements/1.1/"
   xmlns:cc="http://creativecommons.org/ns#"
   xmlns:rdf="http://www.w3.org/1999/02/22-rdf-syntax-ns#"
   xmlns:svg="http://www.w3.org/2000/svg"
   xmlns="http://www.w3.org/2000/svg"
   xmlns:sodipodi="http://sodipodi.sourceforge.net/DTD/sodipodi-0.dtd"
   xmlns:inkscape="http://www.inkscape.org/namespaces/inkscape"
   version="1.1"
   id="레이어_1"
   x="0px"
   y="0px"
   viewBox="0 0 256 256"
   style="enable-background:new 0 0 256 256;"
   xml:space="preserve"
   sodipodi:docname="preferences-desktop-icons.svg"
   inkscape:version="0.92.5 (2060ec1f9f, 2020-04-08)"><metadata
   id="metadata17"><rdf:RDF><cc:Work
       rdf:about=""><dc:format>image/svg+xml</dc:format><dc:type
         rdf:resource="http://purl.org/dc/dcmitype/StillImage" /><dc:title></dc:title></cc:Work></rdf:RDF></metadata><defs
   id="defs15" /><sodipodi:namedview
   pagecolor="#ffffff"
   bordercolor="#666666"
   borderopacity="1"
   objecttolerance="10"
   gridtolerance="10"
   guidetolerance="10"
   inkscape:pageopacity="0"
   inkscape:pageshadow="2"
   inkscape:window-width="1920"
   inkscape:window-height="1004"
   id="namedview13"
   showgrid="false"
   inkscape:zoom="1.3037281"
   inkscape:cx="81.101721"
   inkscape:cy="14.264176"
   inkscape:window-x="0"
   inkscape:window-y="0"
   inkscape:window-maximized="1"
   inkscape:current-layer="레이어_1" />
<style
   type="text/css"
   id="style2">
	.st0{fill:#5D7E95;}
	.st1{fill:#FFFFFF;}
</style>
<path
   class="st0"
   d="M251.7,90.4c-3.1-23.4-11.4-44.6-26-60.1l0,0c-15.6-14.6-36.7-22.9-60.1-26C143.2,1.3,128,2,128,2  s-15.2-0.7-37.6,2.3C67,7.4,45.8,15.7,30.3,30.3C15.7,45.8,7.5,67,4.3,90.4c-3,22.3-2.2,37.6-2.2,37.6s-0.7,15.2,2.2,37.6  c3.1,23.4,11.4,44.6,26,60.1l0,0c15.6,14.6,36.7,22.9,60.1,26c22.3,3,37.6,2.2,37.6,2.2s15.2,0.7,37.6-2.2  c23.4-3.1,44.6-11.4,60.1-26l0,0c14.6-15.6,22.9-36.7,26-60.1c3-22.3,2.2-37.6,2.2-37.6S254.7,112.8,251.7,90.4"
   id="path4"
   style="fill:#28b9d8;fill-opacity:1" />



<path
   inkscape:connector-curvature="0"
   class="st0"
   d="m 82.779536,118.81882 c -0.491932,-3.71329 -1.809042,-7.07747 -4.125881,-9.53712 v 0 c -2.475527,-2.31685 -5.823834,-3.63395 -9.537123,-4.12588 -3.5546,-0.47606 -5.966651,-0.36498 -5.966651,-0.36498 0,0 -2.412052,-0.11108 -5.966657,0.36498 -3.713289,0.49193 -7.077465,1.80903 -9.537122,4.12588 -2.316839,2.45965 -3.618075,5.82383 -4.125876,9.53712 -0.476062,3.53873 -0.349113,5.96665 -0.349113,5.96665 0,0 -0.111081,2.41205 0.349113,5.96666 0.491932,3.71328 1.809037,7.07745 4.125876,9.53711 v 0 c 2.475527,2.31685 5.823833,3.63395 9.537122,4.12589 3.538735,0.47606 5.966657,0.34911 5.966657,0.34911 0,0 2.412051,0.11108 5.966651,-0.34911 3.713289,-0.49194 7.077466,-1.80904 9.537123,-4.12589 v 0 c 2.316839,-2.47552 3.633949,-5.82383 4.125881,-9.53711 0.476061,-3.53875 0.349112,-5.96666 0.349112,-5.96666 0,0 0.126949,-2.41205 -0.349112,-5.96665"
   id="path4-3"
   style="fill:#ffffff;fill-opacity:1;stroke-width:0.15868758" /><path
   inkscape:connector-curvature="0"
   class="st0"
   d="m 82.779541,60.84542 c -0.49194,-3.71329 -1.80905,-7.07747 -4.12589,-9.53712 v 0 c -2.47553,-2.31685 -5.82383,-3.63395 -9.53712,-4.12588 -3.5546,-0.47606 -5.96665,-0.36498 -5.96665,-0.36498 0,0 -2.41205,-0.11108 -5.96666,0.36498 -3.713289,0.49193 -7.077461,1.80903 -9.537123,4.12588 -2.316839,2.45965 -3.618073,5.82383 -4.125875,9.53712 -0.476061,3.53873 -0.349114,5.96665 -0.349114,5.96665 0,0 -0.111079,2.41205 0.349114,5.96666 0.491935,3.71328 1.809036,7.07745 4.125875,9.53711 v 0 c 2.475529,2.31685 5.823834,3.63395 9.537123,4.12589 3.53873,0.47606 5.96666,0.34911 5.96666,0.34911 0,0 2.41205,0.11108 5.96665,-0.34911 3.71329,-0.49194 7.07747,-1.80904 9.53712,-4.12589 v 0 c 2.31684,-2.47552 3.63395,-5.82383 4.12589,-9.53711 0.47606,-3.53875 0.34911,-5.96666 0.34911,-5.96666 0,0 0.12695,-2.41205 -0.34911,-5.96665"
   id="path4-3-6"
   style="fill:#ffffff;fill-opacity:1;stroke-width:0.15868758" /><path
   style="opacity:1;fill:#ffffff;fill-opacity:1;stroke-width:0.98640454"
   d="M 51.726562 170.11914 C 46.988923 170.11914 43.175781 174.43229 43.175781 179.79102 L 43.175781 194.44531 C 43.175781 199.80404 46.988923 204.11914 51.726562 204.11914 L 206.62305 204.11914 C 211.36069 204.11914 215.17578 199.80404 215.17578 194.44531 L 215.17578 179.79102 C 215.17578 174.43229 211.36069 170.11914 206.62305 170.11914 L 51.726562 170.11914 z M 63.175781 176.11914 A 11 11 0 0 1 74.175781 187.11914 A 11 11 0 0 1 63.175781 198.11914 A 11 11 0 0 1 52.175781 187.11914 A 11 11 0 0 1 63.175781 176.11914 z M 84.675781 176.11914 C 85.506781 176.11914 86.175781 176.78814 86.175781 177.61914 L 86.175781 196.61914 C 86.175781 197.45014 85.506781 198.11914 84.675781 198.11914 C 83.844781 198.11914 83.175781 197.45014 83.175781 196.61914 L 83.175781 177.61914 C 83.175781 176.78814 83.844781 176.11914 84.675781 176.11914 z "
   id="rect817" /></svg>