<?xml version="1.0" encoding="UTF-8" standalone="no"?>
<!-- Generator: Adobe Illustrator 23.0.0, SVG Export Plug-In . SVG Version: 6.00 Build 0)  -->

<svg
   xmlns:dc="http://purl.org/dc/elements/1.1/"
   xmlns:cc="http://creativecommons.org/ns#"
   xmlns:rdf="http://www.w3.org/1999/02/22-rdf-syntax-ns#"
   xmlns:svg="http://www.w3.org/2000/svg"
   xmlns="http://www.w3.org/2000/svg"
   xmlns:sodipodi="http://sodipodi.sourceforge.net/DTD/sodipodi-0.dtd"
   xmlns:inkscape="http://www.inkscape.org/namespaces/inkscape"
   version="1.1"
   id="레이어_1"
   x="0px"
   y="0px"
   viewBox="0 0 256 256"
   style="enable-background:new 0 0 256 256;"
   xml:space="preserve"
   sodipodi:docname="preferences-desktop-keyboard-shortcuts.svg"
   inkscape:version="0.92.5 (2060ec1f9f, 2020-04-08)"><metadata
   id="metadata19"><rdf:RDF><cc:Work
       rdf:about=""><dc:format>image/svg+xml</dc:format><dc:type
         rdf:resource="http://purl.org/dc/dcmitype/StillImage" /><dc:title></dc:title></cc:Work></rdf:RDF></metadata><defs
   id="defs17" /><sodipodi:namedview
   pagecolor="#ffffff"
   bordercolor="#666666"
   borderopacity="1"
   objecttolerance="10"
   gridtolerance="10"
   guidetolerance="10"
   inkscape:pageopacity="0"
   inkscape:pageshadow="2"
   inkscape:window-width="1920"
   inkscape:window-height="1004"
   id="namedview15"
   showgrid="false"
   inkscape:zoom="1.84375"
   inkscape:cx="47.649544"
   inkscape:cy="110.24859"
   inkscape:window-x="0"
   inkscape:window-y="0"
   inkscape:window-maximized="1"
   inkscape:current-layer="레이어_1" />
<style
   type="text/css"
   id="style2">
	.st0{opacity:0.1;}
	.st1{fill:#0091B1;}
	.st2{fill:#FFFFFF;}
</style>
<g
   class="st0"
   id="g8">
	<g
   id="g6">
		<path
   d="M132.7,0.5c6.2,0,18.1,0.3,33.3,2.3c23.7,3.1,45.1,11.5,60.9,26.3h0C241.6,44.8,250,66.3,253.2,90c3,22.6,2.3,38,2.3,38    s0.7,15.4-2.3,38c-3.1,23.7-11.5,45.1-26.3,60.9l0,0c-15.7,14.8-37.2,23.2-60.9,26.3c-15.1,2-27.1,2.3-33.3,2.3    c-3.1,0-4.7-0.1-4.7-0.1s-1.7,0.1-4.7,0.1c-6.2,0-18.1-0.3-33.3-2.3c-23.7-3.1-45.1-11.5-60.9-26.3l0,0    C14.4,211.2,6,189.7,2.8,166c-3-22.6-2.3-38-2.3-38s-0.7-15.4,2.3-38C6,66.3,14.4,44.8,29.1,29.1h0C44.9,14.3,66.3,5.9,90,2.8    c15.2-2,27.1-2.3,33.3-2.3c3.1,0,4.7,0.1,4.7,0.1S129.7,0.5,132.7,0.5"
   id="path4" />
	</g>
</g>
<path
   class="st1"
   d="M251.7,90.4c-3.1-23.4-11.4-44.6-26-60.1l0,0c-15.6-14.6-36.7-22.9-60.1-26C143.2,1.3,128,2,128,2  s-15.2-0.7-37.6,2.3C67,7.4,45.8,15.7,30.3,30.3C15.7,45.8,7.5,67,4.3,90.4c-3,22.3-2.2,37.6-2.2,37.6s-0.7,15.2,2.2,37.6  c3.1,23.4,11.4,44.6,26,60.1l0,0c15.6,14.6,36.7,22.9,60.1,26c22.3,3,37.6,2.2,37.6,2.2s15.2,0.7,37.6-2.2  c23.4-3.1,44.6-11.4,60.1-26l0,0c14.6-15.6,22.9-36.7,26-60.1c3-22.3,2.2-37.6,2.2-37.6S254.7,112.8,251.7,90.4L251.7,90.4z"
   id="path10" />
<path
   d="M 73.300781 75.599609 C 64.800781 75.599609 58 82.500391 58 90.900391 L 58 165.19922 C 58 173.69922 64.900781 180.5 73.300781 180.5 L 162.80273 180.5 L 162.80273 156.66992 L 198 156.66992 L 198 90.900391 C 198 82.400391 191.09922 75.599609 182.69922 75.599609 L 73.300781 75.599609 z M 106.09961 95.400391 C 110.49961 95.400391 114 98.900781 114 103.30078 C 114 107.70078 110.49961 111.19922 106.09961 111.19922 C 101.69961 111.19922 98.199219 107.70078 98.199219 103.30078 C 98.199219 98.900781 101.69961 95.400391 106.09961 95.400391 z M 129.59961 95.400391 C 133.99961 95.400391 137.5 98.900781 137.5 103.30078 C 137.5 107.70078 133.99961 111.19922 129.59961 111.19922 C 125.19961 111.19922 121.69922 107.70078 121.69922 103.30078 C 121.69922 98.900781 125.19961 95.400391 129.59961 95.400391 z M 83.599609 95.5 C 87.999609 95.5 91.5 99.000391 91.5 103.40039 C 91.5 107.80039 87.999609 111.30078 83.599609 111.30078 C 79.199609 111.30078 75.699219 107.80039 75.699219 103.40039 C 75.699219 99.000391 79.199609 95.5 83.599609 95.5 z M 150.69922 95.5 C 155.09922 95.5 158.59961 99.000391 158.59961 103.40039 C 158.59961 107.80039 155.09922 111.30078 150.69922 111.30078 C 146.29922 111.30078 142.80078 107.80039 142.80078 103.40039 C 142.80078 99.000391 146.29922 95.5 150.69922 95.5 z M 172.69922 95.5 C 177.09922 95.5 180.59961 99.000391 180.59961 103.40039 C 180.59961 107.80039 177.09922 111.30078 172.69922 111.30078 C 168.29922 111.30078 164.80078 107.80039 164.80078 103.40039 C 164.80078 99.000391 168.29922 95.5 172.69922 95.5 z M 83.599609 120.69922 C 87.999609 120.69922 91.5 124.19961 91.5 128.59961 C 91.5 132.99961 87.999609 136.5 83.599609 136.5 C 79.199609 136.5 75.699219 132.99961 75.699219 128.59961 C 75.699219 124.19961 79.199609 120.69922 83.599609 120.69922 z M 106.09961 120.69922 C 110.49961 120.69922 114 124.19961 114 128.59961 C 114 132.99961 110.49961 136.5 106.09961 136.5 C 101.69961 136.5 98.199219 132.99961 98.199219 128.59961 C 98.199219 124.19961 101.69961 120.69922 106.09961 120.69922 z M 129.59961 120.69922 C 133.99961 120.69922 137.5 124.19961 137.5 128.59961 C 137.5 132.99961 133.99961 136.5 129.59961 136.5 C 125.19961 136.5 121.69922 132.99961 121.69922 128.59961 C 121.69922 124.19961 125.19961 120.69922 129.59961 120.69922 z M 150.69922 120.69922 C 155.09922 120.69922 158.59961 124.19961 158.59961 128.59961 C 158.59961 132.99961 155.09922 136.5 150.69922 136.5 C 146.29922 136.5 142.80078 132.99961 142.80078 128.59961 C 142.80078 124.19961 146.29922 120.69922 150.69922 120.69922 z M 172.69922 120.69922 C 177.09922 120.69922 180.59961 124.19961 180.59961 128.59961 C 180.59961 132.99961 177.09922 136.5 172.69922 136.5 C 168.29922 136.5 164.80078 132.99961 164.80078 128.59961 C 164.80078 124.19961 168.29922 120.69922 172.69922 120.69922 z M 100.90039 148.19922 L 154.59961 148.19922 L 154.59961 164.80078 L 100.90039 164.80078 L 100.90039 148.19922 z "
   id="path12"
   style="fill:#ffffff" />
<path
   id="path831"
   d="m 218.64121,184.98352 c -1.8,-1.5 -3.6,-3 -5.3,-4.5 -0.3,-0.4 -1.5,-2 -1.4,-4.3 0.1,-2 1,-3.3 1.4,-3.8 0.9,-0.4 2.9,-2.7 5.9,-5.5 2.1,-1.9 2.5,-5 1.1,-7.4 l -5.7,-9.9 c -1.5,-2.7 -4.9,-3.7 -7.7,-2.5 -2,0.7 -3.9,1.4 -5.9,2.1 -0.7,0.1 -2.5,0.4 -4.5,-0.5 -2.9,-1.3 -3.9,-3.9 -4.1,-4.5 0.1,-1.1 -0.8,-3.3 -1.1,-6.3 -0.3,-3.1 -2.9,-5.4 -6,-5.4 h -11.5 c -2.8,0 -5.2,1.9 -5.9,4.7 -0.5,2.3 -1,4.5 -1.6,6.8 -0.2,0.8 -0.7,2.1 -1.9,3.2 -2.6,2.5 -6.3,1.8 -6.7,1.7 -0.9,-0.6 -3.2,-0.9 -5.9,-2.1 -2.8,-1.3 -6.1,-0.2 -7.7,2.5 l -5.7,9.9 c -1.4,2.4 -0.9,5.5 1.1,7.4 1.8,1.7 3.7,3.4 5.5,5.1 0.4,0.4 1.8,1.9 1.9,4.3 0.2,2.9 -1.6,4.7 -1.9,5.1 -1,0.4 -2.4,2.4 -4.9,4.2 -2.5,1.8 -3.2,5.2 -1.7,7.9 l 5.7,9.9 c 1.4,2.4 4.3,3.6 7,2.7 2.5,-0.8 5.1,-1.5 7.6,-2.3 0.7,-0.2 2.1,-0.4 3.7,0.2 2.9,1 3.9,3.9 4,4.3 -0.1,1 0.8,3.3 1.5,6.5 0.6,2.7 3.1,4.7 5.9,4.7 h 11.5 c 3.1,0 5.7,-2.3 6,-5.4 0.4,-2 0.7,-4 1.1,-6.1 0.3,-0.7 1,-1.8 2.2,-2.8 2.2,-1.8 4.8,-1.7 5.5,-1.6 0.8,0.6 3.7,1.1 7.5,2.3 2.7,0.8 5.6,-0.3 7,-2.7 l 5.7,-9.9 c 1.5,-2.8 0.8,-6.2 -1.7,-8 z m -54.5,-9 c 0,-8.3 6.7,-15 15,-15 8.3,0 15,6.7 15,15 0,8.3 -6.7,15 -15,15 -8.3,0 -15,-6.7 -15,-15 z"
   class="st2"
   inkscape:connector-curvature="0"
   style="fill:#005b6f;fill-opacity:1" /></svg>