<?xml version="1.0" encoding="UTF-8" standalone="no"?>
<svg
   width="256"
   height="256"
   version="1.1"
   id="svg62"
   sodipodi:docname="calligrastage.svg"
   inkscape:version="1.1 (c4e8f9ed74, 2021-05-24)"
   xmlns:inkscape="http://www.inkscape.org/namespaces/inkscape"
   xmlns:sodipodi="http://sodipodi.sourceforge.net/DTD/sodipodi-0.dtd"
   xmlns:xlink="http://www.w3.org/1999/xlink"
   xmlns="http://www.w3.org/2000/svg"
   xmlns:svg="http://www.w3.org/2000/svg">
  <sodipodi:namedview
     id="namedview64"
     pagecolor="#ffffff"
     bordercolor="#666666"
     borderopacity="1.0"
     inkscape:pageshadow="2"
     inkscape:pageopacity="0.0"
     inkscape:pagecheckerboard="0"
     showgrid="false"
     inkscape:zoom="2.2291667"
     inkscape:cx="126.95327"
     inkscape:cy="87.925234"
     inkscape:window-width="1920"
     inkscape:window-height="1026"
     inkscape:window-x="0"
     inkscape:window-y="30"
     inkscape:window-maximized="1"
     inkscape:current-layer="svg62" />
  <defs
     id="defs34">
    <linearGradient
       id="a"
       y1="44"
       x1="29.455"
       y2="16"
       x2="15"
       gradientUnits="userSpaceOnUse"
       gradientTransform="matrix(1.1,0,0,1.10714,-2.4,-4.714)">
      <stop
         stop-color="#197cf1"
         id="stop2" />
      <stop
         offset="1"
         stop-color="#20bcfa"
         id="stop4" />
    </linearGradient>
    <linearGradient
       id="b"
       y1="16"
       y2="12"
       x2="0"
       gradientUnits="userSpaceOnUse"
       gradientTransform="matrix(1.05556,0,0,1,-1.333,-3)">
      <stop
         stop-color="#06a370"
         id="stop7" />
      <stop
         offset="1"
         stop-color="#22d1b0"
         id="stop9" />
    </linearGradient>
    <linearGradient
       id="c"
       y1="12"
       y2="8"
       x2="0"
       gradientUnits="userSpaceOnUse"
       gradientTransform="translate(0,-2)">
      <stop
         stop-color="#713e88"
         id="stop12" />
      <stop
         offset="1"
         stop-color="#9b59b6"
         id="stop14" />
    </linearGradient>
    <linearGradient
       id="d"
       y1="4"
       y2="8"
       x2="0"
       gradientUnits="userSpaceOnUse"
       gradientTransform="matrix(0.92857,0,0,1,1.714,0)">
      <stop
         stop-color="#da4453"
         id="stop17" />
      <stop
         offset="1"
         stop-color="#c0392b"
         id="stop19" />
    </linearGradient>
    <linearGradient
       id="e"
       y1="39"
       y2="23"
       x2="0"
       gradientUnits="userSpaceOnUse"
       gradientTransform="translate(0,-2)">
      <stop
         stop-color="#60c0f4"
         id="stop22" />
      <stop
         offset="1"
         stop-color="#b9e9ff"
         id="stop24" />
    </linearGradient>
    <linearGradient
       id="f"
       y1="35"
       x1="19"
       y2="46"
       x2="30"
       gradientUnits="userSpaceOnUse"
       gradientTransform="translate(0,-2)">
      <stop
         id="stop27" />
      <stop
         offset="1"
         stop-opacity="0"
         id="stop29" />
    </linearGradient>
    <linearGradient
       xlink:href="#a"
       id="g"
       y1="44.736"
       x1="21.531"
       y2="14"
       x2="2"
       gradientUnits="userSpaceOnUse" />
    <linearGradient
       xlink:href="#a"
       id="h"
       y1="46.02"
       x1="41"
       y2="11.02"
       x2="20.806"
       gradientUnits="userSpaceOnUse" />
    <linearGradient
       inkscape:collect="always"
       xlink:href="#a"
       id="linearGradient892"
       gradientUnits="userSpaceOnUse"
       gradientTransform="matrix(1.1,0,0,1.10714,-2.4,-4.714)"
       x1="29.455"
       y1="44"
       x2="15"
       y2="16" />
  </defs>
  <path
     style="opacity:0.1"
     d="m 132.79987,0.5 c 6.2,0 18.1,0.3 33.3,2.3 23.7,3.1 45.1,11.5 60.8,26.3 v 0 c 14.7,15.7 23.1,37.1 26.2,60.9 3,22.6 2.3,38 2.3,38 0,0 0.7,15.4 -2.3,38 -3.1,23.7 -11.5,45.1 -26.3,60.9 v 0 c -15.7,14.8 -37.1,23.1 -60.8,26.3 -15.1,2 -27,2.3 -33.2,2.3 -3.1,0 -4.7,-0.1 -4.7,-0.1 0,0 -1.7,0.1 -4.7,0.1 -6.2,0 -18.1,-0.3 -33.200002,-2.3 -23.7,-3.1 -45.1,-11.5 -60.8,-26.3 v 0 c -15,-15.7 -23.4000002,-37.1 -26.5000002,-60.9 -3.00000003,-22.6 -2.30000003,-38 -2.30000003,-38 0,0 -0.7,-15.4 2.30000003,-38 3.1,-23.8 11.5000002,-45.2 26.3000002,-60.9 v 0 c 15.6,-14.8 37.1,-23.2 60.7,-26.3 15.100002,-2 27.000002,-2.3 33.300002,-2.3 3.1,0 4.7,0.1 4.7,0.1 0,0 1.8,-0.1 4.9,-0.1"
     id="path4"
     inkscape:connector-curvature="0" />
  <path
     style="opacity:0.9;fill:#fafafa"
     inkscape:connector-curvature="0"
     id="path10"
     d="m 251.69967,90.40021 c -3.1,-23.4 -11.4,-44.6 -26,-60.1 v 0 c -15.6,-14.6 -36.7,-22.9 -60.1,-26 -22.4,-3 -37.6,-2.3 -37.6,-2.3 0,0 -15.2,-0.7 -37.600016,2.3 -23.4,3.1 -44.6,11.4 -60.1,26 -14.6,15.5 -22.7999992,36.7 -25.9999992,60.1 -3,22.3 -2.2,37.6 -2.2,37.6 0,0 -0.7,15.2 2.2,37.6 3.1,23.4 11.3999992,44.6 25.9999992,60.1 v 0 c 15.6,14.6 36.7,22.9 60.1,26 22.300016,3 37.600016,2.2 37.600016,2.2 0,0 15.2,0.7 37.6,-2.2 23.4,-3.1 44.6,-11.4 60.1,-26 v 0 c 14.6,-15.6 22.9,-36.7 26,-60.1 3,-22.3 2.2,-37.6 2.2,-37.6 0,0 0.8,-15.2 -2.2,-37.6"
     class="st1" />
  <g
     stroke-width="2"
     id="g54"
     transform="matrix(4,0,0,4,32,32)">
    <g
       stroke-linejoin="bevel"
       stroke-linecap="round"
       id="g44">
      <rect
         width="26"
         x="11"
         y="4"
         fill="url(#d)"
         height="7"
         id="rect36"
         style="fill:url(#d)" />
      <rect
         width="32"
         x="8"
         y="6"
         fill="url(#c)"
         height="7"
         id="rect38"
         style="fill:url(#c)" />
      <rect
         width="38"
         x="5"
         y="9"
         fill="url(#b)"
         height="7"
         id="rect40"
         style="fill:url(#b)" />
      <rect
         width="44"
         x="2"
         y="13"
         fill="url(#a)"
         height="31"
         id="rect42"
         style="fill:url(#linearGradient892)" />
    </g>
    <g
       stroke-linejoin="round"
       id="g52">
      <path
         fill="url(#g)"
         d="m 2,14.5 v 27 L 29,28 Z"
         id="path46"
         style="fill:url(#g)" />
      <path
         fill="url(#h)"
         d="M 46,19.5 2,41.5 V 44 h 44 z"
         id="path48"
         style="fill:url(#h)" />
      <path
         fill="url(#e)"
         d="m 19,23 10,5 -10,5 z"
         id="path50"
         style="fill:url(#e)" />
    </g>
  </g>
  <g
     fill-rule="evenodd"
     id="g60"
     transform="matrix(4,0,0,4,32,32)">
    <path
       opacity="0.2"
       fill="url(#f)"
       d="M 30,44 19,33 29,28 45,44 Z"
       id="path56"
       style="fill:url(#f)" />
    <rect
       width="44"
       x="2"
       y="43"
       fill="#1c5593"
       height="1"
       id="rect58" />
  </g>
</svg>
