<?xml version="1.0" encoding="UTF-8" standalone="no"?>
<svg
   xmlns:dc="http://purl.org/dc/elements/1.1/"
   xmlns:cc="http://creativecommons.org/ns#"
   xmlns:rdf="http://www.w3.org/1999/02/22-rdf-syntax-ns#"
   xmlns:svg="http://www.w3.org/2000/svg"
   xmlns="http://www.w3.org/2000/svg"
   xmlns:sodipodi="http://sodipodi.sourceforge.net/DTD/sodipodi-0.dtd"
   xmlns:inkscape="http://www.inkscape.org/namespaces/inkscape"
   version="1.1"
   id="레이어_1"
   x="0px"
   y="0px"
   viewBox="0 0 256 256"
   style="enable-background:new 0 0 256 256;"
   xml:space="preserve"
   sodipodi:docname="terminix.svg"
   inkscape:version="1.0.2 (e86c870879, 2021-01-15)"><metadata
   id="metadata21"><rdf:RDF><cc:Work
       rdf:about=""><dc:format>image/svg+xml</dc:format><dc:type
         rdf:resource="http://purl.org/dc/dcmitype/StillImage" /><dc:title></dc:title></cc:Work></rdf:RDF></metadata><defs
   id="defs19" /><sodipodi:namedview
   pagecolor="#ffffff"
   bordercolor="#666666"
   borderopacity="1"
   objecttolerance="10"
   gridtolerance="10"
   guidetolerance="10"
   inkscape:pageopacity="0"
   inkscape:pageshadow="2"
   inkscape:window-width="1852"
   inkscape:window-height="1048"
   id="namedview17"
   showgrid="false"
   inkscape:zoom="1.6386719"
   inkscape:cx="240.60533"
   inkscape:cy="141.07135"
   inkscape:window-x="68"
   inkscape:window-y="32"
   inkscape:window-maximized="1"
   inkscape:current-layer="레이어_1" />
<style
   type="text/css"
   id="style2">
	.st0{opacity:0.1;}
	.st1{fill:#333333;}
	.st2{fill:#FFFFFF;}
</style>
<g
   class="st0"
   id="g8">
	<g
   id="g6">
		<path
   d="M132.7,0.5c6.2,0,18.1,0.3,33.3,2.3c23.7,3.1,45.1,11.5,60.9,26.3h0C241.6,44.8,250,66.3,253.2,90c3,22.6,2.3,38,2.3,38    s0.7,15.4-2.3,38c-3.1,23.7-11.5,45.1-26.3,60.9l0,0c-15.7,14.8-37.2,23.2-60.9,26.3c-15.1,2-27.1,2.3-33.3,2.3    c-3.1,0-4.7-0.1-4.7-0.1s-1.7,0.1-4.7,0.1c-6.2,0-18.1-0.3-33.3-2.3c-23.7-3.1-45.1-11.5-60.9-26.3l0,0    C14.4,211.2,6,189.7,2.8,166c-3-22.6-2.3-38-2.3-38s-0.7-15.4,2.3-38C6,66.3,14.4,44.8,29.1,29.1h0C44.9,14.3,66.3,5.9,90,2.8    c15.2-2,27.1-2.3,33.3-2.3c3.1,0,4.7,0.1,4.7,0.1S129.7,0.5,132.7,0.5"
   id="path4" />
	</g>
</g>
<path
   class="st1"
   d="M251.7,90.4c-3.1-23.4-11.4-44.6-26-60.2h0c-15.5-14.6-36.7-22.9-60.1-26C143.2,1.3,128,2,128,2  s-15.2-0.7-37.6,2.2C67,7.4,45.8,15.7,30.3,30.3C15.7,45.8,7.4,67,4.3,90.4c-3,22.4-2.2,37.6-2.2,37.6s-0.7,15.2,2.2,37.6  c3.1,23.4,11.4,44.6,26,60.1v0c15.5,14.6,36.7,22.9,60.1,26c22.3,3,37.6,2.2,37.6,2.2s15.2,0.7,37.6-2.2c23.4-3.1,44.6-11.4,60.1-26  l0,0c14.6-15.5,22.9-36.7,26-60.1c3-22.4,2.2-37.6,2.2-37.6S254.6,112.8,251.7,90.4"
   id="path10" />


<path
   id="path10-7"
   style="fill:#4d4d4d"
   d="m 135.58985,1.931637 c -3.85313,-0.029883 -5.99024,0.068359 -5.99024,0.068359 V 253.89843 c 0,0 15.19961,0.70078 37.59961,-2.19921 23.4,-3.10001 44.59961,-11.4 60.09961,-26 14.6,-15.5 22.9,-36.69961 26,-60.09961 3,-22.4 2.20117,-37.59961 2.20117,-37.59961 0,0 0.69883,-15.20157 -2.20117,-37.60157 -3.1,-23.399996 -11.4,-44.599215 -26,-60.199215 -15.5,-14.6 -36.69961,-22.9 -60.09961,-26 -14,-1.8125 -25.1875,-2.217773 -31.60937,-2.267578 z" /><path
   class="st2"
   d="m 160.95281,109.57418 c -3.64364,0 -7.24338,0 -10.88702,0 8.20916,-8.77986 16.41833,-17.559713 24.6275,-26.339571 C 166.13293,74.45475 157.61646,65.674893 149.1,56.895035 c 3.68754,0.0439 7.37508,0.131698 11.10652,0.175597 8.47257,8.735959 16.90123,17.428018 25.37379,26.163977 -8.20917,8.779858 -16.41833,17.559711 -24.6275,26.339571 z"
   id="path12-3"
   style="fill:#ffffff;stroke-width:0.438993" /><rect
   x="187.02899"
   y="102.0674"
   class="st2"
   width="30.071012"
   height="7.5067787"
   id="rect14-6"
   style="fill:#ffffff;stroke-width:0.438993" /><path
   class="st2"
   d="m 50.052809,108.74655 c -3.643642,0 -7.243383,0 -10.887024,0 C 47.374952,99.966688 55.584119,91.186828 63.793286,82.406971 55.232924,73.627113 46.716463,64.847256 38.200001,56.067398 c 3.68754,0.0439 7.37508,0.131698 11.106519,0.175597 8.472563,8.735958 16.901227,17.428018 25.373789,26.163976 -8.209166,8.779857 -16.418334,17.559717 -24.6275,26.339579 z"
   id="path12"
   style="stroke-width:0.438993" /><rect
   x="76.12899"
   y="101.23976"
   class="st2"
   width="30.071012"
   height="7.5067782"
   id="rect14"
   style="stroke-width:0.438993" /></svg>
