<?xml version="1.0" encoding="UTF-8" standalone="no"?>
<svg
   xmlns:dc="http://purl.org/dc/elements/1.1/"
   xmlns:cc="http://creativecommons.org/ns#"
   xmlns:rdf="http://www.w3.org/1999/02/22-rdf-syntax-ns#"
   xmlns:svg="http://www.w3.org/2000/svg"
   xmlns="http://www.w3.org/2000/svg"
   xmlns:xlink="http://www.w3.org/1999/xlink"
   xmlns:sodipodi="http://sodipodi.sourceforge.net/DTD/sodipodi-0.dtd"
   xmlns:inkscape="http://www.inkscape.org/namespaces/inkscape"
   version="1.1"
   id="레이어_1"
   x="0px"
   y="0px"
   viewBox="0 0 256 256"
   style="enable-background:new 0 0 256 256;"
   xml:space="preserve"
   sodipodi:docname="texstudio.svg"
   inkscape:version="1.0.2 (e86c870879, 2021-01-15)"><metadata
   id="metadata35"><rdf:RDF><cc:Work
       rdf:about=""><dc:format>image/svg+xml</dc:format><dc:type
         rdf:resource="http://purl.org/dc/dcmitype/StillImage" /><dc:title></dc:title></cc:Work></rdf:RDF></metadata><defs
   id="defs33">
	
	

		
		
		
		
	
			<defs
   id="defs11">
				<path
   id="SVGID_1_"
   d="M 251.7,90.4 C 248.6,67 240.3,45.8 225.7,30.2 v 0 C 210.2,15.6 189,7.3 165.6,4.2 143.2,1.3 128,2 128,2 128,2 112.8,1.3 90.4,4.2 67,7.4 45.8,15.7 30.3,30.3 15.7,45.8 7.4,67 4.3,90.4 1.3,112.8 2.1,128 2.1,128 c 0,0 -0.7,15.2 2.2,37.6 3.1,23.4 11.4,44.6 26,60.1 v 0 c 15.5,14.6 36.7,22.9 60.1,26 22.3,3 37.6,2.2 37.6,2.2 0,0 15.2,0.7 37.6,-2.2 23.4,-3.1 44.6,-11.4 60.1,-26 v 0 c 14.6,-15.5 22.9,-36.7 26,-60.1 3,-22.4 2.2,-37.6 2.2,-37.6 0,0 0.7,-15.2 -2.2,-37.6" />
			</defs>
			
			<clipPath
   id="SVGID_2_">
				<use
   xlink:href="#SVGID_1_"
   style="overflow:visible"
   id="use15"
   x="0"
   y="0"
   width="100%"
   height="100%" />
			</clipPath>
			
		
			
		
				
			</defs><sodipodi:namedview
   pagecolor="#ffffff"
   bordercolor="#666666"
   borderopacity="1"
   objecttolerance="10"
   gridtolerance="10"
   guidetolerance="10"
   inkscape:pageopacity="0"
   inkscape:pageshadow="2"
   inkscape:window-width="923"
   inkscape:window-height="552"
   id="namedview31"
   showgrid="false"
   inkscape:zoom="1.6386719"
   inkscape:cx="2.5492693"
   inkscape:cy="188.25823"
   inkscape:window-x="628"
   inkscape:window-y="145"
   inkscape:window-maximized="0"
   inkscape:current-layer="레이어_1" />
<style
   type="text/css"
   id="style2">
	.st0{opacity:0.1;}
	.st1{clip-path:url(#SVGID_2_);fill:#E85A30;}
	.st2{fill:#FFFFFF;}
	.st3{fill:#C64A00;}
</style>
<path
   d="m 132.7,0.5 c 6.2,0 18.1,0.3 33.3,2.3 23.7,3.1 45.1,11.5 60.9,26.3 v 0 c 14.7,15.7 23.1,37.2 26.3,60.9 3,22.6 2.3,38 2.3,38 0,0 0.7,15.4 -2.3,38 -3.1,23.7 -11.5,45.1 -26.3,60.9 v 0 c -15.7,14.8 -37.2,23.2 -60.9,26.3 -15.1,2 -27.1,2.3 -33.3,2.3 -3.1,0 -4.7,-0.1 -4.7,-0.1 0,0 -1.7,0.1 -4.7,0.1 -6.2,0 -18.1,-0.3 -33.3,-2.3 -23.7,-3.1 -45.1,-11.5 -60.9,-26.3 v 0 C 14.4,211.2 6,189.7 2.8,166 -0.2,143.4 0.5,128 0.5,128 0.5,128 -0.2,112.6 2.8,90 6,66.3 14.4,44.8 29.1,29.1 v 0 C 44.9,14.3 66.3,5.9 90,2.8 c 15.2,-2 27.1,-2.3 33.3,-2.3 3.1,0 4.7,0.1 4.7,0.1 0,0 1.7,-0.1 4.7,-0.1"
   id="path4"
   style="opacity:0.1" /><path
   id="use13"
   d="M 251.7,90.4 C 248.6,67 240.3,45.8 225.7,30.2 v 0 C 210.2,15.6 189,7.3 165.6,4.2 143.2,1.3 128,2 128,2 128,2 112.8,1.3 90.4,4.2 67,7.4 45.8,15.7 30.3,30.3 15.7,45.8 7.4,67 4.3,90.4 1.3,112.8 2.1,128 2.1,128 c 0,0 -0.7,15.2 2.2,37.6 3.1,23.4 11.4,44.6 26,60.1 v 0 c 15.5,14.6 36.7,22.9 60.1,26 22.3,3 37.6,2.2 37.6,2.2 0,0 15.2,0.7 37.6,-2.2 23.4,-3.1 44.6,-11.4 60.1,-26 v 0 c 14.6,-15.5 22.9,-36.7 26,-60.1 3,-22.4 2.2,-37.6 2.2,-37.6 0,0 0.7,-15.2 -2.2,-37.6"
   style="fill:#2c68a5;fill-opacity:1" /><path
   id="path22"
   d="M 81.5 55.400391 C 71.8 55.400391 63.400391 60.7 58.900391 68.5 C 66.900391 69.4 73.199219 76.200391 73.199219 84.400391 C 73.199219 93.200391 65.999219 100.40039 57.199219 100.40039 C 56.599219 100.40039 56.1 100.40078 55.5 100.30078 L 55.5 111.80078 C 56.1 111.70078 56.599219 111.69922 57.199219 111.69922 C 65.999219 111.69922 73.199219 118.89922 73.199219 127.69922 C 73.199219 136.49922 65.999219 143.69922 57.199219 143.69922 C 56.599219 143.69922 56.1 143.69961 55.5 143.59961 L 55.5 155.09961 C 56.1 154.99961 56.599219 155 57.199219 155 C 65.999219 155 73.199219 162.2 73.199219 171 C 73.199219 179.3 66.900391 186.00039 58.900391 186.90039 C 63.400391 194.70039 71.8 200 81.5 200 L 140.90039 200 C 160.70039 179.9 180.49922 159.90078 200.19922 139.80078 L 200.19922 81.400391 C 200.19922 67.100391 188.59922 55.400391 174.19922 55.400391 L 81.5 55.400391 z M 84.451172 80.548828 L 114.82617 80.548828 L 114.82617 86.896484 L 102.96094 86.896484 L 102.96094 123.02539 L 96.316406 123.02539 L 96.316406 86.896484 L 84.451172 86.896484 L 84.451172 80.548828 z M 147.87109 80.548828 L 155.93945 80.548828 L 165.3125 95.677734 L 165.66797 95.677734 L 174.98242 80.548828 L 183.11133 80.548828 L 169.93945 100.95703 L 184.06055 123.02539 L 175.99219 123.02539 L 165.66797 106.5918 L 165.3125 106.5918 L 154.99023 123.02539 L 146.92188 123.02539 L 160.98242 100.95703 L 147.87109 80.548828 z M 128.88672 91.820312 C 131.93211 91.820312 134.56251 92.493171 136.77734 93.837891 C 139.03173 95.182611 140.73194 97.021983 141.87891 99.355469 C 143.06543 101.68895 143.6582 104.31935 143.6582 107.24609 C 143.6582 107.7998 143.59912 108.4917 143.48047 109.32227 L 120.28516 109.32227 C 120.52246 112.13035 121.50977 114.30518 123.25 115.84766 C 125.02978 117.35058 127.08644 118.10156 129.41992 118.10156 C 131.2788 118.10156 132.88184 117.68604 134.22656 116.85547 C 135.61084 115.98536 136.71827 114.81884 137.54883 113.35547 L 143.06641 115.9668 C 141.64259 118.45848 139.78221 120.41602 137.48828 121.83984 C 135.19434 123.26366 132.44578 123.97461 129.24219 123.97461 C 126.27589 123.97461 123.6074 123.2827 121.23438 121.89844 C 118.90089 120.51416 117.06152 118.61572 115.7168 116.20312 C 114.41163 113.75099 113.75781 111.00242 113.75781 107.95703 C 113.75781 105.06984 114.39064 102.3994 115.65625 99.947266 C 116.96142 97.455578 118.76271 95.478997 121.05664 94.015625 C 123.35057 92.552253 125.95997 91.820313 128.88672 91.820312 z M 128.88672 97.457031 C 126.79054 97.457031 125.01024 98.089849 123.54688 99.355469 C 122.12305 100.58154 121.13574 102.24171 120.58203 104.33789 L 137.01367 104.33789 C 136.93457 103.27002 136.59912 102.22167 136.00586 101.19336 C 135.4126 100.12549 134.50341 99.235349 133.27734 98.523438 C 132.09082 97.811526 130.62695 97.457031 128.88672 97.457031 z "
   style="fill:#ffffff;fill-opacity:1" /><path
   class="st3"
   d="m 140.7,160.8 c 0,-11.7 9.5,-21.2 21.2,-21.2 h 38.6 c -19.9,20.3 -39.9,40.6 -59.8,60.9 z"
   id="path24"
   style="fill:#1f4a79;fill-opacity:1" />

</svg>
