<?xml version="1.0" encoding="UTF-8" standalone="no"?>
<!-- Generator: Adobe Illustrator 23.0.0, SVG Export Plug-In . SVG Version: 6.00 Build 0)  -->

<svg
   xmlns:dc="http://purl.org/dc/elements/1.1/"
   xmlns:cc="http://creativecommons.org/ns#"
   xmlns:rdf="http://www.w3.org/1999/02/22-rdf-syntax-ns#"
   xmlns:svg="http://www.w3.org/2000/svg"
   xmlns="http://www.w3.org/2000/svg"
   xmlns:sodipodi="http://sodipodi.sourceforge.net/DTD/sodipodi-0.dtd"
   xmlns:inkscape="http://www.inkscape.org/namespaces/inkscape"
   version="1.1"
   id="레이어_1"
   x="0px"
   y="0px"
   viewBox="0 0 256 256"
   style="enable-background:new 0 0 256 256;"
   xml:space="preserve"
   sodipodi:docname="text-editor.svg"
   inkscape:version="0.92.5 (2060ec1f9f, 2020-04-08)"><metadata
   id="metadata21"><rdf:RDF><cc:Work
       rdf:about=""><dc:format>image/svg+xml</dc:format><dc:type
         rdf:resource="http://purl.org/dc/dcmitype/StillImage" /><dc:title></dc:title></cc:Work></rdf:RDF></metadata><defs
   id="defs19">
		
		
	
			
		
				
			
	
	
</defs><sodipodi:namedview
   pagecolor="#ffffff"
   bordercolor="#666666"
   borderopacity="1"
   objecttolerance="10"
   gridtolerance="10"
   guidetolerance="10"
   inkscape:pageopacity="0"
   inkscape:pageshadow="2"
   inkscape:window-width="944"
   inkscape:window-height="677"
   id="namedview17"
   showgrid="false"
   inkscape:zoom="1.4960938"
   inkscape:cx="128"
   inkscape:cy="128"
   inkscape:window-x="830"
   inkscape:window-y="222"
   inkscape:window-maximized="0"
   inkscape:current-layer="레이어_1" />
<style
   type="text/css"
   id="style2">
	.st0{opacity:0.1;}
	.st1{fill:#FAFAFA;}
</style>
<path
   style="opacity:0.1"
   d="m 132.8,0.5 c 6.2,0 18.1,0.3 33.3,2.3 23.7,3.1 45.1,11.5 60.8,26.3 v 0 c 14.7,15.7 23.1,37.1 26.2,60.9 3,22.6 2.3,38 2.3,38 0,0 0.7,15.4 -2.3,38 -3.1,23.7 -11.5,45.1 -26.3,60.9 v 0 c -15.7,14.8 -37.1,23.1 -60.8,26.3 -15.1,2 -27,2.3 -33.2,2.3 -3.1,0 -4.7,-0.1 -4.7,-0.1 0,0 -1.7,0.1 -4.7,0.1 -6.2,0 -18.1,-0.3 -33.2,-2.3 -23.7,-3.1 -45.1,-11.5 -60.8,-26.3 v 0 C 14.4,211.2 6,189.8 2.9,166 -0.1,143.4 0.6,128 0.6,128 0.6,128 -0.1,112.6 2.9,90 6,66.2 14.4,44.8 29.2,29.1 v 0 C 44.8,14.3 66.3,5.9 89.9,2.8 c 15.1,-2 27,-2.3 33.3,-2.3 3.1,0 4.7,0.1 4.7,0.1 0,0 1.8,-0.1 4.9,-0.1"
   id="path4"
   inkscape:connector-curvature="0" />

<path
   style="opacity:0.9;fill:#e85a30;fill-opacity:1"
   inkscape:connector-curvature="0"
   id="path10"
   d="m 251.6998,90.400211 c -3.1,-23.4 -11.4,-44.6 -26,-60.1 v 0 c -15.6,-14.6 -36.7,-22.9000004 -60.1,-26.0000004 -22.4,-3 -37.6,-2.3 -37.6,-2.3 0,0 -15.2,-0.7 -37.600014,2.3 -23.4,3.1 -44.6,11.4000004 -60.1,26.0000004 -14.6,15.5 -22.7999996,36.7 -25.9999996,60.1 -3,22.299999 -2.2,37.599999 -2.2,37.599999 0,0 -0.7,15.2 2.2,37.6 3.1,23.4 11.3999996,44.6 25.9999996,60.1 v 0 c 15.6,14.6 36.7,22.9 60.1,26 22.300014,3 37.600014,2.2 37.600014,2.2 0,0 15.2,0.7 37.6,-2.2 23.4,-3.1 44.6,-11.4 60.1,-26 v 0 c 14.6,-15.6 22.9,-36.7 26,-60.1 3,-22.3 2.2,-37.6 2.2,-37.6 0,0 0.8,-15.2 -2.2,-37.599999"
   class="st1" /><path
   inkscape:connector-curvature="0"
   class="st2"
   d="M 174.2,55.4 H 81.5 c -9.7,0 -18.1,5.3 -22.6,13.1 8,0.9 14.3,7.7 14.3,15.9 0,8.8 -7.2,16 -16,16 -0.6,0 -1.1,0 -1.7,-0.1 v 11.5 c 0.6,-0.1 1.1,-0.1 1.7,-0.1 8.8,0 16,7.2 16,16 0,8.8 -7.2,16 -16,16 -0.6,0 -1.1,0 -1.7,-0.1 v 11.5 c 0.6,-0.1 1.1,-0.1 1.7,-0.1 8.8,0 16,7.2 16,16 0,8.3 -6.3,15 -14.3,15.9 4.5,7.8 12.9,13.1 22.6,13.1 19.6,0.1 39.3,0.3 58.9,0.4 19.9,-20.2 39.9,-40.4 59.8,-60.6 0,-19.5 0,-39 0,-58.5 0,-14.2 -11.6,-25.9 -26,-25.9 z m -38.1,84.2 H 92.4 v -7.9 h 43.7 z M 179.8,113 H 92.4 v -7.9 h 87.4 z m 0,-26.7 H 92.4 v -7.9 h 87.4 z"
   id="path22"
   style="fill:#ffffff;fill-opacity:1" /><path
   inkscape:connector-curvature="0"
   class="st3"
   d="m 140.4,160.8 c 0,-11.7 9.5,-21.2 21.2,-21.2 12.9,0.1 25.7,0.2 38.6,0.3 -19.9,20.2 -39.9,40.4 -59.8,60.6 z"
   id="path24"
   style="fill:#c64a00;fill-opacity:1" /></svg>