<?xml version="1.0" encoding="UTF-8" standalone="no"?>
<svg
   xmlns:dc="http://purl.org/dc/elements/1.1/"
   xmlns:cc="http://creativecommons.org/ns#"
   xmlns:rdf="http://www.w3.org/1999/02/22-rdf-syntax-ns#"
   xmlns:svg="http://www.w3.org/2000/svg"
   xmlns="http://www.w3.org/2000/svg"
   xmlns:sodipodi="http://sodipodi.sourceforge.net/DTD/sodipodi-0.dtd"
   xmlns:inkscape="http://www.inkscape.org/namespaces/inkscape"
   version="1.1"
   id="레이어_1"
   x="0px"
   y="0px"
   viewBox="0 0 256 256"
   style="enable-background:new 0 0 256 256;"
   xml:space="preserve"
   sodipodi:docname="uberwriter.svg"
   inkscape:version="1.0.2 (e86c870879, 2021-01-15)"><metadata
   id="metadata31"><rdf:RDF><cc:Work
       rdf:about=""><dc:format>image/svg+xml</dc:format><dc:type
         rdf:resource="http://purl.org/dc/dcmitype/StillImage" /><dc:title></dc:title></cc:Work></rdf:RDF></metadata><defs
   id="defs29">
	
	

		
		
		
	
			
			
			
			
		
			
		
				
			</defs><sodipodi:namedview
   pagecolor="#ffffff"
   bordercolor="#666666"
   borderopacity="1"
   objecttolerance="10"
   gridtolerance="10"
   guidetolerance="10"
   inkscape:pageopacity="0"
   inkscape:pageshadow="2"
   inkscape:window-width="1852"
   inkscape:window-height="1048"
   id="namedview27"
   showgrid="false"
   inkscape:zoom="1.84375"
   inkscape:cx="45.942089"
   inkscape:cy="156.87528"
   inkscape:window-x="68"
   inkscape:window-y="32"
   inkscape:window-maximized="1"
   inkscape:current-layer="레이어_1"
   inkscape:document-rotation="0" />
<style
   type="text/css"
   id="style2">
	.st0{opacity:0.1;}
	.st1{fill:#0094D2;}
	.st2{fill:#FFFFFF;}
	.st3{fill:#005CB8;}
</style>
<path
   d="m 132.7,0.5 c 6.2,0 18.1,0.3 33.3,2.3 23.7,3.1 45.1,11.5 60.9,26.3 v 0 c 14.7,15.7 23.1,37.2 26.3,60.9 3,22.6 2.3,38 2.3,38 0,0 0.7,15.4 -2.3,38 -3.1,23.7 -11.5,45.1 -26.3,60.9 v 0 c -15.7,14.8 -37.2,23.2 -60.9,26.3 -15.1,2 -27.1,2.3 -33.3,2.3 -3.1,0 -4.7,-0.1 -4.7,-0.1 0,0 -1.7,0.1 -4.7,0.1 -6.2,0 -18.1,-0.3 -33.3,-2.3 -23.7,-3.1 -45.1,-11.5 -60.9,-26.3 v 0 C 14.4,211.2 6,189.7 2.8,166 -0.2,143.4 0.5,128 0.5,128 0.5,128 -0.2,112.6 2.8,90 6,66.3 14.4,44.8 29.1,29.1 v 0 C 44.9,14.3 66.3,5.9 90,2.8 c 15.2,-2 27.1,-2.3 33.3,-2.3 3.1,0 4.7,0.1 4.7,0.1 0,0 1.7,-0.1 4.7,-0.1"
   id="path4"
   inkscape:connector-curvature="0"
   style="opacity:0.1" /><path
   class="st1"
   d="m 251.89176,90.4 c -3.1,-23.4 -11.4,-44.6 -26,-60.1 v 0 c -15.6,-14.6 -36.7,-22.9 -60.1,-26 -22.4,-3 -37.6,-2.3 -37.6,-2.3 0,0 -15.2,-0.7 -37.600002,2.3 -23.4,3.1 -44.6,11.4 -60.1,26 -14.6,15.5 -22.8000002,36.7 -26.0000002,60.1 -3,22.3 -2.2,37.6 -2.2,37.6 0,0 -0.7,15.2 2.2,37.6 3.1,23.4 11.4000002,44.6 26.0000002,60.1 v 0 c 15.6,14.6 36.7,22.9 60.1,26 22.300002,3 37.600002,2.2 37.600002,2.2 0,0 15.2,0.7 37.6,-2.2 23.4,-3.1 44.6,-11.4 60.1,-26 v 0 c 14.6,-15.6 22.9,-36.7 26,-60.1 3,-22.3 2.2,-37.6 2.2,-37.6 0,0 0.8,-15.2 -2.2,-37.6"
   id="path10"
   inkscape:connector-curvature="0"
   style="fill:#f2f2f2;fill-opacity:1" />

<path
   d="m 55.659074,78.927145 v 65.434435 c 0,7.93081 0.82598,15.15464 2.43594,21.74848 1.61696,6.41885 4.08091,12.14471 7.93081,16.7996 9.62477,11.63373 23.77844,15.00065 36.777126,15.01464 15.86162,0.0233 29.86129,-1.71495 43.86095,-6.99983 V 78.955145 H 125.6644 V 176.9248 c -6.99983,1.81296 -13.99966,2.55494 -20.6425,2.61794 -10.422756,0.098 -17.828576,-3.05892 -22.259466,-9.17678 -4.4029,-6.11785 -6.09686,-16.28161 -6.09686,-30.46327 V 78.934145"
   fill="#ff7700"
   stroke-width="6.99983"
   id="path4-3" /><path
   d="m 174.66557,43.927975 h 13.99967 V 211.92397 h -13.99967"
   fill="#333333"
   stroke-width="6.72544"
   id="path6" /></svg>
