<?xml version="1.0" encoding="UTF-8" standalone="no"?>
<!-- Generator: Adobe Illustrator 23.0.0, SVG Export Plug-In . SVG Version: 6.00 Build 0)  -->

<svg
   xmlns:ns="&amp;#38;ns_sfw;"
   xmlns:dc="http://purl.org/dc/elements/1.1/"
   xmlns:cc="http://creativecommons.org/ns#"
   xmlns:rdf="http://www.w3.org/1999/02/22-rdf-syntax-ns#"
   xmlns:svg="http://www.w3.org/2000/svg"
   xmlns="http://www.w3.org/2000/svg"
   xmlns:sodipodi="http://sodipodi.sourceforge.net/DTD/sodipodi-0.dtd"
   xmlns:inkscape="http://www.inkscape.org/namespaces/inkscape"
   version="1.1"
   id="레이어_1"
   x="0px"
   y="0px"
   viewBox="0 0 256 256"
   style="enable-background:new 0 0 256 256;"
   xml:space="preserve"
   sodipodi:docname="web-twitter.svg"
   inkscape:version="0.92.5 (2060ec1f9f, 2020-04-08)"><defs
   id="defs19"><linearGradient
     id="a"
     x1="135"
     x2="160"
     y1="120"
     y2="160"
     gradientTransform="matrix(0.05623,0,0,0.05623,0.071601,-0.05278)"
     gradientUnits="userSpaceOnUse"><stop
       stop-color="#eff7fc"
       offset="0"
       id="stop2" /><stop
       stop-color="#fff"
       offset="1"
       id="stop4" /></linearGradient></defs><sodipodi:namedview
   pagecolor="#ffffff"
   bordercolor="#666666"
   borderopacity="1"
   objecttolerance="10"
   gridtolerance="10"
   guidetolerance="10"
   inkscape:pageopacity="0"
   inkscape:pageshadow="2"
   inkscape:window-width="1920"
   inkscape:window-height="998"
   id="namedview17"
   showgrid="false"
   inkscape:zoom="0.921875"
   inkscape:cx="-62.372881"
   inkscape:cy="128"
   inkscape:window-x="0"
   inkscape:window-y="24"
   inkscape:window-maximized="1"
   inkscape:current-layer="레이어_1" />
<style
   type="text/css"
   id="style2">
	.st0{opacity:0.1;}
	.st1{fill:#60BAFF;}
	.st2{fill-rule:evenodd;clip-rule:evenodd;fill:#FFFFFF;}
</style>
<metadata
   id="metadata4">
	<ns:sfw>
		<ns:slices />
		<ns:sliceSourceBounds
   bottomLeftOrigin="true"
   height="255.1"
   width="255"
   x="0.5"
   y="0.5" />
	</ns:sfw>
<rdf:RDF><cc:Work
     rdf:about=""><dc:format>image/svg+xml</dc:format><dc:type
       rdf:resource="http://purl.org/dc/dcmitype/StillImage" /><dc:title></dc:title></cc:Work></rdf:RDF></metadata>
<g
   class="st0"
   id="g10">
	<g
   id="g8">
		<path
   d="M132.8,0.5c6.2,0,18.1,0.3,33.3,2.3c23.7,3.1,45.1,11.5,60.8,26.3l0,0C241.6,44.8,250,66.2,253.1,90c3,22.6,2.3,38,2.3,38    s0.7,15.4-2.3,38c-3.1,23.7-11.5,45.1-26.3,60.9l0,0c-15.7,14.8-37.1,23.1-60.8,26.3c-15.1,2-27,2.3-33.2,2.3    c-3.1,0-4.7-0.1-4.7-0.1s-1.7,0.1-4.7,0.1c-6.2,0-18.1-0.3-33.2-2.3c-23.7-3.1-45.1-11.5-60.8-26.3l0,0    C14.4,211.2,6,189.8,2.9,166c-3-22.6-2.3-38-2.3-38s-0.7-15.4,2.3-38C6,66.2,14.4,44.8,29.2,29.1l0,0C44.8,14.3,66.3,5.9,89.9,2.8    c15.1-2,27-2.3,33.3-2.3c3.1,0,4.7,0.1,4.7,0.1S129.7,0.5,132.8,0.5"
   id="path6" />
	</g>
</g>
<path
   class="st1"
   d="M251.7,90.4c-3.1-23.4-11.4-44.6-26-60.1l0,0c-15.6-14.6-36.7-22.9-60.1-26C143.2,1.3,128,2,128,2  s-15.2-0.7-37.6,2.3C67,7.4,45.8,15.7,30.3,30.3C15.7,45.8,7.5,67,4.3,90.4c-3,22.3-2.2,37.6-2.2,37.6s-0.7,15.2,2.2,37.6  c3.1,23.4,11.4,44.6,26,60.1l0,0c15.6,14.6,36.7,22.9,60.1,26c22.3,3,37.6,2.2,37.6,2.2s15.2,0.7,37.6-2.2  c23.4-3.1,44.6-11.4,60.1-26l0,0c14.6-15.6,22.9-36.7,26-60.1c3-22.3,2.2-37.6,2.2-37.6S254.7,112.8,251.7,90.4"
   id="path12"
   style="fill:#1da1ff;fill-opacity:1" />

<g
   id="g829"
   transform="matrix(21.64525,0,0,21.64525,-55.270328,-6117.304)"><path
     id="path827"
     d="m 9.402,285.472 c -0.669,0.25 -1.091,0.89 -1.044,1.594 l 0.017,0.271 -0.268,-0.033 C 7.134,287.177 6.283,286.746 5.56,286.021 l -0.353,-0.36 -0.091,0.267 c -0.193,0.591 -0.07,1.217 0.331,1.637 0.214,0.232 0.166,0.265 -0.204,0.127 -0.128,-0.044 -0.241,-0.077 -0.252,-0.06 -0.037,0.039 0.092,0.542 0.193,0.742 0.139,0.277 0.423,0.548 0.733,0.708 l 0.263,0.127 -0.31,0.006 c -0.3,0 -0.31,0.006 -0.28,0.122 0.107,0.36 0.53,0.742 1.001,0.908 l 0.332,0.116 -0.289,0.177 a 2.96,2.96 0 0 1 -1.433,0.41 c -0.241,0.005 -0.438,0.027 -0.438,0.043 0,0.055 0.652,0.364 1.032,0.486 1.14,0.36 2.494,0.205 3.512,-0.409 0.722,-0.437 1.445,-1.305 1.782,-2.146 0.182,-0.449 0.364,-1.267 0.364,-1.663 0,-0.254 0.016,-0.288 0.316,-0.592 0.177,-0.177 0.343,-0.37 0.375,-0.426 0.054,-0.106 0.048,-0.106 -0.225,-0.01 -0.455,0.166 -0.52,0.145 -0.294,-0.105 0.166,-0.177 0.364,-0.497 0.364,-0.591 0,-0.016 -0.08,0.009 -0.171,0.06 -0.096,0.055 -0.31,0.138 -0.471,0.187 l -0.29,0.094 -0.262,-0.182 c -0.144,-0.1 -0.348,-0.21 -0.455,-0.244 a 1.795,1.795 0 0 0 -0.936,0.022"
     inkscape:connector-curvature="0"
     style="fill:#ffffff;fill-opacity:0.99593494" /></g></svg>