<?xml version="1.0" encoding="UTF-8" standalone="no"?>
<svg
   xmlns:dc="http://purl.org/dc/elements/1.1/"
   xmlns:cc="http://creativecommons.org/ns#"
   xmlns:rdf="http://www.w3.org/1999/02/22-rdf-syntax-ns#"
   xmlns:svg="http://www.w3.org/2000/svg"
   xmlns="http://www.w3.org/2000/svg"
   xmlns:sodipodi="http://sodipodi.sourceforge.net/DTD/sodipodi-0.dtd"
   xmlns:inkscape="http://www.inkscape.org/namespaces/inkscape"
   enable-background="new 0 0 70 70"
   version="1.1"
   viewBox="0 0 256 256"
   xml:space="preserve"
   id="svg31"
   sodipodi:docname="webstorm.svg"
   width="256"
   height="256"
   inkscape:version="0.92.5 (2060ec1f9f, 2020-04-08)"><metadata
   id="metadata37"><rdf:RDF><cc:Work
       rdf:about=""><dc:format>image/svg+xml</dc:format><dc:type
         rdf:resource="http://purl.org/dc/dcmitype/StillImage" /><dc:title></dc:title></cc:Work></rdf:RDF></metadata><defs
   id="defs35" /><sodipodi:namedview
   pagecolor="#ffffff"
   bordercolor="#666666"
   borderopacity="1"
   objecttolerance="10"
   gridtolerance="10"
   guidetolerance="10"
   inkscape:pageopacity="0"
   inkscape:pageshadow="2"
   inkscape:window-width="1920"
   inkscape:window-height="1004"
   id="namedview33"
   showgrid="false"
   inkscape:zoom="1.19198"
   inkscape:cx="202.68875"
   inkscape:cy="64.064074"
   inkscape:window-x="0"
   inkscape:window-y="0"
   inkscape:window-maximized="1"
   inkscape:current-layer="svg31" />
	<linearGradient
   id="c"
   x1="25.068001"
   x2="43.182999"
   y1="1.4599"
   y2="66.675003"
   gradientUnits="userSpaceOnUse">
		<stop
   stop-color="#00CDD7"
   offset=".2849"
   id="stop2" />
		<stop
   stop-color="#2086D7"
   offset=".9409"
   id="stop4" />
	</linearGradient>
 
 <linearGradient
   id="b"
   x1="30.719999"
   x2="61.365002"
   y1="9.7342997"
   y2="54.671001"
   gradientUnits="userSpaceOnUse">
		<stop
   stop-color="#FFF045"
   offset=".1398"
   id="stop9" />
		<stop
   stop-color="#00CDD7"
   offset=".3656"
   id="stop11" />
	</linearGradient>
	
	<linearGradient
   id="a"
   x1="61.082001"
   x2="65.106003"
   y1="15.29"
   y2="29.544001"
   gradientUnits="userSpaceOnUse">
		<stop
   stop-color="#00CDD7"
   offset=".2849"
   id="stop16" />
		<stop
   stop-color="#2086D7"
   offset=".9409"
   id="stop18" />
 </linearGradient>
	
	
	
	
 
<path
   d="m 132.79987,0.49999 c 6.2,0 18.1,0.30001 33.3,2.30001 23.7,3.1 45.1,11.5 60.8,26.3 v 0 c 14.7,15.7 23.1,37.09999 26.2,60.9 3,22.6 2.3,38 2.3,38 0,0 0.7,15.4 -2.3,38 -3.1,23.7 -11.5,45.1 -26.3,60.9 v 0 c -15.7,14.8 -37.1,23.1 -60.8,26.3 -15.1,2 -27,2.3 -33.2,2.3 -3.1,0 -4.7,-0.1 -4.7,-0.1 0,0 -1.7,0.1 -4.7,0.1 -6.2,0 -18.1,-0.3 -33.200002,-2.3 -23.7,-3.1 -45.1,-11.5 -60.8,-26.3 v 0 c -15,-15.7 -23.4000002,-37.1 -26.5000002,-60.9 -3.00000003,-22.6 -2.30000003,-38 -2.30000003,-38 0,0 -0.7,-15.4 2.30000003,-38 3.1,-23.80001 11.5000002,-45.2 26.3000002,-60.9 v 0 c 15.6,-14.8 37.1,-23.2 60.7,-26.3 15.100002,-2 27.000002,-2.30001 33.300002,-2.30001 3.1,0 4.7,0.1 4.7,0.1 0,0 1.8,-0.1 4.9,-0.1"
   id="path4"
   inkscape:connector-curvature="0"
   style="opacity:0.1" /><path
   class="st1"
   d="m 251.69987,90.4 c -3.1,-23.40001 -11.4,-44.6 -26,-60.1 v 0 c -15.6,-14.6 -36.7,-22.9 -60.1,-26 -22.4,-3 -37.6,-2.30001 -37.6,-2.30001 0,0 -15.2,-0.69999 -37.600002,2.30001 -23.4,3.1 -44.6,11.4 -60.1,26 -14.6,15.5 -22.8000002,36.69999 -26.0000002,60.1 -3,22.3 -2.2,37.6 -2.2,37.6 0,0 -0.7,15.2 2.2,37.6 3.1,23.4 11.4000002,44.6 26.0000002,60.1 v 0 c 15.6,14.6 36.7,22.9 60.1,26 22.300002,3 37.600002,2.2 37.600002,2.2 0,0 15.2,0.7 37.6,-2.2 23.4,-3.1 44.6,-11.4 60.1,-26 v 0 c 14.6,-15.6 22.9,-36.7 26,-60.1 3,-22.3 2.2,-37.6 2.2,-37.6 0,0 0.8,-15.2 -2.2,-37.6"
   id="path10"
   inkscape:connector-curvature="0"
   style="opacity:0.9;fill:#fefefe;fill-opacity:1" /><polygon
   points="9.4,63.3 0,7.3 17.5,0.1 28.6,6.7 38.8,1.2 60.1,9.4 48.1,70 "
   id="polygon7"
   style="fill:url(#c)"
   transform="matrix(2.5714286,0,0,2.5714286,38,44)" /><polygon
   points="62.3,31.7 70,23.7 61,1.4 44.6,0 19.3,24.3 26.1,55.6 38.8,64.6 70,46 "
   id="polygon14"
   style="fill:url(#b)"
   transform="matrix(2.5714286,0,0,2.5714286,38,44)" /><polygon
   points="64.4,9.8 56,20.4 62.3,31.7 70,23.7 "
   id="polygon21"
   style="fill:url(#a)"
   transform="matrix(2.5714286,0,0,2.5714286,38,44)" /><rect
   x="72.457146"
   y="78.457138"
   width="111.08572"
   height="111.08572"
   id="rect23"
   style="stroke-width:2.57142854" /><rect
   x="83"
   y="168.71428"
   width="41.657146"
   height="6.9428573"
   id="rect25"
   style="fill:#ffffff;stroke-width:2.57142854" /><path
   d="m 137.51429,132.2 5.91428,-7.2 c 4.11429,3.34286 8.48572,5.65714 13.62857,5.65714 4.11429,0 6.42857,-1.54285 6.42857,-4.37143 v -0.25714 c 0,-2.57143 -1.54285,-3.85714 -9.25714,-5.91428 -9.25714,-2.31429 -14.91428,-4.88572 -14.91428,-14.14286 v -0.25714 c 0,-8.485719 6.68571,-13.885719 15.94285,-13.885719 6.68572,0 12.34286,2.057143 16.97143,5.914286 l -5.14286,7.714283 c -4.11428,-2.82857 -7.97142,-4.62857 -11.82857,-4.62857 -3.85714,0 -5.91428,1.8 -5.91428,4.11429 V 105.2 c 0,3.08571 2.05714,4.11429 9.77143,6.17143 9.25714,2.57143 14.4,5.91428 14.4,13.88571 v 0.25715 c 0,9.25714 -6.94286,14.4 -16.71429,14.4 -6.94286,-0.25715 -13.88571,-2.82858 -19.28571,-7.71429"
   id="path27"
   inkscape:connector-curvature="0"
   style="fill:#ffffff;stroke-width:2.57142854" /><polygon
   points="21.7,36.9 25,36.9 28,26.5 30.9,36.9 34.3,36.9 39.4,19 35.2,19 32.5,29.4 29.5,19 26.5,19 23.4,29.4 20.7,19 16.6,19 "
   id="polygon29"
   transform="matrix(2.5714286,0,0,2.5714286,38,44)"
   style="fill:#ffffff" /></svg>