<?xml version="1.0" encoding="UTF-8" standalone="no"?>
<svg
   width="256"
   height="256"
   version="1.1"
   id="svg73"
   sodipodi:docname="calligrawords.svg"
   inkscape:version="1.1 (c4e8f9ed74, 2021-05-24)"
   xmlns:inkscape="http://www.inkscape.org/namespaces/inkscape"
   xmlns:sodipodi="http://sodipodi.sourceforge.net/DTD/sodipodi-0.dtd"
   xmlns:xlink="http://www.w3.org/1999/xlink"
   xmlns="http://www.w3.org/2000/svg"
   xmlns:svg="http://www.w3.org/2000/svg">
  <sodipodi:namedview
     id="namedview75"
     pagecolor="#ffffff"
     bordercolor="#666666"
     borderopacity="1.0"
     inkscape:pageshadow="2"
     inkscape:pageopacity="0.0"
     inkscape:pagecheckerboard="0"
     showgrid="false"
     showguides="false"
     inkscape:zoom="1.640625"
     inkscape:cx="25.6"
     inkscape:cy="245.02857"
     inkscape:window-width="1920"
     inkscape:window-height="1026"
     inkscape:window-x="0"
     inkscape:window-y="30"
     inkscape:window-maximized="1"
     inkscape:current-layer="svg73" />
  <defs
     id="defs39">
    <linearGradient
       id="a"
       y1="44"
       x1="27"
       y2="33"
       x2="19"
       gradientUnits="userSpaceOnUse"
       gradientTransform="matrix(1,0,0,1.25,-5,-6)">
      <stop
         stop-color="#18222a"
         id="stop2" />
      <stop
         offset="1"
         stop-color="#566069"
         id="stop4" />
    </linearGradient>
    <linearGradient
       id="b"
       y1="36"
       y2="32"
       x2="0"
       gradientUnits="userSpaceOnUse"
       gradientTransform="translate(-4.5,4)">
      <stop
         stop-color="#f39c12"
         id="stop7" />
      <stop
         offset="1"
         stop-color="#f5ab35"
         id="stop9" />
    </linearGradient>
    <linearGradient
       id="c"
       y1="543.79999"
       y2="503.79999"
       gradientUnits="userSpaceOnUse"
       x2="0"
       gradientTransform="matrix(5.625,0,0,5,-2170.2,-2491)">
      <stop
         stop-color="#bd8d48"
         id="stop12" />
      <stop
         offset="1"
         stop-color="#e8b971"
         id="stop14" />
    </linearGradient>
    <linearGradient
       id="d"
       y1="541.79999"
       y2="505.79999"
       gradientUnits="userSpaceOnUse"
       x2="0"
       gradientTransform="matrix(5,0,0,5,-1914.85,-2491)">
      <stop
         stop-color="#d8dcde"
         id="stop17" />
      <stop
         offset="1"
         stop-color="#f9fafb"
         id="stop19" />
    </linearGradient>
    <linearGradient
       id="e"
       y1="542.79999"
       y2="504.79999"
       gradientUnits="userSpaceOnUse"
       x2="0"
       gradientTransform="matrix(5,0,0,5,-1914.85,-2491)">
      <stop
         stop-color="#977a5c"
         id="stop22" />
      <stop
         offset="1"
         stop-color="#9d8062"
         id="stop24" />
    </linearGradient>
    <linearGradient
       id="f"
       y1="4"
       x1="11"
       y2="22.129999"
       x2="29.129999"
       gradientUnits="userSpaceOnUse"
       gradientTransform="translate(7,4)">
      <stop
         id="stop27" />
      <stop
         offset="1"
         stop-opacity="0"
         id="stop29" />
    </linearGradient>
    <linearGradient
       id="g"
       y1="4"
       x1="8"
       y2="32"
       x2="21"
       gradientUnits="userSpaceOnUse"
       gradientTransform="translate(7,4)">
      <stop
         stop-color="#bdc3c7"
         id="stop32" />
      <stop
         offset="1"
         stop-color="#7f8c8d"
         id="stop34" />
    </linearGradient>
    <linearGradient
       xlink:href="#f"
       id="h"
       y1="8.7729998"
       x1="21.57"
       y2="29.200001"
       x2="42"
       gradientUnits="userSpaceOnUse" />
    <linearGradient
       xlink:href="#f"
       id="i"
       y1="39"
       x1="14"
       y2="46"
       x2="21"
       gradientUnits="userSpaceOnUse"
       gradientTransform="matrix(5,0,0,5,8,8)" />
    <linearGradient
       inkscape:collect="always"
       xlink:href="#f"
       id="linearGradient903"
       gradientUnits="userSpaceOnUse"
       gradientTransform="translate(7,4)"
       x1="11"
       y1="4"
       x2="29.129999"
       y2="22.129999" />
  </defs>
  <path
     style="opacity:0.1"
     d="m 132.79987,0.5 c 6.2,0 18.1,0.3 33.3,2.3 23.7,3.1 45.1,11.5 60.8,26.3 v 0 c 14.7,15.7 23.1,37.1 26.2,60.9 3,22.6 2.3,38 2.3,38 0,0 0.7,15.4 -2.3,38 -3.1,23.7 -11.5,45.1 -26.3,60.9 v 0 c -15.7,14.8 -37.1,23.1 -60.8,26.3 -15.1,2 -27,2.3 -33.2,2.3 -3.1,0 -4.7,-0.1 -4.7,-0.1 0,0 -1.7,0.1 -4.7,0.1 -6.2,0 -18.1,-0.3 -33.200002,-2.3 -23.7,-3.1 -45.1,-11.5 -60.8,-26.3 v 0 c -15,-15.7 -23.4000002,-37.1 -26.5000002,-60.9 -3.00000003,-22.6 -2.30000003,-38 -2.30000003,-38 0,0 -0.7,-15.4 2.30000003,-38 3.1,-23.8 11.5000002,-45.2 26.3000002,-60.9 v 0 c 15.6,-14.8 37.1,-23.2 60.7,-26.3 15.100002,-2 27.000002,-2.3 33.300002,-2.3 3.1,0 4.7,0.1 4.7,0.1 0,0 1.8,-0.1 4.9,-0.1"
     id="path4"
     inkscape:connector-curvature="0" />
  <path
     style="opacity:0.9;fill:#fafafa"
     inkscape:connector-curvature="0"
     id="path10"
     d="m 251.69967,90.40021 c -3.1,-23.4 -11.4,-44.6 -26,-60.1 v 0 c -15.6,-14.6 -36.7,-22.9 -60.1,-26 -22.4,-3 -37.6,-2.3 -37.6,-2.3 0,0 -15.2,-0.7 -37.600016,2.3 -23.4,3.1 -44.6,11.4 -60.1,26 -14.6,15.5 -22.7999992,36.7 -25.9999992,60.1 -3,22.3 -2.2,37.6 -2.2,37.6 0,0 -0.7,15.2 2.2,37.6 3.1,23.4 11.3999992,44.6 25.9999992,60.1 v 0 c 15.6,14.6 36.7,22.9 60.1,26 22.300016,3 37.600016,2.2 37.600016,2.2 0,0 15.2,0.7 37.6,-2.2 23.4,-3.1 44.6,-11.4 60.1,-26 v 0 c 14.6,-15.6 22.9,-36.7 26,-60.1 3,-22.3 2.2,-37.6 2.2,-37.6 0,0 0.8,-15.2 -2.2,-37.6"
     class="st1" />
  <rect
     width="180"
     x="38"
     y="28"
     fill="url(#c)"
     rx="0"
     height="200"
     id="rect41"
     style="fill:url(#c);stroke-width:5" />
  <rect
     width="170"
     x="43"
     opacity="0.5"
     y="33"
     fill="url(#e)"
     height="190"
     id="rect43"
     style="fill:url(#e);stroke-width:5" />
  <rect
     width="180"
     x="38"
     y="223"
     fill="#aa7f41"
     height="5"
     id="rect45"
     style="stroke-width:5" />
  <rect
     width="160"
     x="48"
     y="38"
     fill="url(#d)"
     height="180"
     id="rect47"
     style="fill:url(#d);stroke-width:5" />
  <g
     fill="#1f1f1f"
     fill-opacity="0.314"
     id="g53"
     transform="matrix(5,0,0,5,8,8)">
    <rect
       width="32"
       x="8"
       y="40"
       height="2"
       id="rect49" />
    <rect
       width="32"
       x="8"
       y="41"
       height="1"
       id="rect51" />
  </g>
  <g
     fill-rule="evenodd"
     id="g59"
     transform="matrix(5,0,0,5,8,8)">
    <path
       opacity="0.2"
       fill="url(#h)"
       d="M 21.57,8.773 21,10 22,44 H 42 V 29.203 Z"
       id="path55"
       style="fill:url(#h)" />
    <path
       opacity="0.2"
       fill="url(#f)"
       d="m 18,8 2,2 2,20 -7,2 z"
       id="path57"
       style="fill:url(#linearGradient903)" />
  </g>
  <g
     stroke-linejoin="bevel"
     id="g69"
     transform="matrix(5,0,0,5,8,8)">
    <path
       fill="url(#g)"
       stroke-width="2"
       d="m 18,8 a 2,2 0 0 0 -2,2 2,2 0 0 0 0.855469,1.636719 C 15.389,16.06 12.71,23.29 10,26 c 0,0 4,6 4,10 H 24 C 24,32 28,26 28,26 25.29,23.29 22.613,16.07 21.15,11.639 A 2,2 0 0 0 22,10 2,2 0 0 0 20,8 v 18.27 c 0.618,0.357 0.999,1.017 1,1.73 0,1.105 -0.895,2 -2,2 -1.105,0 -2,-0.895 -2,-2 0.001,-0.713 0.382,-1.372 1,-1.729 V 12 Z"
       id="path61"
       style="fill:url(#g)" />
    <g
       stroke-width="6.2"
       id="g67">
      <path
         fill="url(#b)"
         d="m 14,36 h 10 c 0.831,0 1.5,0.669 1.5,1.5 0,0.831 -0.669,1.5 -1.5,1.5 H 14 c -0.831,0 -1.5,-0.669 -1.5,-1.5 0,-0.831 0.669,-1.5 1.5,-1.5"
         id="path63"
         style="fill:url(#b)" />
      <rect
         width="10"
         x="14"
         y="39"
         fill="url(#a)"
         rx="0"
         height="5"
         stroke-linecap="round"
         id="rect65"
         style="fill:url(#a)" />
    </g>
  </g>
  <path
     opacity="0.2"
     fill="url(#i)"
     fill-rule="evenodd"
     d="m 78,203 25,25 h 25 v -25 z"
     id="path71"
     style="fill:url(#i);stroke-width:5" />
</svg>
