<?xml version="1.0" encoding="UTF-8" standalone="no"?>
<!-- Generator: Adobe Illustrator 23.0.0, SVG Export Plug-In . SVG Version: 6.00 Build 0)  -->

<svg
   xmlns:dc="http://purl.org/dc/elements/1.1/"
   xmlns:cc="http://creativecommons.org/ns#"
   xmlns:rdf="http://www.w3.org/1999/02/22-rdf-syntax-ns#"
   xmlns:svg="http://www.w3.org/2000/svg"
   xmlns="http://www.w3.org/2000/svg"
   xmlns:sodipodi="http://sodipodi.sourceforge.net/DTD/sodipodi-0.dtd"
   xmlns:inkscape="http://www.inkscape.org/namespaces/inkscape"
   version="1.1"
   id="레이어_1"
   x="0px"
   y="0px"
   viewBox="0 0 256 256"
   style="enable-background:new 0 0 256 256;"
   xml:space="preserve"
   sodipodi:docname="workspace-switcher-top-left.svg"
   inkscape:version="0.92.5 (2060ec1f9f, 2020-04-08)"><metadata
   id="metadata17"><rdf:RDF><cc:Work
       rdf:about=""><dc:format>image/svg+xml</dc:format><dc:type
         rdf:resource="http://purl.org/dc/dcmitype/StillImage" /><dc:title></dc:title></cc:Work></rdf:RDF></metadata><defs
   id="defs15" /><sodipodi:namedview
   pagecolor="#ffffff"
   bordercolor="#666666"
   borderopacity="1"
   objecttolerance="10"
   gridtolerance="10"
   guidetolerance="10"
   inkscape:pageopacity="0"
   inkscape:pageshadow="2"
   inkscape:window-width="1920"
   inkscape:window-height="1004"
   id="namedview13"
   showgrid="false"
   inkscape:zoom="1.4142136"
   inkscape:cx="-37.95646"
   inkscape:cy="55.371657"
   inkscape:window-x="0"
   inkscape:window-y="0"
   inkscape:window-maximized="1"
   inkscape:current-layer="레이어_1" />
<style
   type="text/css"
   id="style2">
	.st0{fill:#5D7E95;}
	.st1{fill:#FFFFFF;}
</style>
<path
   class="st0"
   d="M251.7,90.4c-3.1-23.4-11.4-44.6-26-60.1l0,0c-15.6-14.6-36.7-22.9-60.1-26C143.2,1.3,128,2,128,2  s-15.2-0.7-37.6,2.3C67,7.4,45.8,15.7,30.3,30.3C15.7,45.8,7.5,67,4.3,90.4c-3,22.3-2.2,37.6-2.2,37.6s-0.7,15.2,2.2,37.6  c3.1,23.4,11.4,44.6,26,60.1l0,0c15.6,14.6,36.7,22.9,60.1,26c22.3,3,37.6,2.2,37.6,2.2s15.2,0.7,37.6-2.2  c23.4-3.1,44.6-11.4,60.1-26l0,0c14.6-15.6,22.9-36.7,26-60.1c3-22.3,2.2-37.6,2.2-37.6S254.7,112.8,251.7,90.4"
   id="path4"
   style="fill:#28b9d8;fill-opacity:1" />



<path
   style="opacity:1;fill:#ffffff;fill-opacity:1;stroke-width:1.04528475"
   d="M 147.55664 68.884766 L 147.55664 78.884766 L 197.55664 78.884766 L 197.55664 178.88477 L 57.556641 178.88477 L 57.556641 148.88477 L 47.556641 148.88477 L 47.556641 179.33789 C 47.556641 184.62634 51.813111 188.88477 57.101562 188.88477 L 198.00977 188.88477 C 203.29822 188.88477 207.55664 184.62634 207.55664 179.33789 L 207.55664 78.431641 C 207.55664 73.143189 203.29822 68.884766 198.00977 68.884766 L 147.55664 68.884766 z "
   id="rect814" /><path
   style="opacity:1;fill:#ffffff;fill-opacity:1;stroke-width:0.88083035"
   d="M 44.056999,58.88501 H 121.057 c 3.601,0 6.5,2.899 6.5,6.5 v 57 c 0,3.601 -2.899,6.5 -6.5,6.5 H 44.056999 c -3.601,0 -6.5,-2.899 -6.5,-6.5 v -57 c 0,-3.601 2.899,-6.5 6.5,-6.5 z"
   id="rect835-6" /></svg>