<?xml version="1.0" encoding="utf-8"?>
<!-- Generator: Adobe Illustrator 23.0.0, SVG Export Plug-In . SVG Version: 6.00 Build 0)  -->
<svg version="1.1" id="레이어_1" xmlns="http://www.w3.org/2000/svg" xmlns:xlink="http://www.w3.org/1999/xlink" x="0px"
	 y="0px" viewBox="0 0 256 256" style="enable-background:new 0 0 256 256;" xml:space="preserve">
<style type="text/css">
	.st0{fill:#CC3333;}
	.st1{fill:#FFFFFF;}
</style>
<path class="st0" d="M251.7,90.4c-3.1-23.4-11.4-44.6-26-60.1l0,0c-15.6-14.6-36.7-22.9-60.1-26C143.2,1.3,128,2,128,2
	s-15.2-0.7-37.6,2.3C67,7.4,45.8,15.7,30.3,30.3C15.7,45.8,7.5,67,4.3,90.4c-3,22.3-2.2,37.6-2.2,37.6s-0.7,15.2,2.2,37.6
	c3.1,23.4,11.4,44.6,26,60.1l0,0c15.6,14.6,36.7,22.9,60.1,26c22.3,3,37.6,2.2,37.6,2.2s15.2,0.7,37.6-2.2
	c23.4-3.1,44.6-11.4,60.1-26l0,0c14.6-15.6,22.9-36.7,26-60.1c3-22.3,2.2-37.6,2.2-37.6S254.7,112.8,251.7,90.4"/>
<path id="path2697" class="st1" d="M56,197.8c-8.3-8.3,0.7-19.6,24.9-31.7l15.3-7.6l5.9-13c3.3-7.2,8.1-18.8,10.8-25.9l4.9-12.9
	l-3.4-9.6c-4.2-11.8-5.6-29.4-3-35.8c3.6-8.6,15.3-7.7,19.9,1.5c3.6,7.2,3.2,20.3-1,36.7l-3.5,13.5l3.1,5.2c1.7,2.9,6.7,9.7,11,15.2
	l8.2,10.2l10.2-1.3c32.5-4.2,43.6,3,43.6,13.3c0,13-25.5,14.1-46.9-0.9c-4.8-3.4-8.1-6.7-8.1-6.7s-13.4,2.7-20,4.5
	c-6.8,1.8-10.2,3-20.2,6.4c0,0-3.5,5.1-5.8,8.8c-8.5,13.8-18.4,25.2-25.5,29.3C68.5,201.6,60.2,201.9,56,197.8z M69,193.1
	c4.6-2.9,14-14,20.5-24.3l2.6-4.2l-12,6c-18.5,9.3-27,18.1-22.6,23.4C60,197.1,63,196.8,69,193.1L69,193.1z M189.3,159.4
	c4.5-3.2,3.9-9.6-1.3-12.2c-4-2-7.2-2.4-17.6-2.3c-6.4,0.4-16.6,1.7-18.4,2.1c0,0,5.6,3.9,8.1,5.3c3.3,1.9,11.4,5.4,17.3,7.2
	C183.3,161.4,186.7,161.2,189.3,159.4L189.3,159.4z M140.9,139.3c-2.7-2.9-7.4-8.9-10.4-13.4c-3.9-5.1-5.8-8.7-5.8-8.7
	s-2.8,9.1-5.2,14.6l-7.2,17.9l-2.1,4.1c0,0,11.2-3.7,16.9-5.1c6-1.6,18.2-4,18.2-4L140.9,139.3z M125.3,76.8
	c0.7-5.9,1-11.8-0.9-14.7c-5.2-5.7-11.6-1-10.5,12.7c0.4,4.6,1.5,12.4,3,17.2l2.8,8.8l1.9-6.6C122.7,90.5,124.4,82.7,125.3,76.8
	L125.3,76.8z"/>
</svg>
