<?xml version="1.0" encoding="UTF-8" standalone="no"?>
<svg
   xmlns:dc="http://purl.org/dc/elements/1.1/"
   xmlns:cc="http://creativecommons.org/ns#"
   xmlns:rdf="http://www.w3.org/1999/02/22-rdf-syntax-ns#"
   xmlns:svg="http://www.w3.org/2000/svg"
   xmlns="http://www.w3.org/2000/svg"
   xmlns:sodipodi="http://sodipodi.sourceforge.net/DTD/sodipodi-0.dtd"
   xmlns:inkscape="http://www.inkscape.org/namespaces/inkscape"
   version="1.1"
   id="레이어_1"
   x="0px"
   y="0px"
   viewBox="0 0 256 256"
   style="enable-background:new 0 0 256 256;"
   xml:space="preserve"
   sodipodi:docname="application-ogg.svg"
   inkscape:version="1.0.2 (e86c870879, 2021-01-15)"><metadata
   id="metadata29"><rdf:RDF><cc:Work
       rdf:about=""><dc:format>image/svg+xml</dc:format><dc:type
         rdf:resource="http://purl.org/dc/dcmitype/StillImage" /></cc:Work></rdf:RDF></metadata><defs
   id="defs27">
	
	

		
		
	
			
			
		
				
				
				
				
			</defs><sodipodi:namedview
   pagecolor="#ffffff"
   bordercolor="#666666"
   borderopacity="1"
   objecttolerance="10"
   gridtolerance="10"
   guidetolerance="10"
   inkscape:pageopacity="0"
   inkscape:pageshadow="2"
   inkscape:window-width="1852"
   inkscape:window-height="1048"
   id="namedview25"
   showgrid="false"
   inkscape:zoom="3.2773438"
   inkscape:cx="128"
   inkscape:cy="128"
   inkscape:window-x="68"
   inkscape:window-y="32"
   inkscape:window-maximized="1"
   inkscape:current-layer="레이어_1" />
<style
   type="text/css"
   id="style2">
	.st0{fill:#0181CA;}
	.st1{fill:#FFFFFF;}
	.st2{fill:#0047B9;}
</style>
<path
   class="st0"
   d="M 251.7,90.4 C 248.6,67 240.3,45.8 225.7,30.3 v 0 C 210.1,15.7 189,7.4 165.6,4.3 143.2,1.3 128,2 128,2 128,2 112.8,1.3 90.4,4.3 67,7.4 45.8,15.7 30.3,30.3 15.7,45.8 7.5,67 4.3,90.4 1.3,112.7 2.1,128 2.1,128 c 0,0 -0.7,15.2 2.2,37.6 3.1,23.4 11.4,44.6 26,60.1 v 0 c 15.6,14.6 36.7,22.9 60.1,26 22.3,3 37.6,2.2 37.6,2.2 0,0 15.2,0.7 37.6,-2.2 23.4,-3.1 44.6,-11.4 60.1,-26 v 0 c 14.6,-15.6 22.9,-36.7 26,-60.1 3,-22.3 2.2,-37.6 2.2,-37.6 0,0 0.8,-15.2 -2.2,-37.6"
   id="path4" /><path
   id="path6"
   d="M 112.69922 61 L 112.69922 130.67578 A 33.599998 33.599998 0 0 0 99.099609 127.80078 A 33.599998 33.599998 0 0 0 65.5 161.40039 A 33.599998 33.599998 0 0 0 99.099609 195 A 33.599998 33.599998 0 0 0 132.69922 161.40039 A 33.599998 33.599998 0 0 0 132.62695 159.19922 L 132.69922 159.19922 L 132.69922 81.134766 C 138.01122 81.579858 149.22276 83.54879 158.80078 92.699219 C 166.60078 100.09922 169.4 108.59961 170.5 112.59961 L 170.5 136 L 190.5 136 L 190.5 121 C 190.4 116.8 190.29922 112.50078 190.19922 108.30078 C 188.59922 102.40078 184.40039 89.699609 172.90039 78.599609 C 157.84038 64.167099 140.05772 61.642233 132.69922 61.126953 L 132.69922 61 L 112.69922 61 z "
   style="fill:#ffffff;fill-opacity:1" /><circle
   class="st2"
   cx="99.099998"
   cy="161.39999"
   r="15.6"
   id="circle16" />

</svg>
