<?xml version="1.0" encoding="utf-8"?>
<!-- Generator: Adobe Illustrator 23.0.0, SVG Export Plug-In . SVG Version: 6.00 Build 0)  -->
<svg version="1.1" id="레이어_1" xmlns="http://www.w3.org/2000/svg" xmlns:xlink="http://www.w3.org/1999/xlink" x="0px"
	 y="0px" viewBox="0 0 256 256" style="enable-background:new 0 0 256 256;" xml:space="preserve">
<style type="text/css">
	.st0{fill:#E96C89;}
	.st1{fill:#3459B5;}
	.st2{fill:#FFFFFF;}
</style>
<path class="st0" d="M251.7,90.4c-3.1-23.4-11.4-44.6-26-60.1l0,0c-15.6-14.6-36.7-22.9-60.1-26C143.2,1.3,128,2,128,2
	s-15.2-0.7-37.6,2.3C67,7.4,45.8,15.7,30.3,30.3C15.7,45.8,7.5,67,4.3,90.4c-3,22.3-2.2,37.6-2.2,37.6s-0.7,15.2,2.2,37.6
	c3.1,23.4,11.4,44.6,26,60.1l0,0c15.6,14.6,36.7,22.9,60.1,26c22.3,3,37.6,2.2,37.6,2.2s15.2,0.7,37.6-2.2
	c23.4-3.1,44.6-11.4,60.1-26l0,0c14.6-15.6,22.9-36.7,26-60.1c3-22.3,2.2-37.6,2.2-37.6S254.7,112.8,251.7,90.4"/>
<path class="st1" d="M251.7,90.4c-3.1-23.4-11.4-44.6-26-60.1l0,0c-15.6-14.6-36.7-22.9-60.1-26C143.2,1.3,128,2,128,2
	s-15.2-0.7-37.6,2.3C67,7.4,45.8,15.7,30.3,30.3C15.7,45.8,7.5,67,4.3,90.4c-3,22.3-2.2,37.6-2.2,37.6s-0.7,15.2,2.2,37.6
	c3.1,23.4,11.4,44.6,26,60.1l0,0c15.6,14.6,36.7,22.9,60.1,26c22.3,3,37.6,2.2,37.6,2.2s15.2,0.7,37.6-2.2
	c23.4-3.1,44.6-11.4,60.1-26l0,0c14.6-15.6,22.9-36.7,26-60.1c3-22.3,2.2-37.6,2.2-37.6S254.7,112.8,251.7,90.4"/>
<g>
	<path class="st2" d="M86,159.1l-15.1-25.7l-15,25.7h-8.3l19.3-31.4L48.1,96.9h8.4l14.5,24.8L86,96.9h8.3L75,127.4l19.3,31.7H86z"/>
	<path class="st2" d="M161.5,96.9v62.2h-7v-51L137,146.2h-7.5l-17.4-38.2v51h-6.9V96.9h8.6l19.6,42.5l19.4-42.5H161.5z"/>
	<path class="st2" d="M212.5,152.6v6.5h-34.6V96.9h7.1v55.7H212.5z"/>
</g>
</svg>
