<?xml version="1.0" encoding="utf-8"?>
<!-- Generator: Adobe Illustrator 23.0.0, SVG Export Plug-In . SVG Version: 6.00 Build 0)  -->
<svg version="1.1" id="레이어_1" xmlns="http://www.w3.org/2000/svg" xmlns:xlink="http://www.w3.org/1999/xlink" x="0px"
	 y="0px" viewBox="0 0 256 256" style="enable-background:new 0 0 256 256;" xml:space="preserve">
<style type="text/css">
	.st0{fill:#3459B5;}
	.st1{fill:#FFFFFF;}
</style>
<path class="st0" d="M251.7,90.4c-3.1-23.4-11.4-44.6-26-60.1l0,0c-15.6-14.6-36.7-22.9-60.1-26C143.2,1.3,128,2,128,2
	s-15.2-0.7-37.6,2.3C67,7.4,45.8,15.7,30.3,30.3C15.7,45.8,7.5,67,4.3,90.4c-3,22.3-2.2,37.6-2.2,37.6s-0.7,15.2,2.2,37.6
	c3.1,23.4,11.4,44.6,26,60.1l0,0c15.6,14.6,36.7,22.9,60.1,26c22.3,3,37.6,2.2,37.6,2.2s15.2,0.7,37.6-2.2
	c23.4-3.1,44.6-11.4,60.1-26l0,0c14.6-15.6,22.9-36.7,26-60.1c3-22.3,2.2-37.6,2.2-37.6S254.7,112.8,251.7,90.4"/>
<g>
	<path class="st1" d="M74.2,98.8v58.5h-6.7v-26.7H39.7v26.7H33V98.8h6.7v25.8h27.8V98.8H74.2z"/>
	<path class="st1" d="M122.1,104.9h-15.5v52.3h-6.7v-52.3H84.4v-6.1h37.7V104.9z"/>
	<path class="st1" d="M185.1,98.8v58.5h-6.5v-48l-16.5,35.9h-7l-16.4-35.9v48h-6.5V98.8h8.1l18.4,39.9l18.3-39.9H185.1z"/>
	<path class="st1" d="M233,151.1v6.1h-32.6V98.8h6.7v52.3H233z"/>
</g>
</svg>
